<svg xmlns="http://www.w3.org/2000/svg" width="472" height="302" viewBox="0 0 472 302"><g transform="translate(-245 -3715)"><g transform="translate(245 3877)" fill="none" stroke="#fff" stroke-width="1"><rect width="36" height="140" stroke="none"/><rect x="0.5" y="0.5" width="35" height="139" fill="none"/></g><g transform="translate(494 3877)" fill="none" stroke="#fff" stroke-width="1"><rect width="36" height="140" stroke="none"/><rect x="0.5" y="0.5" width="35" height="139" fill="none"/></g><g transform="translate(307 3819)" fill="none" stroke="#fff" stroke-width="1"><rect width="37" height="198" stroke="none"/><rect x="0.5" y="0.5" width="36" height="197" fill="none"/></g><g transform="translate(556 3819)" fill="none" stroke="#fff" stroke-width="1"><rect width="37" height="198" stroke="none"/><rect x="0.5" y="0.5" width="36" height="197" fill="none"/></g><g transform="translate(369 3854)" fill="none" stroke="#fff" stroke-width="1"><rect width="37" height="163" stroke="none"/><rect x="0.5" y="0.5" width="36" height="162" fill="none"/></g><g transform="translate(618 3715)" fill="none" stroke="#fff" stroke-width="1"><rect width="37" height="302" stroke="none"/><rect x="0.5" y="0.5" width="36" height="301" fill="none"/></g><g transform="translate(432 3755)" fill="none" stroke="#fff" stroke-width="1"><rect width="36" height="262" stroke="none"/><rect x="0.5" y="0.5" width="35" height="261" fill="none"/></g><g transform="translate(681 3755)" fill="none" stroke="#fff" stroke-width="1"><rect width="36" height="262" stroke="none"/><rect x="0.5" y="0.5" width="35" height="261" fill="none"/></g></g></svg>