<svg xmlns="http://www.w3.org/2000/svg" width="422.671" height="295.727" viewBox="0 0 422.671 295.727"><g transform="translate(-1274.567 -434.054)"><path d="M-12535.362,1454.728a15.639,15.639,0,0,1-15.639-15.639c0-6.492,28.15-72.252,31.225-78.057V1177.764a18.756,18.756,0,0,1,5.478-13.267,18.749,18.749,0,0,1,13.261-5.5h274.862a18.741,18.741,0,0,1,13.258,5.5,18.747,18.747,0,0,1,5.481,13.267v183.267c3.074,5.805,31.222,71.565,31.222,78.057a15.637,15.637,0,0,1-15.637,15.639Zm136.954-15.611h69.656l-7.288-15.611h-55.079Zm-106.419-93.7h279.605V1175.963h-279.605Z" transform="translate(13855.121 -724.946)" fill="#fff"/><rect width="96.109" height="46.252" transform="translate(1570.129 539.203)" stroke="#fff" stroke-miterlimit="10" stroke-width="3"/><rect width="96.109" height="46.252" transform="translate(1304.121 546.039)" stroke="#fff" stroke-miterlimit="10" stroke-width="3"/><rect width="96.109" height="46.252" transform="translate(1599.63 463.276)" stroke="#fff" stroke-miterlimit="10" stroke-width="3"/><rect width="96.109" height="46.252" transform="translate(1276.067 473.776)" stroke="#fff" stroke-miterlimit="10" stroke-width="3"/><text transform="translate(1618.184 493.402)" fill="#fff" font-size="20" font-family="Montserrat-Regular, Montserrat"><tspan x="0" y="0">HTML</tspan></text><text transform="translate(1596.684 569.329)" fill="#fff" font-size="20" font-family="Montserrat-Regular, Montserrat"><tspan x="0" y="0">PHP</tspan></text><text transform="translate(1332.176 576.165)" fill="#fff" font-size="20" font-family="Montserrat-Regular, Montserrat"><tspan x="0" y="0">CSS</tspan></text><text transform="translate(1313.121 503.402)" fill="#fff" font-size="19" font-family="Montserrat-Regular, Montserrat"><tspan x="0" y="0">JS</tspan></text></g></svg>