<svg width="140" height="165" viewBox="0 0 140 165" fill="none" xmlns="http://www.w3.org/2000/svg">
<path id="egg-right" d="M73.2706 151.087C68.9859 152.515 64.5803 153.551 60.1083 154.183L68.0122 124.387L47.3791 112.566L56.5521 80.5578L33.4144 61.5696L52.539 30.1215L28.5736 9.72144C37.8699 6.74526 47.6624 5.63374 57.3893 6.45066C67.1161 7.26758 76.586 9.99685 85.2557 14.4819C93.9254 18.967 101.624 25.1196 107.911 32.5868C114.197 40.0541 118.948 48.689 121.889 57.9962C124.831 67.3035 125.907 77.1001 125.054 86.8238C124.201 96.5476 121.436 106.007 116.919 114.66C112.402 123.313 106.221 130.99 98.7308 137.248C91.2403 143.507 82.5879 148.226 73.2698 151.133L73.2706 151.087Z" fill="white"/>
</svg>
