<svg width="243" height="243" viewBox="0 0 243 243" fill="none" xmlns="http://www.w3.org/2000/svg">
<g id="egg">
<path id="egg-right" d="M142.185 194.69C137.901 196.118 133.495 197.154 129.023 197.786L136.927 167.99L116.294 156.169L125.467 124.161L102.329 105.173L121.454 73.7246L97.4884 53.3245C106.785 50.3484 116.577 49.2368 126.304 50.0537C136.031 50.8707 145.501 53.5999 154.171 58.085C162.84 62.5701 170.539 68.7227 176.826 76.1899C183.112 83.6572 187.862 92.2921 190.804 101.599C193.746 110.907 194.821 120.703 193.968 130.427C193.116 140.151 190.351 149.61 185.834 158.263C181.317 166.917 175.136 174.593 167.646 180.851C160.155 187.11 151.503 191.829 142.185 194.736L142.185 194.69Z" fill="white"/>
<path id="egg-left" d="M128.998 197.844C110.643 200.152 92.0886 195.517 76.9756 184.848C61.8626 174.18 51.2823 158.248 47.3112 140.181C43.34 122.113 46.2648 103.213 55.5114 87.1905C64.7581 71.1681 79.6589 59.1798 97.2897 53.5785C98.0169 53.3473 98.7358 53.1328 99.4663 52.9248L123.146 73.6717L103.593 104.863L126.466 124.169L116.854 156.047L137.322 168.152L128.998 197.844Z" fill="white"/>
</g>
</svg>
