<svg xmlns="http://www.w3.org/2000/svg" width="165.235" height="31.989" viewBox="0 0 165.235 31.989"><g transform="translate(-102.3 -101.83)"><path d="M115.228,106.839c-1.945,0-2.508.863-2.508,2.766v3.157h5.189l-.52,5.1h-4.667v15.478H106.5V117.863h-4.2v-5.1h4.2v-3.07c0-5.145,2.074-7.862,7.862-7.862a29.467,29.467,0,0,1,3.629.216v4.8Z" transform="translate(0 0)" fill="#fff"/><path d="M181.87,163.96c0-5.749,2.724-10.08,8.431-10.08a6.118,6.118,0,0,1,5.923,3.588v-3.149h5.965V174.9h-5.965v-3.113a6.043,6.043,0,0,1-5.923,3.546c-5.707,0-8.431-4.324-8.431-10.08Zm6.225,1.385c0,3.068,1.123,5.1,4.02,5.1,2.552,0,3.848-1.859,3.848-4.8v-2.066c0-2.939-1.3-4.8-3.848-4.8-2.9,0-4.02,2.032-4.02,5.1Z" transform="translate(-63.529 -41.557)" fill="#fff"/><path d="M304.876,153.91a11.387,11.387,0,0,1,5.965,1.383l-1.383,4.411a9.8,9.8,0,0,0-4.151-.952c-3.373,0-4.838,1.945-4.838,5.276v1.21c0,3.33,1.47,5.276,4.838,5.276a9.8,9.8,0,0,0,4.151-.952l1.383,4.409a11.361,11.361,0,0,1-5.965,1.385c-7.308,0-10.636-3.935-10.636-10.247v-.952C294.24,157.845,297.568,153.91,304.876,153.91Z" transform="translate(-153.246 -41.581)" fill="#fff"/><path d="M380.66,165.491v-1.814c0-5.836,3.328-9.677,10.118-9.677,6.4,0,9.209,3.891,9.209,9.6v3.286h-13.1c.131,2.81,1.385,4.064,4.838,4.064a17.681,17.681,0,0,0,6.616-1.254l1.139,4.264a20.046,20.046,0,0,1-8,1.514C383.6,175.47,380.66,171.539,380.66,165.491Zm6.225-2.681h7.524v-.518c0-2.248-.907-4.032-3.629-4.032-2.812,0-3.895,1.776-3.895,4.542Z" transform="translate(-222.244 -41.653)" fill="#fff"/><path d="M509.874,123.837c0,5.749-2.766,10.08-8.467,10.08-3.113,0-5.274-1.556-6.139-3.546v3.113H489.39V102.564l6.225-.564v13.749a6.214,6.214,0,0,1,5.794-3.286c5.707,0,8.467,4.324,8.467,10.08Zm-6.225-1.427c0-2.9-1.123-5.058-4.107-5.058-2.552,0-3.935,1.814-3.935,4.756v2.161c0,2.939,1.383,4.756,3.935,4.756,2.984,0,4.107-2.161,4.107-5.058Z" transform="translate(-309.055 -0.136)" fill="#fff"/><path d="M601.33,165.151v-1.036c0-5.925,3.373-10.2,10.247-10.2s10.249,4.28,10.249,10.2v1.036c0,5.923-3.373,10.2-10.247,10.2S601.33,171.074,601.33,165.151Zm14.269-1.47c0-2.724-1.125-4.885-4.032-4.885s-4.022,2.161-4.022,4.885v1.9c0,2.724,1.125,4.885,4.022,4.885s4.032-2.161,4.032-4.885Z" transform="translate(-398.428 -41.581)" fill="#fff"/><path d="M713.27,165.151v-1.036c0-5.925,3.373-10.2,10.247-10.2s10.247,4.28,10.247,10.2v1.036c0,5.923-3.373,10.2-10.247,10.2S713.27,171.074,713.27,165.151Zm14.269-1.47c0-2.724-1.125-4.885-4.022-4.885s-4.02,2.161-4.02,4.885v1.9c0,2.724,1.123,4.885,4.02,4.885s4.022-2.161,4.022-4.885Z" transform="translate(-487.802 -41.581)" fill="#fff"/><path d="M832.727,122.712l6.139-9.814h6.614l-6.441,10.16,6.7,10.418h-6.614l-6.4-10.08v10.08H826.5V102.564l6.227-.564Z" transform="translate(-578.205 -0.136)" fill="#fff"/></g></svg>