<svg width="64" height="48" viewBox="0 0 64 48" fill="none" xmlns="http://www.w3.org/2000/svg">
<path d="M56.0001 0H8.00012C5.87839 0 3.84356 0.842855 2.34327 2.34315C0.842975 3.84344 0.000120407 5.87827 0.000120407 8V40C-0.00507176 40.9022 0.1577 41.7974 0.48012 42.64C1.11199 44.4346 2.35906 45.9474 4.00012 46.91C5.21632 47.6142 6.59481 47.9898 8.00012 48H56.0001C57.3345 47.9938 58.6466 47.6573 59.8193 47.0203C60.9919 46.3834 61.9885 45.466 62.7201 44.35C63.5482 43.0496 63.9919 41.5416 64.0001 40V8C64.0001 5.87827 63.1573 3.84344 61.657 2.34315C60.1567 0.842855 58.1219 0 56.0001 0V0ZM33.0001 42.67H8.00012C7.71606 42.6673 7.43484 42.6131 7.17012 42.51L21.6501 22.75L33.5201 34.61L37.2801 38.37L41.5501 42.67H33.0001ZM58.6701 40C58.6675 40.7073 58.3853 41.3849 57.8852 41.8851C57.385 42.3852 56.7074 42.6674 56.0001 42.67H49.1201L41.1201 34.61L47.9401 27.87L58.7201 39.87L58.6701 40ZM58.6701 31.87L50.0001 22.21C49.7584 21.9462 49.4671 21.7327 49.1428 21.5817C48.8185 21.4307 48.4675 21.3452 48.1101 21.33C47.7482 21.3128 47.3868 21.3735 47.0504 21.5081C46.7139 21.6427 46.4103 21.8479 46.1601 22.11L37.3401 30.85L23.2301 16.77C22.9493 16.5049 22.6173 16.2999 22.2545 16.1675C21.8917 16.0351 21.5057 15.9781 21.1201 16C20.7371 16.0357 20.3657 16.1512 20.0299 16.3389C19.6941 16.5266 19.4012 16.7824 19.1701 17.09L5.33012 36V8C5.33275 7.29268 5.6149 6.61509 6.11506 6.11494C6.61521 5.61478 7.2928 5.33263 8.00012 5.33H56.0001C56.7074 5.33263 57.385 5.61478 57.8852 6.11494C58.3853 6.61509 58.6675 7.29268 58.6701 8V31.87Z" fill="white"/>
<path d="M37.3301 24C40.2738 24 42.6601 21.6137 42.6601 18.67C42.6601 15.7263 40.2738 13.34 37.3301 13.34C34.3864 13.34 32.0001 15.7263 32.0001 18.67C32.0001 21.6137 34.3864 24 37.3301 24Z" fill="white"/>
</svg>
