<svg xmlns="http://www.w3.org/2000/svg" width="131.944" height="147.261" viewBox="0 0 131.944 147.261"><g transform="translate(1.095 0.896)"><path d="M143.45,258.35l.017-.26-.017.26Z" transform="translate(-90.117 -133.096)" stroke="#fff" stroke-miterlimit="10" stroke-width="1.72"/><path d="M175.586,76.652l-2.439-4.664-6.036.983-9.927,7.239-3.3,1.366-.3,1.587,2.569.9-.514,1.694.068.034-7.431,1.6-1.27-.124-4.636-.435-.169-1.564-.344-3.185L140.1,80.949l-1.971,2.1-.045,3.083-.04,2.225-1.005.463L135,89.769,127.234,88l-3.309.056-2.682-3.179-2.072.44-.61.13-3.428-.457-7.589-4.224-4.054-1.6-.226-2.823,1.513-2.3,2.084-3.173L104.292,69.5l-6.11-4.574-2.394-4.89.627-.514,1.971,1.457,1.852-.457.565-2.569L97.979,54.1l.774-1.406,3.224-1.909,2.4-4.483-1.971-3.252-4.167.344-5.251,2.338-5.534-5.082L80.621,36.73l-2.97.457-1.254,1.2-4.754,1.654-.226,2.23,4.562,2.259.056,1.6,1.66.683v.915l-2.343,2.338-.282,5.364,1.423,1.22.344,1.366,3.14.892,1.254,2.259-1.8,1.542-.141,4.105-2.857,1.8-1.2,2.259-6.11,7.623L64.3,81.824l-4-.333-5.009,4.45,2.823,2.185.367,1.824L57.47,91.294v1.225l3.795,2.259.215,2.067L61.66,98.6l-1.824.514-1.694-.288-2.168.887-3.535-1.282L49,101.1l.469.9.215,1.926,3.083,1.886,4.41.565-.728,1.694H52.7l-1.372-.9-.632,2.163,8.216,7.25,5.935-.858,1.592-4.992.791.237,1.129,4.585.169,4.828.678,19.441,1.993,3.219,2.53,4.184,1.858,3.066.977,7.567.277,2.134,6.736,12.1v4.263L87,180.635l.971,1.214,3.467.344,10.486-13.315.429-7.132L104,154.1l-1.694-7.019,2.112-4.054,2.823-.4,5.878-3.885,2.569-4.41,8.007-6.719,2.609-4.365,6.776-2.225,1.971-6.42,2.823-2.338-.915.751,2.75-2.259,1.2.723,2.914-2.349-2.055-4.884.04-4.619-2.355-1.242V96.929l2.569-2.225-2.5-3.241v-1.8l5.11.344.565.6,1.084,1.2.683,3.879,10.5-1.056.937,2.564.119.322-1.852,1.542-3.659,3.049,1.09,2.569,3.84-.791.565-.124,1.852,5.822,1.485.056,1.83-9.187,2.626-.565,2.739-3.478-.5-5.251,3.9-7.064,5.263-1.841,1.129-3.337Z" transform="translate(-49 -36.73)" stroke="#fff" stroke-miterlimit="10" stroke-width="1.72"/></g></svg>