<svg xmlns="http://www.w3.org/2000/svg" width="161.992" height="46.042" viewBox="0 0 161.992 46.042"><path d="M11.8,94.375a15.344,15.344,0,0,0-8.118,10.26c-1.442,6.222,4.615,8.859,5.11,7.994.577-1.03-1.071-1.36-1.442-4.574C6.9,103.894,8.835,99.2,11.307,97.177c.453-.371.453.165.453,1.113,0,1.772-.082,17.472-.082,20.768,0,4.45-.165,5.851-.494,7.211-.33,1.4-.865,2.349-.453,2.72.453.412,2.39-.577,3.5-2.143a11.564,11.564,0,0,0,1.9-6.593c.082-2.967.082-7.664.082-10.3,0-2.472.041-9.642-.041-13.969C16.129,94.911,13.2,93.8,11.8,94.375M129.53,115.184a14.285,14.285,0,0,1-1.236,5.4c-1.236,2.472-3.791,3.214-4.862-.33a20.561,20.561,0,0,1-.206-7.87c.412-2.761,1.648-4.821,3.626-4.615s2.884,2.72,2.678,7.417Zm-33.171,14.34c-.041,3.832-.618,7.211-1.937,8.159-1.854,1.4-4.286.33-3.791-2.472.453-2.472,2.6-5.027,5.728-8.118v2.431Zm-.536-14.381a15.814,15.814,0,0,1-1.236,5.4c-1.236,2.472-3.791,3.255-4.862-.33a18.077,18.077,0,0,1-.206-7.541c.453-2.555,1.607-4.945,3.626-4.945,2.019.041,2.967,2.225,2.678,7.417Zm-19.2,0a13.766,13.766,0,0,1-1.236,5.439c-1.277,2.431-3.75,3.214-4.862-.33a19.193,19.193,0,0,1-.206-7.912c.494-2.8,1.731-4.78,3.626-4.574,1.978.206,2.926,2.72,2.678,7.376Zm88.1,2.6c-.494,0-.7.494-.865,1.319-.618,2.884-1.277,3.544-2.143,3.544-.948,0-1.813-1.442-2.019-4.327a91.754,91.754,0,0,1,.082-10.549c.041-.865-.206-1.689-2.472-2.514-.989-.371-2.39-.865-3.132.824A41.18,41.18,0,0,0,151.2,116.3c0,.082-.124.082-.124-.082a80.856,80.856,0,0,1-.412-8.324,2.493,2.493,0,0,0-1.236-2.39c-.659-.412-2.678-1.154-3.42-.288a20.218,20.218,0,0,0-2.143,4.986c-.618,1.9-1.03,3.173-1.03,3.173v-7.005a.989.989,0,0,0-.659-1.03,12.89,12.89,0,0,0-2.555-.536c-.7,0-.865.371-.865.948,0,.082-.124,6.675-.124,11.291v.659c-.371,2.143-1.648,5.027-3.008,5.027s-2.019-1.195-2.019-6.717c0-3.214.082-4.615.124-6.923.041-1.319.082-2.349.082-2.6,0-.7-1.236-1.071-1.813-1.195a5.085,5.085,0,0,0-1.483-.165.951.951,0,0,0-.948.907v.783a5.4,5.4,0,0,0-2.637-2.143,5.082,5.082,0,0,0-5.851,2.184,13.715,13.715,0,0,0-2.39,6.8,20.372,20.372,0,0,0,.247,6.181c-.494,2.06-1.36,2.926-2.349,2.926-1.4,0-2.431-2.308-2.308-6.3a36.7,36.7,0,0,1,1.195-7.17,2.32,2.32,0,0,0-.453-2.308c-.453-.536-1.442-.783-2.843-.453-.989.247-2.431.494-3.75.7a5.752,5.752,0,0,0,.124-.865c.33-2.926-2.843-2.678-3.832-1.731a3.311,3.311,0,0,0-1.154,2.39,2.859,2.859,0,0,0,1.277,2.761,28.051,28.051,0,0,1-3.008,7.458,30.178,30.178,0,0,1-1.854,2.926v-1.03c0-4.821.041-8.612.082-9.972.041-1.319.082-2.349.082-2.555,0-.536-.33-.7-.948-.989a7.018,7.018,0,0,0-1.937-.412c-.865-.082-1.4.412-1.4.948v.742a5.4,5.4,0,0,0-2.637-2.143,5.082,5.082,0,0,0-5.851,2.184,14.76,14.76,0,0,0-2.39,6.758,22.085,22.085,0,0,0,.124,5.81c-.33,1.607-1.277,3.3-2.349,3.3-1.36,0-2.143-1.195-2.143-6.717,0-3.214.082-4.615.124-6.923.041-1.319.082-2.349.082-2.6,0-.7-1.236-1.071-1.813-1.195a5.492,5.492,0,0,0-1.525-.165.969.969,0,0,0-.907.865v.824a5.4,5.4,0,0,0-2.637-2.143,5.138,5.138,0,0,0-5.851,2.184,12.966,12.966,0,0,0-2.39,6.717,24.57,24.57,0,0,0-.165,2.926c-.412,2.6-2.308,5.6-3.832,5.6-.907,0-1.772-1.731-1.772-5.48,0-4.945.288-11.991.371-12.692,0,0,1.937-.041,2.308-.041.948,0,1.854,0,3.132-.041.659-.041,1.277-2.349.618-2.637a21.559,21.559,0,0,0-3.3-.247c-.7,0-2.678-.165-2.678-.165s.165-4.7.206-5.192c.041-.412-.494-.618-.783-.742a10.144,10.144,0,0,0-2.184-.618c-1.071-.206-1.566,0-1.689.907-.165,1.4-.206,5.48-.206,5.48-.783,0-3.544-.165-4.327-.165-.742,0-1.525,3.214-.536,3.214,1.195.041,3.255.082,4.615.124,0,0-.041,7.17-.041,9.4v.7a10.721,10.721,0,0,1-3.379,6.016c.577-2.6-.577-4.533-2.678-6.181-.783-.618-2.308-1.772-4-3.008a10.461,10.461,0,0,0,1.854-2.926c.618-1.4.659-2.967-.865-3.3a4.539,4.539,0,0,0-5.192,3.255,3.788,3.788,0,0,0,.7,3.832c.082.082.124.165.206.247-.577,1.113-1.36,2.555-2.019,3.709-1.813,3.173-3.214,5.687-4.244,5.687-.824,0-.824-2.555-.824-4.9,0-2.06.165-5.151.288-8.324a2.293,2.293,0,0,0-1.36-2.184,6.22,6.22,0,0,0-2.349-.989c-.989,0-3.873.124-6.593,7.994-.33.989-1.03,2.8-1.03,2.8L24,106.284a.666.666,0,0,0-.371-.577,6.769,6.769,0,0,0-2.761-.742c-.536,0-.783.247-.783.7L20,120.418a28.467,28.467,0,0,0,.124,3.008,3.678,3.678,0,0,0,.494,1.319,1.4,1.4,0,0,0,.907.577c.412.082,2.555.371,2.678-.453a27.655,27.655,0,0,1,1.277-6.016c1.772-6.181,4.038-9.23,5.151-10.3.206-.206.412-.206.412.124-.041,1.36-.206,4.739-.33,7.623-.288,7.706,1.113,9.148,3.132,9.148,1.525,0,3.709-1.525,6.016-5.4,1.442-2.39,2.843-4.78,3.873-6.469.7.659,1.483,1.36,2.266,2.1,1.813,1.731,2.431,3.379,2.019,4.945-.288,1.195-1.442,2.431-3.5,1.236a15.62,15.62,0,0,1-1.442-1.03,1,1,0,0,0-1.113-.041,3.845,3.845,0,0,0-1.442,2.225c-.247.865.659,1.36,1.566,1.772a11.54,11.54,0,0,0,3.585.7c4.2.124,7.623-2.019,9.972-7.664.412,4.862,2.225,7.623,5.316,7.623,2.1,0,4.162-2.678,5.068-5.357a9.091,9.091,0,0,0,1.154,2.8c2.39,3.791,7.046,2.967,9.4-.247a4.638,4.638,0,0,0,.824-1.36,4.4,4.4,0,0,0,4.2,4.121c1.566,0,3.214-.742,4.327-3.3a4.854,4.854,0,0,0,.453.783c2.39,3.791,7.046,2.967,9.4-.247.124-.165.206-.288.288-.412l.082,2.019s-1.319,1.236-2.143,1.978c-3.626,3.3-6.346,5.81-6.552,8.736-.247,3.709,2.761,5.11,5.068,5.274a6.42,6.42,0,0,0,5.769-3.008c1.113-1.648,1.854-5.192,1.813-8.736-.041-1.4-.041-3.214-.082-5.11a40.94,40.94,0,0,0,4-5.522,41.557,41.557,0,0,0,3.75-8.035s1.319,0,2.761-.082c.453-.041.577.082.494.412-.082.412-1.813,6.964-.247,11.332a5.528,5.528,0,0,0,4.862,3.956,4.753,4.753,0,0,0,4.079-3.132,2.628,2.628,0,0,0,.33.577c2.39,3.791,7.046,2.967,9.4-.247a9.341,9.341,0,0,0,.824-1.36,4.54,4.54,0,0,0,4.368,4.121c1.483,0,2.843-.618,4-3.255a10.635,10.635,0,0,0,.247,2.431,2,2,0,0,0,.783.536,6.319,6.319,0,0,0,3.214.165c.371-.082.618-.371.659-1.071a41.711,41.711,0,0,1,.618-7.5,21.348,21.348,0,0,1,2.308-6.3c.247-.412.494-.494.536-.041,0,.907.082,3.626.453,7.252a16.269,16.269,0,0,0,.948,4.739,2.6,2.6,0,0,0,2.637,1.483c.536,0,1.607-.124,1.483-1.071a29.884,29.884,0,0,1,.989-7.129,30.214,30.214,0,0,1,2.06-5.728c.124-.33.206-.082.206,0-.082,1.772-.247,7.541.453,10.714.989,4.285,3.791,4.78,4.78,4.78,2.1,0,3.832-1.607,4.409-5.81.124-1.071-.082-1.854-.7-1.854" transform="translate(-3.463 -94.217)" fill="#fff"/></svg>