<svg xmlns="http://www.w3.org/2000/svg"  width="158.042" height="195.915" viewBox="0 0 158.042 195.915"><path d="M247.282,224.813a81.55,81.55,0,0,1-158.042.54c3.55-1.494,7.219-2.677,10.9-3.857a306.061,306.061,0,0,0,30.249-11.775,14.055,14.055,0,0,0,4.348-3.308,27.747,27.747,0,0,1,7.371-5.7,1.73,1.73,0,0,0,1.078-1.553c.149-3.152.341-6.3.411-9.455a4.973,4.973,0,0,0-.563-2.374,49.119,49.119,0,0,1-5.1-14.16,1.736,1.736,0,0,0-.2-.368c-2.019.9-3.238-.362-3.918-1.883-1.237-2.763-2.159-5.668-3.2-8.517-.529-1.44-.918-2.939-1.583-4.323a15.767,15.767,0,0,1-1.307-8.915c.276-2.311,1.13-3.027,3.477-3.1a5.218,5.218,0,0,0,.565-.075,85.889,85.889,0,0,1-2.874-12.48,47.619,47.619,0,0,1,1.329-21.171l-.88,1.246c-.477-2.487,1.085-5.614,4.637-9.629l-2.236.9a4.922,4.922,0,0,1,.531-.678,17.674,17.674,0,0,1,9.681-4.443c.337-.036.864-.31.927-.565.721-2.912,2.844-4.617,5.18-6.138A15.742,15.742,0,0,1,151,91.52l-1.09,1.406c6.12-2.6,12.474-2.587,18.879-2.116a26.168,26.168,0,0,0-8.569.995c2.171.1,4.343.151,6.509.307a84.414,84.414,0,0,1,16.525,2.819c10.337,2.871,17.156,9.618,21.531,19.232a41.741,41.741,0,0,1,3.762,19.953,50.083,50.083,0,0,1-1.721,10.328c-.127.466-.237.938-.373,1.472a1.809,1.809,0,0,0,.475.084c2.609-.4,4.187,1.223,3.728,3.844a3.907,3.907,0,0,1-.226.868c-1.485,3.45-2.035,7.124-2.79,10.771a71.026,71.026,0,0,1-2.528,8.042,7.416,7.416,0,0,1-.85,1.583c-1.323,2.062-1.965,2.211-4.1.884-.161.721-.307,1.393-.452,2.066a51.55,51.55,0,0,1-4.278,12.435c-1.485,2.889-1.463,5.928-1.393,9.012,0,.3.075.6.095.9a3.522,3.522,0,0,0,1.809,2.951,26.553,26.553,0,0,1,5.386,4.737,20,20,0,0,0,8.49,5.854c10.69,4.029,21.278,8.334,31.9,12.546C243.567,223.233,245.417,224.047,247.282,224.813Z" transform="translate(-89.24 -90.567)" fill="#525252"/></svg>