<svg xmlns="http://www.w3.org/2000/svg" width="115.936" height="30.709" viewBox="0 0 115.936 30.709"><g transform="translate(0 0)"><path d="M213.882,3.983a2.229,2.229,0,0,1,2.255-2.2h26a2.228,2.228,0,0,1,2.255,2.2v26.31a2.228,2.228,0,0,1-2.255,2.2h-26a2.228,2.228,0,0,1-2.255-2.2V3.982Z" transform="translate(-128.461 -1.783)" fill="#fff"/><path d="M1.785,35.176H14.52V30.995H6.394V15.044H1.785Zm19.182,0V21.309H16.358V35.176Zm-2.3-15.76a2.4,2.4,0,1,0,.031-4.792,2.4,2.4,0,1,0-.061,4.792h.03Zm4.444,15.76h4.609V27.432a3.145,3.145,0,0,1,.152-1.124,2.522,2.522,0,0,1,2.365-1.686c1.668,0,2.336,1.272,2.336,3.135v7.419h4.608V27.225c0-4.26-2.274-6.241-5.307-6.241a4.591,4.591,0,0,0-4.185,2.337h.031V21.309H23.107C23.168,22.611,23.107,35.176,23.107,35.176ZM43.679,15.044H39.07V35.176h4.609v-4.5l1.152-1.45,3.609,5.946h5.67l-6.064-8.608,5.306-5.856H47.8s-3.79,5.239-4.124,5.861Z" transform="translate(-1.785 -9.452)" fill="#fff"/><path d="M141.621,30.012a11.24,11.24,0,0,0,.152-1.812c0-3.584-1.82-7.224-6.61-7.224-5.125,0-7.49,4.053-7.49,7.729,0,4.546,2.881,7.385,7.914,7.385a14.33,14.33,0,0,0,5.367-.916l-.607-3.044a12.544,12.544,0,0,1-4.093.619c-2.153,0-4.032-.884-4.184-2.767l9.551.029h0Zm-9.581-3.118a3.009,3.009,0,0,1,2.881-2.929,2.639,2.639,0,0,1,2.578,2.929H132.04Zm21.11-11.23v6.969h-.061a4.606,4.606,0,0,0-3.911-1.626c-3.548,0-6.671,2.839-6.641,7.69,0,4.5,2.82,7.425,6.337,7.425a5.213,5.213,0,0,0,4.64-2.426h.091l.182,2.1h4.093c-.06-.976-.122-2.662-.122-4.319V15.664h-4.609Zm0,13.714a5.117,5.117,0,0,1-.091,1,2.712,2.712,0,0,1-2.7,2.159c-1.91,0-3.154-1.538-3.154-3.963,0-2.277,1.062-4.111,3.184-4.111a2.724,2.724,0,0,1,2.7,2.188,3.837,3.837,0,0,1,.06.829v1.893Z" transform="translate(-76.972 -10.073)" fill="#fff"/><path d="M229.612,35.134V21.267H225V35.134h4.609Zm-2.3-15.76a2.568,2.568,0,1,0-.03,0h.03Zm4.855,15.76h4.609V27.391a3.158,3.158,0,0,1,.152-1.124,2.522,2.522,0,0,1,2.365-1.686c1.667,0,2.335,1.271,2.335,3.136v7.417h4.609V27.184c0-4.259-2.273-6.241-5.306-6.241a4.591,4.591,0,0,0-4.184,2.336h.031V21.268h-4.609c.06,1.3,0,13.867,0,13.867Z" transform="translate(-134.941 -9.427)"/></g></svg>