<svg xmlns="http://www.w3.org/2000/svg" width="26.489" height="26.489" viewBox="0 0 26.489 26.489"><path d="M20.97,0H5.519A5.519,5.519,0,0,0,0,5.519V20.97a5.519,5.519,0,0,0,5.519,5.519H20.97a5.518,5.518,0,0,0,5.519-5.519V5.519A5.518,5.518,0,0,0,20.97,0ZM8.83,20.97H5.519V8.83H8.83ZM7.174,7.43A1.947,1.947,0,1,1,9.106,5.483,1.94,1.94,0,0,1,7.174,7.43Zm14.9,13.54H18.763V14.785c0-3.717-4.415-3.436-4.415,0V20.97H11.037V8.83h3.311v1.948c1.541-2.854,7.726-3.065,7.726,2.733Z" transform="translate(0)" fill="#0a66c2"/><path d="M9.1,17.434H5.792V5.291H9.1V7.239a4.166,4.166,0,0,1,3.649-1.947,3.945,3.945,0,0,1,2.8,1.09,4.891,4.891,0,0,1,1.277,3.59v7.46H13.518V11.249c0-1.853-1.076-2.683-2.142-2.683A2.411,2.411,0,0,0,9.1,11.249v6.184Zm-5.519,0H.275V5.291h3.31V17.432ZM1.931,3.892A1.946,1.946,0,0,1,1.931,0a1.946,1.946,0,0,1,0,3.892Z" transform="translate(5.244 3.537)" fill="#fff"/></svg>