<svg width="32" height="34" viewBox="0 0 32 34" fill="none" xmlns="http://www.w3.org/2000/svg">
<path d="M16.1339 31.2666L7.9333 21.2232C7.81935 21.0724 7.70658 20.9206 7.59501 20.7679C6.1942 18.8517 5.43744 16.5112 5.44084 14.1053C5.44084 11.1603 6.56743 8.33584 8.57277 6.25337C10.5781 4.1709 13.2979 3.00098 16.1339 3.00098C18.9699 3.00098 21.6897 4.1709 23.6951 6.25337C25.7004 8.33584 26.827 11.1603 26.827 14.1053C26.8304 16.5101 26.074 18.8496 24.6738 20.7649L24.6728 20.7679C24.6728 20.7679 24.3812 21.1657 24.3375 21.2192L16.1339 31.2666ZM9.14648 19.5515C9.14842 19.5515 9.37395 19.8624 9.42547 19.9291L16.1339 28.1453L22.8511 19.918C22.8939 19.8624 23.1214 19.5495 23.1223 19.5485C24.2666 17.9829 24.8851 16.0708 24.8828 14.1053C24.8828 11.6957 23.961 9.38483 22.3203 7.681C20.6796 5.97716 18.4543 5.01995 16.1339 5.01995C13.8136 5.01995 11.5883 5.97716 9.94752 7.681C8.30679 9.38483 7.38503 11.6957 7.38503 14.1053C7.38299 16.0721 8.0021 17.9852 9.14745 19.5515H9.14648Z" fill="white"/>
<path d="M20.9944 19.1525H19.0502V11.0766H13.2176V19.1525H11.2734V11.0766C11.274 10.5413 11.479 10.0281 11.8434 9.64955C12.2079 9.27104 12.7022 9.05815 13.2176 9.05762H19.0502C19.5657 9.05815 20.0599 9.27104 20.4244 9.64955C20.7889 10.0281 20.9939 10.5413 20.9944 11.0766V19.1525Z" fill="white"/>
<path d="M15.1618 17.1336H17.106V19.1526H15.1618V17.1336ZM15.1618 13.0957H17.106V15.1147H15.1618V13.0957Z" fill="white"/>
</svg>
