<svg xmlns="http://www.w3.org/2000/svg" width="348" height="346" viewBox="0 0 348 346"><g transform="translate(-1324.999 -422)"><g transform="translate(1324.999 422.357)"><path d="M0,257V225.934H15.047V40.476H0V9.413H165.536V0h17.869V9.413H348V40.476h-15.05V225.934H348V257Z" transform="translate(0.001 -0.357)" fill="#fff"/><path d="M125.635,79.109a10.316,10.316,0,0,1,2.662-6.932L73.363,4.337,78.72,0l55.766,68.861a10.36,10.36,0,1,1-8.851,10.249ZM0,79.109a10.371,10.371,0,0,1,12.2-10.2L68,0l5.36,4.337L18.25,72.4A10.36,10.36,0,1,1,0,79.109Z" transform="translate(101.344 256.173)" fill="#fff"/></g><g transform="translate(1392.811 501.468)"><rect width="29" height="52" transform="translate(0.189 73.532)"/><rect width="29" height="76" transform="translate(46.189 49.533)"/><rect width="29" height="107" transform="translate(92.189 18.533)"/><rect width="29" height="90" transform="translate(138.189 35.533)"/><rect width="30" height="126" transform="translate(184.189 -0.467)"/></g><rect width="9" height="43" transform="translate(1495 675)" fill="#fff"/></g></svg>