<svg width="26" height="27" viewBox="0 0 26 27" fill="none" xmlns="http://www.w3.org/2000/svg">
<path d="M21.5742 19.8639C21.2245 19.8655 20.8796 19.948 20.5653 20.1051L17.1891 16.6485H14.5078V18.2562H16.5382L19.4551 21.2425C19.3015 21.5643 19.2208 21.9173 19.2187 22.2755C19.2187 22.7524 19.3569 23.2187 19.6157 23.6152C19.8745 24.0118 20.2424 24.3209 20.6728 24.5034C21.1032 24.686 21.5768 24.7337 22.0337 24.6407C22.4907 24.5476 22.9104 24.318 23.2398 23.9807C23.5692 23.6434 23.7935 23.2137 23.8844 22.7459C23.9753 22.2781 23.9287 21.7933 23.7504 21.3526C23.5721 20.9119 23.2702 20.5353 22.8828 20.2703C22.4955 20.0053 22.0401 19.8639 21.5742 19.8639ZM21.5742 23.0793C21.4189 23.0793 21.2671 23.0322 21.138 22.9438C21.0089 22.8555 20.9083 22.73 20.8488 22.5831C20.7894 22.4362 20.7739 22.2746 20.8041 22.1186C20.8344 21.9627 20.9092 21.8195 21.019 21.7071C21.1288 21.5946 21.2687 21.5181 21.421 21.4871C21.5733 21.456 21.7312 21.472 21.8747 21.5328C22.0182 21.5936 22.1408 21.6967 22.2271 21.8289C22.3133 21.9611 22.3594 22.1165 22.3594 22.2755C22.3594 22.4887 22.2767 22.6931 22.1294 22.8439C21.9822 22.9946 21.7825 23.0793 21.5742 23.0793ZM21.5742 11.0216C21.0887 11.023 20.6154 11.1784 20.2196 11.4662C19.8237 11.7541 19.5245 12.1604 19.3632 12.6293H14.5078V14.237H19.3632C19.5079 14.6527 19.7613 15.0197 20.0959 15.2979C20.4306 15.5762 20.8334 15.7549 21.2605 15.8145C21.6876 15.8742 22.1225 15.8125 22.5177 15.6362C22.9129 15.4599 23.2531 15.1759 23.5013 14.815C23.7494 14.4541 23.8959 14.0304 23.9247 13.59C23.9535 13.1497 23.8636 12.7097 23.6647 12.3182C23.4658 11.9267 23.1656 11.5987 22.7969 11.37C22.4282 11.1413 22.0053 11.0208 21.5742 11.0216ZM21.5742 14.237C21.4189 14.237 21.2671 14.1898 21.138 14.1015C21.0089 14.0132 20.9083 13.8876 20.8488 13.7407C20.7894 13.5938 20.7739 13.4322 20.8041 13.2763C20.8344 13.1204 20.9092 12.9771 21.019 12.8647C21.1288 12.7523 21.2687 12.6757 21.421 12.6447C21.5733 12.6137 21.7312 12.6296 21.8747 12.6904C22.0182 12.7513 22.1408 12.8543 22.2271 12.9865C22.3133 13.1187 22.3594 13.2741 22.3594 13.4331C22.3594 13.6463 22.2767 13.8508 22.1294 14.0015C21.9822 14.1523 21.7825 14.237 21.5742 14.237ZM21.5742 2.1792C20.9497 2.17984 20.3509 2.43412 19.9093 2.88623C19.4677 3.33835 19.2194 3.95136 19.2187 4.59075C19.2214 4.97584 19.3152 5.35453 19.492 5.69444L16.5461 8.61H14.5078V10.2177H17.1805L20.6352 6.79973C20.9561 6.94301 21.3042 7.01121 21.6541 6.99938C22.004 6.98755 22.3469 6.89599 22.6579 6.73135C22.9689 6.56672 23.2401 6.33316 23.4518 6.04767C23.6635 5.76218 23.8104 5.43196 23.8817 5.08104C23.953 4.73012 23.947 4.36733 23.8641 4.01909C23.7812 3.67084 23.6235 3.34591 23.4024 3.06794C23.1814 2.78997 22.9026 2.56596 22.5863 2.41222C22.2701 2.25848 21.9243 2.17887 21.5742 2.1792ZM21.5742 5.3946C21.4189 5.3946 21.2671 5.34746 21.138 5.25913C21.0089 5.1708 20.9083 5.04526 20.8488 4.89837C20.7894 4.75149 20.7739 4.58986 20.8041 4.43393C20.8344 4.278 20.9092 4.13476 21.019 4.02234C21.1288 3.90992 21.2687 3.83336 21.421 3.80235C21.5733 3.77133 21.7312 3.78725 21.8747 3.84809C22.0182 3.90893 22.1408 4.01196 22.2271 4.14416C22.3133 4.27635 22.3594 4.43177 22.3594 4.59075C22.3594 4.80395 22.2767 5.00841 22.1294 5.15916C21.9822 5.30991 21.7825 5.3946 21.5742 5.3946Z" fill="white"/>
<path d="M14.5078 5.39432H16.0781V3.78662H14.5078C14.0604 3.78815 13.6185 3.88814 13.2121 4.07981C12.8057 4.27149 12.4443 4.55036 12.1523 4.89754C11.8604 4.55036 11.499 4.27149 11.0926 4.07981C10.6862 3.88814 10.2443 3.78815 9.79688 3.78662H9.01172C7.13823 3.78875 5.34207 4.55165 4.01731 5.90795C2.69255 7.26425 1.94739 9.10318 1.94531 11.0213V15.8444C1.94739 17.7625 2.69255 19.6014 4.01731 20.9577C5.34207 22.314 7.13823 23.0769 9.01172 23.079H9.79688C10.2443 23.0775 10.6862 22.9775 11.0926 22.7858C11.499 22.5942 11.8604 22.3153 12.1523 21.9681C12.4443 22.3153 12.8057 22.5942 13.2121 22.7858C13.6185 22.9775 14.0604 23.0775 14.5078 23.079H16.0781V21.4713H14.5078C14.0915 21.4709 13.6923 21.3014 13.3979 21C13.1035 20.6986 12.9379 20.2899 12.9375 19.8636V7.00202C12.9379 6.57576 13.1035 6.16709 13.3979 5.86568C13.6923 5.56427 14.0915 5.39475 14.5078 5.39432ZM9.79688 21.4713H9.01172C7.69143 21.4689 6.41605 20.9803 5.41851 20.0948C4.42098 19.2093 3.76786 17.986 3.57844 16.6482H5.08594V15.0405H3.51562V11.8251H5.87109C6.49561 11.8245 7.09437 11.5702 7.53597 11.1181C7.97757 10.666 8.22594 10.053 8.22656 9.41357V7.80587H6.65625V9.41357C6.65625 9.62677 6.57353 9.83123 6.42628 9.98198C6.27904 10.1327 6.07933 10.2174 5.87109 10.2174H3.57844C3.76786 8.87968 4.42098 7.65634 5.41851 6.77083C6.41605 5.88532 7.69143 5.39674 9.01172 5.39432H9.79688C10.2132 5.39475 10.6124 5.56427 10.9068 5.86568C11.2012 6.16709 11.3668 6.57576 11.3672 7.00202V10.2174H9.79688V11.8251H11.3672V15.0405H9.79688C9.17236 15.0412 8.5736 15.2954 8.132 15.7476C7.69039 16.1997 7.44203 16.8127 7.44141 17.4521V19.0598H9.01172V17.4521C9.01172 17.2389 9.09444 17.0344 9.24169 16.8837C9.38893 16.7329 9.58864 16.6482 9.79688 16.6482H11.3672V19.8636C11.3668 20.2899 11.2012 20.6986 10.9068 21C10.6124 21.3014 10.2132 21.4709 9.79688 21.4713Z" fill="white"/>
</svg>
