<svg xmlns="http://www.w3.org/2000/svg" width="286.132" height="315.92" viewBox="0 0 286.132 315.92"><g transform="matrix(0.839, -0.545, 0.545, 0.839, -24.363, 97.687)"><path d="M110.66,39.983a9.048,9.048,0,0,1,5.53,8.334V76.689a9.048,9.048,0,0,1-5.528,8.334v30.232l79.927,21.937V90.945a83.442,83.442,0,0,0-79.91-83.354Z" transform="translate(0.464 0)" fill="#fff"/><path d="M105.092,115.255V85.416a9.048,9.048,0,0,1-6.535-8.676V48.318a9.048,9.048,0,0,1,6.535-8.676V7.53A83.445,83.445,0,0,0,24.16,90.915v46.3Z" transform="translate(0 0)" fill="#fff"/><path d="M108.138,120.08,24.16,142.852v49a83.445,83.445,0,0,0,166.891,0V142.841Z" transform="translate(0 0.604)" fill="#fff"/></g></svg>