<svg width="23" height="29" viewBox="0 0 23 29" fill="none" xmlns="http://www.w3.org/2000/svg">
<path d="M11.8348 0.449707L0.842621 5.53453V13.1618C0.842621 20.2169 5.53262 26.8145 11.8348 28.4162C18.137 26.8145 22.827 20.2169 22.827 13.1618V5.53453L11.8348 0.449707ZM20.3843 13.1618C20.3843 15.5135 19.7614 17.8017 18.6988 19.7847L16.9279 17.9415C17.7039 16.7195 18.05 15.2557 17.9075 13.7984C17.7651 12.3411 17.1428 10.9799 16.1462 9.94561C15.0005 8.75497 13.4477 8.08623 11.8287 8.08623C10.2097 8.08623 8.65688 8.75497 7.51121 9.94561C6.36727 11.138 5.72475 12.7542 5.72475 14.4393C5.72475 16.1244 6.36727 17.7406 7.51121 18.933C8.50639 19.9677 9.81393 20.6137 11.2134 20.7619C12.6128 20.9101 14.0185 20.5515 15.1935 19.7466L17.2943 21.9331C15.8408 23.7382 13.96 25.1238 11.8348 25.7975C6.92496 24.2085 3.28533 18.9076 3.28533 13.1618V7.1871L11.8348 3.23365L20.3843 7.1871V13.1618ZM11.8348 18.2466C9.80736 18.2466 8.17075 16.5432 8.17075 14.433C8.17075 12.3228 9.80736 10.6193 11.8348 10.6193C13.8623 10.6193 15.4989 12.3228 15.4989 14.433C15.4989 16.5432 13.8623 18.2466 11.8348 18.2466Z" fill="white"/>
</svg>
