<svg width="488" height="551" viewBox="0 0 488 551" fill="none" xmlns="http://www.w3.org/2000/svg">
<path d="M128.877 282.225C128.877 267.393 118.578 258.541 100.403 258.541C92.989 258.541 87.966 259.256 85.332 259.973V307.6C88.446 308.307 92.274 308.549 97.524 308.549C116.915 308.549 128.877 298.74 128.877 282.225Z" fill="white"/>
<path d="M241.371 259.019C233.226 259.019 227.974 259.736 224.852 260.454V365.977C227.968 366.706 232.994 366.706 237.542 366.706C270.559 366.937 292.096 348.76 292.096 310.232C292.338 276.719 272.711 259.019 241.371 259.019Z" fill="white"/>
<path d="M456.922 197.019H443.696V133.203C443.696 132.805 443.633 132.404 443.58 132.001C443.559 129.467 442.753 126.978 441.018 125.006L334.821 3.694C334.789 3.663 334.758 3.652 334.736 3.618C334.103 2.911 333.365 2.323 332.585 1.814C332.354 1.659 332.121 1.529 331.879 1.395C331.203 1.026 330.486 0.72 329.748 0.499C329.548 0.443 329.368 0.361 329.168 0.309C328.366 0.119 327.533 0 326.689 0H65.696C53.778 0 44.096 9.693 44.096 21.601V197.014H30.873C13.824 197.014 0 210.832 0 227.887V388.432C0 405.475 13.824 419.302 30.873 419.302H44.097V529.2C44.097 541.107 53.779 550.801 65.697 550.801H422.097C434.004 550.801 443.697 541.108 443.697 529.2V419.302H456.923C473.967 419.302 487.794 405.475 487.794 388.432V227.892C487.793 210.838 473.966 197.019 456.922 197.019ZM65.696 21.605H315.889V132.118C315.889 138.085 320.73 142.918 326.689 142.918H422.096V197.026H65.696V21.605ZM330.855 309.023C330.855 339.899 319.612 361.188 304.035 374.356C287.064 388.473 261.215 395.17 229.639 395.17C210.739 395.17 197.342 393.973 188.238 392.781V234.365C201.637 232.216 219.116 231.019 237.542 231.019C268.154 231.019 288.02 236.527 303.581 248.245C320.324 260.69 330.855 280.547 330.855 309.023ZM49.196 393.499V234.365C60.437 232.461 76.238 231.019 98.492 231.019C120.983 231.019 137.019 235.327 147.783 243.947C158.075 252.078 164.998 265.481 164.998 281.275C164.998 297.074 159.748 310.473 150.169 319.56C137.727 331.288 119.304 336.556 97.762 336.556C92.984 336.556 88.662 336.313 85.327 335.833V393.503H49.196V393.499ZM422.097 523.353H65.696V419.302H422.096V523.353H422.097ZM453.394 262.127H391.405V298.978H449.318V328.652H391.405V393.5H354.812V232.216H453.394V262.127Z" fill="white"/>
</svg>
