<svg width="22" height="24" viewBox="0 0 22 24" fill="none" xmlns="http://www.w3.org/2000/svg">
<path d="M9.83481 13.6263V8.44182C9.83481 7.72895 9.26277 7.14569 8.5636 7.14569H3.47878V4.55343H9.83481V1.96117H6.6568V0.665039H4.11438V1.96117H2.20758C1.50841 1.96117 0.936371 2.54443 0.936371 3.2573V8.44182C0.936371 9.1547 1.50841 9.73796 2.20758 9.73796H7.2924V12.3302H0.936371V14.9225H4.11438V16.2186H6.6568V14.9225H8.5636C9.26277 14.9225 9.83481 14.3392 9.83481 13.6263ZM19.4833 13.0042L12.2882 20.3273L8.69072 16.6593L6.89832 18.4998L12.2882 23.9954L21.2757 14.8317L19.4833 13.0042Z" fill="white"/>
</svg>
