<svg width="28" height="28" viewBox="0 0 28 28" fill="none" xmlns="http://www.w3.org/2000/svg">
<path d="M13.8348 3.36579C19.662 3.36579 24.4033 8.19652 24.4033 14.1336C24.4033 20.0708 19.662 24.9015 13.8348 24.9015C8.00765 24.9015 3.26638 20.0708 3.26638 14.1336C3.26638 8.19652 8.00765 3.36579 13.8348 3.36579ZM13.8348 0.673828C6.53864 0.673828 0.624268 6.69979 0.624268 14.1336C0.624268 21.5675 6.53864 27.5935 13.8348 27.5935C21.131 27.5935 27.0454 21.5675 27.0454 14.1336C27.0454 6.69979 21.131 0.673828 13.8348 0.673828ZM18.8548 18.71L15.1559 13.6854V7.40374H12.5138V14.5819L16.7412 20.3238L18.8548 18.71Z" fill="white"/>
</svg>
