<svg xmlns="http://www.w3.org/2000/svg" width="165.605" height="132.652" viewBox="0 0 165.605 132.652"><g transform="translate(0.86 0.894)"><path d="M185.3,54.518l-.915-1.6.062-3.038.209-5.172L181.99,42.66l-2.309.124-2.326-1.513.39-2.7-.248-4.941,1.457-5.189-1.694-2.631-3.021.215-1.863,6.522L169.6,35.584l-2.157,3.32-2.038.4-1.767,2.14-2.259.655-.994,2.016-1.982,1.79-1.965-.141-.418-.107-1.8.745L153.011,49l-2.434,3.219-2.219,3.134L145.9,57.3l-1.988,4.619-1.92.356-3.162,3.665-3.45,2.592h0l-3.337.711-1.694,1.892-2.259.344-1.547,1.417.344,3.783-.96,3.066-1.062.5-1.045,4.483-1.581,1.462-4.043-.824-.2-2.213-2.863,1.129.344,3.337,3.636,1.067-1.22,3-4.054,2.343L111.751,92.9l-2.259-2.665-1.8,1.09,2.637,4.958-9.153,4.732-9.887-.615-5.76-2.343-6.025.429-6.776-2.936L71.451,97.63l-.954-.565-10.9.271-1.694-1.6-2.767.909-.147,1.739-10.04,4.6-8.419-.452-1.5.61-1.129-.853-2.541-.638-1.129-2,.4-1.57-.881-1.694-.186-.988.666-2.948-.875-.983-1.666.373-1.225-.621-1.383,1.129-1.474-1.722-.119-3.168-2.038-.186v9.9l31.559,41.9,18.233,4.371,65.36,13.219,9.063-3.953V140.042l10.271-22.891.565-2.343,2.259-1.564.638-4.478-4.122-4.2.356-1.35,3.343.853,3.2-2.095,3.252,1.649,2.558-1.276,5.082-.565.8-1.756-1.694-1.5-.565-4.478-2.2-.248-1.282,1.282L165.3,93.88l1.954-4.229-2.01-7.482.909-2.343,1.174-.751-.565-2.976h0l-.61-4.517,1.033-2.259.265-1.53,3.213-1.513,1.863.655,2.778,4.85-.215,1.92-.5,1.869.932,1.129,1.773-.079,1.011-2.417,1.485-.932,2.021-.045.1-.073.147-.1.435-1.9,1.931-3.128.068-.113.632-4.3v-.062l.2-8.922Z" transform="translate(-21.45 -25.81)" stroke="#fff" stroke-miterlimit="10" stroke-width="1.72"/><path d="M150.568,149.227l1.406-1.242.779.265,3.913-.107.158-1.988-2.524-.695-.232-1.474-1.028-.536L151,144.766l-6.347,1.389v2.112l2.383-.056Z" transform="translate(-75.083 -77.023)" stroke="#fff" stroke-miterlimit="10" stroke-width="1.72"/><path d="M85.551,140.009v-3.275l-2.242-.164-1.869,1.389v2.8l1.417.824Z" transform="translate(-47.566 -74.028)" stroke="#fff" stroke-miterlimit="10" stroke-width="1.72"/><path d="M64.713,128.828l.774,1.44,1.756-.136v-1.948l.745-.875-.559-1.948-1.062.429-1.146-.83L63.03,126l.215,2.614Z" transform="translate(-39.551 -68.973)" stroke="#fff" stroke-miterlimit="10" stroke-width="1.72"/></g></svg>