<svg xmlns="http://www.w3.org/2000/svg" width="564" height="564.202" viewBox="0 0 564 564.202"><g transform="translate(4673.666 5813.08)"><g transform="translate(247.334 -719)"><path d="M100.882,521.442h0a238.106,238.106,0,0,1-32.21-27.057A235.133,235.133,0,0,1,17.9,417.991,237.128,237.128,0,0,1,4.054,283.948a235.252,235.252,0,0,1,13.063-44.6,238.187,238.187,0,0,1,22.348-42.358L170.2,0l102.84,68.252-128.355,193.4a118.844,118.844,0,0,0-18.3,87.429,110.687,110.687,0,0,0,43.536,70.009l-69.04,102.355Z" transform="translate(-4921 -5094.08)" fill="#e90922"/><path d="M236.241,564.2a235.373,235.373,0,0,1-130.523-39.465q-2.438-1.618-4.835-3.3l69.04-102.355q1.982,1.445,4.04,2.811a109.613,109.613,0,0,0,60.815,18.279c39.251,0,75.969-20.019,98.221-53.55l128.346-193.4L564,261.36,438.076,451.123l-.274.447c-1.393,2.276-2.833,4.63-4.342,6.906A236.614,236.614,0,0,1,236.252,564.2Z" transform="translate(-4921 -5094.08)" fill="#044cb7"/></g></g></svg>