<svg width="445" height="479" viewBox="0 0 445 479" fill="none" xmlns="http://www.w3.org/2000/svg">
<path d="M363.51 186.058L262.382 338.442C234.148 380.986 178.039 393.423 137.071 366.234C96.103 339.045 85.771 282.507 114.001 239.969L215.136 87.585L134.105 33.806L31.0961 189.024C-25.8039 274.749 -2.42693 390.368 83.2961 447.264C169.019 504.16 284.639 480.787 341.536 395.055C342.801 393.147 343.983 391.204 345.172 389.262L444.392 239.741L363.51 186.058Z" fill="black"/>
<path d="M333.132 141.626C372.241 141.626 403.945 109.922 403.945 70.813C403.945 31.7041 372.241 0 333.132 0C294.023 0 262.319 31.7041 262.319 70.813C262.319 109.922 294.023 141.626 333.132 141.626Z" fill="black"/>
</svg>
