<svg xmlns="http://www.w3.org/2000/svg" width="564" height="564.202" viewBox="0 0 564 564.202"><g transform="translate(-7473 -1033.905)"><path d="M603.077,610.376l58.734-88.5L764.467,590,705.821,678.38ZM311.689,417.51l58.976-88.867L473.5,396.9l-58.894,88.737Z" transform="translate(7272.533 705.262)" fill="#fff"/><path d="M436.719,892.845h-.011A235.373,235.373,0,0,1,306.185,853.38a238.188,238.188,0,0,1-37.045-30.352,235.149,235.149,0,0,1-50.769-76.393,237.126,237.126,0,0,1-13.85-134.043,235.238,235.238,0,0,1,13.063-44.6,238.178,238.178,0,0,1,22.348-42.358L311.689,417.51l102.922,68.122L345.15,590.292a118.843,118.843,0,0,0-18.3,87.429c5.531,30.268,22.427,56.13,47.575,72.82a109.615,109.615,0,0,0,60.815,18.279c39.25,0,75.969-20.019,98.222-53.55l69.611-104.894,102.744,68L638.543,779.766l-.273.445c-1.393,2.276-2.833,4.63-4.343,6.908A236.615,236.615,0,0,1,436.719,892.845Z" transform="translate(7272.533 705.262)" fill="#e90922"/></g></svg>