<svg xmlns="http://www.w3.org/2000/svg" width="68.724" height="54.058" viewBox="0 0 68.724 54.058"><path d="M-1294.276,2307.057a12.489,12.489,0,0,1-6.375-1.7,12.546,12.546,0,0,1-4.646-4.646,12.61,12.61,0,0,1-1.7-6.427,12.444,12.444,0,0,1,2.761-7.923,12.257,12.257,0,0,1,7.072-4.466,14.963,14.963,0,0,1,5.368-8.645,14.9,14.9,0,0,1,9.627-3.381,13.8,13.8,0,0,1,6.968,1.7,13.438,13.438,0,0,1,10.014-4.491,13.148,13.148,0,0,1,5.265,1.058,13.184,13.184,0,0,1,4.31,2.891,13.174,13.174,0,0,1,2.891,4.31,13.61,13.61,0,0,1,1.058,5.265,13,13,0,0,1-2.942,8.517,13.349,13.349,0,0,1,1.083,5.161,12.633,12.633,0,0,1-1.729,6.427,12.615,12.615,0,0,1-4.672,4.646,12.579,12.579,0,0,1-6.4,1.7Zm4.878-30.041a11.04,11.04,0,0,0-3.639,6.994l-.181,1.394a.429.429,0,0,1-.49.464l-1.291.077a8.464,8.464,0,0,0-5.42,2.736,7.987,7.987,0,0,0-2.167,5.6,8.3,8.3,0,0,0,2.452,5.988,7.909,7.909,0,0,0,5.858,2.5h27.977a8,8,0,0,0,5.884-2.478,8.22,8.22,0,0,0,2.452-5.988,7.984,7.984,0,0,0-2.477-5.859,8.041,8.041,0,0,0-5.885-2.478h-4.155a.494.494,0,0,1-.542-.438l-.181-1.5a10.3,10.3,0,0,0-3.535-6.995,10.73,10.73,0,0,0-7.408-2.839A10.416,10.416,0,0,0-1289.4,2277.016Zm17.886-2.968a15.389,15.389,0,0,1,4.362,7.588h.825a12.334,12.334,0,0,1,9.007,3.716A9.571,9.571,0,0,0-1256,2280.6a8.808,8.808,0,0,0-2.684-6.478,8.84,8.84,0,0,0-6.5-2.659A8.772,8.772,0,0,0-1271.513,2274.048Zm20.187,22.845,3.03-3.03,5.286,5.286-3.03,3.029Zm4.223-14.337v-4.285h8.827v4.285Zm-6.223-16.536,6.242-6.242,3.029,3.03-6.241,6.242Zm-33.946-5.32,3.03-3.03,5.285,5.286-3.029,3.029Zm20.44,1.128V2253h4.285v8.828Z" transform="translate(1307 -2253)" fill="#fff"/></svg>