<svg xmlns="http://www.w3.org/2000/svg" width="510.405" height="274.049" viewBox="0 0 510.405 274.049"><g transform="translate(-1236.355 -497.951)"><g transform="translate(6638 1986)"><rect width="33.566" height="105.561" rx="14.241" transform="matrix(0.934, 0.358, -0.358, 0.934, -5141.577, -1477.425)" fill="#fff" stroke="#fff" stroke-width="1"/><rect width="33.566" height="105.561" rx="14.241" transform="translate(-5310.234 -1324.451)" fill="#fff" stroke="#fff" stroke-width="1"/><path d="M5491.905,1352.87c-.055.635-.1,1.28-.1,1.93v109.078a20.957,20.957,0,0,0,20.813,21.181h110.926a20.957,20.957,0,0,0,20.813-21.181V1354.8c0-.651-.022-1.3-.078-1.93h-152.37Z" transform="translate(-10823.671 -2763.871)" fill="#fff" stroke="#fff" stroke-width="0"/><rect width="33.566" height="105.561" rx="14.241" transform="translate(-5258.393 -1309.299) rotate(-29.597)" fill="#fff" stroke="#fff" stroke-width="1"/><path d="M7296.729,643.862c.468-33.5,29.71-60.976,67.249-64.6h16.867c37.539,3.621,66.781,31.093,67.249,64.6Z" transform="translate(-12628.015 -2062.033)" fill="#fff" stroke="#fff" stroke-width="1"/><path d="M4087.722,390.742a8.685,8.685,0,1,1-8.683-8.48A8.583,8.583,0,0,1,4087.722,390.742Z" transform="translate(-9367.081 -1838.448)"/><path d="M4087.722,390.742a8.685,8.685,0,1,1-8.683-8.48A8.583,8.583,0,0,1,4087.722,390.742Z" transform="translate(-9302.269 -1838.448)"/><path d="M7301.69,576.523l17.7,30.665" transform="translate(-12627.129 -2062.523)" fill="#fff" stroke="#fff" stroke-linecap="round" stroke-linejoin="round" stroke-width="3"/><path d="M7422.9,576.523l-17.7,30.665" transform="translate(-12608.652 -2062.523)" fill="#fff" stroke="#fff" stroke-linecap="round" stroke-linejoin="round" stroke-width="3"/><rect width="33.566" height="105.561" rx="14.241" transform="matrix(-0.934, -0.358, 0.358, -0.934, -5369.654, -1298.484)" fill="#fff" stroke="#fff" stroke-width="1"/></g><path d="M99.735,19.3C114.3.094,134.557,0,134.557,0s3.013,18.053-11.46,35.444C107.643,54.013,90.078,50.974,90.078,50.974S86.78,36.37,99.735,19.3Zm-7.8,44.325c7.495,0,21.4-10.3,39.51-10.3,31.166,0,43.426,22.177,43.426,22.177a48.148,48.148,0,0,0-23.98,42.009c0,33.559,29.872,45.125,29.872,45.125S159.878,221.4,131.673,221.4c-12.954,0-23.026-8.73-36.675-8.73-13.91,0-27.713,9.056-36.7,9.056C32.538,221.729,0,165.975,0,121.159,0,77.066,27.542,53.936,53.374,53.936c16.794,0,29.826,9.685,38.556,9.685Z" transform="translate(1566 510)" fill="#fff"/><rect width="18" height="80" rx="9" transform="translate(1590 692)" fill="#fff"/><rect width="18" height="80" rx="9" transform="translate(1716 692)" fill="#fff"/><rect width="18" height="80" rx="9" transform="translate(1677 692)" fill="#fff"/><rect width="18" height="80" rx="9" transform="translate(1626 692)" fill="#fff"/></g></svg>