<svg xmlns="http://www.w3.org/2000/svg" width="407.755" height="352.087" viewBox="0 0 407.755 352.087"><g transform="translate(-1222.807 -462.043)"><path d="M-3462.494,2867.5l-.009,0a3.311,3.311,0,0,1-1.853-3.533l-.218-.1a3.312,3.312,0,0,1-3.906.812l-.009,0a3.31,3.31,0,0,1-1.579-4.407l14.731-31.164a3.311,3.311,0,0,1,4.407-1.578l.009,0a3.311,3.311,0,0,1,1.848,3.557l.206.1a3.312,3.312,0,0,1,3.922-.831l.009,0a3.31,3.31,0,0,1,1.807,3.757,9.872,9.872,0,0,1,3.008,12.121l-.478,1.011a7.582,7.582,0,0,1,.9,8.414,7.582,7.582,0,0,1-7.073,4.644l-.41.867a9.874,9.874,0,0,1-11.282,5.368,3.317,3.317,0,0,1-2.621,1.285A3.292,3.292,0,0,1-3462.494,2867.5Zm-11.981-5.661-.009,0a3.311,3.311,0,0,1-1.823-3.687,69.346,69.346,0,0,0-7.5-2.086c-2.34-.39-14.189,1.81-21,3.16a41.25,41.25,0,0,1-4.83,1,40.77,40.77,0,0,1-38.454-16.247,40.771,40.771,0,0,1-4.006-41.553l-.03-.07a40.76,40.76,0,0,1,34.646-23.293,40.759,40.759,0,0,1,36.965,19.4,38.624,38.624,0,0,1,2.319,4.35c3.29,6.12,9.1,16.67,10.911,18.25a65.981,65.981,0,0,0,6.389,4.513,3.312,3.312,0,0,1,3.97-.887l.009,0a3.309,3.309,0,0,1,1.578,4.406l-14.731,31.164a3.311,3.311,0,0,1-2.995,1.9A3.294,3.294,0,0,1-3474.474,2861.842Z" transform="translate(4815.152 -2280.563)" fill="#fff"/><line y1="11.36" x2="11.51" transform="translate(1337.25 485.82)" fill="none" stroke="#fcfcfc" stroke-linecap="round" stroke-linejoin="round" stroke-width="8.74"/><line y1="15.43" x2="2.26" transform="translate(1306.04 467)" fill="none" stroke="#fcfcfc" stroke-linecap="round" stroke-linejoin="round" stroke-width="8.74"/><line x1="7.45" y1="14.46" transform="translate(1264.62 475.37)" fill="none" stroke="#fcfcfc" stroke-linecap="round" stroke-linejoin="round" stroke-width="8.74"/><line x1="16.18" y1="7.65" transform="translate(1232.62 507.81)" fill="none" stroke="#fcfcfc" stroke-linecap="round" stroke-linejoin="round" stroke-width="8.74"/><line x1="1.48" y2="16.1" transform="translate(1289.49 595.13)" fill="none" stroke="#fcfcfc" stroke-linecap="round" stroke-linejoin="round" stroke-width="8.74"/><line x1="10.49" y2="11.54" transform="translate(1249.26 580.38)" fill="none" stroke="#fcfcfc" stroke-linecap="round" stroke-linejoin="round" stroke-width="8.74"/><line x1="15.9" y2="3.43" transform="translate(1228 549.43)" fill="none" stroke="#fcfcfc" stroke-linecap="round" stroke-linejoin="round" stroke-width="8.74"/><path d="M421.33,233l.27-.58a18,18,0,0,0-8.6-23.96l-73.2-34.61-.16-.08c-69-32.59-61.37-68.91-57-80l2.89-6.12a15,15,0,0,0-7.14-19.94h0a15,15,0,0,0-19.94,7.14l-95.83,202.8a15,15,0,0,0,7.14,19.94h0a15,15,0,0,0,19.94-7.14l3.13-6.61c5.79-10.44,29-39.31,97.71-6.93h0l.26.12A36.89,36.89,0,0,0,278,292.1c-7.38,15.62-3.29,33.11,9.08,39.59l-24.19,40.82L307,393.35l50.31-84.9,6.93,3.28a18,18,0,0,0,23.94-8.58l6-12.64A31.94,31.94,0,0,0,421.33,233Z" transform="translate(1193.58 420.78)" fill="#fff"/></g></svg>