<svg xmlns="http://www.w3.org/2000/svg" width="375.307" height="251.22" viewBox="0 0 375.307 251.22"><g transform="translate(-1298 -494.132)"><path d="M328.982,110.585A98.014,98.014,0,0,0,137.445,88.361a62.364,62.364,0,0,0-83.938,50.557c-.229,0-.456-.017-.686-.017a49.558,49.558,0,1,0,9.518,98.193,82.083,82.083,0,0,0,124.935,8.043,61.822,61.822,0,0,0,97.91-13.884,64.6,64.6,0,1,0,43.8-120.669Z" transform="translate(1294.738 475.14)" fill="#fff"/><path d="M103.293,90.932c-12.777,0-22.795-10.6-32.087-22.214-9.583,11.76-19.891,22.214-33.829,22.214C18.357,90.932,5,78.155,5,59.716S18.357,28.5,37.377,28.5c13.648,0,24.1,11.034,33.684,23.085C80.353,39.97,90.081,28.936,103,28.5h.145c18,0,32.523,13.938,32.523,31.216C135.671,77.574,118.538,90.932,103.293,90.932ZM77.885,60.151c8.276,10.308,16.7,20.181,25.408,20.181,12.2,0,21.778-11.034,21.778-20.617,0-11.18-9.873-20.472-21.633-20.617C94.437,39.534,86.451,49.262,77.885,60.151ZM37.377,39.1C24.165,39.1,15.6,47.229,15.6,59.716c0,12.341,8.711,20.617,21.778,20.617,9.873,0,18.584-9.583,27.005-20.181C55.816,49.407,46.96,39.1,37.377,39.1Z" transform="translate(1456.023 507.068)"/></g></svg>