<svg xmlns="http://www.w3.org/2000/svg" width="332.75" height="443.765" viewBox="0 0 332.75 443.765"><g transform="translate(-1343 -398.867)"><path d="M-5495.245,3048.173c-12.69-1.785-16.326-2.741-25.318-6.951q-20.471-9.375-37.116-10.649c-1.248-.1-2.348-.216-3.321-.351V3044h-48V2890h48v.3c2.1-1.986,4.886-4.536,8.615-7.937,5.227-4.719,13.326-12.754,17.983-17.856,23.66-25.7,38.2-47.132,49.553-72.958,3.061-6.951,4.91-9.568,8.037-11.226,8.672-4.526,20.854,2.935,27.231,16.836,10.139,21.812,3.635,48.725-17.727,73.467-2.044,2.3-3.573,4.592-3.446,4.975.318.956,3.251.829,16.39-.51,21.941-2.362,45.219-1.405,57.27,2.231,16.262,4.975,22.385,15.369,17.41,29.272-.7,1.913-1.722,4.783-2.3,6.25-1.4,4.019-.767,6.25,3.57,11.991,4.912,6.5,6.57,10.712,6.57,16.518s-1.722,9.437-7.079,14.986c-4.912,4.973-5.358,6.375-3.381,9.885,6.378,11.1,7.589,15.242,6.441,21.492-.893,4.975-2.677,8.227-7.079,12.947-5.231,5.677-5.358,6.315-2.294,14.668,4.208,11.544-.065,20.728-12.628,26.787-11.736,5.677-25,7.908-49.809,8.418-3.212.066-6.3.1-9.29.1A268.1,268.1,0,0,1-5495.245,3048.173Z" transform="translate(6952 -2208)" fill="#fff"/><path d="M-5553.763,2909.441c-6.161-.866-7.928-1.329-12.294-3.369q-9.939-4.544-18.022-5.16c-.605-.05-1.14-.1-1.612-.17v6.677H-5609v-74.628h23.308v.143c1.021-.962,2.372-2.2,4.182-3.845,2.54-2.286,6.471-6.18,8.733-8.653,11.488-12.455,18.549-22.839,24.061-35.355,1.487-3.369,2.385-4.637,3.9-5.441,4.212-2.193,10.127,1.423,13.224,8.159,4.924,10.569,1.764,23.612-8.609,35.6a7.571,7.571,0,0,0-1.672,2.411c.155.463,1.58.4,7.959-.248,10.653-1.144,21.957-.681,27.809,1.081,7.9,2.411,10.87,7.448,8.453,14.185-.339.927-.836,2.318-1.113,3.029-.683,1.948-.373,3.029,1.733,5.811,2.384,3.153,3.189,5.192,3.189,8s-.836,4.573-3.437,7.262c-2.385,2.41-2.6,3.09-1.641,4.79,3.1,5.377,3.685,7.386,3.127,10.415-.433,2.411-1.3,3.987-3.437,6.274-2.539,2.751-2.6,3.06-1.115,7.109,2.044,5.594-.031,10.044-6.132,12.98-5.7,2.75-12.14,3.832-24.185,4.079-1.555.032-3.05.048-4.5.048A130.687,130.687,0,0,1-5553.763,2909.441Z" transform="translate(6773.925 -2945.343) rotate(-7)" fill="#fff"/><path d="M-5569.112,2873.767c-4.449-.629-5.725-.966-8.878-2.448a38.606,38.606,0,0,0-13.015-3.749c-.437-.036-.823-.076-1.164-.124v4.851H-5609V2818.08h16.831v.1c.737-.7,1.713-1.6,3.02-2.794,1.834-1.661,4.673-4.49,6.307-6.287,8.3-9.049,13.395-16.593,17.375-25.686,1.074-2.447,1.722-3.369,2.818-3.953,3.042-1.593,7.313,1.034,9.549,5.928,3.556,7.678,1.274,17.154-6.217,25.865a5.505,5.505,0,0,0-1.208,1.752c.112.336,1.141.292,5.748-.18,7.693-.831,15.855-.495,20.081.785,5.7,1.752,7.85,5.411,6.1,10.306-.245.674-.6,1.684-.8,2.2-.494,1.416-.27,2.2,1.251,4.222,1.722,2.291,2.3,3.772,2.3,5.815s-.6,3.323-2.482,5.276c-1.722,1.751-1.878,2.245-1.185,3.48,2.236,3.907,2.661,5.366,2.258,7.567a8.161,8.161,0,0,1-2.482,4.558c-1.833,2-1.878,2.223-.805,5.165,1.477,4.064-.022,7.3-4.428,9.43-4.115,2-8.766,2.784-17.465,2.964-1.122.023-2.2.035-3.247.035A93.808,93.808,0,0,1-5569.112,2873.767Z" transform="matrix(0.966, 0.259, -0.259, 0.966, 7601.929, -833.724)" fill="#fff"/></g></svg>