<svg id="Layer_1" data-name="Layer 1" xmlns="http://www.w3.org/2000/svg" viewBox="0 0 187 187"><path d="M77,58.13a18.62,18.62,0,0,1,4.42-7,17.3,17.3,0,0,1,27.22,4c4.16,7.58,8.58,15,12.88,22.5,7.16,12.47,14.42,24.93,21.5,37.43a17.23,17.23,0,1,1-30.13,16.71Q103.41,115.37,93.94,99a4.06,4.06,0,0,0-.46-.66,6.92,6.92,0,0,1-1.38-2c-2.79-4.92-5.67-9.79-8.46-14.67-1.79-3.17-3.67-6.29-5.46-9.46A17.33,17.33,0,0,1,75.89,63,12.65,12.65,0,0,1,77,58.13"/><path d="M77,58.13a24.11,24.11,0,0,0-.79,4.58,18.09,18.09,0,0,0,2.5,9.8q6.88,11.8,13.71,23.71c.42.71.75,1.42,1.17,2.09-2.5,4.33-5,8.62-7.54,13-3.5,6-7,12.13-10.55,18.17-.16,0-.21-.08-.25-.21a2.74,2.74,0,0,1,.17-1,16.77,16.77,0,0,0-4-16.54,15.87,15.87,0,0,0-9.8-5,16.94,16.94,0,0,0-13.38,3.71c-.7.54-1.16,1.34-2,1.75a.28.28,0,0,1-.29-.21c2-3.46,4-6.91,6-10.37q12.37-21.51,24.8-43c.08-.17.21-.3.29-.46"/><path d="M46.09,112.06c.79-.71,1.54-1.46,2.37-2.13A17.23,17.23,0,0,1,76,120.39a18.31,18.31,0,0,1-.66,8.88,4.57,4.57,0,0,1-.17.71c-.37.67-.71,1.38-1.13,2-3.7,6.13-9.16,9.17-16.33,8.71a17.11,17.11,0,0,1-15.8-14.92,16.67,16.67,0,0,1,2.29-11.08c.42-.75.92-1.42,1.38-2.17.21-.17.12-.5.5-.5"/></svg>