<svg id="Layer_1" data-name="Layer 1" xmlns="http://www.w3.org/2000/svg" viewBox="0 0 187 187"><defs><style>.cls-1{fill:#fff;}</style></defs><g id="vlpa"><g id="vlpb"><g id="vlpc"><g id="vlpd"><path d="M61,44.42h65a17.81,17.81,0,0,1,17.83,17.83v62.5A17.81,17.81,0,0,1,126,142.58H61a17.81,17.81,0,0,1-17.83-17.83V62.25A17.81,17.81,0,0,1,61,44.42Z"/></g></g></g><g id="vlpe"><g id="vlpf"><path class="cls-1" d="M91.82,103.15H76.22L73,113a.74.74,0,0,1-.8.59H64.34c-.46,0-.58-.26-.46-.76L77.39,74c.13-.42.25-.88.42-1.38a14.59,14.59,0,0,0,.25-2.73.42.42,0,0,1,.34-.46H89.26c.34,0,.51.12.55.33l15.31,43.21c.13.47,0,.68-.42.68H95.93a.64.64,0,0,1-.67-.47l-3.44-10ZM78.65,94.63H89.3c-.25-.88-.58-1.93-1-3s-.76-2.35-1.13-3.61-.8-2.55-1.22-3.86-.8-2.51-1.13-3.73-.63-2.26-.93-3.27h-.08a51.45,51.45,0,0,1-1.43,5.41c-.62,2-1.25,4.11-1.93,6.21S79.28,92.87,78.65,94.63Z"/><path class="cls-1" d="M114.48,76.72a5.19,5.19,0,0,1-3.74-1.47,5.43,5.43,0,0,1-1.42-3.86,4.87,4.87,0,0,1,1.51-3.73,5.34,5.34,0,0,1,3.73-1.47,5,5,0,0,1,3.82,1.47,5.77,5.77,0,0,1-.09,7.59,4.92,4.92,0,0,1-3.81,1.47Zm-4.7,36.41V80.83c0-.42.17-.59.54-.59h8.31c.38,0,.54.21.54.59v32.3c0,.47-.16.67-.54.67h-8.22A.59.59,0,0,1,109.78,113.13Z"/></g></g></g></svg>