<svg id="Layer_1" data-name="Layer 1" xmlns="http://www.w3.org/2000/svg" viewBox="0 0 187 187"><path d="M116.25,75.5a4.67,4.67,0,1,0-6.5,6.7,15.47,15.47,0,0,1,0,22.4,4.62,4.62,0,0,0-.1,6.6,4.53,4.53,0,0,0,3.4,1.4,4.77,4.77,0,0,0,3.3-1.3,24.7,24.7,0,0,0,7.6-18A25.44,25.44,0,0,0,116.25,75.5Z"/><path d="M127,62.1a4.68,4.68,0,0,0-6.2,7,32.76,32.76,0,0,1,0,48.8,4.72,4.72,0,0,0-.4,6.6,4.79,4.79,0,0,0,3.5,1.6,4.65,4.65,0,0,0,3.1-1.2,42.21,42.21,0,0,0,14-31.4A41.5,41.5,0,0,0,127,62.1Z"/><path d="M94.05,56.3,65.75,77.4H48.85a2.8,2.8,0,0,0-2.8,2.8v26.5a2.8,2.8,0,0,0,2.8,2.8h16.9l28.3,21.2a2.8,2.8,0,0,0,4.5-2.3V58.5A2.8,2.8,0,0,0,94.05,56.3Z"/></svg>