<svg id="Layer_1" data-name="Layer 1" xmlns="http://www.w3.org/2000/svg" viewBox="0 0 187 187"><defs><style>.cls-1{fill:#252f3e;}.cls-2{fill:#f90;fill-rule:evenodd;}</style></defs><path class="cls-1" d="M69.38,84.45a11.42,11.42,0,0,0,.4,3.28A19.36,19.36,0,0,0,71,90.37a1.66,1.66,0,0,1,.26.85,1.43,1.43,0,0,1-.7,1.1L68.2,93.87a1.76,1.76,0,0,1-1,.33,1.72,1.72,0,0,1-1.11-.52A12.13,12.13,0,0,1,64.82,92c-.37-.63-.74-1.33-1.14-2.17a13.59,13.59,0,0,1-10.81,5.07,10,10,0,0,1-7.35-2.65,10.35,10.35,0,0,1,.62-14.63c2.24-1.91,5.22-2.87,9-2.87a28.19,28.19,0,0,1,3.9.3c1.36.18,2.75.47,4.22.8V73.13c0-2.79-.58-4.74-1.72-5.88s-3.17-1.69-6-1.69a16.79,16.79,0,0,0-4,.47,30,30,0,0,0-4,1.25,9.62,9.62,0,0,1-1.29.48,2,2,0,0,1-.58.11c-.52,0-.78-.37-.78-1.14v-1.8a2.37,2.37,0,0,1,.26-1.29,3,3,0,0,1,1-.77,21.27,21.27,0,0,1,4.63-1.65,22.29,22.29,0,0,1,5.74-.7c4.38,0,7.57,1,9.63,3s3,5,3,9V84.45ZM54.45,90a12,12,0,0,0,3.79-.66A8.2,8.2,0,0,0,61.73,87,5.82,5.82,0,0,0,63,84.68a13.28,13.28,0,0,0,.37-3.2V79.93A29,29,0,0,0,60,79.31a27.25,27.25,0,0,0-3.46-.22c-2.46,0-4.27.47-5.48,1.47A5.25,5.25,0,0,0,54.45,90ZM84,94a2.08,2.08,0,0,1-1.4-.36,3,3,0,0,1-.77-1.44L73.17,63.79a6,6,0,0,1-.34-1.47.81.81,0,0,1,.89-.92h3.6a2,2,0,0,1,1.43.37,2.92,2.92,0,0,1,.74,1.43l6.18,24.34L91.4,63.2a2.65,2.65,0,0,1,.7-1.43,2.55,2.55,0,0,1,1.47-.37h2.94a2.18,2.18,0,0,1,1.47.37,2.38,2.38,0,0,1,.7,1.43l5.81,24.64,6.36-24.64a3.13,3.13,0,0,1,.74-1.43A2.38,2.38,0,0,1,113,61.4h3.42a.82.82,0,0,1,.92.92,4.68,4.68,0,0,1-.07.59,5.48,5.48,0,0,1-.26.92l-8.86,28.42a2.81,2.81,0,0,1-.77,1.43,2.37,2.37,0,0,1-1.4.37h-3.16a2.18,2.18,0,0,1-1.47-.37,2.54,2.54,0,0,1-.7-1.47L95,68.5,89.31,92.18a3,3,0,0,1-.7,1.47,2.34,2.34,0,0,1-1.47.36Zm47.24,1a24.4,24.4,0,0,1-5.66-.66,16.75,16.75,0,0,1-4.23-1.48,2.65,2.65,0,0,1-1.14-1,2.77,2.77,0,0,1-.22-1V88.94c0-.77.3-1.14.85-1.14a2.17,2.17,0,0,1,.66.11c.22.07.55.22.92.37a20.52,20.52,0,0,0,4,1.29,22.44,22.44,0,0,0,4.38.44,9.9,9.9,0,0,0,5.37-1.22,4,4,0,0,0,1.91-3.49,3.58,3.58,0,0,0-1-2.57,9.33,9.33,0,0,0-3.72-1.92l-5.33-1.65a11.26,11.26,0,0,1-5.88-3.75,8.79,8.79,0,0,1-1.84-5.33,8.16,8.16,0,0,1,1-4.08A9.47,9.47,0,0,1,124,63a11.71,11.71,0,0,1,3.82-1.91,16.1,16.1,0,0,1,4.64-.63,18.46,18.46,0,0,1,2.46.15c.85.11,1.62.26,2.39.41s1.43.36,2.1.58a8.72,8.72,0,0,1,1.54.67,3,3,0,0,1,1.1.92,2,2,0,0,1,.33,1.21v1.73c0,.77-.29,1.17-.84,1.17a3.71,3.71,0,0,1-1.4-.44,16.9,16.9,0,0,0-7.06-1.43,9.49,9.49,0,0,0-4.89,1,3.55,3.55,0,0,0-1.73,3.27,3.46,3.46,0,0,0,1.11,2.61,10.8,10.8,0,0,0,4,2L136.81,76a11.12,11.12,0,0,1,5.7,3.53,8.31,8.31,0,0,1,1.69,5.15,9.5,9.5,0,0,1-.95,4.26,10,10,0,0,1-2.69,3.24,11.88,11.88,0,0,1-4.08,2.06A17.6,17.6,0,0,1,131.22,95Z"/><path class="cls-2" d="M138.17,112.88c-12.09,8.93-29.67,13.68-44.78,13.68a81.07,81.07,0,0,1-54.68-20.85c-1.14-1-.11-2.43,1.25-1.62a110.32,110.32,0,0,0,54.72,14.52,109.1,109.1,0,0,0,41.73-8.53C138.43,109.16,140.16,111.41,138.17,112.88Z"/><path class="cls-2" d="M143.21,107.14c-1.54-2-10.22-1-14.16-.48-1.17.15-1.36-.88-.29-1.65,6.91-4.85,18.27-3.46,19.6-1.84s-.37,13-6.84,18.46c-1,.84-2,.4-1.51-.7C141.48,117.29,144.75,109.09,143.21,107.14Z"/></svg>