<svg id="Layer_1" data-name="Layer 1" xmlns="http://www.w3.org/2000/svg" viewBox="0 0 187 187"><defs><style>.cls-1{fill:#231f20;}</style></defs><path class="cls-1" d="M77,122.37a6,6,0,0,1-5.93,5.93,5.79,5.79,0,0,1-5.92-5.93V97A6,6,0,0,1,71.06,91,5.79,5.79,0,0,1,77,97Z"/><path class="cls-1" d="M93.92,129.14A6,6,0,0,1,88,135.07c-3.39,0-5.65-2.54-5.65-5.93V90.48a6,6,0,0,1,5.93-5.93,5.79,5.79,0,0,1,5.93,5.93v38.66Z"/><path class="cls-1" d="M59.78,116.72a6,6,0,0,1-5.93,5.93,5.79,5.79,0,0,1-5.93-5.93V102.9a5.93,5.93,0,0,1,11.86,0Z"/><path class="cls-1" d="M110.86,135.35a5.79,5.79,0,1,1-11.57,0V84a5.93,5.93,0,1,1,11.85,0v51.36Z"/><path class="cls-1" d="M129.48,132.81a12.06,12.06,0,0,1-3.1-.56L119.32,130a2.23,2.23,0,1,1,1.41-4.23l7.34,2.25a4.52,4.52,0,0,0,4.52-.84,4.58,4.58,0,0,0,2-4V76.09a4.91,4.91,0,0,0-3.39-4.8L62,50.41a5.15,5.15,0,0,0-4.51.56,6,6,0,0,0-2,4.23V87.66a2.26,2.26,0,1,1-4.51,0V55.2A9,9,0,0,1,55,47.58a9.24,9.24,0,0,1,8.47-1.41L132.3,67.06a9.75,9.75,0,0,1,6.78,9.31V123.5a9.9,9.9,0,0,1-4,7.9,18.61,18.61,0,0,1-5.65,1.41"/></svg>