<svg id="Layer_1" data-name="Layer 1" xmlns="http://www.w3.org/2000/svg" viewBox="0 0 187 187"><defs><style>.cls-1{fill:#231f20;}.cls-2{fill:#fff;}</style></defs><path class="cls-1" d="M44.74,56.18c-.24-6.78,5-13,12.18-13h73.16c7.14,0,12.43,6.26,12.19,13-.23,6.51.07,14.94,2.19,21.82s5.72,11.26,11.61,11.82v6.36c-5.89.56-9.48,4.92-11.61,11.82s-2.42,15.31-2.19,21.83c.24,6.78-5.05,13-12.19,13H56.92c-7.14,0-12.42-6.25-12.18-13,.23-6.52-.07-15-2.19-21.83S36.82,96.74,30.93,96.18V89.82c5.89-.56,9.49-4.92,11.62-11.82S45,62.69,44.74,56.18Z"/><path class="cls-2" d="M96.21,120H73.91V66H96.1c10,0,16.47,5.39,16.47,13.73a12.48,12.48,0,0,1-8.39,11.62c6.68,1.41,11.06,6.53,11.06,13.19C115.24,114.07,108,120,96.21,120Zm-12.86-7.73H94.48c5.08,0,11.14-1.44,11.14-8.28,0-5.43-3.91-8.18-11.63-8.18H83.35Zm0-23.74h9c7,0,10.83-2.73,10.83-7.7,0-4.6-3.22-7.14-9.06-7.14H83.35Z"/></svg>