<svg id="Layer_1" data-name="Layer 1" xmlns="http://www.w3.org/2000/svg" xmlns:xlink="http://www.w3.org/1999/xlink" viewBox="0 0 187 187"><defs><style>.cls-1{fill:url(#linear-gradient);}.cls-2{stroke:#fff;fill:url(#linear-gradient-2);}</style><linearGradient id="linear-gradient" x1="43.53" y1="1762.37" x2="152.88" y2="1675.57" gradientTransform="matrix(1, 0, 0, -1, 0, 1815.7)" gradientUnits="userSpaceOnUse"><stop offset="0" stop-color="#9013fe"/><stop offset="1" stop-color="#6610f2"/></linearGradient><linearGradient id="linear-gradient-2" x1="77.16" y1="1745.11" x2="101.6" y2="1703.77" gradientTransform="matrix(1, 0, 0, -1, 0, 1815.7)" gradientUnits="userSpaceOnUse"><stop offset="0" stop-color="#fff"/><stop offset="1" stop-color="#f1e5fc"/></linearGradient></defs><path class="cls-1" d="M44.74,56.18c-.24-6.78,5-13,12.18-13h73.16c7.14,0,12.43,6.26,12.19,13-.23,6.51.07,14.94,2.19,21.82s5.72,11.26,11.61,11.82v6.36c-5.89.56-9.48,4.92-11.61,11.82s-2.42,15.31-2.19,21.83c.24,6.78-5.05,13-12.19,13H56.92c-7.14,0-12.42-6.25-12.18-13,.23-6.52-.07-15-2.19-21.83S36.82,96.74,30.93,96.18V89.82c5.89-.56,9.49-4.92,11.62-11.82S45,62.69,44.74,56.18Z"/><path class="cls-2" d="M96.21,119.51c11.56,0,18.53-5.66,18.53-15,0-7.05-5-12.16-12.35-13v-.3a11.85,11.85,0,0,0,9.68-11.54c0-8-6.33-13.23-16-13.23H74.41v53ZM82.85,73.2H94.07c6.1,0,9.56,2.72,9.56,7.64,0,5.26-4,8.2-11.33,8.2H82.85Zm0,39.58V95.32H94c8,0,12.13,2.94,12.13,8.68s-4,8.78-11.64,8.78Z"/></svg>