<svg id="Layer_1" data-name="Layer 1" xmlns="http://www.w3.org/2000/svg" viewBox="0 0 187 187"><defs><style>.cls-1{fill:#1f8ded;}</style></defs><path class="cls-1" d="M124,61.39h0l-1.8-1.69a9.61,9.61,0,0,0-13.58.65h0a9.91,9.91,0,0,0-1.46,2.22,3.55,3.55,0,0,0-4,.88l-38.67,42.6a3.53,3.53,0,0,0-.87,1.8l-3.6,17.7a3.6,3.6,0,0,0,2.91,4.18,3.47,3.47,0,0,0,1.72-.11l17.27-5.22a3.64,3.64,0,0,0,1.62-1l38.73-42.68a3.58,3.58,0,0,0,.48-4.12A9.49,9.49,0,0,0,124,61.39Zm-10.1,3.8a2.38,2.38,0,0,1,1.67-.79h.13a2.37,2.37,0,0,1,1.62.63l1.8,1.69a2.41,2.41,0,0,1,.16,3.41,2.37,2.37,0,0,1-1.67.78,2.42,2.42,0,0,1-1.8-.61l-.67-.59-1.21-1.1a2.41,2.41,0,0,1,0-3.41Z"/></svg>