<svg id="Layer_1" data-name="Layer 1" xmlns="http://www.w3.org/2000/svg" viewBox="0 0 187 187"><defs><style>.cls-1{fill:#264de4;}.cls-2{fill:#2965f1;}.cls-3{fill:#ebebeb;}.cls-4{fill:#fff;}</style></defs><g id="g3013"><polygon id="polygon2989" class="cls-1" points="144.97 42.78 135.6 147.85 93.44 159.54 51.39 147.87 42.02 42.78 144.97 42.78"/><polygon id="polygon2991" class="cls-2" points="127.57 141.16 135.58 51.38 93.5 51.38 93.5 150.61 127.57 141.16"/><polygon id="polygon2993" class="cls-3" points="63.5 90.35 64.66 103.24 93.5 103.24 93.5 90.35 63.5 90.35"/><polygon id="polygon2995" class="cls-3" points="93.5 64.26 93.45 64.26 61.18 64.26 62.35 77.15 93.5 77.15 93.5 64.26"/><polygon id="polygon2997" class="cls-3" points="93.5 137.23 93.5 123.82 93.44 123.84 79.09 119.96 78.17 109.68 71.2 109.68 65.23 109.68 67.04 129.92 93.44 137.25 93.5 137.23"/><polygon id="polygon3005" class="cls-4" points="109.33 103.24 107.83 119.95 93.45 123.83 93.45 137.24 119.88 129.92 120.07 127.74 123.1 93.81 123.41 90.35 125.74 64.26 93.45 64.26 93.45 77.15 111.62 77.15 110.44 90.35 93.45 90.35 93.45 103.24 109.33 103.24"/></g></svg>