<svg id="Layer_1" data-name="Layer 1" xmlns="http://www.w3.org/2000/svg" xmlns:xlink="http://www.w3.org/1999/xlink" viewBox="0 0 187 187"><defs><style>.cls-1{fill:none;}.cls-2{clip-path:url(#clip-path);}.cls-3{fill:#ef6c00;}.cls-4{fill:#ff9800;}</style><clipPath id="clip-path"><path class="cls-1" d="M133.55,59.87,97.29,38.94a7.61,7.61,0,0,0-7.61,0L53.41,59.87a7.64,7.64,0,0,0-3.8,6.6v41.88a7.62,7.62,0,0,0,3.8,6.58l18.14,10.49V146.8a2.28,2.28,0,0,0,3.43,2L133.59,115a7.6,7.6,0,0,0,3.8-6.58V66.46a7.67,7.67,0,0,0-3.84-6.59Z"/></clipPath></defs><g class="cls-2"><path class="cls-3" d="M137.35,62.08,93.49,87.41,49.61,62.08v50.65l21.94,12.66v25.33l65.8-38Z"/><path class="cls-4" d="M93.49,87.41,49.61,62.08,93.49,36.75l43.86,25.33Z"/><path class="cls-4" d="M92.72,86.64,49.89,61.91l-.28.17L93.49,87.41l43.86-25.33-1-.61Z"/><path class="cls-4" d="M93.49,87.72v-.31L49.89,62.23l-.28.16Z"/></g></svg>