<svg id="Layer_1" data-name="Layer 1" xmlns="http://www.w3.org/2000/svg" viewBox="0 0 187 187"><rect x="85.72" y="50.17" width="12.24" height="12.24"/><rect x="85.72" y="65.56" width="12.24" height="12.24"/><rect x="85.72" y="80.95" width="12.24" height="12.24"/><rect x="70.85" y="65.56" width="12.24" height="12.24"/><rect x="70.85" y="80.95" width="12.24" height="12.24"/><rect x="55.99" y="65.56" width="12.24" height="12.24"/><rect x="55.99" y="80.95" width="12.24" height="12.24"/><rect x="41.29" y="80.95" width="12.24" height="12.24"/><rect x="100.59" y="80.95" width="12.24" height="12.24"/><path d="M74.41,136.83c-45.1,0-39.85-39.7-39.85-39.7h75.29c12.69,0,16.89-4,16.89-4s-7.17-9.27,1.22-20.47c9.45,5.42,9.1,13.47,9.1,13.47s9.62-3.15,15.57,2.27c-3.33,10.85-18,10.15-18,10.15S121,136.83,74.41,136.83Z"/></svg>