<svg id="Layer_1" data-name="Layer 1" xmlns="http://www.w3.org/2000/svg" viewBox="0 0 187 187"><defs><style>.cls-1{fill:#00598e;}.cls-2{fill:#fff;}.cls-3{fill:#0073ba;}.cls-4{fill:#004975;}.cls-5{fill:#93c5e4;}.cls-6{fill:none;}</style></defs><path class="cls-1" d="M120.53,54.54c-6.34-3.94-12.31-5.5-18.29-9.44-3.71-2.51-8.85-8.49-13.15-13.63-.84,8.25-3.35,11.6-6.21,14-6.1,4.78-9.93,6.21-15.19,9.08C63.27,56.81,39.25,71.15,39.25,102S65.18,155.54,94,155.54s53.79-20.92,53.79-52.59S124.35,56.93,120.53,54.54Z"/><path class="cls-2" d="M110.82,128.75c1.91,0,3.94.12,5.38,1.08s2.27,3.11,2.75,4.3a1.68,1.68,0,0,1-1,2.39c-.84.48-1,.24-1.79-1.31s-1.56-3.11-5.74-3.11-5.5,1.44-7.53,3.11-2.75,2.27-3.47,1.31-.47-1.91.84-3.1a21.55,21.55,0,0,1,5.5-3.95,10.79,10.79,0,0,1,5-.72Z"/><path class="cls-3" d="M61.69,133.3c9.09-.12,10.76-1.68,18.77-5.26,43.27-19.37,51.28-37.06,52.83-41.12s3.83-10.64,1.43-17.93c-.46-1.41-.79-2.54-1-3.45a59.14,59.14,0,0,0-13.18-11c-6.22-4-12.31-5.5-18.29-9.45-3.7-2.39-8.84-8.48-13.15-13.62-.83,8.24-3.22,11.71-6.21,14-6.1,4.78-9.92,6.22-15.18,9.09C63.25,56.92,39.22,71.14,39.22,102a52.07,52.07,0,0,0,7.18,26.58l1.19,0C50.1,130.79,54,133.42,61.69,133.3Z"/><path class="cls-4" d="M120.5,54.53c-6.22-4-12.31-5.5-18.29-9.45-3.7-2.39-8.84-8.48-13.15-13.62-.83,8.24-3.22,11.71-6.21,14-6.1,4.78-9.92,6.22-15.18,9.09C63.25,56.92,39.22,71.14,39.22,102a52.07,52.07,0,0,0,7.18,26.58,55.49,55.49,0,0,0,47.56,27c28.81,0,53.79-20.92,53.79-52.59a54.72,54.72,0,0,0-14.07-37.4A59.37,59.37,0,0,0,120.5,54.53Zm14.53,14a53.71,53.71,0,0,1,11.83,34.42,52.83,52.83,0,0,1-4.28,21.22,48.91,48.91,0,0,1-11.53,16.3,55.2,55.2,0,0,1-57.46,10.21,54.74,54.74,0,0,1-17.18-11A51.4,51.4,0,0,1,40.12,102,50.78,50.78,0,0,1,52.47,68.17,56.81,56.81,0,0,1,68.09,55.32c1.27-.7,2.46-1.31,3.61-1.9a64,64,0,0,0,11.7-7.27c2.5-1.9,5.16-4.91,6.3-12.55,3.94,4.7,8.53,10,12,12.24a64.65,64.65,0,0,0,9.37,4.88A68.45,68.45,0,0,1,120,55.28l.11.07A57.65,57.65,0,0,1,135,68.52Z"/><path class="cls-5" d="M89.66,33.85a21.5,21.5,0,0,1,1.44,8.48,7.58,7.58,0,0,1-2.51,5.38c-.84.6-1.08,1.08-1.08,1.2,0,.48,1.08.84,1.08,1.91,0,1.32-.6,4-6.94,10.28S66.23,73.05,59.18,76.52s-10.4,3.23-11.35,1.55.35-5.37,4.78-10.28S71,55.84,71,55.84L88.47,43.65l1-4.66"/><path class="cls-2" d="M89.66,33.73C88.59,41.62,86.2,44,83,46.52a73.77,73.77,0,0,1-11.84,7.17c-3.1,1.55-14.34,7.77-20.2,16.73-1.79,2.75,0,3.83.36,4.07s4.43.72,13.15-4.54S77,61.58,81.89,56.44c2.63-2.75,3-4.3,3-5s-.6-1.2-1.55-1.44c-.48-.11-.6-.35,0-.71s3.1-1.56,3.7-2,3.47-2.4,3.59-5.5a22,22,0,0,0-1-8Z"/><path class="cls-2" d="M62.77,120.63c.12-9.33,8.84-18,19.84-18.17,14-.12,23.67,13.86,30.72,13.74,6-.12,17.45-11.83,23.07-11.83,6,0,7.65,6.22,7.65,9.92s-1.2,10.4-4.07,14.58-4.66,5.74-8,5.5c-4.31-.36-12.91-13.74-18.41-14-6.94-.24-22,14.46-33.83,14.46-7.17,0-9.32-1.08-11.71-2.63-3.59-2.51-5.38-6.33-5.26-11.59Z"/><path class="cls-6" d="M134.72,69c2.4,7.29.12,13.87-1.43,17.93S123.73,108.67,80.46,128c-8,3.58-9.68,5.14-18.77,5.26-7.65.12-11.59-2.51-14.1-4.78l-1.19,0a55.49,55.49,0,0,0,47.56,27c28.81,0,53.79-20.92,53.79-52.59a54.72,54.72,0,0,0-14.07-37.4C133.93,66.45,134.26,67.58,134.72,69Z"/></svg>