<svg id="Layer_1" data-name="Layer 1" xmlns="http://www.w3.org/2000/svg" viewBox="0 0 187 187"><defs><style>.cls-1{fill:#fff;}</style></defs><path d="M117.19,54.54c-6.33-3.94-12.31-5.5-18.28-9.44-3.71-2.51-8.85-8.49-13.15-13.63-.84,8.25-3.35,11.6-6.22,14-6.09,4.78-9.92,6.21-15.18,9.08C59.94,56.81,35.91,71.15,35.91,102s25.94,53.55,54.75,53.55,53.79-20.92,53.79-52.59S121,56.93,117.19,54.54Z"/><path d="M58.36,133.3c9.08-.12,10.76-1.68,18.77-5.26C120.4,108.67,128.4,91,130,86.92s3.82-10.64,1.43-17.93c-.46-1.41-.8-2.54-1-3.45a59.37,59.37,0,0,0-13.18-11c-6.22-4-12.31-5.5-18.29-9.45C95.17,42.69,90,36.6,85.73,31.46c-.83,8.24-3.23,11.71-6.21,14-6.1,4.78-9.92,6.22-15.18,9.09C59.91,56.92,35.89,71.14,35.89,102a52.07,52.07,0,0,0,7.18,26.58l1.18,0C46.77,130.79,50.71,133.42,58.36,133.3Z"/><path d="M117.17,54.53c-6.22-4-12.31-5.5-18.29-9.45C95.17,42.69,90,36.6,85.73,31.46c-.83,8.24-3.23,11.71-6.21,14-6.1,4.78-9.92,6.22-15.18,9.09C59.91,56.92,35.89,71.14,35.89,102a52.07,52.07,0,0,0,7.18,26.58,55.46,55.46,0,0,0,47.56,27c28.81,0,53.79-20.92,53.79-52.59a54.72,54.72,0,0,0-14.07-37.4A59.37,59.37,0,0,0,117.17,54.53Zm14.53,14a53.7,53.7,0,0,1,11.82,34.42,53,53,0,0,1-4.27,21.22,49,49,0,0,1-11.53,16.3,55.2,55.2,0,0,1-57.46,10.21,54.79,54.79,0,0,1-17.19-11A51.43,51.43,0,0,1,36.78,102,50.79,50.79,0,0,1,49.14,68.17,56.81,56.81,0,0,1,64.76,55.32c1.27-.7,2.46-1.31,3.61-1.9a64.32,64.32,0,0,0,11.7-7.27c2.5-1.9,5.16-4.91,6.29-12.55,4,4.7,8.53,10,12,12.24a65.26,65.26,0,0,0,9.38,4.88,69.09,69.09,0,0,1,8.92,4.56l.11.07A57.65,57.65,0,0,1,131.7,68.52Z"/><path d="M86.33,33.85a21.6,21.6,0,0,1,1.43,8.48,7.54,7.54,0,0,1-2.51,5.38c-.83.6-1.07,1.08-1.07,1.2,0,.48,1.07.84,1.07,1.91,0,1.32-.59,4-6.93,10.28S62.9,73.05,55.85,76.52s-10.4,3.23-11.36,1.55.36-5.37,4.79-10.28,18.4-12,18.4-12L85.13,43.65l1-4.66"/><path d="M86.33,33.73C85.25,41.62,82.86,44,79.64,46.52A73.77,73.77,0,0,1,67.8,53.69c-3.11,1.55-14.34,7.77-20.2,16.73-1.79,2.75,0,3.83.36,4.07s4.42.72,13.15-4.54,12.55-8.37,17.45-13.51c2.63-2.75,3-4.3,3-5S81,50.22,80,50c-.47-.11-.59-.35,0-.71s3.11-1.56,3.71-2,3.47-2.4,3.59-5.5a22,22,0,0,0-1-8Z"/><path d="M131.39,69c2.39,7.29.12,13.87-1.43,17.93S120.4,108.67,77.13,128c-8,3.58-9.69,5.14-18.77,5.26-7.65.12-11.59-2.51-14.11-4.78l-1.18,0a55.46,55.46,0,0,0,47.56,27c28.81,0,53.79-20.92,53.79-52.59a54.72,54.72,0,0,0-14.07-37.4C130.59,66.45,130.93,67.58,131.39,69Z"/><path class="cls-1" d="M107.49,128.75c1.91,0,3.94.12,5.38,1.08s2.27,3.11,2.74,4.3a1.68,1.68,0,0,1-1,2.39c-.84.48-1,.24-1.79-1.31s-1.56-3.11-5.74-3.11-5.5,1.44-7.53,3.11-2.75,2.27-3.47,1.31-.48-1.91.84-3.1a21.38,21.38,0,0,1,5.5-3.95,10.78,10.78,0,0,1,5-.72Z"/><path class="cls-1" d="M59.44,120.63c.11-9.33,8.84-18,19.84-18.17,14-.12,23.66,13.86,30.72,13.74,6-.12,17.45-11.83,23.07-11.83,6,0,7.65,6.22,7.65,9.92s-1.2,10.4-4.07,14.58-4.66,5.74-8,5.5c-4.3-.36-12.91-13.74-18.4-14-6.94-.24-22,14.46-33.83,14.46-7.17,0-9.32-1.08-11.72-2.63-3.58-2.51-5.37-6.33-5.25-11.59Z"/></svg>