<svg id="Layer_1" data-name="Layer 1" xmlns="http://www.w3.org/2000/svg" xmlns:xlink="http://www.w3.org/1999/xlink" viewBox="0 0 187 187"><defs><style>.cls-1{fill:#185c37;}.cls-2{fill:#21a366;}.cls-3{fill:#107c41;}.cls-4{opacity:0.1;}.cls-4,.cls-5{isolation:isolate;}.cls-5{opacity:0.2;}.cls-6{fill:url(#linear-gradient);}.cls-7{fill:#fff;}.cls-8{fill:#33c481;}</style><linearGradient id="linear-gradient" x1="53.1" y1="-1274.91" x2="85.91" y2="-1218.09" gradientTransform="translate(0 1340)" gradientUnits="userSpaceOnUse"><stop offset="0" stop-color="#18884f"/><stop offset="0.5" stop-color="#117e43"/><stop offset="1" stop-color="#0b6631"/></linearGradient></defs><path class="cls-1" d="M106.07,91.21,67.22,84.36V135a4.19,4.19,0,0,0,4.19,4.19h67a4.2,4.2,0,0,0,4.19-4.19h0V116.35Z"/><path class="cls-2" d="M106.07,47.79H71.41A4.19,4.19,0,0,0,67.22,52h0V70.65L106.07,93.5l20.57,6.86,16-6.86V70.65Z"/><path class="cls-3" d="M67.22,70.65h38.85V93.5H67.22Z"/><path class="cls-4" d="M95,66.08H67.22v57.13H95A4.2,4.2,0,0,0,99.21,119V70.26A4.19,4.19,0,0,0,95,66.08Z"/><path class="cls-5" d="M92.74,68.36H67.22V125.5H92.74a4.21,4.21,0,0,0,4.19-4.19V72.55A4.21,4.21,0,0,0,92.74,68.36Z"/><path class="cls-5" d="M92.74,68.36H67.22v52.56H92.74a4.19,4.19,0,0,0,4.19-4.18V72.55A4.21,4.21,0,0,0,92.74,68.36Z"/><path class="cls-5" d="M90.45,68.36H67.22v52.56H90.45a4.19,4.19,0,0,0,4.19-4.18V72.55A4.2,4.2,0,0,0,90.45,68.36Z"/><path class="cls-6" d="M48.55,68.36h41.9a4.19,4.19,0,0,1,4.19,4.19v41.9a4.19,4.19,0,0,1-4.19,4.19H48.55a4.2,4.2,0,0,1-4.19-4.19V72.55A4.2,4.2,0,0,1,48.55,68.36Z"/><path class="cls-7" d="M57.34,107.12l8.81-13.66L58.08,79.88h6.49L69,88.57c.4.82.68,1.43.83,1.84h.06c.29-.66.6-1.3.92-1.92l4.71-8.6h6l-8.28,13.5,8.49,13.73H75.32l-5.09-9.54a8.2,8.2,0,0,1-.6-1.27h-.08A6.4,6.4,0,0,1,69,97.55l-5.24,9.57Z"/><path class="cls-8" d="M138.45,47.79H106.07V70.65h36.57V52a4.2,4.2,0,0,0-4.19-4.19Z"/><path class="cls-3" d="M106.07,93.5h36.57v22.85H106.07Z"/></svg>