<svg id="Layer_1" data-name="Layer 1" xmlns="http://www.w3.org/2000/svg" viewBox="0 0 187 187"><path id="path0_fill" data-name="path0 fill" d="M77.1,142.58a16.4,16.4,0,0,0,16.4-16.4v-16.4H77.1a16.4,16.4,0,1,0,0,32.8Z"/><path id="path1_fill" data-name="path1 fill" d="M60.7,93.38A16.41,16.41,0,0,1,77.1,77H93.5v32.8H77.1A16.41,16.41,0,0,1,60.7,93.38Z"/><path id="path1_fill-2" data-name="path1 fill" d="M60.7,60.58a16.4,16.4,0,0,1,16.4-16.4H93.5V77H77.1A16.41,16.41,0,0,1,60.7,60.58Z"/><path id="path2_fill" data-name="path2 fill" d="M93.5,44.18h16.4a16.4,16.4,0,0,1,0,32.8H93.5Z"/><path id="path3_fill" data-name="path3 fill" d="M126.3,93.38A16.4,16.4,0,1,1,109.9,77,16.41,16.41,0,0,1,126.3,93.38Z"/></svg>