<svg id="Layer_1" data-name="Layer 1" xmlns="http://www.w3.org/2000/svg" xmlns:xlink="http://www.w3.org/1999/xlink" viewBox="0 0 187 187"><defs><style>.cls-1{fill:#ffa000;}.cls-2{fill:#f57c00;}.cls-3{fill:#ffca28;}.cls-4{fill:#fff;fill-opacity:0.2;}.cls-5{fill:#a52714;opacity:0.2;isolation:isolate;}.cls-6{fill:url(#linear-gradient);}</style><linearGradient id="linear-gradient" x1="1238.34" y1="482.03" x2="1239.16" y2="481.44" gradientTransform="matrix(95, 0, 0, -131, -117589, 63205.83)" gradientUnits="userSpaceOnUse"><stop offset="0" stop-color="#fff" stop-opacity="0.1"/><stop offset="0.14" stop-color="#fff" stop-opacity="0.08"/><stop offset="0.61" stop-color="#fff" stop-opacity="0.02"/><stop offset="1" stop-color="#fff" stop-opacity="0"/></linearGradient></defs><path class="cls-1" d="M56.1,125.07,68.76,44a2.34,2.34,0,0,1,4.38-.74L86.23,67.72l5.23-9.94a2.34,2.34,0,0,1,4.14,0l35.34,67.29Z"/><path class="cls-2" d="M99.85,93.5,86.23,67.71,56.1,125.07Z"/><path class="cls-3" d="M130.94,125.07l-9.7-60a2.34,2.34,0,0,0-4-1.27L56.1,125.07l33.85,19a7.05,7.05,0,0,0,6.84,0l34.15-19Z"/><path class="cls-4" d="M121.24,65.05a2.34,2.34,0,0,0-4-1.27L105.14,76,95.59,57.78a2.34,2.34,0,0,0-4.14,0l-5.22,9.94L73.13,43.29a2.34,2.34,0,0,0-4.37.75l-12.66,81h0l0,.05.33.16,60.84-60.9a2.34,2.34,0,0,1,4,1.26l9.62,59.49.09-.06-9.7-60ZM56.21,125,68.76,44.61a2.34,2.34,0,0,1,4.38-.75L86.23,68.29l5.23-9.94a2.34,2.34,0,0,1,4.14,0L105,76.14,56.21,125Z"/><path class="cls-5" d="M96.79,143.49a7.05,7.05,0,0,1-6.84,0L56.18,124.55l-.08.52,33.85,19a7,7,0,0,0,6.84,0l34.15-19-.09-.53-34.06,19Z"/><path id="b" class="cls-6" d="M121.14,65.06a2.32,2.32,0,0,0-3.94-1.26L105.1,76,95.58,57.79a2.32,2.32,0,0,0-4.12,0l-5.21,9.94-13-24.42a2.32,2.32,0,0,0-2.45-1.2,2.35,2.35,0,0,0-1.91,2l-12.61,81L90,144a6.94,6.94,0,0,0,6.81,0l34-19-9.67-60Z"/></svg>