<svg id="Layer_1" data-name="Layer 1" xmlns="http://www.w3.org/2000/svg" viewBox="0 0 187 187"><defs><style>.cls-1{fill-opacity:0.2;}.cls-2{opacity:0.2;isolation:isolate;}</style></defs><path d="M56.1,125.07,68.76,44a2.34,2.34,0,0,1,4.38-.74L86.23,67.72l5.23-9.94a2.34,2.34,0,0,1,4.14,0l35.34,67.29Z"/><path d="M99.85,93.5,86.23,67.71,56.1,125.07Z"/><path d="M130.94,125.07l-9.7-60a2.34,2.34,0,0,0-4-1.27L56.1,125.07l33.85,19a7.05,7.05,0,0,0,6.84,0l34.15-19Z"/><path class="cls-1" d="M121.24,65.05a2.34,2.34,0,0,0-4-1.27L105.14,76,95.59,57.78a2.34,2.34,0,0,0-4.14,0l-5.22,9.94L73.13,43.29a2.34,2.34,0,0,0-4.37.75l-12.66,81h0l0,.05.33.16,60.84-60.9a2.34,2.34,0,0,1,4,1.26l9.62,59.49.09-.06-9.7-60ZM56.21,125,68.76,44.61a2.34,2.34,0,0,1,4.38-.75L86.23,68.29l5.23-9.94a2.34,2.34,0,0,1,4.14,0L105,76.14,56.21,125Z"/><path class="cls-2" d="M96.79,143.49a7.05,7.05,0,0,1-6.84,0L56.18,124.55l-.08.52,33.85,19a7,7,0,0,0,6.84,0l34.15-19-.09-.53-34.06,19Z"/><path id="b" d="M121.14,65.06a2.32,2.32,0,0,0-3.94-1.26L105.1,76,95.58,57.79a2.32,2.32,0,0,0-4.12,0l-5.21,9.94-13-24.42a2.32,2.32,0,0,0-2.45-1.2,2.35,2.35,0,0,0-1.91,2l-12.61,81L90,144a6.94,6.94,0,0,0,6.81,0l34-19-9.67-60Z"/></svg>