<svg id="Layer_1" data-name="Layer 1" xmlns="http://www.w3.org/2000/svg" viewBox="0 0 187 187"><defs><style>.cls-1{fill:#f8ab00;}.cls-2{fill:#e37300;}</style></defs><g id="g6628"><path id="path3806" class="cls-1" d="M112.56,55.94v74c0,8.29,5.71,12.9,11.77,12.9,5.6,0,11.77-3.93,11.77-12.9V56.5c0-7.58-5.61-12.33-11.77-12.33A12,12,0,0,0,112.56,55.94Z"/><path id="path3808" class="cls-2" d="M81.73,93.5v36.43c0,8.29,5.71,12.9,11.77,12.9,5.61,0,11.77-3.93,11.77-12.9V94.06c0-7.58-5.6-12.33-11.77-12.33A12,12,0,0,0,81.73,93.5Z"/><path id="path3810" class="cls-2" d="M74.44,131.06a11.77,11.77,0,1,1-11.77-11.78,11.78,11.78,0,0,1,11.77,11.78"/></g></svg>