<svg id="Layer_1" data-name="Layer 1" xmlns="http://www.w3.org/2000/svg" viewBox="0 0 187 187"><path d="M93.5,44.57a50.17,50.17,0,0,0-15.86,97.77c2.51.47,3.32-1.09,3.32-2.41v-9.34c-14,3-16.86-5.92-16.86-5.92-2.29-5.8-5.58-7.34-5.58-7.34-4.55-3.11.35-3,.35-3,5,.35,7.69,5.17,7.69,5.17,4.47,7.67,11.73,5.46,14.6,4.17a10.68,10.68,0,0,1,3.18-6.7c-11.14-1.28-22.85-5.58-22.85-24.8a19.47,19.47,0,0,1,5.16-13.47c-.51-1.26-2.23-6.37.49-13.28,0,0,4.22-1.34,13.8,5.15a47.55,47.55,0,0,1,25.13,0c9.58-6.49,13.78-5.15,13.78-5.15,2.73,6.92,1,12,.5,13.28a19.42,19.42,0,0,1,5.16,13.47c0,19.27-11.74,23.51-22.91,24.75,1.8,1.56,3.44,4.61,3.44,9.29v13.77c0,1.34.81,2.9,3.35,2.41A50.18,50.18,0,0,0,93.5,44.57Z"/></svg>