<svg id="Layer_1" data-name="Layer 1" xmlns="http://www.w3.org/2000/svg" viewBox="0 0 187 187"><defs><style>.cls-1{fill:#dce7f2;}.cls-2{fill:#fff;}.cls-3{fill:#4499d4;}</style></defs><polygon class="cls-1" points="142.88 111.42 142.88 134.9 138.91 134.9 138.91 130.81 137.94 130.81 137.94 134.9 132.35 134.9 132.35 125.62 130.34 125.62 130.34 134.9 123.73 134.9 123.73 130.81 122.78 130.81 122.78 130.82 122.78 134.9 117.22 134.9 117.22 125.62 115.2 125.62 115.2 134.9 108.56 134.9 108.56 130.81 107.61 130.81 107.61 134.9 102.08 134.9 102.08 125.62 100.03 125.62 100.03 134.9 93.42 134.9 93.42 130.81 92.47 130.81 92.47 134.9 86.91 134.9 86.91 125.62 84.89 125.62 84.89 134.9 78.28 134.9 78.28 130.81 77.31 130.81 77.31 134.9 71.77 134.9 71.77 125.62 69.72 125.62 69.58 134.9 63.1 134.9 63.1 130.81 62.16 130.81 62.16 134.9 56.59 134.9 56.59 125.62 54.58 125.62 54.58 134.9 47.97 134.9 47.97 130.81 46.98 130.81 46.98 134.9 44.13 134.9 44.13 111.42 142.88 111.42"/><polygon class="cls-2" points="117.22 125.61 117.22 125.62 115.2 125.62 115.2 134.9 115.19 134.9 115.19 125.61 117.22 125.61"/><rect class="cls-2" x="100.05" y="125.61" width="2.02" height="0.01"/><polygon class="cls-2" points="132.38 125.61 132.38 134.9 132.35 134.9 132.35 125.62 130.35 125.62 130.35 125.61 132.38 125.61"/><rect class="cls-2" x="84.89" y="125.61" width="2.02" height="0.01"/><rect class="cls-2" x="69.57" y="130.82" width="0.01" height="4.08"/><rect class="cls-2" x="69.73" y="125.61" width="2.02" height="0.01"/><polygon class="cls-2" points="56.59 125.61 56.59 134.9 56.59 134.9 56.59 125.62 54.58 125.62 54.58 125.61 56.59 125.61"/><rect class="cls-2" x="62.15" y="130.82" width="0.01" height="4.08"/><polygon class="cls-2" points="122.78 130.82 122.78 134.9 122.78 130.82 122.78 130.82"/><rect class="cls-2" x="108.56" y="130.82" width="0.01" height="4.08"/><rect class="cls-2" x="92.47" y="130.82" width="0.01" height="4.08"/><rect class="cls-2" x="93.42" y="130.82" width="0.01" height="4.08"/><path class="cls-3" d="M97.37,111.37H90.9l-1.54-6.8C83.93,110.73,79,112.75,72,112.75c-17.33,0-27.69-13.75-27.69-30.32S54.62,52.1,72,52.1c12.64,0,23.25,6.72,24.78,19.75H86.84c-1-7.61-7.61-11.49-14.9-11.49-12.38,0-17.57,10.93-17.57,22s5.19,22,17.57,22c10.36.17,16-6.06,16.18-15.87H72.76V80.85H97.37v30.52Z"/><path class="cls-3" d="M96.07,53.57h46.79v8.74H124.5v49.07H114.39V62.31H96.07Z"/></svg>