<svg id="Layer_1" data-name="Layer 1" xmlns="http://www.w3.org/2000/svg" viewBox="0 0 187 187"><g id="g840"><path id="path15" d="M104.19,63.11a4.42,4.42,0,1,1-5.84,5.82,8.63,8.63,0,0,0-.4,2.62,8.84,8.84,0,0,0,17.67.79c0-.26,0-.52,0-.79a8.48,8.48,0,0,0-.38-2.6,8.75,8.75,0,0,0-10.87-5.9l-.18.06ZM84.68,71.52A4.44,4.44,0,0,1,82.93,63a8.48,8.48,0,0,0-2.6-.38,8.85,8.85,0,0,0,0,17.69,8.74,8.74,0,0,0,8.86-8.62v-.12A9.4,9.4,0,0,0,88.81,69,4.43,4.43,0,0,1,84.68,71.52Z"/><path id="path17" d="M109,51.19a30.84,30.84,0,0,0-31,0A30.77,30.77,0,0,0,62.61,47.1v31A61.86,61.86,0,0,0,124.39,140h0V47.1A30.77,30.77,0,0,0,109,51.19Zm-2.26,33.67a13.45,13.45,0,0,1-7.08-2.08l-6.19,6.15L87.3,82.72a12.91,12.91,0,0,1-7,2A13.29,13.29,0,1,1,93.54,70.35a13.25,13.25,0,1,1,13.17,14.51Z"/></g></svg>