<svg id="Layer_1" data-name="Layer 1" xmlns="http://www.w3.org/2000/svg" viewBox="0 0 187 187"><defs><style>.cls-1{fill:#1f8ded;}</style></defs><path class="cls-1" d="M130.42,98.51a3.36,3.36,0,0,1-6.71,0V68.33a3.36,3.36,0,0,1,6.71,0Zm-1.17,21c-.52.45-13,10.88-35.75,10.88S58.27,120,57.75,119.52a3.35,3.35,0,0,1,4.36-5.1c.2.16,11.3,9.27,31.39,9.27,20.34,0,31.27-9.17,31.38-9.27a3.36,3.36,0,0,1,4.37,5.1ZM56.58,68.33a3.36,3.36,0,0,1,6.71,0V98.51a3.36,3.36,0,0,1-6.71,0V68.33Zm16.78-6.71a3.36,3.36,0,0,1,6.72,0v44.83a3.36,3.36,0,0,1-6.72,0V61.62Zm16.78-1.7a3.36,3.36,0,0,1,3.36-3.36h0a3.36,3.36,0,0,1,3.36,3.36h0v48.66a3.36,3.36,0,0,1-6.72,0V59.92Zm16.78,1.7a3.36,3.36,0,0,1,6.72,0v44.83a3.36,3.36,0,0,1-6.72,0V61.62Zm24.34-18.46H55.74A12.58,12.58,0,0,0,43.16,55.74v75.52a12.58,12.58,0,0,0,12.58,12.58h75.52a12.58,12.58,0,0,0,12.58-12.58V55.74A12.58,12.58,0,0,0,131.26,43.16Z"/></svg>