<svg id="Layer_1" data-name="Layer 1" xmlns="http://www.w3.org/2000/svg" viewBox="0 0 187 187"><defs><style>.cls-1{fill:#f7df1e;}</style></defs><rect class="cls-1" x="42.5" y="42" width="102" height="102"/><path d="M111,121.69c2,3.35,4.73,5.82,9.45,5.82,4,0,6.51-2,6.51-4.73,0-3.28-2.6-4.45-7-6.36l-2.39-1c-6.92-3-11.51-6.64-11.51-14.44,0-7.19,5.47-12.66,14-12.66,6.1,0,10.48,2.12,13.64,7.67l-7.47,4.79c-1.64-2.94-3.41-4.1-6.17-4.1s-4.58,1.78-4.58,4.1c0,2.88,1.78,4,5.89,5.83l2.4,1c8.14,3.49,12.74,7.05,12.74,15.06,0,8.63-6.78,13.36-15.88,13.36-8.91,0-14.66-4.25-17.47-9.81Zm-33.86.83c1.5,2.67,2.87,4.93,6.17,4.93s5.13-1.23,5.13-6V88.84h9.59v32.72c0,9.92-5.82,14.44-14.31,14.44-7.68,0-12.12-4-14.38-8.76Z"/></svg>