<svg id="Layer_1" data-name="Layer 1" xmlns="http://www.w3.org/2000/svg" viewBox="0 0 187 187"><defs><style>.cls-1{fill:#fff;}</style></defs><g id="Group_317" data-name="Group 317"><g id="Group_23" data-name="Group 23"><rect id="Rectangle_15" data-name="Rectangle 15" x="42.5" y="42" width="102" height="102"/><path id="Path_500" data-name="Path 500" class="cls-1" d="M110.89,121.45c2,3.33,4.69,5.78,9.38,5.78,4,0,6.46-2,6.46-4.69,0-3.26-2.58-4.42-6.92-6.31l-2.38-1c-6.86-2.93-11.42-6.59-11.42-14.33,0-7.14,5.43-12.57,13.93-12.57,6,0,10.39,2.1,13.52,7.62l-7.4,4.75c-1.63-2.92-3.39-4.07-6.12-4.07s-4.56,1.76-4.56,4.07c0,2.86,1.77,4,5.85,5.78l2.38,1c8.08,3.46,12.64,7,12.64,14.94,0,8.56-6.72,13.25-15.76,13.25-8.83,0-14.53-4.21-17.33-9.73Zm-33.6.83c1.5,2.65,2.86,4.89,6.12,4.89s5.1-1.22,5.1-6V88.86H98v32.46c0,9.85-5.77,14.33-14.2,14.33-7.61,0-12-3.94-14.26-8.68Z"/></g></g></svg>