<svg id="Layer_1" data-name="Layer 1" xmlns="http://www.w3.org/2000/svg" viewBox="0 0 187 187"><path d="M116.44,90.82a7.37,7.37,0,0,1,2,0,6.69,6.69,0,0,0,.11-3.77c-.47-2.3-1.14-3.69-2.47-3.48s-1.39,1.89-.9,4.18a7.4,7.4,0,0,0,1.27,3.07Zm-11.52,1.82c1,.43,1.54.71,1.78.45.41-.4-.75-2-2.6-2.81a6.76,6.76,0,0,0-6.58.8c-.64.47-1.24,1.11-1.16,1.52.19.79,2.15-.58,4.87-.75a7.55,7.55,0,0,1,3.69.79ZM103,93.74c-1.95.3-3.22,1.39-2.9,2.16.2.07.26.18,1.12-.17a8.13,8.13,0,0,1,4-.43c.62.07.92.11,1.07-.1.28-.45-1.24-1.7-3.32-1.46Zm11.62,3.69c.73-1.48-2.33-3-3.06-1.51s2.36,3,3.06,1.51ZM118,93c-1.65,0-1.72,3.39-.06,3.43s1.73-3.41.06-3.43ZM71,110a1.61,1.61,0,0,1-1.83-.51c-1.11-1.72,2.38-4.38.65-7.7a4.6,4.6,0,0,0-7.53-1.2c-1.87,2.06-1.87,5.06-1.07,5.17s.88-1.4,1.58-2.51a2.75,2.75,0,0,1,3.82-.82,0,0,0,0,1,0,0c2.49,1.63.3,3.82.5,6.16.3,3.58,4,3.52,4.63,1.93a.48.48,0,0,0,0-.49c0,.23.12-.24-.73,0Zm64.43-3.66a37.5,37.5,0,0,0-1.46-4.42c.53-.8,3.28-5.17-.67-9.29-2.23-2.34-7.29-3.56-8.83-4-.33-2.44,1-12.61-4.64-17.84,4.46-4.64,7.25-9.74,7.25-14.12,0-8.4-10.36-11-23.1-5.68l-2.7,1.14-5-4.85C81.8,34.61,36.37,85.07,50.89,97.34L54.07,100a15.51,15.51,0,0,0-.88,7.21c.73,7.18,7.74,13,14.52,13,12.42,28.62,57.58,28.66,69.27.65a29,29,0,0,0,2-9.12c0-3.82-2.17-5.42-3.54-5.42ZM67.45,116.66c-4.91-.12-10.21-4.54-10.72-9.78-1.33-13.16,16-16.17,18.05-2.65,1,6.37-1,12.56-7.33,12.43Zm-4-24.55a12.54,12.54,0,0,0-7.89,5,22.85,22.85,0,0,1-3.35-3.22c-2.79-5.34,3.07-15.7,7.17-21.53C69.53,57.94,85.38,47,92.74,49c1.2.34,5.14,4.91,5.14,4.91a102.63,102.63,0,0,0-14.13,9.76C74.55,70.72,67.62,81,63.48,92.11Zm51.35,21.75a34.43,34.43,0,0,1-15-1.53c1.33-4.33,5.81,1.31,20.72-3a33.49,33.49,0,0,0,11-5.45,21.5,21.5,0,0,1,1.52,5.22c.79-.15,3.07-.11,2.47,3.88A20,20,0,0,1,130,124a23.32,23.32,0,0,1-6.69,5,29,29,0,0,1-4.38,1.84c-11.49,3.75-23.27-.36-27.09-9.24a18.94,18.94,0,0,1-.77-2.11c-1.61-5.85-.23-12.86,4.06-17.28a1.64,1.64,0,0,0,.53-1,1.79,1.79,0,0,0-.41-1c-1.5-2.19-6.71-5.9-5.66-13.08.75-5.17,5.26-8.8,9.48-8.58l1.07.06c1.83.11,3.41.35,4.92.41a9.79,9.79,0,0,0,7.44-2.49,5.73,5.73,0,0,1,2.85-1.61,3.78,3.78,0,0,1,2.92.48c2.14,1.43,2.44,4.89,2.55,7.42.06,1.43.24,5,.3,5.94.13,2.29.73,2.62,2,3,.69.24,1.33.39,2.25.67,2.84.79,4.51,1.6,5.6,2.63a3.62,3.62,0,0,1,1,2c.34,2.44-1.89,5.47-7.81,8.19-10,4.66-20.13,3.11-21.59,2.94-4.34-.58-6.8,5-4.21,8.84,4.87,7.18,26.32,4.29,32.54-4.59.15-.22,0-.35-.15-.22-9,6.14-20.87,8.22-27.63,5.6-1-.41-3.17-1.39-3.43-3.58,9.38,2.89,15.27.15,15.27.15s.48-.56-.08-.49ZM82.18,72.33a42.58,42.58,0,0,1,12-9.8.16.16,0,0,1,.22.06.22.22,0,0,1,0,.16,11.8,11.8,0,0,0-1.12,2.72.17.17,0,0,0,.13.19.15.15,0,0,0,.13,0,23.34,23.34,0,0,1,10.53-3.71.16.16,0,0,1,.17.15.2.2,0,0,1-.06.15,8.16,8.16,0,0,0-1.65,1.67.16.16,0,0,0,0,.22.15.15,0,0,0,.09,0,20.54,20.54,0,0,1,8.81,2.32c.17.08,0,.4-.13.36-14.95-3.43-26.46,4-28.91,5.77a.2.2,0,0,1-.23,0c-.07-.09-.07-.17,0-.22Z"/></svg>