<svg id="Layer_1" data-name="Layer 1" xmlns="http://www.w3.org/2000/svg" viewBox="0 0 187 187"><path d="M116.56,82.63c-5.61-24.76-17.31-31.35-20.3-36A53.34,53.34,0,0,1,93,40.23c-.16,2.2-.45,3.59-2.32,5.25C86.93,48.83,71,61.82,69.64,90c-1.25,26.23,19.29,42.4,22,44.07,2.09,1,4.63,0,5.87-.92,9.89-6.79,23.42-24.9,19.06-50.48"/><path d="M93.85,120.07c-.52,6.49-.89,10.26-2.2,14,0,0,.86,6.18,1.47,12.73h2.14a120,120,0,0,1,2.33-13.71C94.82,131.7,94,125.76,93.85,120.07Z"/><path d="M97.59,133.07h0c-2.8-1.3-3.61-7.36-3.74-13a264.1,264.1,0,0,0,.61-28c-.15-4.9.07-45.37-1.21-51.29a50.84,50.84,0,0,0,3,5.82c3,4.67,14.69,11.26,20.3,36C120.93,108.17,107.48,126.23,97.59,133.07Z"/></svg>