<svg id="Layer_1" data-name="Layer 1" xmlns="http://www.w3.org/2000/svg" viewBox="0 0 187 187"><defs><style>.cls-1{fill:#00758f;fill-rule:evenodd;}</style></defs><path class="cls-1" d="M70.71,66.53a9,9,0,0,0-2.33.28v.12h.11a18.9,18.9,0,0,0,1.82,2.33c.46.91.85,1.82,1.31,2.73l.11-.12A3.18,3.18,0,0,0,72.93,69a13.45,13.45,0,0,1-.69-1.19c-.34-.57-1.08-.86-1.53-1.31"/><path class="cls-1" d="M128.7,115.94c-4.55-.11-8.07.34-11,1.59-.85.34-2.21.34-2.33,1.42.46.46.51,1.2.91,1.83a13.62,13.62,0,0,0,3,3.46c1.19.91,2.39,1.82,3.64,2.62,2.22,1.37,4.72,2.16,6.88,3.52,1.25.8,2.5,1.82,3.75,2.68.63.45,1,1.19,1.82,1.47v-.17c-.4-.51-.51-1.25-.91-1.82-.57-.57-1.14-1.08-1.71-1.65a27,27,0,0,0-5.91-5.74c-1.82-1.25-5.8-3-6.54-5.05l-.11-.12a22.79,22.79,0,0,0,3.92-.92c1.93-.51,3.7-.39,5.69-.9.91-.23,1.82-.52,2.73-.8v-.51c-1-1-1.76-2.39-2.84-3.36a76.26,76.26,0,0,0-9.39-7c-1.76-1.14-4-1.87-5.91-2.84-.68-.34-1.82-.51-2.22-1.08a23.16,23.16,0,0,1-2.33-4.38c-1.65-3.13-3.24-6.59-4.66-9.9a61.08,61.08,0,0,0-2.9-6.48C96.35,72.16,90,66.3,80.2,60.56a26.85,26.85,0,0,0-7.27-2.33c-1.43-.06-2.85-.17-4.27-.23a22.44,22.44,0,0,1-2.61-2c-3.25-2-11.6-6.48-14-.63-1.54,3.7,2.27,7.34,3.58,9.22a26,26,0,0,1,2.9,4.26c.4,1,.51,2,.91,3a67.18,67.18,0,0,0,3,7.62A26.07,26.07,0,0,0,64.51,83c.46.63,1.25.91,1.42,1.93-.79,1.14-.85,2.84-1.31,4.27-2,6.42-1.25,14.38,1.65,19.1.91,1.42,3.07,4.55,6,3.35,2.56-1,2-4.26,2.73-7.1.17-.69.06-1.14.4-1.59v.11c.79,1.59,1.59,3.12,2.33,4.72a32.66,32.66,0,0,0,7.4,7.62c1.36,1,2.44,2.78,4.14,3.41v-.17h-.11a6.24,6.24,0,0,0-1.31-1.14,27.81,27.81,0,0,1-3-3.41,73,73,0,0,1-6.36-10.35c-.91-1.76-1.71-3.7-2.45-5.46-.34-.68-.34-1.7-.91-2-.85,1.25-2.1,2.33-2.72,3.86-1.09,2.45-1.2,5.46-1.6,8.59-.23.06-.11,0-.23.11-1.81-.45-2.44-2.33-3.12-3.92A24.48,24.48,0,0,1,67,89.73c.39-1.2,2.1-5,1.42-6.08-.35-1.09-1.48-1.71-2.11-2.57a22.77,22.77,0,0,1-2-3.63c-1.37-3.19-2.05-6.71-3.53-9.9a30.87,30.87,0,0,0-2.84-4.38c-1.08-1.53-2.28-2.61-3.13-4.43-.28-.63-.68-1.65-.23-2.33a.91.91,0,0,1,.8-.74c.74-.63,2.84.17,3.58.51A28.81,28.81,0,0,1,64.51,59c.8.57,1.65,1.65,2.67,1.94h1.2c1.82.39,3.86.11,5.57.62a36.5,36.5,0,0,1,8.19,3.93A50.44,50.44,0,0,1,99.87,85c.69,1.31,1,2.5,1.6,3.87,1.19,2.79,2.67,5.63,3.86,8.36a38.11,38.11,0,0,0,4,7.62c.86,1.19,4.27,1.81,5.8,2.44a41.85,41.85,0,0,1,3.93,1.59c1.93,1.19,3.86,2.56,5.68,3.87.91.68,3.75,2.1,3.92,3.24"/></svg>