<svg id="Layer_1" data-name="Layer 1" xmlns="http://www.w3.org/2000/svg" viewBox="0 0 187 187"><defs><style>.cls-1{fill:#61dafb;}</style></defs><path class="cls-1" d="M154.87,93.51c0-8.13-10.18-15.84-25.79-20.61,3.6-15.92,2-28.58-5.06-32.63a10.94,10.94,0,0,0-5.6-1.4v5.58a5.72,5.72,0,0,1,2.85.65c3.4,1.95,4.88,9.38,3.73,18.94-.28,2.35-.73,4.83-1.28,7.35a121.11,121.11,0,0,0-15.88-2.72A122.15,122.15,0,0,0,97.43,56.16c8.15-7.58,15.81-11.74,21-11.74V38.84h0c-6.88,0-15.88,4.91-25,13.41-9.11-8.45-18.11-13.31-25-13.31v5.58c5.17,0,12.86,4.13,21,11.66A119,119,0,0,0,79.14,68.67a115.86,115.86,0,0,0-15.91,2.75c-.58-2.5-1-4.93-1.31-7.26-1.17-9.55.28-17,3.66-19a5.56,5.56,0,0,1,2.88-.65V39h0a11.16,11.16,0,0,0-5.66,1.4c-7,4.05-8.61,16.69-5,32.55-15.56,4.8-25.69,12.49-25.69,20.59s10.18,15.84,25.79,20.62c-3.6,15.91-2,28.57,5.06,32.62a10.88,10.88,0,0,0,5.63,1.41c6.88,0,15.88-4.91,25-13.41,9.11,8.45,18.11,13.31,25,13.31a11.06,11.06,0,0,0,5.66-1.41c7-4.05,8.61-16.68,5-32.55C144.74,109.33,154.87,101.62,154.87,93.51ZM122.3,76.82c-.93,3.23-2.08,6.56-3.38,9.89-1-2-2.1-4-3.28-6s-2.37-4-3.6-5.85C115.59,75.37,119,76,122.3,76.82Zm-11.46,26.65c-2,3.38-4,6.58-6,9.56-3.73.32-7.51.5-11.31.5s-7.56-.18-11.26-.48c-2.08-3-4.1-6.15-6-9.5s-3.63-6.61-5.21-10c1.55-3.36,3.3-6.71,5.18-10s4-6.58,6-9.55c3.73-.33,7.51-.5,11.31-.5s7.56.17,11.26.47c2.08,3,4.1,6.16,6,9.51s3.63,6.6,5.21,10C114.44,96.84,112.72,100.19,110.84,103.47Zm8.08-3.25c1.35,3.35,2.5,6.7,3.45,10-3.27.8-6.73,1.47-10.31,2,1.23-1.93,2.46-3.91,3.61-5.93S117.89,102.22,118.92,100.22ZM93.55,126.91a103.25,103.25,0,0,1-7-8c2.26.1,4.56.17,6.88.17s4.68,0,7-.17A96.78,96.78,0,0,1,93.55,126.91ZM74.94,112.18c-3.56-.53-7-1.18-10.26-2,.92-3.23,2.07-6.55,3.37-9.88,1,2,2.11,4,3.28,6S73.71,110.28,74.94,112.18ZM93.42,60.11a101.36,101.36,0,0,1,7,8c-2.25-.1-4.55-.18-6.88-.18s-4.68,0-7,.18A98.93,98.93,0,0,1,93.42,60.11ZM74.91,74.85c-1.23,1.92-2.45,3.9-3.6,5.93s-2.23,4-3.26,6c-1.35-3.35-2.5-6.7-3.45-10C67.88,76.05,71.33,75.37,74.91,74.85ZM52.27,106.17c-8.86-3.78-14.59-8.73-14.59-12.66s5.73-8.9,14.59-12.66c2.15-.92,4.5-1.75,6.93-2.52a118.94,118.94,0,0,0,5.63,15.23,119.44,119.44,0,0,0-5.56,15.16A73.13,73.13,0,0,1,52.27,106.17Zm13.46,35.76c-3.4-2-4.88-9.39-3.73-18.94.28-2.36.73-4.83,1.28-7.36a121.07,121.07,0,0,0,15.88,2.73,122.15,122.15,0,0,0,10.41,12.51c-8.15,7.58-15.81,11.73-21,11.73A6,6,0,0,1,65.73,141.93Zm59.35-19.07c1.17,9.56-.28,17-3.66,19a5.56,5.56,0,0,1-2.88.65c-5.17,0-12.86-4.13-21-11.66a119,119,0,0,0,10.33-12.49,115.86,115.86,0,0,0,15.91-2.75A70.19,70.19,0,0,1,125.08,122.86Zm9.63-16.69c-2.15.93-4.51,1.75-6.93,2.53a122.15,122.15,0,0,0-5.63-15.24A118.22,118.22,0,0,0,127.7,78.3c2.48.78,4.83,1.63,7,2.55,8.86,3.78,14.59,8.73,14.59,12.66S143.56,102.42,134.71,106.17Z"/><circle class="cls-1" cx="93.47" cy="93.51" r="11.43"/></svg>