<svg id="Layer_1" data-name="Layer 1" xmlns="http://www.w3.org/2000/svg" viewBox="0 0 187 187"><defs><style>.cls-1{fill:#050505;}</style></defs><g id="Group_313" data-name="Group 313"><g id="React-icon"><path id="Path_486" data-name="Path 486" class="cls-1" d="M154.77,93.51c0-8.12-10.17-15.81-25.75-20.58C132.61,57,131,44.4,124,40.36a11,11,0,0,0-5.59-1.4v5.57a5.77,5.77,0,0,1,2.85.65c3.39,1.94,4.87,9.36,3.72,18.91-.28,2.34-.73,4.82-1.28,7.34a120,120,0,0,0-15.86-2.72A120.48,120.48,0,0,0,97.42,56.22c8.14-7.57,15.79-11.72,21-11.72V38.93h0c-6.87,0-15.86,4.9-25,13.39C84.36,43.88,75.36,39,68.5,39V44.6c5.17,0,12.83,4.13,21,11.64A118.35,118.35,0,0,0,79.16,68.71a116.9,116.9,0,0,0-15.88,2.75A73.64,73.64,0,0,1,62,64.21c-1.18-9.54.27-17,3.65-18.93a5.51,5.51,0,0,1,2.87-.65V39.06h0a11.18,11.18,0,0,0-5.65,1.4c-7,4-8.59,16.66-5,32.49-15.53,4.8-25.65,12.47-25.65,20.56S42.4,109.32,58,114.09C54.39,130,56,142.62,63,146.66a10.82,10.82,0,0,0,5.62,1.4c6.87,0,15.86-4.89,24.95-13.39,9.09,8.45,18.09,13.29,25,13.29a11.24,11.24,0,0,0,5.65-1.39c7-4,8.59-16.67,5-32.5C144.65,109.3,154.77,101.6,154.77,93.51ZM122.25,76.85c-.93,3.22-2.08,6.54-3.37,9.87-1-2-2.1-4-3.28-6s-2.37-3.94-3.59-5.84c3.54.52,7,1.17,10.24,2Zm-11.44,26.6c-2,3.37-4,6.57-6,9.54-3.72.33-7.5.5-11.29.5S86,113.31,82.26,113q-3.12-4.45-6.05-9.49T71,93.59c1.55-3.35,3.29-6.7,5.17-10s4-6.57,6-9.54c3.72-.33,7.49-.5,11.29-.5s7.54.18,11.24.47q3.11,4.47,6,9.49t5.2,9.95c-1.58,3.34-3.3,6.69-5.17,10Zm8.07-3.25c1.34,3.35,2.49,6.7,3.44,10-3.27.8-6.72,1.47-10.29,2,1.23-1.92,2.45-3.89,3.6-5.92s2.22-4,3.25-6ZM93.55,126.86a103.7,103.7,0,0,1-7-8c2.25.1,4.55.18,6.87.18s4.67-.05,7-.18a98.83,98.83,0,0,1-6.87,8ZM75,112.15c-3.55-.53-7-1.18-10.24-2,.93-3.22,2.08-6.54,3.37-9.86,1,2,2.1,4,3.28,6S73.74,110.25,75,112.15Zm18.46-52a103.55,103.55,0,0,1,7,8c-2.25-.1-4.55-.18-6.87-.18s-4.67,0-7,.18a97,97,0,0,1,6.87-8ZM74.94,74.88c-1.23,1.92-2.45,3.89-3.6,5.92s-2.23,4-3.25,6a103.05,103.05,0,0,1-3.44-9.94c3.27-.77,6.72-1.45,10.29-2ZM52.33,106.15c-8.84-3.77-14.56-8.71-14.56-12.64s5.72-8.89,14.56-12.64c2.15-.93,4.5-1.75,6.92-2.53a120.67,120.67,0,0,0,5.62,15.22,118.05,118.05,0,0,0-5.54,15.13C56.86,107.92,54.51,107.07,52.33,106.15Zm13.44,35.7c-3.39-1.95-4.87-9.37-3.72-18.91.28-2.35.73-4.82,1.28-7.34a123.08,123.08,0,0,0,15.86,2.72,121.54,121.54,0,0,0,10.39,12.49c-8.15,7.56-15.79,11.71-21,11.71a5.91,5.91,0,0,1-2.83-.68Zm59.25-19c1.18,9.55-.27,17-3.65,18.94a5.61,5.61,0,0,1-2.87.65c-5.17,0-12.84-4.12-21-11.64a118.26,118.26,0,0,0,10.31-12.47,115.52,115.52,0,0,0,15.89-2.75,71.87,71.87,0,0,1,1.3,7.27Zm9.62-16.66c-2.15.93-4.5,1.75-6.92,2.53a120.67,120.67,0,0,0-5.62-15.22,118.05,118.05,0,0,0,5.54-15.13q3.72,1.15,7,2.55c8.85,3.77,14.56,8.71,14.56,12.64s-5.74,8.88-14.58,12.63Z"/><circle id="Ellipse_2" data-name="Ellipse 2" class="cls-1" cx="93.47" cy="93.51" r="11.41"/></g></g></svg>