<svg id="Layer_1" data-name="Layer 1" xmlns="http://www.w3.org/2000/svg" viewBox="0 0 187 187"><defs><style>.cls-1{fill:#fff;}</style></defs><path d="M141.14,87.33c0-.13,0-.25,0-.38A15.89,15.89,0,0,0,116.9,73.41a27.29,27.29,0,0,0-52,.07,27.29,27.29,0,1,0-6.33,53.83,27.18,27.18,0,0,0,14.24-4A19.94,19.94,0,0,0,106,124a19.49,19.49,0,0,0,24.2-1.87,18.31,18.31,0,1,0,10.9-34.77Z"/><path class="cls-1" d="M84.57,101.7h5.87l-3.1-5-5.7,9H79.05L86,94.89a1.66,1.66,0,0,1,2.7,0l6.95,10.87H93l-1.22-2H85.88l-1.3-2m27,2V94.29h-2.2v10.36a1.06,1.06,0,0,0,.32.77,1.11,1.11,0,0,0,.81.34h10l1.31-2H111.52M75.09,102a3.88,3.88,0,0,0,0-7.75H65.45v11.45h2.2V96.32H75a1.85,1.85,0,1,1,0,3.7H68.74l6.58,5.72h3.19L74.1,102h1m-23.17,3.7h6.65a5.73,5.73,0,0,0,0-11.45H51.92a5.73,5.73,0,0,0-.3,11.45,1.5,1.5,0,0,0,.3,0m6.5-2H52.07a3.71,3.71,0,0,1,0-7.41h6.35a3.71,3.71,0,1,1,.24,7.41h-.24m41.81,2H107l1.28-2h-7.93a3.71,3.71,0,0,1-.24-7.41h6.7l1.3-2h-7.91a5.73,5.73,0,0,0-.3,11.45,1.5,1.5,0,0,0,.3,0m26.93-2a3.71,3.71,0,0,1-3.57-2.7H133l1.29-2h-10.7a3.71,3.71,0,0,1,3.57-2.7h6.46l1.29-2H127a5.73,5.73,0,0,0,0,11.45h6.79l1.29-2h-7.94"/></svg>