<svg id="Layer_1" data-name="Layer 1" xmlns="http://www.w3.org/2000/svg" viewBox="0 0 187 187"><path d="M84.75,96h8.57l-4.53-7.31-8.32,13.21H76.68L86.81,86.09a2.41,2.41,0,0,1,3.36-.6,2.37,2.37,0,0,1,.57.57l10.15,15.87H97.11l-1.78-3H86.65l-1.89-3m39.33,3V85.21h-3.21v15.12a1.59,1.59,0,0,0,.47,1.13,1.66,1.66,0,0,0,1.17.49h14.63l1.9-3h-15M70.91,96.52a5.66,5.66,0,0,0,0-11.31H56.85v16.72h3.21V88.17H70.71a2.71,2.71,0,1,1,0,5.41H61.65l9.59,8.35h4.67l-6.45-5.41h1.45M37.1,101.93h9.71a8.36,8.36,0,0,0,0-16.71H37.1a8.36,8.36,0,1,0-.44,16.71h.44M46.59,99H37.31a5.41,5.41,0,0,1,0-10.82h9.28A5.41,5.41,0,0,1,46.94,99h-.35m61,2.94h9.92L119.4,99H107.82a5.41,5.41,0,0,1-.35-10.82h9.77l1.9-3H107.6a8.36,8.36,0,1,0-.43,16.71h.43M146.9,99a5.42,5.42,0,0,1-5.21-3.94h13.73l1.89-3H141.69a5.4,5.4,0,0,1,5.21-3.93h9.42l1.89-3H146.68a8.36,8.36,0,0,0,0,16.71h9.91L158.48,99H146.89"/></svg>