<svg id="Layer_1" data-name="Layer 1" xmlns="http://www.w3.org/2000/svg" viewBox="0 0 187 187"><defs><style>.cls-1{fill:#001e36;}.cls-2{fill:#31a8ff;}</style></defs><g id="Layer_2" data-name="Layer 2"><g id="Surfaces"><g id="Photo_Surface" data-name="Photo Surface"><g id="Outline_no_shadow" data-name="Outline no shadow"><path class="cls-1" d="M61,44.42h65a17.81,17.81,0,0,1,17.83,17.83v62.5A17.81,17.81,0,0,1,126,142.58H61a17.81,17.81,0,0,1-17.83-17.83V62.25A17.81,17.81,0,0,1,61,44.42Z"/></g></g></g><g id="Outlined_Mnemonics_Logos" data-name="Outlined Mnemonics Logos"><g id="Ps"><path class="cls-2" d="M65.81,113.26V70.09c0-.29.13-.46.42-.46.71,0,1.39,0,2.35,0s2.06,0,3.19-.09,2.35,0,3.65-.08,2.56,0,3.82,0a24.68,24.68,0,0,1,8.64,1.3,14.91,14.91,0,0,1,5.62,3.44,13.37,13.37,0,0,1,3.06,4.78,16,16,0,0,1,1,5.45A15,15,0,0,1,95,93.29a14.42,14.42,0,0,1-6.75,5.12,27.19,27.19,0,0,1-9.44,1.42c-1,0-1.68,0-2.1,0s-1,0-1.8,0v13.47a.52.52,0,0,1-.47.58H66.31C66,113.8,65.81,113.64,65.81,113.26ZM75,77.73V91.82c.58,0,1.13.09,1.63.09h2.23a15.77,15.77,0,0,0,4.82-.76,7.21,7.21,0,0,0,3.44-2.22,6.5,6.5,0,0,0,1.3-4.32,7,7,0,0,0-1-3.74,6.1,6.1,0,0,0-2.94-2.39,12.32,12.32,0,0,0-5-.84c-1.09,0-2.06,0-2.85,0a8.81,8.81,0,0,0-1.72,0Z"/><path class="cls-2" d="M123.71,89.26a14.86,14.86,0,0,0-4-1.42,21.87,21.87,0,0,0-4.7-.55,8.53,8.53,0,0,0-2.52.29,2.21,2.21,0,0,0-1.3.84,2.25,2.25,0,0,0-.33,1.14,1.84,1.84,0,0,0,.42,1.09,4.64,4.64,0,0,0,1.42,1.13c1,.5,2,1,3,1.38a30.38,30.38,0,0,1,6.46,3.07,9.71,9.71,0,0,1,3.32,3.48,9.08,9.08,0,0,1,1,4.32,9.72,9.72,0,0,1-1.64,5.58,10.45,10.45,0,0,1-4.69,3.73,19.28,19.28,0,0,1-7.6,1.35,28.61,28.61,0,0,1-5.7-.55,16.77,16.77,0,0,1-4.28-1.34.8.8,0,0,1-.46-.8v-7.3a.49.49,0,0,1,.16-.38.32.32,0,0,1,.38.05,18.2,18.2,0,0,0,5.2,2,19.59,19.59,0,0,0,4.95.63,8,8,0,0,0,3.49-.59,1.94,1.94,0,0,0,1.13-1.76,2.24,2.24,0,0,0-1-1.68,18,18,0,0,0-4.11-2,25.5,25.5,0,0,1-6-3,10.72,10.72,0,0,1-3.18-3.57,8.91,8.91,0,0,1-1-4.27,9.79,9.79,0,0,1,1.43-5.08,10.35,10.35,0,0,1,4.4-3.86,16.24,16.24,0,0,1,7.43-1.47,36.39,36.39,0,0,1,5.2.38,15,15,0,0,1,3.61,1,.81.81,0,0,1,.42.38,2.26,2.26,0,0,1,.08.51v6.83a.5.5,0,0,1-.21.42A1,1,0,0,1,123.71,89.26Z"/></g></g></g></svg>