<svg id="Layer_1" data-name="Layer 1" xmlns="http://www.w3.org/2000/svg" xmlns:xlink="http://www.w3.org/1999/xlink" viewBox="0 0 187 187"><defs><style>.cls-1{fill:none;}.cls-2{clip-path:url(#clip-path);}.cls-3{fill:url(#radial-gradient);}.cls-4{clip-path:url(#clip-path-2);}.cls-5{fill:#777bb3;}.cls-6{fill:#fff;}</style><clipPath id="clip-path"><path class="cls-1" d="M26.21,93.5c0,19.55,30.13,35.4,67.29,35.4h0c37.16,0,67.29-15.85,67.29-35.4h0c0-19.55-30.13-35.4-67.29-35.4h0C56.34,58.1,26.21,74,26.21,93.5"/></clipPath><radialGradient id="radial-gradient" cx="2059.77" cy="1098.23" r="0.19" gradientTransform="matrix(453.82, 0, 0, -453.82, -934701.71, 498473.65)" gradientUnits="userSpaceOnUse"><stop offset="0" stop-color="#aeb2d5"/><stop offset="0.3" stop-color="#aeb2d5"/><stop offset="0.75" stop-color="#484c89"/><stop offset="1" stop-color="#484c89"/></radialGradient><clipPath id="clip-path-2"><rect class="cls-1" x="23.4" y="54.07" width="140.19" height="78.86"/></clipPath></defs><g id="g3438"><g id="g3440"><g class="cls-2"><g id="g3442"><g id="g3448"><g id="g3450"><path id="path3462" class="cls-3" d="M26.21,93.5c0,19.55,30.13,35.4,67.29,35.4h0c37.16,0,67.29-15.85,67.29-35.4h0c0-19.55-30.13-35.4-67.29-35.4h0C56.34,58.1,26.21,74,26.21,93.5"/></g></g></g></g></g><g id="g3464"><g class="cls-4"><g id="g3466"><g id="g3472"><path id="path3474" class="cls-5" d="M93.5,126.27c35.71,0,64.66-14.67,64.66-32.77S129.21,60.73,93.5,60.73,28.84,75.4,28.84,93.5s29,32.77,64.66,32.77"/></g></g></g></g><g id="g3476"><g class="cls-4"><g id="g3478"><g id="g3484"><path id="path3486" d="M62.77,97.56c2.93,0,5.13-.54,6.51-1.61s2.32-2.88,2.82-5.44c.46-2.38.29-4.05-.52-5S69,84.18,66.25,84.18h-4.7L59,97.56ZM47.42,114.05a.7.7,0,0,1-.56-.26.74.74,0,0,1-.16-.61l6.9-35.47a.72.72,0,0,1,.71-.59H69.17c4.67,0,8.15,1.27,10.34,3.77s2.87,6,2,10.44a16.22,16.22,0,0,1-5.07,9.09A14.52,14.52,0,0,1,71,103.67a24.63,24.63,0,0,1-7.43,1h-6l-1.72,8.84a.71.71,0,0,1-.71.59Z"/></g><g id="g3488"><path id="path3490" class="cls-6" d="M62.16,84.91h4.09c3.26,0,4.4.71,4.78,1.14.64.71.76,2.21.35,4.32-.46,2.38-1.31,4.06-2.54,5s-3.3,1.45-6.07,1.45H59.84Zm7-8.52H54.31a1.45,1.45,0,0,0-1.43,1.18L46,113a1.42,1.42,0,0,0,.3,1.21,1.45,1.45,0,0,0,1.13.53h7.73a1.45,1.45,0,0,0,1.43-1.18l1.6-8.25H63.6a25.18,25.18,0,0,0,7.66-1,15.2,15.2,0,0,0,5.68-3.4,16.9,16.9,0,0,0,5.3-9.49c.9-4.65.17-8.37-2.18-11.06s-6-4-10.89-4m-11.1,21.9h4.7c3.11,0,5.43-.58,7-1.76s2.55-3.13,3.09-5.88.28-4.49-.7-5.58-2.94-1.62-5.87-1.62H61L58.07,98.29m11.1-20.44q6.7,0,9.79,3.52t1.84,9.82A15.76,15.76,0,0,1,79.1,96,16,16,0,0,1,76,99.88,13.56,13.56,0,0,1,70.81,103a23.54,23.54,0,0,1-7.21.92H57l-1.83,9.43H47.42l6.89-35.47H69.17"/></g><g id="g3492"><path id="path3494" d="M99.24,104.62a.73.73,0,0,1-.72-.87l3-15.69c.29-1.5.22-2.57-.2-3-.26-.28-1-.74-3.31-.74H92.53L88.7,104a.74.74,0,0,1-.72.59H80.32a.77.77,0,0,1-.57-.26.74.74,0,0,1-.15-.61l6.89-35.47a.73.73,0,0,1,.72-.59h7.67a.72.72,0,0,1,.71.87l-1.66,8.56h5.94c4.53,0,7.6.8,9.39,2.44s2.39,4.35,1.69,8L107.75,104a.74.74,0,0,1-.72.59Z"/></g><g id="g3496"><path id="path3498" class="cls-6" d="M94.88,67H87.21a1.45,1.45,0,0,0-1.43,1.18l-6.9,35.47a1.47,1.47,0,0,0,.31,1.21,1.45,1.45,0,0,0,1.13.53H88a1.47,1.47,0,0,0,1.44-1.18L93.14,85h4.92c2.28,0,2.76.48,2.78.51s.32.83,0,2.38l-3,15.69a1.45,1.45,0,0,0,1.43,1.74H107a1.45,1.45,0,0,0,1.43-1.18l3.21-16.51c.75-3.87.11-6.78-1.91-8.64s-5.17-2.63-9.89-2.63H94.82l1.49-7.69A1.46,1.46,0,0,0,96,67.49,1.43,1.43,0,0,0,94.88,67m0,1.46L93,77.85h6.83q6.45,0,8.9,2.25t1.47,7.28L107,103.89H99.24l3.05-15.69c.35-1.79.22-3-.38-3.66s-1.89-1-3.85-1H91.93l-4,20.32H80.32l6.89-35.47h7.67"/></g><g id="g3500"><path id="path3502" d="M123.08,97.56c2.94,0,5.13-.54,6.52-1.61s2.32-2.88,2.82-5.44c.46-2.38.28-4.05-.53-5s-2.62-1.38-5.33-1.38h-4.69l-2.6,13.38Zm-15.34,16.49a.73.73,0,0,1-.57-.26.74.74,0,0,1-.15-.61l6.89-35.47a.74.74,0,0,1,.72-.59h14.86c4.67,0,8.15,1.27,10.33,3.77s2.88,6,2,10.44a16.15,16.15,0,0,1-5.08,9.09,14.48,14.48,0,0,1-5.41,3.25,24.68,24.68,0,0,1-7.43,1h-6l-1.72,8.84a.73.73,0,0,1-.72.59Z"/></g><g id="g3504"><path id="path3506" class="cls-6" d="M122.47,84.91h4.09c3.27,0,4.41.71,4.79,1.14.64.71.76,2.21.35,4.32-.46,2.38-1.32,4.06-2.55,5s-3.29,1.45-6.07,1.45h-2.92Zm7-8.52H114.63a1.45,1.45,0,0,0-1.43,1.18L106.3,113a1.46,1.46,0,0,0,1.44,1.74h7.72a1.47,1.47,0,0,0,1.44-1.18l1.6-8.25h5.42a25.18,25.18,0,0,0,7.66-1,15.2,15.2,0,0,0,5.68-3.4,17.65,17.65,0,0,0,3.43-4.3,17.43,17.43,0,0,0,1.86-5.19c.91-4.65.17-8.37-2.18-11.06s-6-4-10.88-4m-11.11,21.9h4.7c3.12,0,5.44-.58,7-1.76s2.55-3.13,3.08-5.88.28-4.49-.69-5.58-2.94-1.62-5.88-1.62h-5.29l-2.89,14.84m11.11-20.44q6.7,0,9.78,3.52t1.85,9.82a15.39,15.39,0,0,1-4.85,8.69,13.52,13.52,0,0,1-5.15,3.09,23.43,23.43,0,0,1-7.2.92H117.3l-1.84,9.43h-7.72l6.89-35.47h14.86"/></g></g></g></g></g></svg>