<svg id="Layer_1" data-name="Layer 1" xmlns="http://www.w3.org/2000/svg" xmlns:xlink="http://www.w3.org/1999/xlink" viewBox="0 0 187 187"><defs><style>.cls-1{fill:#231f20;}.cls-2{fill:none;}.cls-3{clip-path:url(#clip-path);}.cls-4{clip-path:url(#clip-path-3);}.cls-5{fill:#fff;}</style><clipPath id="clip-path"><path class="cls-1" d="M26.77,93.5c0,19.55,30.13,35.4,67.29,35.4h0c37.17,0,67.3-15.85,67.3-35.4h0c0-19.55-30.13-35.4-67.3-35.4h0C56.9,58.1,26.77,74,26.77,93.5"/></clipPath><clipPath id="clip-path-3"><rect class="cls-2" x="23.97" y="54.07" width="140.19" height="78.86"/></clipPath></defs><g id="g3440"><path class="cls-1" d="M26.77,93.5c0,19.55,30.13,35.4,67.29,35.4h0c37.17,0,67.3-15.85,67.3-35.4h0c0-19.55-30.13-35.4-67.3-35.4h0C56.9,58.1,26.77,74,26.77,93.5"/><g class="cls-3"><g id="g3442"><g id="g3448"><g id="g3450"><g id="path3462"><path class="cls-1" d="M26.77,93.5c0,19.55,30.13,35.4,67.29,35.4h0c37.17,0,67.3-15.85,67.3-35.4h0c0-19.55-30.13-35.4-67.3-35.4h0C56.9,58.1,26.77,74,26.77,93.5"/><g class="cls-3"><rect class="cls-1" x="26.77" y="58.1" width="134.59" height="70.8"/><path class="cls-1" d="M155.54,70.55a88.55,88.55,0,0,0-1.8-17.81V57.1h-128v72.8H129.66V133A88.08,88.08,0,0,0,155.54,70.55Z"/><path class="cls-1" d="M144.49,70.55A77.77,77.77,0,0,0,142.92,55V57.1H25.77v72.8H110.4v4.76a77.33,77.33,0,0,0,34.09-64.11Z"/><path class="cls-1" d="M133.45,70.55a66.75,66.75,0,0,0-1.35-13.36c-.44-2.16-1-4.28-1.63-6.35V57.1H25.77v60.31H20.31A66.28,66.28,0,0,0,133.45,70.55Z"/><path class="cls-1" d="M133.06,70.55a66,66,0,0,0-1.34-13.28c-.44-2.15-1-4.25-1.62-6.32V57.1H25.77v60H20.59A65.88,65.88,0,0,0,133.06,70.55Z"/><path class="cls-1" d="M132.67,70.55a65.88,65.88,0,0,0-1.33-13.2c-.44-2.13-1-4.23-1.62-6.28v6H25.77v59.76H20.86A65.5,65.5,0,0,0,132.67,70.55Z"/><path class="cls-1" d="M132.28,70.55A65.82,65.82,0,0,0,131,57.43c-.44-2.12-1-4.21-1.61-6.24V57.1H25.77v59.48H21.14a65.1,65.1,0,0,0,111.14-46Z"/><path class="cls-1" d="M131.89,70.55a64.54,64.54,0,0,0-1.32-13q-.65-3.15-1.59-6.2v5.8H25.77v59.21H21.41A64.72,64.72,0,0,0,131.89,70.55Z"/><path class="cls-1" d="M131.5,70.55a64.47,64.47,0,0,0-1.31-13c-.43-2.09-1-4.15-1.58-6.16V57.1H25.77V116H21.69A64.33,64.33,0,0,0,131.5,70.55Z"/><path class="cls-1" d="M131.11,70.55a64.33,64.33,0,0,0-1.3-12.89c-.43-2.08-.95-4.12-1.58-6.13V57.1H25.77v58.66H22A63.94,63.94,0,0,0,131.11,70.55Z"/><path class="cls-1" d="M130.72,70.55a64.34,64.34,0,0,0-1.29-12.81q-.65-3.1-1.57-6.09V57.1H25.77v58.38H22.24A63.55,63.55,0,0,0,130.72,70.55Z"/><path class="cls-1" d="M130.33,70.55a63.54,63.54,0,0,0-1.28-12.73q-.65-3.09-1.56-6V57.1H25.77v58.1H22.52A63.15,63.15,0,0,0,130.33,70.55Z"/><path class="cls-1" d="M129.94,70.55a62.68,62.68,0,0,0-1.28-12.65,60.3,60.3,0,0,0-1.54-6V57.1H25.77v57.83h-3A62.77,62.77,0,0,0,129.94,70.55Z"/><path class="cls-1" d="M129.55,70.55A62.68,62.68,0,0,0,128.28,58a59.54,59.54,0,0,0-1.54-6v5.1h-101v57.55h-2.7a62.37,62.37,0,0,0,106.48-44.1Z"/><path class="cls-1" d="M129.16,70.55a62.06,62.06,0,0,0-1.26-12.5,59.44,59.44,0,0,0-1.53-5.94v5H25.77v57.28H23.34A62,62,0,0,0,129.16,70.55Z"/><path class="cls-1" d="M128.77,70.55a61.92,61.92,0,0,0-1.25-12.42q-.61-3-1.52-5.9V57.1H25.77v57H23.62A61.6,61.6,0,0,0,128.77,70.55Z"/><path class="cls-1" d="M128.38,70.55a61.93,61.93,0,0,0-1.24-12.34c-.41-2-.92-4-1.51-5.86V57.1H25.77v56.73H23.89A61.21,61.21,0,0,0,128.38,70.55Z"/><path class="cls-1" d="M128,70.55a61.13,61.13,0,0,0-1.24-12.26,60,60,0,0,0-1.49-5.83V57.1H25.77v56.45h-1.6A60.82,60.82,0,0,0,128,70.55Z"/><path class="cls-1" d="M127.6,70.55a60.26,60.26,0,0,0-1.23-12.18,58.46,58.46,0,0,0-1.49-5.79V57.1H25.77v56.17H24.44A60.43,60.43,0,0,0,127.6,70.55Z"/><path class="cls-1" d="M127.21,70.55A60.27,60.27,0,0,0,126,58.45a57.85,57.85,0,0,0-1.48-5.76V57.1H25.77V113H24.72A60,60,0,0,0,127.21,70.55Z"/><path class="cls-1" d="M126.82,70.55a60.2,60.2,0,0,0-1.21-12c-.4-2-.89-3.85-1.47-5.72V57.1H25.77v55.62H25A59.64,59.64,0,0,0,126.82,70.55Z"/><path class="cls-1" d="M126.43,70.55a59.58,59.58,0,0,0-1.2-11.95c-.4-1.92-.89-3.82-1.46-5.67V57.1h-98v55.35h-.5a59.26,59.26,0,0,0,101.16-41.9Z"/><path class="cls-1" d="M126,70.55a58.71,58.71,0,0,0-1.2-11.87A56.15,56.15,0,0,0,123.39,53V57.1H25.77v55.07h-.22A58.87,58.87,0,0,0,126,70.55Z"/><path class="cls-1" d="M125.65,70.55a58.71,58.71,0,0,0-1.19-11.79q-.58-2.85-1.44-5.6V57.1H25.77v50.64H22.05c1.19,1.45,2.45,2.83,3.77,4.16a58.48,58.48,0,0,0,99.83-41.35Z"/><path class="cls-1" d="M125.26,70.55a58.65,58.65,0,0,0-1.18-11.71q-.58-2.84-1.43-5.57V57.1H25.77V103H19A58.09,58.09,0,0,0,125.26,70.55Z"/><path class="cls-1" d="M124.87,70.55a57.78,57.78,0,0,0-1.17-11.63q-.58-2.82-1.42-5.53V57.1H25.77v45.71H19.33A57.7,57.7,0,0,0,124.87,70.55Z"/><path class="cls-1" d="M124.48,70.55A57.79,57.79,0,0,0,123.32,59q-.58-2.8-1.42-5.5v3.6H25.77v45.49H19.65a57.32,57.32,0,0,0,104.83-32Z"/><path class="cls-1" d="M124.09,70.55a57,57,0,0,0-1.16-11.47,52,52,0,0,0-1.4-5.46V57.1H25.77v45.27H20a56.15,56.15,0,0,0,7,8.42,56.92,56.92,0,0,0,97.16-40.24Z"/><path class="cls-1" d="M123.7,70.55a56.3,56.3,0,0,0-1.15-11.4,54.27,54.27,0,0,0-1.39-5.41V57.1H25.77v45.05H20.3a56.53,56.53,0,0,0,103.4-31.6Z"/><path class="cls-1" d="M123.31,70.55a56.3,56.3,0,0,0-1.14-11.32c-.37-1.82-.84-3.62-1.38-5.38V57.1h-95v44.83H20.62A56.14,56.14,0,0,0,123.31,70.55Z"/><path class="cls-1" d="M122.92,70.55a56.23,56.23,0,0,0-1.13-11.24c-.37-1.81-.83-3.6-1.37-5.34V57.1H25.77v44.62H21a56.59,56.59,0,0,0,6.8,8.25,55.76,55.76,0,0,0,95.17-39.42Z"/><path class="cls-1" d="M122.53,70.55a56.1,56.1,0,0,0-1.12-11.16q-.55-2.7-1.37-5.31v3H25.77v44.4h-4.5A55.36,55.36,0,0,0,122.53,70.55Z"/><path class="cls-1" d="M122.14,70.55A54.65,54.65,0,0,0,121,59.47a51.49,51.49,0,0,0-1.35-5.27v2.9H25.77v44.18H21.59a56.38,56.38,0,0,0,6.71,8.14,55,55,0,0,0,93.84-38.87Z"/><path class="cls-1" d="M121.75,70.55a54.58,54.58,0,0,0-1.11-11,53.4,53.4,0,0,0-1.34-5.23V57.1H25.77v44H21.92a54.58,54.58,0,0,0,99.83-30.51Z"/><path class="cls-1" d="M121.36,70.55a54.51,54.51,0,0,0-1.1-10.92c-.36-1.77-.81-3.5-1.33-5.2V57.1H25.77v43.74H22.24a54.19,54.19,0,0,0,99.12-30.29Z"/><path class="cls-1" d="M121,70.55a53.89,53.89,0,0,0-1.09-10.85,51.82,51.82,0,0,0-1.33-5.15V57.1H25.77v43.53H22.56a55.15,55.15,0,0,0,6.57,8,53.8,53.8,0,0,0,91.84-38Z"/><path class="cls-1" d="M120.58,70.55a53.82,53.82,0,0,0-1.08-10.77c-.36-1.74-.8-3.44-1.32-5.12V57.1H25.77v43.31H22.89a52.56,52.56,0,0,0,6.52,7.9,53.4,53.4,0,0,0,91.17-37.76Z"/><path class="cls-1" d="M120.19,70.55a53.76,53.76,0,0,0-1.07-10.69c-.36-1.72-.79-3.42-1.31-5.08V57.1h-92v43.09H23.21a53,53,0,0,0,97-29.64Z"/><path class="cls-1" d="M119.8,70.55a53,53,0,0,0-1.07-10.61c-.35-1.71-.78-3.4-1.29-5v2.2H25.77V100H23.53A52.63,52.63,0,0,0,119.8,70.55Z"/><path class="cls-1" d="M119.41,70.55a52.14,52.14,0,0,0-4.1-20.34V57.1H25.77V90.88H19A52.24,52.24,0,0,0,119.41,70.55Z"/><path class="cls-1" d="M119,70.55A51.81,51.81,0,0,0,115,50.36V57.1H25.77V90.73H19.4A51.85,51.85,0,0,0,119,70.55Z"/><path class="cls-1" d="M118.63,70.55a51.32,51.32,0,0,0-4-20V57.1H25.77V90.58h-6a51.46,51.46,0,0,0,98.87-20Z"/><path class="cls-1" d="M118.24,70.55a51,51,0,0,0-4-19.88V57.1H25.77V90.43H20.12a51.07,51.07,0,0,0,98.12-19.88Z"/><path class="cls-1" d="M117.85,70.55a50.41,50.41,0,0,0-4-19.73V57.1H25.77V90.27H20.48a50.68,50.68,0,0,0,97.37-19.72Z"/><path class="cls-1" d="M117.46,70.55A50.05,50.05,0,0,0,113.51,51V57.1H25.77v33H20.83a50.3,50.3,0,0,0,96.63-19.57Z"/><path class="cls-1" d="M117.07,70.55a49.69,49.69,0,0,0-3.92-19.43v6H25.77V90H21.19a49.91,49.91,0,0,0,95.88-19.42Z"/><path class="cls-1" d="M116.68,70.55a49.32,49.32,0,0,0-3.89-19.28V57.1h-87V89.82H21.55a49.52,49.52,0,0,0,95.13-19.27Z"/><path class="cls-1" d="M116.29,70.55a48.83,48.83,0,0,0-3.86-19.12V57.1H25.77V89.67H21.91a49.13,49.13,0,0,0,94.38-19.12Z"/><path class="cls-1" d="M115.9,70.55a48.51,48.51,0,0,0-3.83-19V57.1H25.77V89.51h-3.5a48.74,48.74,0,0,0,93.63-19Z"/><path class="cls-1" d="M115.51,70.55a48.28,48.28,0,0,0-3.79-18.82V57.1H25.77V70.55H18.83a48.34,48.34,0,0,0,96.68,0Z"/><path class="cls-1" d="M115.12,70.55a48,48,0,0,0-3.76-18.67V57.1H25.77V70.55H19.22a48,48,0,0,0,95.9,0Z"/><path class="cls-1" d="M114.73,70.55A47.55,47.55,0,0,0,111,52V57.1H25.77V70.55H19.61a47.56,47.56,0,0,0,95.12,0Z"/><path class="cls-1" d="M114.34,70.55a47.19,47.19,0,0,0-3.7-18.37V57.1H25.77V70.55H20a47.17,47.17,0,0,0,94.34,0Z"/><path class="cls-1" d="M114,70.55a46.56,46.56,0,0,0-3.67-18.21V57.1H25.77V70.55H20.39a46.78,46.78,0,0,0,93.56,0Z"/><path class="cls-1" d="M113.56,70.55a46.19,46.19,0,0,0-3.64-18.06V57.1H25.77V70.55h-5a46.39,46.39,0,0,0,92.78,0Z"/><path class="cls-1" d="M113.18,70.55a45.8,45.8,0,0,0-3.62-17.91V57.1H25.77V70.55h-4.6a46,46,0,0,0,92,0Z"/><path class="cls-1" d="M112.79,70.55a45.47,45.47,0,0,0-3.59-17.76V57.1H25.77V70.55H21.56a45.62,45.62,0,0,0,91.23,0Z"/><path class="cls-1" d="M112.4,70.55a45.07,45.07,0,0,0-3.56-17.61V57.1H25.77V70.55H22a45.23,45.23,0,0,0,90.45,0Z"/><path class="cls-1" d="M112,70.55a44.65,44.65,0,0,0-3.53-17.45v4H25.86v-4A44.84,44.84,0,1,0,112,70.55Z"/><path class="cls-1" d="M111.62,70.55a44.25,44.25,0,0,0-3.5-17.3V57.1H26.22V53.25a44.45,44.45,0,1,0,85.4,17.3Z"/><path class="cls-1" d="M111.23,70.55a43.89,43.89,0,0,0-3.47-17.15v3.7H26.58V53.4a44.06,44.06,0,1,0,84.65,17.15Z"/><path class="cls-1" d="M110.84,70.55a43.52,43.52,0,0,0-3.44-17V57.1H26.94V53.55a43.67,43.67,0,1,0,83.9,17Z"/><path class="cls-1" d="M110.45,70.55a43.15,43.15,0,0,0-3.4-16.85v3.4H27.3V53.7a43.28,43.28,0,1,0,83.15,16.85Z"/><path class="cls-1" d="M110.06,70.55a42.79,42.79,0,0,0-3.37-16.7V57.1h-79V53.85a42.89,42.89,0,1,0,82.4,16.7Z"/><path class="cls-1" d="M109.67,70.55A42.34,42.34,0,0,0,106.33,54V57.1H28V54a42.5,42.5,0,1,0,81.65,16.54Z"/><path class="cls-1" d="M109.28,70.55A41.94,41.94,0,0,0,106,54.16V57.1H28.38V54.16a42.11,42.11,0,1,0,80.9,16.39Z"/><path class="cls-1" d="M108.89,70.55a41.61,41.61,0,0,0-3.28-16.24V57.1H28.74V54.31a41.72,41.72,0,1,0,80.15,16.24Z"/><path class="cls-1" d="M108.5,70.55a41.25,41.25,0,0,0-3.25-16.09V57.1H29.1V54.46a41.33,41.33,0,1,0,79.4,16.09Z"/><path class="cls-1" d="M108.11,70.55a40.84,40.84,0,0,0-3.22-15.94V57.1H29.46V54.61a40.94,40.94,0,1,0,78.65,15.94Z"/><path class="cls-1" d="M107.72,70.55a40.52,40.52,0,0,0-3.19-15.79V57.1H29.81V54.76a40.55,40.55,0,1,0,77.91,15.79Z"/><path class="cls-1" d="M107.33,70.55a40,40,0,0,0-3.16-15.63V57.1h-74V54.92a40.16,40.16,0,1,0,77.16,15.63Z"/><path class="cls-1" d="M106.94,70.55a39.7,39.7,0,0,0-3.13-15.48v2H30.53v-2a39.77,39.77,0,1,0,76.41,15.48Z"/><path class="cls-1" d="M106.55,70.55a39.12,39.12,0,0,0-3.1-15.33V57.1H30.89V55.22a39.38,39.38,0,1,0,75.66,15.33Z"/><path class="cls-1" d="M106.16,70.55a38.76,38.76,0,0,0-3.07-15.18V57.1H31.25V55.37a39,39,0,1,0,74.91,15.18Z"/><path class="cls-1" d="M105.77,70.55a38.39,38.39,0,0,0-3-15V57.1H31.61V55.52a38.6,38.6,0,1,0,74.16,15Z"/><path class="cls-1" d="M105.38,70.55a38.12,38.12,0,0,0-3-14.87V57.1H32V55.68a38.21,38.21,0,1,0,73.41,14.87Z"/><path class="cls-1" d="M105,70.55a37.75,37.75,0,0,0-3-14.72V57.1H32.33V55.83A37.82,37.82,0,1,0,105,70.55Z"/><path class="cls-1" d="M104.6,70.55A37.39,37.39,0,0,0,101.66,56V57.1h-69V56A37.43,37.43,0,1,0,104.6,70.55Z"/><path class="cls-1" d="M104.21,70.55a37,37,0,0,0-2.91-14.42v1H33.05v-1a37,37,0,1,0,71.16,14.42Z"/><path class="cls-1" d="M103.82,70.55a36.66,36.66,0,0,0-2.88-14.27v.82H33.41v-.82a36.65,36.65,0,1,0,70.41,14.27Z"/><path class="cls-1" d="M103.43,70.55a36.26,36.26,0,0,0-2.85-14.12v.67H33.77v-.67a36.26,36.26,0,1,0,69.66,14.12Z"/><path class="cls-1" d="M103,70.55a35.63,35.63,0,0,0-2.82-14v.51H34.13v-.51a35.87,35.87,0,1,0,68.91,14Z"/><path class="cls-1" d="M102.65,70.55a35.26,35.26,0,0,0-2.79-13.81v.36H34.48v-.36a35.48,35.48,0,1,0,68.17,13.81Z"/><path class="cls-1" d="M102.26,70.55A34.9,34.9,0,0,0,99.5,56.89v.21H34.84v-.21a35.09,35.09,0,1,0,67.42,13.66Z"/><path class="cls-1" d="M101.87,70.55A34.53,34.53,0,0,0,99.14,57v.06H35.2V57a34.7,34.7,0,1,0,66.67,13.51Z"/><path class="cls-1" d="M101.48,70.55a34.17,34.17,0,0,0-2.7-13.36,33.7,33.7,0,0,0-3.16-5.82V57.1H38.73V51.37a33.74,33.74,0,0,0-3.17,5.82,34.31,34.31,0,1,0,65.92,13.36Z"/><path class="cls-1" d="M101.09,70.55a33.89,33.89,0,0,0-5.79-19V57.1H39.05V51.58a34.46,34.46,0,0,0-3.13,5.76,33.92,33.92,0,1,0,65.17,13.21Z"/><path class="cls-1" d="M100.7,70.55a33.53,33.53,0,0,0-2.63-13A33,33,0,0,0,95,51.8v5.3H39.37V51.8A33.53,33.53,0,1,0,100.7,70.55Z"/><path class="cls-1" d="M100.31,70.55A32.89,32.89,0,0,0,94.65,52V57.1H39.7V52a32.56,32.56,0,0,0-3.06,5.63,33.14,33.14,0,1,0,63.67,12.9Z"/><path class="cls-1" d="M99.92,70.55A32.76,32.76,0,0,0,97.35,57.8a33.12,33.12,0,0,0-3-5.56V57.1H40V52.24a32.75,32.75,0,1,0,59.9,18.31Z"/><path class="cls-1" d="M99.53,70.55A32.12,32.12,0,0,0,94,52.45V57.1H40.34V52.45a33.16,33.16,0,0,0-3,5.5,32.36,32.36,0,1,0,62.17,12.6Z"/><path class="cls-1" d="M99.14,70.55a31.76,31.76,0,0,0-5.46-17.88V57.1h-53V52.67a32.65,32.65,0,0,0-2.94,5.43A32,32,0,1,0,99.14,70.55Z"/><path class="cls-1" d="M98.75,70.55a31.49,31.49,0,0,0-2.48-12.3,32.24,32.24,0,0,0-2.91-5.36V57.1H41V52.89A31.58,31.58,0,1,0,98.75,70.55Z"/><path class="cls-1" d="M98.36,70.55a31,31,0,0,0-2.45-12.14A30.47,30.47,0,0,0,93,53.11v4H41.31v-4a30.42,30.42,0,0,0-2.87,5.3A31.19,31.19,0,1,0,98.36,70.55Z"/><path class="cls-1" d="M98,70.55a30.63,30.63,0,0,0-5.26-17.22V57.1H41.63V53.33A30.8,30.8,0,1,0,98,70.55Z"/><path class="cls-1" d="M97.58,70.55a30.31,30.31,0,0,0-2.39-11.84,30.67,30.67,0,0,0-2.8-5.17V57.1H42V53.54a30,30,0,0,0-2.81,5.17A30.41,30.41,0,1,0,97.58,70.55Z"/><path class="cls-1" d="M97.19,70.55a29.91,29.91,0,0,0-2.36-11.69,30.26,30.26,0,0,0-2.77-5.1V57.1H42.28V53.76a30.26,30.26,0,0,0-2.77,5.1A30,30,0,1,0,97.19,70.55Z"/><path class="cls-1" d="M96.8,70.55A29.5,29.5,0,0,0,91.74,54V57.1H42.6V54a30.14,30.14,0,0,0-2.73,5A29.63,29.63,0,1,0,96.8,70.55Z"/><path class="cls-1" d="M96.41,70.55a29.24,29.24,0,0,0-5-16.35v2.9H42.93V54.2A29.24,29.24,0,1,0,96.41,70.55Z"/><path class="cls-1" d="M96,70.55a28.76,28.76,0,0,0-8.45-20.4v7H46.77v-7A28.85,28.85,0,1,0,96,70.55Z"/><path class="cls-1" d="M95.63,70.55A28.38,28.38,0,0,0,87.3,50.42V57.1H47.05V50.42A28.46,28.46,0,1,0,95.63,70.55Z"/><path class="cls-1" d="M95.24,70.55A28,28,0,0,0,87,50.7v6.4H47.33V50.7A28.07,28.07,0,1,0,95.24,70.55Z"/><path class="cls-1" d="M94.85,70.55A27.63,27.63,0,0,0,86.75,51V57.1H47.6V51A27.68,27.68,0,1,0,94.85,70.55Z"/><path class="cls-1" d="M94.46,70.55a27.2,27.2,0,0,0-8-19.3V57.1H47.88V51.25a27.29,27.29,0,1,0,46.58,19.3Z"/><path class="cls-1" d="M94.07,70.55a26.79,26.79,0,0,0-7.88-19V57.1h-38V51.53a26.9,26.9,0,1,0,45.92,19Z"/><path class="cls-1" d="M93.68,70.55A26.43,26.43,0,0,0,85.92,51.8v5.3H48.43V51.8A26.51,26.51,0,1,0,93.68,70.55Z"/><circle class="cls-1" cx="67.17" cy="70.55" r="13.25"/></g></g></g></g></g></g></g><g id="g3476"><g class="cls-4"><g id="g3478"><g id="g3484"><g id="path3486"><path d="M63.33,97.56c2.94,0,5.13-.54,6.52-1.61s2.32-2.88,2.81-5.44c.47-2.38.29-4.05-.52-5s-2.62-1.38-5.33-1.38H62.12l-2.6,13.38ZM48,114.05a.72.72,0,0,1-.71-.87l6.89-35.47a.74.74,0,0,1,.72-.59H69.74c4.67,0,8.14,1.27,10.33,3.77s2.87,6,2,10.44A16.06,16.06,0,0,1,77,100.42a14.48,14.48,0,0,1-5.41,3.25,24.7,24.7,0,0,1-7.44,1h-6l-1.71,8.84a.73.73,0,0,1-.72.59Z"/></g></g><g id="g3488"><g id="path3490"><path class="cls-5" d="M62.72,84.91h4.09c3.27,0,4.4.71,4.79,1.14.64.71.76,2.21.35,4.32-.47,2.38-1.32,4.06-2.55,5s-3.3,1.45-6.07,1.45H60.4Zm7-8.52H54.88a1.47,1.47,0,0,0-1.44,1.18L46.55,113a1.49,1.49,0,0,0,.3,1.21,1.47,1.47,0,0,0,1.13.53h7.73a1.45,1.45,0,0,0,1.43-1.18l1.61-8.25h5.41a25.18,25.18,0,0,0,7.66-1,15.32,15.32,0,0,0,5.69-3.4,17.37,17.37,0,0,0,3.42-4.3,17.18,17.18,0,0,0,1.87-5.19c.91-4.65.17-8.37-2.18-11.06s-6-4-10.88-4M58.63,98.29h4.7c3.12,0,5.44-.58,7-1.76s2.56-3.13,3.09-5.88.28-4.49-.7-5.58-2.93-1.62-5.87-1.62H61.52L58.63,98.29M69.74,77.85q6.7,0,9.78,3.52t1.85,9.82A16.05,16.05,0,0,1,79.66,96a15.75,15.75,0,0,1-3.15,3.93A13.48,13.48,0,0,1,71.37,103a23.5,23.5,0,0,1-7.21.92H57.54l-1.83,9.43H48l6.9-35.47H69.74"/></g></g><g id="g3492"><g id="path3494"><path d="M99.8,104.62a.74.74,0,0,1-.56-.26.71.71,0,0,1-.15-.61l3-15.69c.29-1.5.21-2.57-.21-3-.25-.28-1-.74-3.31-.74H93.1L89.26,104a.72.72,0,0,1-.71.59H80.88a.73.73,0,0,1-.56-.26.74.74,0,0,1-.16-.61l6.9-35.47a.71.71,0,0,1,.71-.59h7.67A.7.7,0,0,1,96,68a.74.74,0,0,1,.16.61l-1.67,8.56h6c4.53,0,7.6.8,9.39,2.44s2.39,4.35,1.69,8L108.31,104a.74.74,0,0,1-.72.59Z"/></g></g><g id="g3496"><g id="path3498"><path class="cls-5" d="M95.44,67H87.77a1.45,1.45,0,0,0-1.43,1.18l-6.89,35.47a1.43,1.43,0,0,0,.3,1.21,1.45,1.45,0,0,0,1.13.53h7.67A1.45,1.45,0,0,0,90,104.17L93.7,85h4.92c2.28,0,2.76.48,2.78.51s.32.83,0,2.38l-3,15.69a1.47,1.47,0,0,0,.31,1.21,1.43,1.43,0,0,0,1.12.53h7.79a1.47,1.47,0,0,0,1.44-1.18l3.2-16.51c.76-3.87.11-6.78-1.91-8.64s-5.16-2.63-9.88-2.63H95.38l1.49-7.69a1.42,1.42,0,0,0-.3-1.21A1.45,1.45,0,0,0,95.44,67m0,1.46-1.83,9.43h6.83q6.45,0,8.89,2.25t1.47,7.28l-3.21,16.51H99.8l3-15.69c.35-1.79.22-3-.38-3.66s-1.89-1-3.85-1H92.5l-4,20.32H80.88l6.89-35.47h7.67"/></g></g><g id="g3500"><g id="path3502"><path d="M123.65,97.56c2.93,0,5.13-.54,6.51-1.61s2.32-2.88,2.82-5.44c.46-2.38.29-4.05-.52-5s-2.63-1.38-5.33-1.38h-4.7l-2.6,13.38ZM108.3,114.05a.7.7,0,0,1-.56-.26.74.74,0,0,1-.16-.61l6.9-35.47a.72.72,0,0,1,.71-.59h14.86c4.67,0,8.15,1.27,10.34,3.77s2.87,6,2,10.44a16.22,16.22,0,0,1-5.07,9.09,14.52,14.52,0,0,1-5.42,3.25,24.63,24.63,0,0,1-7.43,1h-6l-1.72,8.84a.71.71,0,0,1-.71.59Z"/></g></g><g id="g3504"><g id="path3506"><path class="cls-5" d="M123,84.91h4.09c3.26,0,4.4.71,4.78,1.14.64.71.76,2.21.35,4.32-.46,2.38-1.32,4.06-2.54,5s-3.3,1.45-6.07,1.45h-2.93Zm7-8.52H115.19a1.45,1.45,0,0,0-1.43,1.18L106.87,113a1.42,1.42,0,0,0,.3,1.21,1.45,1.45,0,0,0,1.13.53H116a1.45,1.45,0,0,0,1.43-1.18l1.6-8.25h5.42a25.18,25.18,0,0,0,7.66-1,15.2,15.2,0,0,0,5.68-3.4,16.9,16.9,0,0,0,5.3-9.49c.9-4.65.17-8.37-2.19-11.06s-6-4-10.88-4M119,98.29h4.7c3.11,0,5.43-.58,7-1.76s2.55-3.13,3.09-5.88.28-4.49-.7-5.58-2.94-1.62-5.87-1.62h-5.3L119,98.29m11.1-20.44q6.7,0,9.79,3.52t1.84,9.82A15.76,15.76,0,0,1,140,96a16,16,0,0,1-3.15,3.93,13.56,13.56,0,0,1-5.14,3.09,23.54,23.54,0,0,1-7.21.92h-6.62L116,113.32H108.3l6.89-35.47h14.86"/></g></g></g></g></g></svg>