<svg id="Layer_1" data-name="Layer 1" xmlns="http://www.w3.org/2000/svg" xmlns:xlink="http://www.w3.org/1999/xlink" viewBox="0 0 187 187"><defs><style>.cls-1{fill:url(#linear-gradient);}.cls-2{fill:url(#linear-gradient-2);}</style><linearGradient id="linear-gradient" x1="95.67" y1="1285.1" x2="147.73" y2="1232.87" gradientTransform="matrix(1, 0, 0, -1, -44.94, 1335.64)" gradientUnits="userSpaceOnUse"><stop offset="0" stop-color="#387eb8"/><stop offset="1" stop-color="#366994"/></linearGradient><linearGradient id="linear-gradient-2" x1="127.68" y1="1251.85" x2="183.59" y2="1198.29" gradientTransform="matrix(1, 0, 0, -1, -44.94, 1335.64)" gradientUnits="userSpaceOnUse"><stop offset="0" stop-color="#ffe052"/><stop offset="1" stop-color="#ffc331"/></linearGradient></defs><g id="layer1"><g id="g1894"><path id="path8615" class="cls-1" d="M93.12,41.14c-26.73,0-25.06,11.59-25.06,11.59l0,12H93.6v3.61H58s-17.1-1.94-17.1,25,14.93,26,14.93,26H64.7V106.86s-.48-14.93,14.69-14.93h25.29s14.21.23,14.21-13.73V55.11S121.05,41.14,93.12,41.14ZM79.06,49.21a4.59,4.59,0,1,1-4.59,4.59A4.58,4.58,0,0,1,79.06,49.21Z"/><path id="path8620" class="cls-2" d="M93.88,145.86c26.73,0,25.06-11.59,25.06-11.59l0-12H93.4v-3.61H129s17.1,1.94,17.1-25-14.93-26-14.93-26H122.3V80.14s.48,14.93-14.69,14.93H82.32s-14.21-.23-14.21,13.73v23.09S66,145.86,93.88,145.86Zm14.06-8.07a4.59,4.59,0,1,1,4.59-4.59A4.58,4.58,0,0,1,107.94,137.79Z"/></g></g></svg>