<svg id="Layer_1" data-name="Layer 1" xmlns="http://www.w3.org/2000/svg" viewBox="0 0 187 187"><defs><style>.cls-1{fill:#61dafb;}</style></defs><path class="cls-1" d="M157.09,93.51c0-8.42-10.55-16.41-26.73-21.36,3.73-16.48,2.08-29.6-5.23-33.8a11.34,11.34,0,0,0-5.81-1.45v5.78a6,6,0,0,1,3,.67c3.53,2,5.06,9.72,3.87,19.63-.29,2.43-.76,5-1.33,7.62a124.07,124.07,0,0,0-16.46-2.83,127.69,127.69,0,0,0-10.78-13C106,47,114,42.65,119.34,42.65V36.87h0c-7.12,0-16.46,5.08-25.89,13.9C84,42,74.68,37,67.55,37v5.78c5.37,0,13.33,4.27,21.78,12.08A123.07,123.07,0,0,0,78.62,67.77a120.75,120.75,0,0,0-16.49,2.85c-.59-2.59-1-5.1-1.34-7.51-1.22-9.91.28-17.61,3.78-19.65a5.74,5.74,0,0,1,3-.68V37h0a11.61,11.61,0,0,0-5.86,1.45c-7.28,4.2-8.91,17.29-5.16,33.73-16.12,5-26.62,12.93-26.62,21.33s10.55,16.41,26.73,21.36c-3.73,16.49-2.08,29.61,5.23,33.81a11.48,11.48,0,0,0,5.84,1.45c7.13,0,16.46-5.08,25.89-13.9C103,145,112.37,150,119.5,150a11.5,11.5,0,0,0,5.86-1.45c7.28-4.2,8.92-17.29,5.16-33.72C146.59,109.9,157.09,101.91,157.09,93.51ZM123.34,76.22c-1,3.35-2.15,6.79-3.5,10.24-1.07-2.07-2.18-4.15-3.4-6.22s-2.46-4.1-3.73-6.07C116.39,74.72,119.94,75.39,123.34,76.22Zm-11.88,27.61c-2,3.5-4.09,6.82-6.24,9.9q-5.81.51-11.72.52c-3.91,0-7.83-.18-11.67-.49-2.15-3.09-4.25-6.38-6.27-9.85s-3.76-6.85-5.39-10.32c1.61-3.47,3.42-7,5.37-10.34s4.09-6.82,6.24-9.9q5.81-.51,11.72-.52c3.91,0,7.83.18,11.67.49,2.15,3.08,4.25,6.38,6.27,9.85s3.76,6.84,5.39,10.32C115.2,97,113.41,100.43,111.46,103.83Zm8.38-3.37a109.17,109.17,0,0,1,3.57,10.32c-3.39.83-7,1.53-10.68,2.07,1.27-2,2.54-4,3.74-6.14S118.77,102.53,119.84,100.46ZM93.55,128.12a105.05,105.05,0,0,1-7.2-8.3c2.33.11,4.71.19,7.12.19s4.85-.06,7.21-.19A98.82,98.82,0,0,1,93.55,128.12ZM74.27,112.85q-5.53-.81-10.63-2c1-3.34,2.15-6.79,3.5-10.24,1.06,2.08,2.17,4.15,3.39,6.23S73,110.88,74.27,112.85ZM93.42,58.91a108.89,108.89,0,0,1,7.21,8.29C98.3,67.1,95.91,67,93.5,67s-4.85,0-7.21.18A104.21,104.21,0,0,1,93.42,58.91ZM74.24,74.17c-1.27,2-2.54,4-3.73,6.15s-2.31,4.15-3.37,6.22c-1.4-3.47-2.6-7-3.58-10.32C67,75.42,70.53,74.72,74.24,74.17ZM50.78,106.63c-9.18-3.91-15.11-9-15.11-13.12S41.6,84.28,50.78,80.4c2.23-1,4.67-1.82,7.18-2.62a124.49,124.49,0,0,0,5.83,15.78A123.92,123.92,0,0,0,58,109.27,76.6,76.6,0,0,1,50.78,106.63Zm14,37c-3.53-2-5.06-9.72-3.87-19.62.29-2.44.76-5,1.33-7.62a125.75,125.75,0,0,0,16.46,2.82,127.85,127.85,0,0,0,10.78,13c-8.45,7.85-16.38,12.15-21.77,12.15A6.1,6.1,0,0,1,64.73,143.67Zm61.48-19.75c1.22,9.9-.28,17.6-3.78,19.65a5.74,5.74,0,0,1-3,.67c-5.37,0-13.33-4.27-21.78-12.08a123.07,123.07,0,0,0,10.71-12.93,120.75,120.75,0,0,0,16.49-2.85A72.35,72.35,0,0,1,126.21,123.92Zm10-17.29c-2.23,1-4.66,1.81-7.18,2.62a123.64,123.64,0,0,0-5.83-15.79,122.91,122.91,0,0,0,5.76-15.71c2.56.81,5,1.69,7.28,2.65,9.18,3.91,15.11,9,15.11,13.11S145.37,102.74,136.19,106.63Z"/><circle class="cls-1" cx="93.47" cy="93.51" r="11.85"/></svg>