<svg id="Layer_1" data-name="Layer 1" xmlns="http://www.w3.org/2000/svg" viewBox="0 0 187 187"><defs><style>.cls-1{fill:#050505;}</style></defs><g id="Group_313" data-name="Group 313"><g id="React-icon"><path id="Path_486" data-name="Path 486" class="cls-1" d="M157,93.51c0-8.41-10.53-16.38-26.68-21.32,3.72-16.46,2.07-29.56-5.23-33.75a11.41,11.41,0,0,0-5.8-1.45v5.77a6.07,6.07,0,0,1,3,.67c3.51,2,5,9.71,3.85,19.59-.28,2.44-.75,5-1.32,7.61a127,127,0,0,0-16.43-2.82A126.93,126.93,0,0,0,97.56,54.87C106,47,113.92,42.73,119.3,42.73V37h0c-7.12,0-16.43,5.07-25.85,13.87C84,42.09,74.71,37.07,67.59,37.07v5.77c5.36,0,13.31,4.27,21.74,12.06A124.53,124.53,0,0,0,78.64,67.81a121.05,121.05,0,0,0-16.46,2.85c-.59-2.59-1-5.1-1.34-7.5-1.22-9.89.28-17.58,3.78-19.62a5.7,5.7,0,0,1,3-.67V37.09h0a11.6,11.6,0,0,0-5.85,1.45c-7.27,4.2-8.9,17.27-5.15,33.67C40.5,77.18,30,85.13,30,93.51s10.53,16.38,26.68,21.33c-3.72,16.46-2.07,29.55,5.23,33.74A11.31,11.31,0,0,0,67.75,150c7.12,0,16.44-5.07,25.86-13.87,9.42,8.75,18.73,13.77,25.85,13.77a11.56,11.56,0,0,0,5.84-1.45c7.28-4.19,8.91-17.26,5.15-33.67C146.5,109.87,157,101.9,157,93.51Zm-33.7-17.26c-1,3.34-2.14,6.78-3.49,10.22-1.06-2.07-2.17-4.14-3.39-6.21s-2.46-4.09-3.73-6.05c3.68.54,7.22,1.21,10.61,2Zm-11.85,27.56c-2,3.49-4.09,6.81-6.23,9.89-3.86.33-7.77.51-11.7.51s-7.82-.18-11.65-.49q-3.22-4.62-6.26-9.83t-5.38-10.3c1.6-3.47,3.41-6.94,5.35-10.33s4.09-6.8,6.24-9.88q5.79-.51,11.7-.52c3.91,0,7.81.18,11.64.49q3.23,4.62,6.27,9.84t5.38,10.3c-1.63,3.46-3.42,6.93-5.36,10.32Zm8.36-3.36a107.87,107.87,0,0,1,3.57,10.3c-3.39.83-7,1.52-10.66,2.07,1.27-2,2.54-4,3.73-6.14s2.3-4.16,3.36-6.23ZM93.55,128.06a108.9,108.9,0,0,1-7.2-8.28c2.33.1,4.71.18,7.12.18s4.84,0,7.2-.18a100.21,100.21,0,0,1-7.12,8.28ZM74.29,112.82c-3.67-.55-7.22-1.22-10.61-2,1-3.33,2.15-6.78,3.5-10.22,1.06,2.07,2.17,4.14,3.39,6.21S73,110.85,74.29,112.82ZM93.42,59a106.59,106.59,0,0,1,7.19,8.28c-2.33-.1-4.71-.18-7.11-.18s-4.84,0-7.2.18A101.88,101.88,0,0,1,93.42,59ZM74.27,74.21c-1.27,2-2.54,4-3.73,6.13s-2.31,4.14-3.36,6.21c-1.4-3.47-2.59-6.94-3.58-10.3,3.4-.8,7-1.5,10.67-2Zm-23.42,32.4c-9.16-3.91-15.09-9-15.09-13.1s5.93-9.21,15.09-13.1c2.22-1,4.66-1.81,7.17-2.61a124.57,124.57,0,0,0,5.82,15.76,123.11,123.11,0,0,0-5.75,15.68C55.53,108.44,53.1,107.56,50.85,106.61Zm13.92,37c-3.52-2-5-9.7-3.85-19.59.28-2.43.75-5,1.32-7.61a123.71,123.71,0,0,0,16.43,2.82,125.63,125.63,0,0,0,10.77,12.94C81,140,73.08,144.29,67.7,144.29a6.21,6.21,0,0,1-2.93-.7Zm61.39-19.72c1.21,9.89-.29,17.57-3.78,19.62a5.75,5.75,0,0,1-3,.67c-5.36,0-13.3-4.27-21.74-12.06a121,121,0,0,0,10.69-12.91,120.52,120.52,0,0,0,16.46-2.85,73.74,73.74,0,0,1,1.35,7.53Zm10-17.26c-2.23,1-4.66,1.81-7.17,2.61a124.57,124.57,0,0,0-5.82-15.76,121.55,121.55,0,0,0,5.74-15.68q3.85,1.2,7.28,2.64c9.16,3.91,15.08,9,15.08,13.1s-5.95,9.2-15.11,13.09Z"/><circle id="Ellipse_2" data-name="Ellipse 2" class="cls-1" cx="93.47" cy="93.51" r="11.83"/></g></g></svg>