<svg id="Layer_1" data-name="Layer 1" xmlns="http://www.w3.org/2000/svg" viewBox="0 0 187 187"><defs><style>.cls-1{fill:#616161;}.cls-2{fill:#4285f4;}.cls-3{fill:#db4437;}.cls-4{fill:#f4b400;}.cls-5{fill:#0f9d58;}</style></defs><path id="Shape" class="cls-1" d="M36,123.6a5.24,5.24,0,0,1-3-1,4.69,4.69,0,0,1-1.9-2.79l1.64-.66A3.73,3.73,0,0,0,34,121.1a3,3,0,0,0,2,.79,3.23,3.23,0,0,0,2-.61,2,2,0,0,0,.82-1.66,2.11,2.11,0,0,0-.82-1.79,8.14,8.14,0,0,0-2.61-1.17,7.2,7.2,0,0,1-2.8-1.51,3.12,3.12,0,0,1-.95-2.37,3.48,3.48,0,0,1,1.18-2.61,4.35,4.35,0,0,1,3.1-1.11,4.41,4.41,0,0,1,2.87.88,4.15,4.15,0,0,1,1.45,1.93l-1.65.69a2.51,2.51,0,0,0-.86-1.23,2.7,2.7,0,0,0-1.78-.57,2.78,2.78,0,0,0-1.76.58,1.75,1.75,0,0,0-.73,1.43,1.63,1.63,0,0,0,.67,1.31,6.23,6.23,0,0,0,2,1c.69.23,1.26.44,1.72.64a8.92,8.92,0,0,1,1.4.82,3.33,3.33,0,0,1,1.06,1.28,4.16,4.16,0,0,1,.37,1.78,3.71,3.71,0,0,1-.43,1.8,3.27,3.27,0,0,1-1.11,1.27,6,6,0,0,1-1.49.71A4.56,4.56,0,0,1,36,123.6Z"/><path id="Shape-2" data-name="Shape" class="cls-1" d="M46.53,123.6A4.56,4.56,0,0,1,43,122.16a5.11,5.11,0,0,1-1.36-3.63A5.31,5.31,0,0,1,43,114.94a4.26,4.26,0,0,1,3.36-1.5,4.36,4.36,0,0,1,3.39,1.38A5.25,5.25,0,0,1,51,118.51v.34H43.46a3.31,3.31,0,0,0,.95,2.28,2.92,2.92,0,0,0,2.07.83,2.58,2.58,0,0,0,2.61-1.64l1.6.67a4.14,4.14,0,0,1-1.54,1.85A4.3,4.3,0,0,1,46.53,123.6Zm2.56-6.21a2.53,2.53,0,0,0-.74-1.55,2.68,2.68,0,0,0-2.05-.75,2.59,2.59,0,0,0-1.72.63,3.12,3.12,0,0,0-1,1.67Z"/><path id="Shape-3" data-name="Shape" class="cls-1" d="M55.23,123.6a3.74,3.74,0,0,1-2.54-.88,2.88,2.88,0,0,1-1-2.31,2.85,2.85,0,0,1,1.2-2.44,4.81,4.81,0,0,1,3-.89,5.21,5.21,0,0,1,2.58.58v-.27a2.16,2.16,0,0,0-.72-1.69,2.57,2.57,0,0,0-1.76-.64,2.7,2.7,0,0,0-1.41.37,1.81,1.81,0,0,0-.87,1l-1.64-.7a3.48,3.48,0,0,1,1.31-1.58,4.15,4.15,0,0,1,2.57-.73,4.41,4.41,0,0,1,3,1.06,3.81,3.81,0,0,1,1.21,3v5.79H58.44V122h-.08A3.49,3.49,0,0,1,55.23,123.6Zm.29-1.62a2.92,2.92,0,0,0,2-.82,2.58,2.58,0,0,0,.91-2,3.54,3.54,0,0,0-2.28-.63,2.92,2.92,0,0,0-2,.57,1.72,1.72,0,0,0-.67,1.32,1.27,1.27,0,0,0,.61,1.11A2.43,2.43,0,0,0,55.52,122Z"/><path id="Shape-4" data-name="Shape" class="cls-1" d="M63.65,123.3H61.86v-9.53h1.71v1.55h.08a2.39,2.39,0,0,1,1.12-1.27,3.2,3.2,0,0,1,1.65-.51,3.45,3.45,0,0,1,1.33.23l-.68,1.67a2.74,2.74,0,0,0-1-.13,2.32,2.32,0,0,0-1.72.77,2.77,2.77,0,0,0-.74,2Z"/><path id="Shape-5" data-name="Shape" class="cls-1" d="M72.48,123.6A4.7,4.7,0,0,1,69,122.16a5.46,5.46,0,0,1,0-7.26,4.63,4.63,0,0,1,3.53-1.45,4.31,4.31,0,0,1,2.64.78,4.48,4.48,0,0,1,1.54,2l-1.64.68a2.66,2.66,0,0,0-2.66-1.79,2.8,2.8,0,0,0-2.1,1,3.82,3.82,0,0,0,0,5,2.9,2.9,0,0,0,4.86-.82l1.6.69a4.63,4.63,0,0,1-1.57,2A4.53,4.53,0,0,1,72.48,123.6Z"/><path id="Shape-6" data-name="Shape" class="cls-1" d="M79.59,109.38v4.39l-.08,1.32h.08a3.2,3.2,0,0,1,1.23-1.15,3.52,3.52,0,0,1,1.79-.47,3.36,3.36,0,0,1,2.71,1.09,4.35,4.35,0,0,1,.92,2.92v5.82H84.45v-5.56c0-1.76-.79-2.65-2.35-2.65a2.17,2.17,0,0,0-1.81.89,3.18,3.18,0,0,0-.7,2v5.27H77.8V109.38Z"/><path id="Shape-7" data-name="Shape" class="cls-1" d="M97,123.6a7.11,7.11,0,0,1-7.23-7.28,7.08,7.08,0,0,1,2.08-5.19A7,7,0,0,1,97,109.05a6.46,6.46,0,0,1,5.12,2.28l-1.24,1.2A4.68,4.68,0,0,0,97,110.76a5.3,5.3,0,0,0-3.84,1.54,5.94,5.94,0,0,0,0,8A5.3,5.3,0,0,0,97,121.89a5.5,5.5,0,0,0,4.29-2l1.24,1.25a7,7,0,0,1-2.38,1.82A7.27,7.27,0,0,1,97,123.6Z"/><path id="Shape-8" data-name="Shape" class="cls-1" d="M104.57,114.91a5,5,0,0,1,7.05,0,5.46,5.46,0,0,1,0,7.26,4.63,4.63,0,0,1-3.53,1.45,4.7,4.7,0,0,1-3.52-1.45,5.46,5.46,0,0,1,0-7.26Zm1.32,6.12a3,3,0,0,0,4.38,0,3.83,3.83,0,0,0,0-5,3,3,0,0,0-4.38,0,3.38,3.38,0,0,0-.93,2.49A3.51,3.51,0,0,0,105.89,121Z"/><path id="Shape-9" data-name="Shape" class="cls-1" d="M116,113.77v1.32H116a3.2,3.2,0,0,1,1.23-1.15,3.56,3.56,0,0,1,1.8-.47,3.34,3.34,0,0,1,2.7,1.09,4.35,4.35,0,0,1,.93,2.92v5.82h-1.8v-5.56c0-1.76-.79-2.65-2.35-2.65a2.17,2.17,0,0,0-1.81.89,3.18,3.18,0,0,0-.7,2v5.27h-1.79v-9.53Z"/><path id="Shape-10" data-name="Shape" class="cls-1" d="M127.91,123.6a4.28,4.28,0,0,1-2.63-.77,4.52,4.52,0,0,1-1.52-2l1.6-.67a2.62,2.62,0,0,0,2.58,1.8,2.31,2.31,0,0,0,1.37-.37,1.13,1.13,0,0,0,.53-1c0-.62-.44-1-1.31-1.26l-1.93-.47a4.74,4.74,0,0,1-1.73-.88,2.13,2.13,0,0,1-.82-1.77,2.44,2.44,0,0,1,1.12-2.05,4.47,4.47,0,0,1,2.66-.79,4.41,4.41,0,0,1,2.25.58,3.1,3.1,0,0,1,1.41,1.64l-1.55.64a2.1,2.1,0,0,0-2.17-1.26,2.47,2.47,0,0,0-1.34.33,1,1,0,0,0-.54.9c0,.55.42.91,1.26,1.11l1.88.44a3.65,3.65,0,0,1,2,1.06,2.57,2.57,0,0,1,.64,1.72,2.67,2.67,0,0,1-1,2.14A4.1,4.1,0,0,1,127.91,123.6Z"/><path id="Shape-11" data-name="Shape" class="cls-1" d="M133.71,114.91a5,5,0,0,1,7,0,5.43,5.43,0,0,1,0,7.26,4.6,4.6,0,0,1-3.52,1.45,4.7,4.7,0,0,1-3.53-1.45,5.46,5.46,0,0,1,0-7.26Zm1.34,6.12a3,3,0,0,0,2.19,1,3,3,0,0,0,2.19-1,3.83,3.83,0,0,0,0-5,3,3,0,0,0-2.19-.94,3,3,0,0,0-2.19.94,3.8,3.8,0,0,0,0,5Z"/><polygon id="Shape-12" data-name="Shape" class="cls-1" points="145.22 123.3 143.42 123.3 143.42 109.38 145.22 109.38 145.22 123.3"/><path id="Shape-13" data-name="Shape" class="cls-1" d="M151.37,123.6a4.59,4.59,0,0,1-3.51-1.44,5.1,5.1,0,0,1-1.35-3.63,5.36,5.36,0,0,1,1.3-3.59,4.26,4.26,0,0,1,3.36-1.5,4.36,4.36,0,0,1,3.39,1.38,5.26,5.26,0,0,1,1.28,3.69l0,.34H148.3a3.32,3.32,0,0,0,1,2.28,2.88,2.88,0,0,0,2.06.83,2.6,2.6,0,0,0,2.62-1.64l1.59.67a4.18,4.18,0,0,1-1.53,1.85A4.37,4.37,0,0,1,151.37,123.6Zm2.57-6.21a2.54,2.54,0,0,0-.75-1.55,2.67,2.67,0,0,0-2.05-.75,2.59,2.59,0,0,0-1.72.63,3.18,3.18,0,0,0-1,1.67Z"/><path id="Shape-14" data-name="Shape" class="cls-2" d="M31.16,79.16a16,16,0,0,1,16-15.78A15.07,15.07,0,0,1,58,67.74l-3,3a10.93,10.93,0,0,0-7.79-3.07,11.45,11.45,0,0,0,0,22.9,10.57,10.57,0,0,0,8-3.15,9,9,0,0,0,2.34-5.41H47.18v-4.3H61.7a14.33,14.33,0,0,1,.24,2.7c0,3.25-.87,7.25-3.73,10.07a14.39,14.39,0,0,1-11,4.42A16,16,0,0,1,31.16,79.16Z"/><path id="Shape-15" data-name="Shape" class="cls-3" d="M73.63,74.62A10.16,10.16,0,1,0,83.82,84.78,10,10,0,0,0,73.63,74.62Zm0,16.29a6.18,6.18,0,1,1,5.74-6.16A5.88,5.88,0,0,1,73.63,90.91Z"/><path id="Shape-16" data-name="Shape" class="cls-4" d="M95.87,74.62a10.16,10.16,0,1,0,10.19,10.16A10,10,0,0,0,95.87,74.62Zm0,16.29a6.17,6.17,0,1,1,5.75-6.16A5.88,5.88,0,0,1,95.87,90.91Z"/><path id="Shape-17" data-name="Shape" class="cls-2" d="M123.17,75.22v1.66H123a7,7,0,0,0-5.35-2.29,10.17,10.17,0,0,0,0,20.32A6.92,6.92,0,0,0,123,92.6h.15v1.47c0,3.88-2.08,6-5.41,6a5.58,5.58,0,0,1-5.11-3.61L108.77,98a9.69,9.69,0,0,0,9,6c5.23,0,9.64-3.07,9.64-10.58V75.22Zm-5.11,15.69a6.18,6.18,0,0,1,0-12.32c3,0,5.41,2.62,5.41,6.19S121.09,90.91,118.06,90.91Z"/><rect id="Rectangle-path" class="cls-5" x="130.5" y="64.46" width="4.45" height="29.85"/><path id="Shape-18" data-name="Shape" class="cls-3" d="M147.18,90.91a5.2,5.2,0,0,1-4.93-3.06l13.59-5.62-.45-1.14c-.85-2.29-3.43-6.47-8.69-6.47s-9.59,4.12-9.59,10.16a9.94,9.94,0,0,0,10.07,10.16,10.17,10.17,0,0,0,8.48-4.51l-3.46-2.31A5.85,5.85,0,0,1,147.18,90.91Zm-.33-12.38a3.87,3.87,0,0,1,3.76,2.16l-9.08,3.76A5.57,5.57,0,0,1,146.85,78.53Z"/></svg>