<svg id="Layer_1" data-name="Layer 1" xmlns="http://www.w3.org/2000/svg" viewBox="0 0 187 187"><path d="M108.61,106.62a7.25,7.25,0,0,0-7.42,6.43.24.24,0,0,0,.17.29h14.47a.23.23,0,0,0,.23-.23v0A7,7,0,0,0,108.61,106.62Z"/><path d="M139.48,58.32,108.93,92.63a.93.93,0,0,1-1.31.05l-.06-.05L92,76.54a1,1,0,0,1,0-1.17l5.15-6.6a.93.93,0,0,1,1.3-.21.84.84,0,0,1,.21.21l8.73,9.66a.93.93,0,0,0,1.31.11l.12-.11,24.32-33.34a.68.68,0,0,0-.17-.94.66.66,0,0,0-.35-.11H46.93a.73.73,0,0,0-.73.73v97.46a.73.73,0,0,0,.73.73H140a.72.72,0,0,0,.73-.73V58.76a.68.68,0,1,0-1.28-.44ZM72.56,132.11a23.5,23.5,0,0,1-16.7-5.82.9.9,0,0,1,0-1.19L59.5,120a.9.9,0,0,1,1.23-.34l0,0A17.91,17.91,0,0,0,73,124.46c4.77,0,7.1-2.21,7.1-4.54,0-7.22-23.51-2.27-23.51-17.63,0-6.78,5.82-12.43,15.48-12.43A23,23,0,0,1,87.31,95a.89.89,0,0,1,0,1.25l-3.58,5a.89.89,0,0,1-1.26.18l0,0a17.66,17.66,0,0,0-11.18-3.84c-3.72,0-5.82,1.65-5.82,4.1,0,6.49,23.45,2.15,23.45,17.45,0,7.4-5.32,13-16.35,13Zm51.27-14.17a.78.78,0,0,1-.76.81.06.06,0,0,1-.06,0H101.48a.27.27,0,0,0-.23.29h0A8.18,8.18,0,0,0,110,125.8a13.47,13.47,0,0,0,7.45-2.45.78.78,0,0,1,1.1.1l.06.08,2.62,3.81a.81.81,0,0,1-.17,1.07,19.38,19.38,0,0,1-11.93,3.73,15.36,15.36,0,0,1-16.2-14.48,14.42,14.42,0,0,1,0-1.47,15.46,15.46,0,0,1,15-15.88c.24,0,.48,0,.71,0,9,0,15.19,6.78,15.19,16.7Z"/></svg>