<svg id="Layer_1" data-name="Layer 1" xmlns="http://www.w3.org/2000/svg" viewBox="0 0 187 187"><path d="M130.6,93c0,1.88-.94,2.12-3.3,2.12-2.59,0-3.06-.47-3.29-2.36-.47-4.94-3.77-9.18-9.43-9.42-1.65-.24-2.12-.71-2.12-3.06,0-2.12.24-3.06,1.89-3.06C123.77,77.48,130.6,85.25,130.6,93Zm13.9,0c0-14.61-9.89-30.15-33-30.15H66.06c-1,0-1.65.47-1.65,1.41a1.3,1.3,0,0,0,.7,1.18,36.76,36.76,0,0,0,7.31,4.47,71.17,71.17,0,0,0,8,3.54q1.41.7,1.41,1.41c0,.71-.47,1.41-1.65,1.41h-36c-1.18-.23-1.65.47-1.65,1.18a2.11,2.11,0,0,0,.71,1.65C46,82.19,50.74,86,57.58,90.2a193.22,193.22,0,0,0,19.31,10.6c.94.47,1.42,1,1.42,1.65s-.48,1.18-1.65,1.18H59.93c-.94,0-1.41.47-1.41,1.18a2,2,0,0,0,.7,1.41c3.77,3.53,9.9,7.07,17.91,10.6,10.83,4.48,21.67,7.3,33.92,7.3C134.37,124.12,144.5,106.69,144.5,93Zm-30.39,21a21,21,0,0,1-21-21,21,21,0,1,1,21,21Z"/></svg>