<svg id="Layer_1" data-name="Layer 1" xmlns="http://www.w3.org/2000/svg" viewBox="0 0 187 187"><path d="M130.6,99.94c0,1.89-.94,2.12-3.3,2.12-2.59,0-3.06-.47-3.29-2.35-.47-4.95-3.77-9.19-9.43-9.43-1.65-.23-2.12-.7-2.12-3.06,0-2.12.24-3.06,1.89-3.06C123.77,84.39,130.6,92.17,130.6,99.94Zm13.9,0c0-14.6-9.89-30.15-33-30.15H66.06c-1,0-1.65.47-1.65,1.41a1.3,1.3,0,0,0,.7,1.18,36.72,36.72,0,0,0,7.31,4.48,70.91,70.91,0,0,0,8,3.53q1.41.7,1.41,1.41c0,.71-.47,1.42-1.65,1.42h-36C43,83,42.5,83.69,42.5,84.39A2.11,2.11,0,0,0,43.21,86C46,89.1,50.74,92.87,57.58,97.11a195.39,195.39,0,0,0,19.31,10.61c.94.47,1.42.94,1.42,1.64s-.48,1.18-1.65,1.18H59.93c-.94,0-1.41.47-1.41,1.18a2,2,0,0,0,.7,1.41c3.77,3.54,9.9,7.07,17.91,10.6C88,128.21,98.8,131,111.05,131,134.37,131,144.5,113.6,144.5,99.94Zm-30.39,21a21,21,0,0,1-21-21,21,21,0,1,1,21,21Z"/></svg>