<svg id="Layer_1" data-name="Layer 1" xmlns="http://www.w3.org/2000/svg" viewBox="0 0 187 187"><defs><style>.cls-1{fill:#fff;}</style></defs><path d="M126.87,62.56a1,1,0,0,0-.88-.82c-.37,0-7.53-.14-7.53-.14s-6-5.81-6.59-6.41a2.41,2.41,0,0,0-2.19-.27l-3,.93a21.62,21.62,0,0,0-1.44-3.54c-2.14-4.07-5.26-6.22-9-6.23h0c-.26,0-.52,0-.78.05-.11-.14-.22-.27-.34-.4a8,8,0,0,0-6.28-2.54c-4.87.14-9.73,3.66-13.67,9.92a39.43,39.43,0,0,0-5.47,14.2l-9.6,3c-2.82.88-2.91,1-3.28,3.63-.27,2-7.67,59.18-7.67,59.18l62,10.71,26.85-6.67S126.94,63.07,126.87,62.56Zm-23.3-5.75L98.76,58.3a26.69,26.69,0,0,0-1.48-8.87C101,50.13,102.8,54.31,103.57,56.81Zm-8,2.49L85.18,62.5A24.41,24.41,0,0,1,90.4,52.37a10.4,10.4,0,0,1,3.51-2.56C95.26,52.62,95.55,56.61,95.52,59.3ZM88.88,46.44a4.9,4.9,0,0,1,2.93.77A14.08,14.08,0,0,0,88,50.15a28.43,28.43,0,0,0-6.41,13.46l-8.5,2.63C74.79,58.4,81.35,46.66,88.88,46.44Z"/><path d="M126,61.75c-.37,0-7.53-.14-7.53-.14s-6-5.82-6.58-6.41a1.42,1.42,0,0,0-.83-.38v89l26.84-6.67s-10.95-74.06-11-74.57A1,1,0,0,0,126,61.75Z"/><path class="cls-1" d="M96.16,75.55,93.05,87.22a17.68,17.68,0,0,0-7.61-1.33c-6,.39-6.11,4.2-6,5.16.33,5.21,14.06,6.35,14.83,18.58.61,9.61-5.1,16.19-13.32,16.71-9.87.62-15.3-5.2-15.3-5.2l2.09-8.9s5.47,4.13,9.84,3.85a3.86,3.86,0,0,0,3.78-4.15c-.43-6.8-11.61-6.4-12.31-17.58-.6-9.42,5.58-19,19.22-19.81C93.47,74.21,96.16,75.55,96.16,75.55Z"/></svg>