<svg id="Layer_1" data-name="Layer 1" xmlns="http://www.w3.org/2000/svg" viewBox="0 0 187 187"><defs><style>.cls-1{fill:#95bf47;}.cls-2{fill:#5e8e3e;}.cls-3{fill:#fff;}</style></defs><path class="cls-1" d="M126.87,62.56a1,1,0,0,0-.88-.82c-.36,0-7.53-.14-7.53-.14s-6-5.81-6.58-6.41a2.44,2.44,0,0,0-2.2-.27l-3,.93a20.77,20.77,0,0,0-1.44-3.54c-2.13-4.07-5.25-6.22-9-6.23h0c-.26,0-.52,0-.79.05-.11-.14-.22-.27-.34-.4a7.94,7.94,0,0,0-6.27-2.54c-4.88.14-9.73,3.66-13.67,9.92a39.06,39.06,0,0,0-5.47,14.2l-9.6,3c-2.83.88-2.92,1-3.28,3.63-.28,2-7.67,59.18-7.67,59.18l62,10.71,26.85-6.67S126.94,63.07,126.87,62.56Zm-23.3-5.75L98.76,58.3a26.41,26.41,0,0,0-1.47-8.87C101,50.13,102.8,54.31,103.57,56.81Zm-8,2.49L85.18,62.5A24.65,24.65,0,0,1,90.4,52.37a10.44,10.44,0,0,1,3.52-2.56C95.26,52.62,95.56,56.61,95.52,59.3ZM88.88,46.44a4.86,4.86,0,0,1,2.93.77A14,14,0,0,0,88,50.15a28.44,28.44,0,0,0-6.42,13.46l-8.49,2.63C74.8,58.4,81.36,46.66,88.88,46.44Z"/><path class="cls-2" d="M126,61.75c-.36,0-7.52-.14-7.52-.14s-6-5.82-6.59-6.41a1.42,1.42,0,0,0-.83-.38v89l26.85-6.67s-11-74.06-11-74.57A1,1,0,0,0,126,61.75Z"/><path class="cls-3" d="M96.17,75.55,93.05,87.22a17.65,17.65,0,0,0-7.6-1.33c-6,.39-6.11,4.2-6,5.16.33,5.21,14.06,6.35,14.83,18.58.6,9.61-5.1,16.19-13.33,16.71-9.86.62-15.3-5.2-15.3-5.2l2.09-8.9s5.47,4.13,9.85,3.85a3.87,3.87,0,0,0,3.78-4.15c-.43-6.8-11.61-6.4-12.32-17.58-.59-9.42,5.59-19,19.23-19.81C93.48,74.21,96.17,75.55,96.17,75.55Z"/></svg>