<svg id="Layer_1" data-name="Layer 1" xmlns="http://www.w3.org/2000/svg" viewBox="0 0 187 187"><path d="M30.45,100.27a14.67,14.67,0,0,0,6.31,1.55c2.58,0,4-1,4-2.71s-1.16-2.45-4.25-3.48c-4.13-1.42-7-3.74-7-7.48,0-4.26,3.61-7.61,9.55-7.61a16.22,16.22,0,0,1,6.44,1.29l-1.29,4.64A11.64,11.64,0,0,0,39,85.18c-2.45,0-3.61,1.16-3.61,2.45,0,1.55,1.41,2.32,4.64,3.48,4.38,1.68,6.57,4,6.57,7.48,0,4.26-3.22,7.74-10.18,7.74a16.39,16.39,0,0,1-7.09-1.55Z"/><path d="M54.3,83.25a2.85,2.85,0,0,1-3.09,2.84,2.82,2.82,0,0,1-3-2.84,2.74,2.74,0,0,1,3-2.84A2.85,2.85,0,0,1,54.3,83.25Zm-5.8,23.21V88.28h5.67v18.18Z"/><path d="M63.46,82.6v5.16h4.12v4.13H63.46v6.57c0,2.2.51,3.23,2.19,3.23.64,0,1.29-.13,1.67-.13v4.25a12.12,12.12,0,0,1-3.74.52,6,6,0,0,1-4.25-1.55q-1.55-1.55-1.55-5.41V92H55.33V87.89h2.45v-4Z"/><path d="M73.51,98.85c.13,2.32,2.45,3.48,5.16,3.48a15.4,15.4,0,0,0,5-.77l.77,3.87a17.14,17.14,0,0,1-6.57,1.16c-6.19,0-9.67-3.61-9.67-9.29,0-4.64,2.83-9.67,9.15-9.67,5.93,0,8.13,4.65,8.13,9.16,0,1-.13,1.8-.13,2.19l-11.87-.13ZM80.22,95c0-1.42-.65-3.74-3.22-3.74s-3.36,2.2-3.49,3.74Z"/><path d="M86.54,106.46V103l3.09-2.84c5.29-4.77,7.87-7.48,8-10.31,0-1.94-1.16-3.49-4-3.49a8.51,8.51,0,0,0-5.16,2.07l-1.55-4.13a13.13,13.13,0,0,1,8-2.45c5.54,0,8.51,3.22,8.51,7.61,0,4.12-3,7.35-6.45,10.44l-2.19,1.81v.13h9.15v4.64Z"/><path d="M114.9,106.46v-5.8H104.2V96.92l9.16-14.83h7V96.27h2.84v4.39h-3v5.8Zm0-10.06V91.11c0-1.41.13-3,.13-4.51h-.13c-.77,1.55-1.41,3-2.19,4.51l-3.22,5.29v.13h5.41Z"/><path d="M128.19,88.28l1.8,3L131.54,94h.13c.51-1,.9-1.93,1.42-2.84l1.54-3h6.19l-6.06,8.77,6.06,9.54h-6.44l-1.81-3.22a28.25,28.25,0,0,1-1.42-2.71H131a17.39,17.39,0,0,1-1.42,2.71l-1.67,3.22h-6.19l6.19-9.29-6.06-8.89Z"/><path d="M157.71,82.22v3.61l-10.05,20.63H141.6L151.65,87v-.13H140.56V82.22Z"/></svg>