<svg id="Layer_1" data-name="Layer 1" xmlns="http://www.w3.org/2000/svg" viewBox="0 0 187 187"><defs><style>.cls-1{fill:#e01e5a;}.cls-2{fill:#36c5f0;}.cls-3{fill:#2eb67d;}.cls-4{fill:#ecb22e;}</style></defs><path class="cls-1" d="M64.87,106.57a10.4,10.4,0,1,1-10.4-10.39h10.4Zm5.2,0a10.4,10.4,0,0,1,20.79,0v26a10.4,10.4,0,0,1-20.79,0Z"/><path class="cls-2" d="M80.47,64.83a10.4,10.4,0,1,1,10.39-10.4v10.4Zm0,5.28a10.4,10.4,0,0,1,0,20.79H54.4a10.4,10.4,0,1,1,0-20.79Z"/><path class="cls-3" d="M122.13,80.5a10.4,10.4,0,1,1,10.4,10.4h-10.4Zm-5.2,0a10.4,10.4,0,1,1-20.79,0V54.43a10.4,10.4,0,0,1,20.79,0Z"/><path class="cls-4" d="M106.53,122.17a10.4,10.4,0,1,1-10.39,10.4v-10.4Zm0-5.2a10.4,10.4,0,0,1,0-20.79H132.6a10.4,10.4,0,1,1,0,20.79Z"/></svg>