<svg id="Layer_1" data-name="Layer 1" xmlns="http://www.w3.org/2000/svg" viewBox="0 0 187 187"><defs><style>.cls-1{fill-opacity:0.2;}.cls-2{fill-opacity:0.1;}.cls-3,.cls-4{fill:#fff;}.cls-4{opacity:0.2;isolation:isolate;}</style></defs><path d="M144,63.67v66.57a6.89,6.89,0,0,1-6.88,6.89H49.89A6.89,6.89,0,0,1,43,130.25V63.67Z"/><path d="M49.89,49.87h87.25A6.88,6.88,0,0,1,144,56.75v6.92H43V56.76a6.89,6.89,0,0,1,6.88-6.89h0Z"/><path class="cls-1" d="M137.14,49.87H49.89A6.92,6.92,0,0,0,43,56.76v.55a6.92,6.92,0,0,1,6.89-6.87h87.25A6.91,6.91,0,0,1,144,57.33v-.55A6.91,6.91,0,0,0,137.14,49.87Z"/><path class="cls-2" d="M43,63.67H144v.55H43Z"/><path class="cls-3" d="M93.48,84.32A36.68,36.68,0,0,0,56.8,121V121c0,.77,0,1.72,0,2.3h16a22.06,22.06,0,0,1,0-2.3,20.69,20.69,0,0,1,31.52-17.58l11.53-11.53a36.62,36.62,0,0,0-22.4-7.62Z"/><path class="cls-3" d="M115.87,91.91l-11.54,11.54A20.66,20.66,0,0,1,114.17,121a21.87,21.87,0,0,1,0,2.29h16.07c0-.54,0-1.52,0-2.29a36.67,36.67,0,0,0-14.37-29.12Z"/><circle class="cls-3" cx="52.18" cy="56.76" r="2.3"/><circle class="cls-3" cx="61.37" cy="56.76" r="2.3"/><path class="cls-2" d="M137.15,136.54H49.86A6.9,6.9,0,0,1,43,129.66v.55a6.91,6.91,0,0,0,6.88,6.88h87.29a6.9,6.9,0,0,0,6.87-6.88v-.55a6.9,6.9,0,0,1-6.87,6.88Z"/><path class="cls-3" d="M116,93.31a1.17,1.17,0,0,0,.22-.67A1.15,1.15,0,0,0,115,91.49a1.14,1.14,0,0,0-.71.25L89.3,111a6.88,6.88,0,0,0,8.4,10.9A6.78,6.78,0,0,0,99.39,120L116,93.31Z"/><path class="cls-4" d="M89.3,111.59l25-19.27a1.13,1.13,0,0,1,1.59.17,1.1,1.1,0,0,1,.22.43.84.84,0,0,0,0-.27,1.14,1.14,0,0,0-1.85-.9L89.3,111a6.87,6.87,0,0,0-2.68,5.45v.3a6.86,6.86,0,0,1,2.68-5.18Z"/></svg>