<svg id="Layer_1" data-name="Layer 1" xmlns="http://www.w3.org/2000/svg" xmlns:xlink="http://www.w3.org/1999/xlink" viewBox="0 0 187 187"><defs><style>.cls-1{fill:#e1e1e1;}.cls-2{fill:#c2c2c2;}.cls-3,.cls-9{fill:#fff;}.cls-3{fill-opacity:0.2;}.cls-10,.cls-4{fill:#212121;}.cls-4{fill-opacity:0.1;}.cls-5{fill:#4285f4;}.cls-6{fill:#f44336;}.cls-7{fill:#eee;}.cls-8{fill:#9e9e9e;}.cls-10,.cls-9{opacity:0.2;isolation:isolate;}.cls-11{fill:url(#linear-gradient);}</style><linearGradient id="linear-gradient" x1="2738.41" y1="10443.41" x2="2745.9" y2="10450.9" gradientTransform="translate(-11883.57 -45607.45) scale(4.38)" gradientUnits="userSpaceOnUse"><stop offset="0" stop-color="#212121" stop-opacity="0.2"/><stop offset="1" stop-color="#212121" stop-opacity="0"/></linearGradient></defs><path class="cls-1" d="M144,63.67v66.57a6.89,6.89,0,0,1-6.88,6.89H49.89A6.89,6.89,0,0,1,43,130.25V63.67Z"/><path class="cls-2" d="M49.89,49.87h87.25A6.88,6.88,0,0,1,144,56.75v6.92H43V56.76a6.89,6.89,0,0,1,6.88-6.89h0Z"/><path class="cls-3" d="M137.14,49.87H49.89A6.92,6.92,0,0,0,43,56.76v.55a6.92,6.92,0,0,1,6.89-6.87h87.25A6.91,6.91,0,0,1,144,57.33v-.55A6.91,6.91,0,0,0,137.14,49.87Z"/><path class="cls-4" d="M43,63.67H144v.55H43Z"/><path class="cls-5" d="M93.48,84.32A36.68,36.68,0,0,0,56.8,121V121c0,.77,0,1.72,0,2.3h16a22.06,22.06,0,0,1,0-2.3,20.69,20.69,0,0,1,31.52-17.58l11.53-11.53a36.62,36.62,0,0,0-22.4-7.62Z"/><path class="cls-6" d="M115.87,91.91l-11.54,11.54A20.66,20.66,0,0,1,114.17,121a21.87,21.87,0,0,1,0,2.29h16.07c0-.54,0-1.52,0-2.29a36.67,36.67,0,0,0-14.37-29.12Z"/><circle class="cls-7" cx="52.18" cy="56.76" r="2.3"/><circle class="cls-7" cx="61.37" cy="56.76" r="2.3"/><path class="cls-4" d="M137.15,136.54H49.86A6.9,6.9,0,0,1,43,129.66v.55a6.91,6.91,0,0,0,6.88,6.88h87.29a6.9,6.9,0,0,0,6.87-6.88v-.55a6.9,6.9,0,0,1-6.87,6.88Z"/><path class="cls-8" d="M116,93.31a1.17,1.17,0,0,0,.22-.67A1.15,1.15,0,0,0,115,91.49a1.14,1.14,0,0,0-.71.25L89.3,111a6.88,6.88,0,0,0,8.4,10.9A6.78,6.78,0,0,0,99.39,120L116,93.31Z"/><path class="cls-9" d="M89.3,111.59l25-19.27a1.13,1.13,0,0,1,1.59.17,1.1,1.1,0,0,1,.22.43.84.84,0,0,0,0-.27,1.14,1.14,0,0,0-1.85-.9L89.3,111a6.87,6.87,0,0,0-2.68,5.45v.3a6.86,6.86,0,0,1,2.68-5.18Z"/><path class="cls-10" d="M116,93.31,99.4,120a6.88,6.88,0,0,1-12.76-3.25V117a6.88,6.88,0,0,0,12.78,3.57L116,93.89a1.17,1.17,0,0,0,.22-.68.93.93,0,0,0,0-.29,1.18,1.18,0,0,1-.19.39Z"/><path class="cls-11" d="M116,91.94a1.13,1.13,0,0,1,0,1.37L99.39,120a6.88,6.88,0,0,1-9.46,2.3,6.44,6.44,0,0,1-.9-.65l15.42,15.42h32.68a6.87,6.87,0,0,0,6.89-6.87h0V120Z"/></svg>