<svg id="Layer_1" data-name="Layer 1" xmlns="http://www.w3.org/2000/svg" viewBox="0 0 187 187"><defs><style>.cls-1{fill:#333;}.cls-2{fill:#ec1c27;}</style></defs><path class="cls-1" d="M105.93,50a49.24,49.24,0,0,0-10.59-1.67l.36,4.14a43.93,43.93,0,0,1,9.07,1.45,41.9,41.9,0,0,1,15,73.73l-8-9.51a.76.76,0,0,1-.15-.58l3.12-10-17.12,3.19a.67.67,0,0,1-.51-.15.6.6,0,0,1-.22-.43l.07-2.83a.46.46,0,0,1,.22-.44l14.08-10.37c-.66-2.4-4.14-15.53-8.2-20.76a.54.54,0,0,1-.07-.58.68.68,0,0,1,.5-.36l20.9-1-28.88-14a.62.62,0,0,1-.29-.51l-1.3-13.79L60.43,54.93l2.33,9.65a.49.49,0,0,1-.22.58l-10.89,8-.29,1.45L66,76a.63.63,0,0,1,.51.44l7.69,31.71v.21l.22.8-.66-.29h-.29l-17.85-6.75L57,115.44a42.41,42.41,0,0,1-4.86-30l.44-1.88a53.8,53.8,0,0,1,2.83-7.4l-4.36-.44a41.79,41.79,0,0,0-2.17,5.95l-.15.15c-.29.94-.51,1.88-.72,2.83A46.62,46.62,0,1,0,105.93,50M82.78,105.21l25.47-7.62L94,106.16Z"/><path class="cls-2" d="M105.28,135l-9.72-19.16-11.11-1.16,16.26,21.33a35.65,35.65,0,0,0,4.57-1"/></svg>