<svg id="Layer_1" data-name="Layer 1" xmlns="http://www.w3.org/2000/svg" viewBox="0 0 187 187"><defs><style>.cls-1{fill:#fff;}</style></defs><path d="M143.92,71c0-1,0-2,0-3.05a44.72,44.72,0,0,0-.58-6.62,22.62,22.62,0,0,0-2.07-6.3A21.28,21.28,0,0,0,132,45.78a22.62,22.62,0,0,0-6.3-2.07,44.6,44.6,0,0,0-6.62-.58c-1,0-2,0-3.05-.05H71c-1,0-2,0-3,.05-.56,0-1.11,0-1.66.06a37.55,37.55,0,0,0-5,.52,23.32,23.32,0,0,0-4.77,1.37c-.52.22-1,.45-1.53.7a21.68,21.68,0,0,0-4.14,2.77c-.42.36-.83.74-1.22,1.13A21.23,21.23,0,0,0,45.78,55a22.62,22.62,0,0,0-2.07,6.3A44.72,44.72,0,0,0,43.13,68c0,1,0,2-.05,3.05,0,1.2,0,2.41,0,3.61v37.76c0,1.2,0,2.41,0,3.61,0,1,0,2,.05,3a44.74,44.74,0,0,0,.58,6.63,22.62,22.62,0,0,0,2.07,6.3A21.28,21.28,0,0,0,55,141.22a22.62,22.62,0,0,0,6.3,2.07,44.62,44.62,0,0,0,6.63.58c1,0,2,0,3,0h45c1,0,2,0,3.05,0a44.6,44.6,0,0,0,6.62-.58,22.62,22.62,0,0,0,6.3-2.07,21.23,21.23,0,0,0,5.36-3.9,21,21,0,0,0,3.89-5.36,22.32,22.32,0,0,0,2.08-6.3,44.74,44.74,0,0,0,.58-6.63c0-1,0-2,0-3,0-1.2,0-2.41,0-3.61V74.62C143.93,73.42,143.93,72.21,143.92,71Z"/><path class="cls-1" d="M123,105.33h0c.11-.38.23-.76.32-1.15,4.19-16.67-6-36.39-23.31-46.77,7.57,10.27,10.92,22.71,8,33.59-.27,1-.59,1.9-.94,2.8-.38-.25-.87-.53-1.51-.89A218.08,218.08,0,0,1,69.65,63.5,222.3,222.3,0,0,0,91.43,90.91c-5.58-3.13-21.12-14.44-31-23.44a43.94,43.94,0,0,0,4.23,5.82c8.22,10.42,18.93,23.28,31.76,33.15-9,5.51-21.76,5.94-34.44,0a51.64,51.64,0,0,1-8.82-5.26,52.83,52.83,0,0,0,23.71,20.33c12,5.16,23.94,4.81,32.83.08h0l.14-.08q.54-.28,1.08-.6c4.27-2.22,12.71-4.47,17.24,4.34C129.3,127.42,131.65,116,123,105.33Z"/></svg>