<svg id="Layer_1" data-name="Layer 1" xmlns="http://www.w3.org/2000/svg" viewBox="0 0 187 187"><defs><style>.cls-1{fill:#fabb05;}.cls-2{fill:#4285f4;}.cls-3{fill:#34a853;}.cls-4{fill:#ea4335;}</style></defs><g id="g1110"><path id="path987-3" class="cls-1" d="M50.6,128.21c-1.64-1-6.85-6.44-7.25-7.54A2.77,2.77,0,0,1,43.3,119c.16-.4,8.46-8.89,18.44-18.85C77.2,84.72,80,82,81,82s2.28,1.21,8.16,7l7.08,7,12.63-12.63,12.63-12.63-4.2-4.26c-3.58-3.64-4.2-4.43-4.2-5.46a3,3,0,0,1,2.7-2.88c.68-.13,6.87-.18,13.74-.12l12.51.11.91,1.06.9,1V73.71c0,9.93-.14,13.54-.47,14a4.27,4.27,0,0,1-2.73,1.46c-.34,0-2.56-1.88-4.91-4.17a41.85,41.85,0,0,0-4.44-4c-.09.08-7.81,7.78-17.16,17.12-14.47,14.44-17.17,17-18.08,17s-2.27-1.2-8.06-6.93l-7-6.94L67.65,114.52c-11.91,11.93-14.6,14.41-15.63,14.4a5.45,5.45,0,0,1-1.42-.71Z"/><path id="path989-6" class="cls-2" d="M50.6,128.21c-1.64-1-6.85-6.44-7.25-7.54A2.77,2.77,0,0,1,43.3,119c.16-.4,8.46-8.89,18.44-18.85C77.14,84.77,80,82,81,82s2.33,1.25,8.24,7c3.94,3.86,9.36,9.27,12,12l4.88,5-4.53,4.49c-3.63,3.59-4.74,4.49-5.58,4.49s-2.31-1.25-8-6.93l-7-6.94L67.65,114.52c-11.91,11.93-14.6,14.41-15.63,14.4a5.45,5.45,0,0,1-1.42-.71Zm82.6-45.58C129.44,79,123.37,73,119.71,69.16c-5.69-5.93-6.66-7.11-6.66-8.09a3,3,0,0,1,2.7-2.85c.68-.12,6.87-.17,13.74-.11l12.51.11.9,1.05.91,1V73.71c0,9.93-.14,13.54-.47,14a4.27,4.27,0,0,1-2.7,1.46c-.33,0-3.67-2.94-7.43-6.53Z"/><path id="path1096" class="cls-3" d="M133.2,82.63C129.44,79,123.37,73,119.71,69.16c-5.69-5.93-6.66-7.11-6.66-8.09a3,3,0,0,1,2.7-2.85c.68-.12,6.87-.17,13.74-.11l12.51.11s1.11.06,1.42.39.39,1.72.39,1.72V73.72c0,9.92-.14,13.54-.47,14a4.28,4.28,0,0,1-2.7,1.47c-.33,0-3.67-2.94-7.43-6.54Z"/><path id="path1102" class="cls-4" d="M71.18,90.78C73.68,88.23,79.87,82,81,82c.87,0,2.33,1.24,8.24,7,3.94,3.87,9.36,9.28,12,12l4.88,5-4.53,4.49c-3.63,3.59-4.74,4.49-5.58,4.49s-2.31-1.25-8-6.93l-7-6.94Z"/></g></svg>