<svg id="Layer_1" data-name="Layer 1" xmlns="http://www.w3.org/2000/svg" viewBox="0 0 187 187"><path d="M125.38,71.54v9.58c0,.23.56.67.89.67h9.15c.55,0,1.33-.33,1.33-.67V71.54c0-.23-.78-.67-1.33-.67h-9.15C125.94,71,125.38,71.31,125.38,71.54Zm0,17.5V98c0,.67.45,1.22.89,1.22h9.15A1.33,1.33,0,0,0,136.75,98V89a1.54,1.54,0,0,0-1.33-1.23h-9.15C125.94,87.81,125.38,88.59,125.38,89Zm0,17.06v9.14a.88.88,0,0,0,.89.89h9.15c.66,0,1.33-.45,1.33-.89V106.1c0-.56-.67-.9-1.33-.9h-9.15A1,1,0,0,0,125.38,106.1ZM82.58,80.34v29c0,1.34,1.22,2.34,2.34,1.34l21.85-14.38a1.62,1.62,0,0,0,.89-1.45,1.22,1.22,0,0,0-.89-1.23L84.92,79C84,78.67,82.58,79.12,82.58,80.34Zm-32.33-8.8v9.58c0,.23.67.67,1.11.67h9.25c.34,0,.9-.33.9-.67V71.54c0-.23-.56-.67-.9-.67H51.36C50.92,71,50.25,71.31,50.25,71.54Zm0,17.5V98a1.31,1.31,0,0,0,1.11,1.22h9.25c.45,0,.9-.55.9-1.22V89c0-.56-.56-1.23-.9-1.23H51.36C50.92,87.81,50.25,88.59,50.25,89Zm0,17.06v9.14c0,.55.67.89,1.11.89h9.25a1,1,0,0,0,.9-.89V106.1a.89.89,0,0,0-.9-.9H51.36C50.92,105.2,50.25,105.65,50.25,106.1Zm-6.91,12v-49a7.25,7.25,0,0,1,7.35-7.25h85.62a7.25,7.25,0,0,1,7.35,7.25V118a7.23,7.23,0,0,1-7.35,7.14H50.69A7.14,7.14,0,0,1,43.34,118.13Z"/></svg>