<svg id="Layer_1" data-name="Layer 1" xmlns="http://www.w3.org/2000/svg" viewBox="0 0 187 187"><defs><style>.cls-1{fill-rule:evenodd;}</style></defs><path class="cls-1" d="M93.4,37.43H94a2.34,2.34,0,0,1,2,2.24V54a2.33,2.33,0,0,1-2.26,2.29,2.3,2.3,0,0,1-2.37-2.2q0-7.24,0-14.49a2.31,2.31,0,0,1,2-2.16Z"/><path class="cls-1" d="M62.27,44.46a2.35,2.35,0,0,1,2.58,1.25Q67.93,52.13,71,58.56a2.33,2.33,0,0,1-.14,2.26,2.31,2.31,0,0,1-2.36,1,2.28,2.28,0,0,1-1.65-1.22q-3.09-6.43-6.17-12.89a2.29,2.29,0,0,1,.13-2.24,2.35,2.35,0,0,1,1.47-1Z"/><path class="cls-1" d="M123,44.47a2.32,2.32,0,0,1,2.62,3.25q-3,6.18-5.92,12.35a3.31,3.31,0,0,1-.85,1.29,2.32,2.32,0,0,1-3.57-2.79l6.17-12.9a2.33,2.33,0,0,1,1.55-1.2Z"/><path class="cls-1" d="M90.65,62.93a43.22,43.22,0,0,1,35.49,14.52,41.43,41.43,0,0,1,3.59,4.65,43.35,43.35,0,0,1,1.83,45.2,43.83,43.83,0,0,1-6.14,8.43,39.66,39.66,0,0,1-3.36,3.25,43.29,43.29,0,0,1-58.43-1.53,42.11,42.11,0,0,1-4.28-4.77A43.28,43.28,0,0,1,62.09,76.5a35.69,35.69,0,0,1,3-2.9,43.13,43.13,0,0,1,20-9.91,42.33,42.33,0,0,1,5.6-.76Zm-12.16,6.5a24.35,24.35,0,0,0-2.32,1.07,40.72,40.72,0,0,1,16.71,3.59,35.3,35.3,0,0,1,5.21-7.44,39.81,39.81,0,0,0-19.6,2.78Zm24.71-1.86a1.49,1.49,0,0,1,0,.21,2.24,2.24,0,0,0-1.5.37,8.59,8.59,0,0,0-2.12,2.09A32.54,32.54,0,0,0,96.68,75a4.08,4.08,0,0,0-.35.73c.59.28,1.16.61,1.74.92a63.86,63.86,0,0,1,7.75,5.09c.7.53,1.39,1.09,2.08,1.64a75.46,75.46,0,0,1,6.62,6.27,5.27,5.27,0,0,1,7,4.59,5.09,5.09,0,0,1-.26,2l0,0a6.46,6.46,0,0,1-.55,1.12q1.46,2.14,2.73,4.4c.29.49.52,1,.85,1.5A42.1,42.1,0,0,0,126.53,97c.21-.78.39-1.57.53-2.37a20.19,20.19,0,0,0-.25-9.68,7.66,7.66,0,0,0-1.22-2.44,26.49,26.49,0,0,0-2.3-2.76,1.18,1.18,0,0,0-.2-.28,39.22,39.22,0,0,0-8.55-7.08,38,38,0,0,0-7.91-3.77c-1.12-.39-2.27-.73-3.43-1ZM70.82,74.91A13.66,13.66,0,0,0,66,77.64a21.18,21.18,0,0,0-1.59,1.69,7.08,7.08,0,0,0-.84.89,39.69,39.69,0,0,0-9.63,27.68,28.43,28.43,0,0,0,.37,3.9,1.43,1.43,0,0,0,.63,1.13,7.39,7.39,0,0,0,2.7,1.24,21.12,21.12,0,0,0,2.6.56,58,58,0,0,0,7.33.61l0,0v-.06l.08.08c.62,0,1.24,0,1.86,0,3.57,0,7.15-.17,10.71-.5.7-4,1.55-7.94,2.43-11.88a6.62,6.62,0,0,1-2.39-2.77,6.82,6.82,0,0,1-.44-1.32,6.59,6.59,0,0,1,6.1-8,114,114,0,0,1,4.22-11.32c.35-.77.69-1.53,1.06-2.29a40.7,40.7,0,0,0-9.51-2.91,22.93,22.93,0,0,0-10.92.54ZM94.76,79a138,138,0,0,0-4.93,12.92,6.71,6.71,0,0,1,3,4.54,7.74,7.74,0,0,1,.08,1.27,6.64,6.64,0,0,1-2.13,4.61A6.53,6.53,0,0,1,86.33,104c-.84,3.46-1.6,6.95-2.24,10.46l4.13-.49a4.88,4.88,0,0,1,2.06-3.32,4.83,4.83,0,0,1,7.11,1.94c1.39-.25,2.78-.48,4.16-.77l0-.11,0,.12,1.69-.34a136.75,136.75,0,0,0,18.54-5,58.8,58.8,0,0,0-4-6.85,5.29,5.29,0,0,1-4.3-.59,5.36,5.36,0,0,1-2.3-3.1,5.54,5.54,0,0,1-.16-1.52,5.2,5.2,0,0,1,.66-2.43c-1.31-1.39-2.66-2.74-4.08-4-.63-.57-1.27-1.14-1.92-1.68A60.24,60.24,0,0,0,94.76,79Zm35.92,16.25c-.15.9-.34,1.78-.54,2.66h0a42.05,42.05,0,0,1-2,6,20.31,20.31,0,0,0,2.42-1.33,8.41,8.41,0,0,0,2.05-1.7,1.26,1.26,0,0,0,.33-1.1A41.24,41.24,0,0,0,132,95.6c-.3-1.06-.62-2.1-1-3.13-.11.92-.19,1.84-.34,2.75Zm-4.07,13.25a38.71,38.71,0,0,1,3,14.82,39.38,39.38,0,0,0,3.84-18.52,33.82,33.82,0,0,1-6.82,3.7Zm-6.39,2.32a168,168,0,0,1-18,4.59l-1.79.35c-.93.17-1.86.35-2.79.51a4.85,4.85,0,0,1-6,3.07,5,5,0,0,1-2.6-1.88q-2.77.33-5.56.58c-.55,3.45-1,6.93-1.32,10.42-.05.59-.1,1.19-.14,1.79-.13,2-.22,4-.15,6a49,49,0,0,0,6.65-1.56c.81-.24,1.6-.51,2.39-.79s1.79-.64,2.65-1,1.93-.83,2.87-1.28a59.54,59.54,0,0,0,8.76-5.13,7.25,7.25,0,0,1-.31-1.38,5.71,5.71,0,0,1,8.44-5.63,58.22,58.22,0,0,0,6.91-8.66Zm3.74.95A61.34,61.34,0,0,1,115.69,122a5.69,5.69,0,0,1-2.67,7.58,5.75,5.75,0,0,1-5.71-.42A65.56,65.56,0,0,1,95.58,136q-2.27,1-4.6,1.82A48.69,48.69,0,0,1,82.15,140a12.39,12.39,0,0,0,.78,3,3.58,3.58,0,0,0,1.4,1.74s0,.13,0,.18a35.22,35.22,0,0,0,3.82.72,39.62,39.62,0,0,0,18.73-1.86,33.3,33.3,0,0,0,4.51-1.94,15.87,15.87,0,0,0,1.69-.87,39.24,39.24,0,0,0,8.06-6,14.32,14.32,0,0,0,2.35-2.63,15.25,15.25,0,0,0,2.25-5.74,28.1,28.1,0,0,0-1.13-13,17.33,17.33,0,0,0-.64-1.88ZM55.38,117a33.14,33.14,0,0,0,1.13,3.36A39.06,39.06,0,0,0,60.43,128a28.37,28.37,0,0,0,1.76,2.43l0,0a25.74,25.74,0,0,0,2.1,2.56,7.08,7.08,0,0,0,1.18,1.14A14.34,14.34,0,0,0,71,136.29a28.48,28.48,0,0,0,7.2.37,66.78,66.78,0,0,1,.28-9.38c.06-.57.14-1.15.16-1.73l0,0c.23-2.44.61-4.85,1-7.26-2.52.17-5,.3-7.58.36-.6,0-1.21,0-1.81,0a66.52,66.52,0,0,1-10.55-.65c-.95-.16-1.91-.35-2.84-.6-.51-.14-1-.29-1.5-.47ZM73,140.14a37.55,37.55,0,0,0,6.41,3.19,17.56,17.56,0,0,1-.8-3,30.93,30.93,0,0,1-5.61-.16Z"/><path class="cls-1" d="M38.77,65.08a2.33,2.33,0,0,1,2.2.15l11.27,7a4.74,4.74,0,0,1,1.46,1.12,2.32,2.32,0,0,1-3,3.37q-5.88-3.63-11.76-7.29a3.36,3.36,0,0,1-1-.79,2.32,2.32,0,0,1-.49-1.15V66.9a2.34,2.34,0,0,1,1.34-1.82Z"/><path class="cls-1" d="M146.59,65a2.32,2.32,0,0,1,2.69,3.35,3.47,3.47,0,0,1-1.47,1.26l-11.43,7.09a2.32,2.32,0,1,1-2.37-4l11.65-7.23a3.73,3.73,0,0,1,.93-.48Z"/><path class="cls-1" d="M103.2,67.57c1.16.28,2.31.62,3.43,1a24.71,24.71,0,0,1,.86,3.81,32.58,32.58,0,0,1,7.05,0,39.22,39.22,0,0,1,8.55,7.08,1.18,1.18,0,0,1,.2.28,16.36,16.36,0,0,0-6.64-3.65,27.9,27.9,0,0,0-8.86-1,70,70,0,0,1,.11,8.32c-.69-.55-1.38-1.11-2.08-1.64a64.43,64.43,0,0,0-.13-6.52,41.12,41.12,0,0,0-7.62,1.43c-.58-.31-1.15-.64-1.74-.92a4.08,4.08,0,0,1,.35-.73,47.12,47.12,0,0,1,8.74-2.32,14.45,14.45,0,0,0-.86-3.44,2.3,2.3,0,0,0-1.34-1.45,1.49,1.49,0,0,0,0-.21Z"/><path class="cls-1" d="M76.38,87.05a69.84,69.84,0,0,1,14.87-9.77c-.37.76-.71,1.52-1.06,2.29a56.93,56.93,0,0,0-13,8.35,3.15,3.15,0,0,1,.17,3,3.08,3.08,0,0,1-3.09,1.73,3.57,3.57,0,0,1-1.5-.54,55.51,55.51,0,0,0-6.06,7.6c-.68,1-1.35,2.1-1.94,3.21a154,154,0,0,1,15.06-4,6.82,6.82,0,0,0,.44,1.32,119.69,119.69,0,0,0-11.87,3.52c-1.47.53-2.94,1.07-4.37,1.7a54,54,0,0,0,5.49,9.93c-.62,0-1.24,0-1.86,0l-.08-.08a63.73,63.73,0,0,1-4.91-8.12,40.12,40.12,0,0,0-2.47,7.62,21.12,21.12,0,0,1-2.6-.56,42.58,42.58,0,0,1,2.73-7.06c-.94.46-1.86,1-2.76,1.53a13.08,13.08,0,0,0-2.67,2.07,2.67,2.67,0,0,0-.63,1.09,28.43,28.43,0,0,1-.37-3.9,34,34,0,0,1,7.39-3.73,39.05,39.05,0,0,1-3.4-15.41,39.5,39.5,0,0,1,5.64-8.54,7.08,7.08,0,0,1,.84-.89,15.39,15.39,0,0,0-1.15,1.74,19.87,19.87,0,0,0-2.32,9.53,35.88,35.88,0,0,0,2,11.84,64,64,0,0,1,9-11.29,3.26,3.26,0,0,1-.39-2,3.08,3.08,0,0,1,4.81-2.12Z"/><path class="cls-1" d="M105.65,86.34c.65.54,1.29,1.11,1.92,1.68-.21,2.26-.49,4.52-.82,6.77,1.41-.12,2.82-.22,4.24-.32a5.54,5.54,0,0,0,.16,1.52c-1.52.06-3.06.09-4.58.22a5.54,5.54,0,0,0-.22,1.09c-.21,1.23-.43,2.45-.67,3.66a3.2,3.2,0,0,1,1.29,1.29,3.11,3.11,0,0,1-.26,3.3,3.15,3.15,0,0,1-2.28,1.23c-.37,1.59-.77,3.17-1.19,4.75l-1.69.34,0-.12c.48-1.75.93-3.51,1.31-5.28a3.09,3.09,0,0,1-.28-5.38,3.19,3.19,0,0,1,1.41-.47c.23-1.43.45-2.86.64-4.29-1.13.08-2.26.18-3.38.3a2.56,2.56,0,0,1-.83,1.39,2.42,2.42,0,0,1-2.5.38,2.46,2.46,0,0,1-1.28-1.24q-1.89.25-3.78.54a7.74,7.74,0,0,0-.08-1.27c1.22-.19,2.44-.35,3.67-.52A2.43,2.43,0,0,1,99,93.75a2.46,2.46,0,0,1,2.16,1.59l3.66-.38c.36-2.86.62-5.74.81-8.62Z"/><path class="cls-1" d="M121.5,94.23c1.86,0,3.72.15,5.56.36-.14.8-.32,1.59-.53,2.37-1.27-.24-2.55-.42-3.84-.56a9.82,9.82,0,0,0-1.43-.1l0,0a5.09,5.09,0,0,0,.26-2Z"/><path class="cls-1" d="M130.68,95.22c.45.11.9.23,1.35.38a41.24,41.24,0,0,1,.91,4.14,2.35,2.35,0,0,0-1-1,9.53,9.53,0,0,0-1.78-.81c.2-.88.39-1.76.54-2.66Z"/><path class="cls-1" d="M100.38,115.73l1.79-.35a138.69,138.69,0,0,1-5.75,16.21c-.94.45-1.89.89-2.87,1.28a130.46,130.46,0,0,0,6.83-17.14Z"/><path class="cls-1" d="M56.88,117.46c.93.25,1.89.44,2.84.6a21.33,21.33,0,0,0,1,9.35,14.6,14.6,0,0,0,1.48,3l0,0A28.37,28.37,0,0,1,60.43,128a39.06,39.06,0,0,1-3.92-7.67,25.66,25.66,0,0,1,.37-2.89Z"/><path class="cls-1" d="M70.27,118.71c.6,0,1.21,0,1.81,0,.39.48.79.94,1.18,1.41a3.39,3.39,0,0,1,1.77-.37,3.07,3.07,0,0,1,2.64,2,3.14,3.14,0,0,1-.25,2.72l1.23,1.13c0,.58-.1,1.16-.16,1.73-.69-.61-1.38-1.24-2-1.87a3.15,3.15,0,0,1-3.23,0,3.09,3.09,0,0,1-1.49-2.89,3.18,3.18,0,0,1,.52-1.52c-.68-.76-1.34-1.54-2-2.33Z"/><path class="cls-1" d="M82,130.22c0-.6.09-1.2.14-1.79a57.69,57.69,0,0,0,8.75,5.46c-.79.28-1.58.55-2.39.79a69.88,69.88,0,0,1-6.5-4.46Z"/><path class="cls-1" d="M112.46,138.47a16.66,16.66,0,0,0,8.67-3.52,39.24,39.24,0,0,1-8.06,6,15.87,15.87,0,0,1-1.69.87,40.77,40.77,0,0,1-17.74-4.35,36.7,36.7,0,0,1-5.5,8.15,35.22,35.22,0,0,1-3.82-.72c0-.05,0-.14,0-.18a1.23,1.23,0,0,0,1,0A5,5,0,0,0,87,143.43,31.31,31.31,0,0,0,91,137.77q2.34-.81,4.6-1.82a45.87,45.87,0,0,0,4.61,1.49,32.38,32.38,0,0,0,12.27,1Z"/></svg>