<svg id="Layer_1" data-name="Layer 1" xmlns="http://www.w3.org/2000/svg" viewBox="0 0 187 187"><defs><style>.cls-1{fill:#4285f4;}.cls-2{fill:#34a853;}.cls-3{fill:#fbbc05;}.cls-4{fill:#ea4335;}</style></defs><path class="cls-1" d="M138.94,94.54a54.35,54.35,0,0,0-.74-8.78H94.49v17.45h25a21.56,21.56,0,0,1-9.29,13.85v11.6h14.93C133.91,120.58,138.94,108.66,138.94,94.54Z"/><path class="cls-2" d="M94.49,139.92c12.53,0,23-4.18,30.67-11.26l-14.93-11.6a28.05,28.05,0,0,1-15.74,4.49c-12.11,0-22.36-8.17-26-19.19H53.06v12A46.33,46.33,0,0,0,94.49,139.92Z"/><path class="cls-3" d="M68.45,102.36A26.91,26.91,0,0,1,67,93.5a28,28,0,0,1,1.47-8.86v-12H53.06a45.81,45.81,0,0,0,0,41.62Z"/><path class="cls-4" d="M94.49,65.45a25.15,25.15,0,0,1,17.79,7l13.23-13.23a44.36,44.36,0,0,0-31-12.11A46.33,46.33,0,0,0,53.06,72.69l15.39,12C72.13,73.62,82.38,65.45,94.49,65.45Z"/></svg>