<svg id="Layer_1" data-name="Layer 1" xmlns="http://www.w3.org/2000/svg" viewBox="0 0 187 187"><defs><style>.cls-1{fill:#7f54b3;}.cls-2{fill:#fff;}</style></defs><path class="cls-1" d="M39.77,54.23h107.4a12.29,12.29,0,0,1,12.3,12.3v41a12.29,12.29,0,0,1-12.3,12.29H108.66l5.28,13-23.24-13H39.83a12.29,12.29,0,0,1-12.3-12.29v-41a12.25,12.25,0,0,1,12.24-12.3Z"/><path class="cls-2" d="M35,65.44a4.29,4.29,0,0,1,3.38-1.66c2.74-.22,4.29,1.07,4.67,3.86q2.49,16.81,5.41,28.48L60.25,73.75c1.07-2,2.41-3.11,4-3.21,2.36-.17,3.81,1.34,4.4,4.5a99.79,99.79,0,0,0,5.1,18.34c1.39-13.62,3.75-23.43,7.08-29.5a4.12,4.12,0,0,1,3.54-2.36,4.68,4.68,0,0,1,3.38,1.08,4.22,4.22,0,0,1,1.66,3.05,4.7,4.7,0,0,1-.54,2.58c-2.09,3.86-3.81,10.35-5.2,19.36-1.34,8.74-1.82,15.56-1.5,20.44a6.4,6.4,0,0,1-.65,3.54,3.46,3.46,0,0,1-2.84,1.93,5.44,5.44,0,0,1-4.24-2c-5-5.09-8.95-12.71-11.85-22.85Q57.38,99,54.89,104.11c-3.17,6.06-5.85,9.17-8.1,9.33-1.45.11-2.68-1.12-3.76-3.7Q38.93,99.21,34.18,69A4.59,4.59,0,0,1,35,65.44Zm115.27,8.42a12.36,12.36,0,0,0-8.59-6.22,13.6,13.6,0,0,0-2.89-.32c-5.15,0-9.33,2.68-12.61,8A28.41,28.41,0,0,0,122,90.49a20.83,20.83,0,0,0,2.57,10.62,12.39,12.39,0,0,0,8.59,6.22,14.35,14.35,0,0,0,2.89.32c5.2,0,9.39-2.68,12.61-8a28.76,28.76,0,0,0,4.18-15.18A19.89,19.89,0,0,0,150.31,73.86Zm-6.76,14.86c-.75,3.54-2.09,6.17-4.08,7.94-1.55,1.39-3,2-4.34,1.71S132.77,97,132,94.89A13.73,13.73,0,0,1,131,90a18.5,18.5,0,0,1,.37-3.92,17.45,17.45,0,0,1,2.85-6.38c1.77-2.63,3.64-3.7,5.57-3.33,1.29.27,2.36,1.4,3.17,3.49a13.65,13.65,0,0,1,1,4.88,18.78,18.78,0,0,1-.37,4ZM116.73,73.86a12.45,12.45,0,0,0-8.58-6.22,13.76,13.76,0,0,0-2.9-.32c-5.15,0-9.33,2.68-12.6,8a28.42,28.42,0,0,0-4.19,15.13A20.73,20.73,0,0,0,91,101.11a12.35,12.35,0,0,0,8.58,6.22,14.37,14.37,0,0,0,2.9.32c5.2,0,9.38-2.68,12.6-8a28.76,28.76,0,0,0,4.18-15.18A20.27,20.27,0,0,0,116.73,73.86Zm-6.81,14.86c-.75,3.54-2.09,6.17-4.08,7.94-1.55,1.39-3,2-4.34,1.71S99.14,97,98.33,94.89a13.73,13.73,0,0,1-1-4.88,18.5,18.5,0,0,1,.37-3.92,17.45,17.45,0,0,1,2.85-6.38c1.77-2.63,3.64-3.7,5.57-3.33,1.29.27,2.36,1.4,3.17,3.49a13.65,13.65,0,0,1,1,4.88,15.53,15.53,0,0,1-.37,4Z"/></svg>