<svg id="Layer_1" data-name="Layer 1" xmlns="http://www.w3.org/2000/svg" viewBox="0 0 187 187"><defs><style>.cls-1{fill:#207196;}</style></defs><path class="cls-1" d="M40.94,93.5a52.57,52.57,0,0,0,29.62,47.3L45.49,72.11A52.47,52.47,0,0,0,40.94,93.5Z"/><path class="cls-1" d="M129,90.85c0-6.5-2.34-11-4.34-14.5-2.66-4.33-5.16-8-5.16-12.32,0-4.83,3.67-9.33,8.83-9.33.23,0,.45,0,.68,0a52.56,52.56,0,0,0-79.4,9.89c1.23,0,2.39.07,3.38.07,5.5,0,14-.67,14-.67a2.17,2.17,0,0,1,.33,4.33s-2.84.33-6,.5l19.14,56.93,11.5-34.5L83.75,68.86c-2.83-.17-5.51-.5-5.51-.5-2.83-.17-2.5-4.5.33-4.33,0,0,8.68.67,13.84.67,5.5,0,14-.67,14-.67a2.17,2.17,0,0,1,.34,4.33s-2.86.33-6,.5l19,56.49L125,107.84C127.25,100.57,129,95.35,129,90.85Z"/><path class="cls-1" d="M94.42,98.1,78.65,143.91a52.48,52.48,0,0,0,32.3-.83,4.54,4.54,0,0,1-.37-.73Z"/><path class="cls-1" d="M139.61,68.28a39.82,39.82,0,0,1,.36,5.41,49.56,49.56,0,0,1-4,18.82l-16,46.42a52.57,52.57,0,0,0,19.69-70.65Z"/><path class="cls-1" d="M93.5,32.24A61.26,61.26,0,1,0,154.76,93.5,61.33,61.33,0,0,0,93.5,32.24ZM93.5,152A58.45,58.45,0,1,1,152,93.5,58.52,58.52,0,0,1,93.5,152Z"/></svg>