<svg id="Layer_1" data-name="Layer 1" xmlns="http://www.w3.org/2000/svg" viewBox="0 0 187 187"><defs><style>.cls-1{fill:#470137;}.cls-2{fill:#ff61f6;}</style></defs><g id="Layer_2" data-name="Layer 2"><g id="Surfaces"><g id="UI_UX_Surface" data-name="UI UX Surface"><g id="Outline_no_shadow" data-name="Outline no shadow"><path class="cls-1" d="M61,44.42h65a17.81,17.81,0,0,1,17.83,17.83v62.5A17.81,17.81,0,0,1,126,142.58H61a17.81,17.81,0,0,1-17.83-17.83V62.25A17.81,17.81,0,0,1,61,44.42Z"/></g></g></g><g id="Outlined_Mnemonics_Logos" data-name="Outlined Mnemonics Logos"><g id="Xd"><path class="cls-2" d="M96.1,70.22,83.52,91l13.42,22a.69.69,0,0,1,.08.5c0,.17-.21,0-.46.09H87c-.68,0-1.14,0-1.43-.47-.88-1.76-1.8-3.48-2.69-5.24S81,104.41,80,102.6s-2-3.6-3-5.45h-.08C76,99,75,100.76,74.08,102.56s-1.93,3.61-2.86,5.37-1.93,3.57-2.89,5.29c-.17.42-.5.46-1,.46H58.13c-.16,0-.29.08-.29-.13a.61.61,0,0,1,.08-.46L71,91.7,58.26,70.17c-.13-.16-.17-.33-.08-.41a.47.47,0,0,1,.42-.17h9.52a2.63,2.63,0,0,1,.59.08,1.36,1.36,0,0,1,.42.38c.79,1.8,1.72,3.61,2.68,5.41s2,3.57,3,5.33,1.93,3.52,2.81,5.33h.09c.88-1.85,1.8-3.65,2.72-5.42s1.89-3.52,2.86-5.28,1.88-3.57,2.81-5.29a.69.69,0,0,1,.25-.42.82.82,0,0,1,.54-.08h8.86a.39.39,0,0,1,.46.29s0,.21-.13.3Z"/><path class="cls-2" d="M115.48,114.48a20.91,20.91,0,0,1-9-1.89,14.63,14.63,0,0,1-6.33-5.71,18.15,18.15,0,0,1-2.31-9.56,17.24,17.24,0,0,1,9-15.36,21.53,21.53,0,0,1,10.61-2.43,7.77,7.77,0,0,1,.88,0c.38,0,.8,0,1.3.09V66.4c0-.29.13-.46.42-.46h8.52a.37.37,0,0,1,.42.29v40c0,.76,0,1.6.08,2.52s.13,1.72.17,2.43a.68.68,0,0,1-.42.68,32.21,32.21,0,0,1-6.84,2A36.78,36.78,0,0,1,115.48,114.48Zm4.11-8.39V87.63a8.65,8.65,0,0,0-1.13-.21,12.79,12.79,0,0,0-1.38-.09,10.37,10.37,0,0,0-4.74,1.09,9.46,9.46,0,0,0-3.57,3.11,9.31,9.31,0,0,0-1.38,5.33,11.63,11.63,0,0,0,.71,4.32,8.23,8.23,0,0,0,1.89,3,7.17,7.17,0,0,0,2.85,1.67,10.91,10.91,0,0,0,3.48.55c.63,0,1.22,0,1.76-.08A3.82,3.82,0,0,0,119.59,106.09Z"/></g></g></g></svg>