<svg id="Layer_1" data-name="Layer 1" xmlns="http://www.w3.org/2000/svg" viewBox="0 0 187 187"><defs><style>.cls-1{fill:#231f20;}</style></defs><path class="cls-1" d="M144,125.61q-9.6-16.55-19.21-33.09a.84.84,0,0,1,0-1q6.33-10.87,12.64-21.76c.19-.33.39-.66.63-1.06.42,1.57.81,3.05,1.21,4.53a3,3,0,1,0,5.87-1.58q-1.53-5.79-3.09-11.57a3,3,0,0,0-3.79-2.2L126.68,61a3.3,3.3,0,0,0-1,.43,3.05,3.05,0,0,0-1.09,3.76A3,3,0,0,0,128,66.88c1.37-.33,2.74-.71,4.1-1.07a.7.7,0,0,1,.55,0C128.78,72.51,124.9,79.2,121,86l-.45-.77q-9.58-16.5-19.15-33a9.12,9.12,0,0,0-15.77,0L43.14,125.42a10,10,0,0,0-1.31,3.74,9.13,9.13,0,0,0,8.82,10.19c3.69,0,7.39,0,11.09,0a3,3,0,0,0,1.58-.45,3,3,0,0,0,1.34-3.37,3,3,0,0,0-2.89-2.25H51.08a3.07,3.07,0,0,1-2.72-4.75Q69.57,92,90.77,55.43a3,3,0,0,1,5.46,0q10.5,18.07,21,36.15a.77.77,0,0,1,0,.91q-3.6,6.18-7.18,12.37c-.93,1.59-1.85,3.17-2.79,4.8l-.34-.55q-4-6.93-8-13.86A6.48,6.48,0,0,0,97,93.16,6.05,6.05,0,0,0,88.29,95c-1.92,3.25-3.8,6.52-5.69,9.78q-6.06,10.44-12.1,20.86a9.12,9.12,0,0,0,7.93,13.69H136.1a8.89,8.89,0,0,0,1.46-.11A9.13,9.13,0,0,0,144,125.61Zm-5.23,6.13a3,3,0,0,1-2.83,1.54H78.53a3,3,0,0,1-2.71-4.67l17.43-30c.07-.12.11-.28.3-.37l1.77,3c2.19,3.77,4.39,7.54,6.57,11.32a6.07,6.07,0,0,0,10.65.05c2.72-4.65,5.41-9.32,8.12-14l.32-.52c.1.16.18.27.25.39l17.42,30A3,3,0,0,1,138.76,131.74Z"/></svg>