<svg id="Layer_1" data-name="Layer 1" xmlns="http://www.w3.org/2000/svg" viewBox="0 0 1200 1200"><defs><style>.cls-1{fill:#fff;}</style></defs><polygon class="cls-1" points="584.8 626.05 448.86 624.13 383.52 469.51 520.2 473.18 584.8 626.05"/><polygon class="cls-1" points="734.69 626.18 598.74 624.26 533.4 469.64 670.08 473.31 734.69 626.18"/><polygon class="cls-1" points="588.09 544.13 568.4 552.45 510.64 415.79 534.98 418.47 588.09 544.13"/><polygon class="cls-1" points="605.85 675.85 580.29 670.28 528.41 547.51 548.1 539.19 605.85 675.85"/><path class="cls-1" d="M404.47,741.26h27.44a7.73,7.73,0,0,1,7.75,7.76v35.19h-6.44v-15H403.16v15h-6.44V749a7.73,7.73,0,0,1,7.75-7.76Zm-1.31,21.48h30.06V749a1.27,1.27,0,0,0-.39-.93,1.23,1.23,0,0,0-.92-.39H404.47a1.23,1.23,0,0,0-.92.39,1.27,1.27,0,0,0-.39.93Z"/><path class="cls-1" d="M496,761.13a7.3,7.3,0,0,1,2.56,5.72v9.61a7.75,7.75,0,0,1-7.75,7.75h-35.2v-43H489a7.75,7.75,0,0,1,7.75,7.76v8.77A8,8,0,0,1,496,761.13Zm-7-13.43H463.35A1.33,1.33,0,0,0,462,749v8.77a1.33,1.33,0,0,0,1.32,1.31H489a1.25,1.25,0,0,0,.92-.39,1.26,1.26,0,0,0,.39-.92V749a1.27,1.27,0,0,0-.39-.93A1.25,1.25,0,0,0,489,747.7Zm3.1,28.76v-9.61a1.25,1.25,0,0,0-.39-.92,1.26,1.26,0,0,0-.92-.39H463.35a1.27,1.27,0,0,0-.93.39,1.25,1.25,0,0,0-.39.92v9.61a1.33,1.33,0,0,0,1.32,1.31h27.44a1.33,1.33,0,0,0,1.31-1.31Z"/><path class="cls-1" d="M583.19,749v2.56h-6.45V749a1.31,1.31,0,0,0-1.31-1.32H548a1.25,1.25,0,0,0-.92.39,1.27,1.27,0,0,0-.39.93v27.44a1.26,1.26,0,0,0,.39.92,1.25,1.25,0,0,0,.92.39h27.44a1.27,1.27,0,0,0,.93-.39,1.25,1.25,0,0,0,.38-.92v-9.31H566.6v-6.44h16.59v15.75a7.75,7.75,0,0,1-7.76,7.75H548a7.73,7.73,0,0,1-7.75-7.75V749a7.73,7.73,0,0,1,7.75-7.76h27.44a7.75,7.75,0,0,1,7.76,7.76Z"/><path class="cls-1" d="M641.59,749.08v12a7.5,7.5,0,0,1-2.27,5.45,7.39,7.39,0,0,1-5.49,2.3h-4.35l12.11,14.44v.89H634l-12.89-15.33H606.39a9.8,9.8,0,0,1-1.31-.12v15.45h-6.44V741.32h35.19a7.43,7.43,0,0,1,5.49,2.3A7.51,7.51,0,0,1,641.59,749.08Zm-35.2,13.36h27.44a1.27,1.27,0,0,0,.93-.39,1.29,1.29,0,0,0,.38-.92v-12a1.3,1.3,0,0,0-.38-.93,1.27,1.27,0,0,0-.93-.39H606.39a1.23,1.23,0,0,0-.92.39,1.27,1.27,0,0,0-.39.93v12a1.26,1.26,0,0,0,.39.92A1.23,1.23,0,0,0,606.39,762.44Z"/><path class="cls-1" d="M664.49,741.26h27.44a7.75,7.75,0,0,1,7.76,7.76v27.44a7.75,7.75,0,0,1-7.76,7.75H664.49a7.73,7.73,0,0,1-7.75-7.75V749a7.73,7.73,0,0,1,7.75-7.76Zm0,36.51h27.44a1.27,1.27,0,0,0,.93-.39,1.29,1.29,0,0,0,.38-.92V749a1.3,1.3,0,0,0-.38-.93,1.27,1.27,0,0,0-.93-.39H664.49a1.25,1.25,0,0,0-.92.39,1.27,1.27,0,0,0-.39.93v27.44a1.26,1.26,0,0,0,.39.92A1.25,1.25,0,0,0,664.49,777.77Z"/><path class="cls-1" d="M751.58,776.46v-35.2H758v35.2a7.75,7.75,0,0,1-7.76,7.75H722.83a7.73,7.73,0,0,1-7.75-7.75v-35.2h6.44v35.2a1.26,1.26,0,0,0,.39.92,1.23,1.23,0,0,0,.92.39h27.44a1.27,1.27,0,0,0,.93-.39A1.29,1.29,0,0,0,751.58,776.46Z"/><path class="cls-1" d="M773.53,741.32h35.2a7.78,7.78,0,0,1,7.75,7.76v12a7.5,7.5,0,0,1-2.26,5.45,7.39,7.39,0,0,1-5.49,2.3H781.29a9.66,9.66,0,0,1-1.31-.12v15.45h-6.45ZM810,761.13v-12a1.27,1.27,0,0,0-.39-.93,1.25,1.25,0,0,0-.92-.39H781.29a1.27,1.27,0,0,0-.93.39,1.3,1.3,0,0,0-.38.93v12a1.29,1.29,0,0,0,.38.92,1.27,1.27,0,0,0,.93.39h27.44a1.25,1.25,0,0,0,.92-.39A1.26,1.26,0,0,0,810,761.13Z"/></svg>