<svg width="543" height="338" viewBox="0 0 543 338" fill="none" xmlns="http://www.w3.org/2000/svg">
<path fill-rule="evenodd" clip-rule="evenodd" d="M491.804 272.937H459.755C454.375 273.255 452.873 274.589 452.873 281.119V299.122H491.804V272.937ZM508.869 258.521V337.021H491.804V314.456H452.873V337.021H435.808V275.48C435.808 264.607 440.212 258.521 452.873 258.521H508.869ZM418.746 275.465V317.948C418.746 331.472 411.149 337.006 401.679 337.006H347.853V258.506H401.679C416.215 258.506 418.746 267.749 418.746 275.465V275.465ZM401.477 280.19C401.477 275.889 398.855 272.922 394.266 272.922H364.92V321.971L394.266 321.968C400.95 321.629 401.477 317.621 401.477 314.441V280.19ZM0 258.506H17.0646V289.447H55.2438V258.506H72.3084V337.004H55.2438V304.969H17.0646V337.004H0V258.506V258.506ZM101.555 258.506L122.948 290.598L144.084 258.506H164.804L131.472 308.693V337.006H114.405V308.688L80.8407 258.506H101.555ZM260.594 258.506H315.585C323.422 258.506 331.01 259.606 330.789 275.465V337.006H313.724V281.105C313.724 274.344 312.913 272.922 307.609 272.922H277.663V337.006H260.594V258.506ZM543 258.521V337.021H525.931V258.521H543ZM173.339 337.006H228.325C239.258 337.006 243.753 333.843 243.531 318.081V258.506H226.467V314.545C226.467 321.262 225.656 322.078 220.352 322.078H190.405L190.403 258.506H173.339V337.006Z" fill="#131E29"/>
<path fill-rule="evenodd" clip-rule="evenodd" d="M313.609 126.272C316.685 142.111 308.354 155.267 301.431 168.038C293.741 179.919 281.05 190.131 265.795 188.603C231.564 188.092 198.108 182.855 167.082 173.528C165.673 173.146 164.264 172.249 163.493 170.974C162.851 169.184 163.752 167.522 165.031 166.376C193.365 143.51 227.079 132.912 260.41 121.794C272.843 118.219 286.051 114.386 300.022 116.176C305.786 116.944 311.554 120.906 313.609 126.272V126.272ZM430.394 58.5745C446.291 71.6023 460.649 89.3603 455.777 110.819C447.829 142.497 413.218 159.358 385.656 170.085C370.656 175.069 355.53 180.181 339.121 181.713C338.096 181.585 336.429 181.838 336.17 180.306L336.554 178.52C359.886 152.331 377.574 122.958 393.092 93.1935C400.269 79.7795 406.937 65.9877 413.089 52.4448C413.985 51.4232 414.886 50.9124 415.911 50.5304C421.675 51.0369 425.781 55.5097 430.394 58.5745V58.5745ZM206.689 24.8526L206.177 26.7671C172.462 64.9575 150.285 109.282 129.262 153.349C125.161 157.182 121.185 152.069 117.467 150.408C98.7486 138.149 81.8268 118.348 86.6991 94.8461C94.5181 64.1934 126.182 47.8433 152.594 36.7343C168.232 30.8578 184.516 26.1318 201.692 23.449C203.489 23.4447 205.793 23.1914 206.689 24.8526ZM373.99 30.9823C375.911 32.0039 378.22 32.386 379.375 34.3004C380.4 36.4724 378.35 37.8761 377.195 39.284C350.658 59.9739 320.278 71.4735 289.252 81.5651C273.48 85.3983 257.584 92.2964 240.025 88.4632C235.919 87.4416 232.206 84.7588 229.897 80.7968C225.537 68.7907 231.434 56.2737 236.561 45.8C243.355 32.6435 255.408 17.1862 272.072 16.933C307.966 16.6754 341.809 22.0411 373.99 30.9823V30.9823ZM418.345 32.0039C445.524 46.8217 476.292 72.8771 473.087 107.621C469.369 139.81 439.243 162.29 412.322 175.833C333.736 213.259 223.361 214.405 142.212 181.709C114.774 170.343 84.0067 150.799 72.4656 121.417C63.6213 97.2757 74.3869 72.1131 92.4675 55.3809C130.283 21.1482 178.485 9.39964 228.1 2.62607C281.946 -3.88994 338.604 1.85771 386.806 18.3366C397.576 22.2986 408.217 26.6426 418.345 32.0039Z" fill="#131E29"/>
</svg>
