<svg width="523" height="123" viewBox="0 0 523 123" fill="none" xmlns="http://www.w3.org/2000/svg">
<path d="M302.838 108.723C302.838 109.715 303.151 110.289 303.725 110.289C304.195 110.237 304.612 110.028 304.978 109.767L467.671 4.17563C470.42 2.25416 473.713 1.26615 477.066 1.35708H512.82C518.3 1.35708 522.006 5.01076 522.006 10.4913V78.7628C522.006 87.0097 520.179 91.8117 512.872 96.1961L469.497 122.294C469.065 122.594 468.561 122.774 468.036 122.816C467.514 122.816 466.992 122.398 466.992 120.884V41.2343C466.992 40.2948 466.731 39.6685 466.105 39.6685C465.646 39.7212 465.212 39.9021 464.852 40.1904L345.951 117.44C343.237 119.266 340.053 120.258 336.817 120.206H258.002C252.469 120.206 248.815 116.552 248.815 111.02V12.6313C248.815 11.9005 248.502 11.222 247.876 11.222C247.419 11.28 246.986 11.4603 246.623 11.744L168.173 58.8242C167.391 59.3461 167.182 59.7115 167.182 60.0769C167.182 60.39 167.338 60.7032 167.86 61.2774L223.918 117.283C224.649 118.014 225.171 118.588 225.171 119.214C225.171 119.736 224.336 120.154 223.344 120.154H172.714C168.748 120.154 165.668 119.58 163.528 117.44L129.549 83.5126C129.42 83.3585 129.261 83.2327 129.081 83.1429C128.902 83.0531 128.706 83.0013 128.505 82.9906C128.137 83.0077 127.778 83.1152 127.461 83.3038L70.6725 117.44C67.2276 119.527 64.8788 120.102 61.4861 120.102H9.23858C3.65368 120.154 0 116.448 0 110.967V44.0007C0 35.7016 1.82684 30.9519 9.18639 26.5674L52.8217 0.365368C53.164 0.14118 53.5611 0.0148371 53.97 0C54.6486 0 55.0139 0.67854 55.0139 2.19221V91.8639C55.0139 92.8034 55.2227 93.2209 55.9012 93.2209C56.371 93.1687 56.7886 92.96 57.2061 92.699L204.606 4.01904C207.424 2.08782 210.869 1.1483 214.314 1.30488H293.651C299.132 1.30488 302.838 4.95856 302.838 10.4391L302.785 108.723H302.838Z" fill="#131E29"/>
</svg>
