<svg id="Layer_1" data-name="Layer 1" xmlns="http://www.w3.org/2000/svg" xmlns:xlink="http://www.w3.org/1999/xlink" viewBox="0 0 1014.02 897.72">
  <defs>
    <style>
      .cls-1 {
        fill: none;
      }

      .cls-2 {
        clip-path: url(#clip-path);
      }

      .cls-3 {
        fill: url(#linear-gradient);
      }

      .cls-4 {
        clip-path: url(#clip-path-2);
      }

      .cls-5 {
        fill: url(#linear-gradient-2);
      }

      .cls-6 {
        clip-path: url(#clip-path-3);
      }

      .cls-7 {
        fill: url(#linear-gradient-3);
      }

      .cls-8 {
        clip-path: url(#clip-path-4);
      }

      .cls-9 {
        fill: url(#linear-gradient-4);
      }

      .cls-10 {
        fill: #d80c21;
      }

      .cls-11 {
        fill: #c40e1d;
      }

      .cls-12 {
        fill: #a61218;
      }

      .cls-13 {
        fill: #3c3c3b;
      }

      .cls-14 {
        fill: #636362;
      }

      .cls-15 {
        fill: #024490;
      }

      .cls-16 {
        fill: #033a7e;
      }

      .cls-17 {
        fill: #04326c;
      }
    </style>
    <clipPath id="clip-path" transform="translate(-33.45 -91.28)">
      <path class="cls-1" d="M206,317.15l0,4.79-1.15-1.32c-27,91.65-7.68,188.32,14,244.63l-.06.08c1,2.85,1,2.76,2.09,5.41C233,601.25,265,645.22,304.21,692c46.73,56.13,103,115.27,146.35,158.9,16.11,16.32,30.84,30.92,43.28,43.07l3,2.91h.5l22.14.08c-129.29-281.54-73.28-665.73-57.08-758.21C282.07,168.83,206,317.15,206,317.15"/>
    </clipPath>
    <linearGradient id="linear-gradient" x1="-66.44" y1="939.27" x2="-61.71" y2="939.27" gradientTransform="matrix(-69.24, 0, 0, 69.24, -4114.53, -64609.45)" gradientUnits="userSpaceOnUse">
      <stop offset="0" stop-color="#fff"/>
      <stop offset="0.67" stop-color="#fdfefe"/>
      <stop offset="0.91" stop-color="#f6f9fd"/>
      <stop offset="1" stop-color="#f1f5fb"/>
    </linearGradient>
    <clipPath id="clip-path-2" transform="translate(-33.45 -91.28)">
      <path class="cls-1" d="M561,897l22.15-.08h.52c13-12.7,28.84-28.36,46.25-46C673.25,807.3,729.49,748.16,776.23,692c39.17-46.81,71.21-90.78,83.34-121.29,1.06-2.65,1.06-2.56,2.1-5.41l-.07-.08c21.71-56.31,41-153,14-244.63l-1.15,1.32v-4.79S798.36,168.83,618.05,138.78C634.25,231.26,690.26,615.45,561,897"/>
    </clipPath>
    <linearGradient id="linear-gradient-2" x1="-75.08" y1="939.27" x2="-70.35" y2="939.27" gradientTransform="translate(5726.48 -64609.62) scale(69.24)" xlink:href="#linear-gradient"/>
    <clipPath id="clip-path-3" transform="translate(-33.45 -91.28)">
      <path class="cls-1" d="M759.78,575.61C703.47,716,609,861.87,588.91,892.18c41.52-40.4,106.42-105.83,162.9-170C760.6,712.1,769.21,702,777.52,692c37.33-44.6,68.16-86.63,81.49-116.88.31-.74.64-1.49.93-2.22l.94-2.32c-.17.38-.26.54.19-.68,0,0,.56-1.1,1.83-4.68,21.71-56.31,41-153,14-244.63l-1.18-3.47S836.4,240.47,747.28,186.21c18.55,67,64.09,260.74,12.5,389.4"/>
    </clipPath>
    <linearGradient id="linear-gradient-3" x1="-70.44" y1="938.51" x2="-65.71" y2="938.51" gradientTransform="matrix(-84.78, 0, 0, 84.78, -5052.26, -79030.34)" gradientUnits="userSpaceOnUse">
      <stop offset="0" stop-color="#f1f5fb"/>
      <stop offset="0.09" stop-color="#f6f9fd"/>
      <stop offset="0.33" stop-color="#fdfefe"/>
      <stop offset="1" stop-color="#fff"/>
    </linearGradient>
    <clipPath id="clip-path-4" transform="translate(-33.45 -91.28)">
      <path class="cls-1" d="M205.22,317.15,204,320.62c-27,91.65-7.67,188.32,14,244.63l-.06.08c1,2.85,1.05,2.76,2.1,5.41,12.13,30.51,44.17,74.48,83.34,121.29,12.49,15,25.65,30.22,39.07,45.29C395.74,796.64,454,855.26,492.26,892.47c-19.63-29.64-114.57-176-171.07-316.86-51.59-128.66-6-322.35,12.51-389.4-89.13,54.26-128.48,130.94-128.48,130.94"/>
    </clipPath>
    <linearGradient id="linear-gradient-4" x1="-60.88" y1="939.22" x2="-56.14" y2="939.22" gradientTransform="matrix(-43.28, 0, 0, 43.28, -2219.52, -40107.8)" xlink:href="#linear-gradient"/>
  </defs>
  <g class="cls-2">
    <rect class="cls-3" x="144.38" y="47.5" width="341.65" height="758.2"/>
  </g>
  <g class="cls-4">
    <rect class="cls-5" x="527.51" y="47.5" width="341.65" height="758.2"/>
  </g>
  <g class="cls-6">
    <rect class="cls-7" x="518.96" y="161.18" width="454.89" height="756.04" transform="translate(-129.24 75.68) rotate(-12)"/>
  </g>
  <g class="cls-8">
    <rect class="cls-9" x="107.1" y="161.16" width="455.14" height="756.36" transform="translate(-138.26 -9.92) rotate(-12)"/>
  </g>
  <path class="cls-10" d="M540.45,91.35c-8.26-.27-50.76-.57-75.71,20.51,0,0-69.48-11.33-124.56,41.69-13.1-.09-66.54,30.3-108.79,102.91a281.22,281.22,0,0,0-26.59,61.91c8.35-11.05,40.4-54.9,108.19-48.75,4.72-3.68,47-49.67,134.75-33.7,12-12.54,56-25.93,92.71-26.39,36.7.46,80.75,13.85,92.71,26.39,87.74-16,130,30,134.75,33.7,67.8-6.15,100,37.67,108.33,48.72-6-21.11-15.27-41.81-26.73-61.88-42.25-72.61-95.69-103-108.8-102.91-55.07-53-124.55-41.69-124.55-41.69-24.95-21.08-67.45-20.78-75.71-20.51" transform="translate(-33.45 -91.28)"/>
  <path class="cls-11" d="M464.73,111.86s-69.47-11.33-124.54,41.69c-13.12-.09-66.55,30.31-108.8,102.92a280.74,280.74,0,0,0-26.59,61.9c8.35-11,40.4-54.9,108.19-48.75,4.72-3.67,46.87-49.5,134.27-33.78,8.38-70.42,17.47-124,17.47-124" transform="translate(-33.45 -91.28)"/>
  <path class="cls-12" d="M313,269.62l.13-.11c12.62-65.9,27.07-116,27.07-116-13.11-.09-66.55,30.31-108.8,102.92a280.74,280.74,0,0,0-26.59,61.9c8.35-11,40.4-54.9,108.19-48.75" transform="translate(-33.45 -91.28)"/>
  <path class="cls-11" d="M616.17,111.86s69.47-11.33,124.54,41.69c13.11-.09,66.55,30.31,108.8,102.92,11.46,20,20.7,40.76,26.73,61.86-8.36-11-40.53-54.86-108.33-48.71-4.72-3.67-46.86-49.5-134.27-33.78-8.37-70.42-17.47-124-17.47-124" transform="translate(-33.45 -91.28)"/>
  <path class="cls-12" d="M767.91,269.62l-.13-.11c-12.62-65.9-27.07-116-27.07-116,13.12-.09,66.55,30.31,108.8,102.92,11.46,20,20.7,40.76,26.73,61.86-8.35-11-40.53-54.86-108.33-48.71" transform="translate(-33.45 -91.28)"/>
  <polygon class="cls-13" points="508.17 847.27 507.25 847.27 469.45 847.27 469.93 848.5 483.66 897.72 508.17 897.72 508.17 847.27"/>
  <polygon class="cls-14" points="507.35 847.27 508.27 847.27 546.07 847.27 545.59 848.5 531.87 897.72 507.35 897.72 507.35 847.27"/>
  <path class="cls-14" d="M583.42,940.55H499.15a.18.18,0,0,1-.17-.18V935a.18.18,0,0,1,.17-.17h84.27a.18.18,0,0,1,.18.17v5.36a.18.18,0,0,1-.18.18" transform="translate(-33.45 -91.28)"/>
  <polygon class="cls-13" points="544.98 850.69 545.38 849.26 470.1 849.26 470.6 850.69 544.98 850.69"/>
  <path class="cls-15" d="M773.22,528.75c-1,0-43.86-44.79-129.27-37-4.71-2.85-36.38-19.6-103.52-23.21-61.8,1.29-98.81,20.36-103.51,23.21-85.41-7.81-128.25,37-129.28,37-51.3-1.41-85.78,34.58-88.83,38.78,1.05,2.84,1.06,2.76,2.12,5.41C253,652.82,422.36,824.89,498.06,898.1h84.76c75.69-73.21,245-245.28,277.12-325.16,1.06-2.65,1.07-2.57,2.12-5.41-3-4.2-37.53-40.19-88.84-38.78" transform="translate(-33.45 -91.28)"/>
  <path class="cls-16" d="M644,491.77c85.41-7.81,128.25,37,129.27,37,51.31-1.41,85.79,34.58,88.84,38.78-1,2.84-1.06,2.76-2.12,5.4-32.11,79.9-201.43,252-277.12,325.16H559.54c58.87-126.42,80.2-273.88,84.41-406.33Z" transform="translate(-33.45 -91.28)"/>
  <path class="cls-17" d="M773.22,528.75h0c51.31-1.41,85.79,34.58,88.84,38.78-1,2.84-1.06,2.76-2.12,5.4-32.11,79.9-201.43,252-277.13,325.16,0,0,112.06-164.19,175.89-321.69a296.2,296.2,0,0,0,14.52-47.65" transform="translate(-33.45 -91.28)"/>
  <path class="cls-16" d="M436.92,491.77c-85.41-7.81-128.25,37-129.28,37-51.3-1.41-85.78,34.58-88.83,38.78,1.05,2.84,1.06,2.76,2.12,5.4,32.11,79.9,201.43,252,277.12,325.16h23.28c-58.87-126.42-80.2-273.88-84.41-406.33Z" transform="translate(-33.45 -91.28)"/>
  <path class="cls-17" d="M307.65,528.75h0c-51.3-1.41-85.78,34.58-88.83,38.78,1.05,2.84,1.06,2.76,2.12,5.4,32.11,79.9,201.43,252,277.12,325.16,0,0-112-164.19-175.88-321.69a296.2,296.2,0,0,1-14.52-47.65" transform="translate(-33.45 -91.28)"/>
  <path class="cls-15" d="M353.16,362.68c0-.22,0-.33,0-.54-.37-9.25-3.59-16.15-9.32-19.86-6.51-4.19-16-4.55-27.37-.76-12.41,4.11-24.77,8.62-36.91,13.47q2.61,47.63,5.23,95.26c8.14-3.22,12.24-4.77,20.45-7.73-.63-12.44-.94-18.66-1.57-31.1,4.74-1.71,7.12-2.54,11.88-4.16,7.71,10,11.55,15.1,19.21,25.34,9.52-3,14.29-4.36,23.89-7q-11-14.81-22.29-29.42c10.59-7.95,17.42-20,16.82-33.51m-21.24,6.68v.13c.39,8.66-5.18,15.6-14.81,18.83-5.77,1.95-8.64,2.95-14.37,5l-1.4-27.75c5.6-2,8.4-3,14-4.9,10.4-3.5,16.15-.38,16.55,8.67" transform="translate(-33.45 -91.28)"/>
  <path class="cls-15" d="M660,312.88q-19.46,45.75-38.13,91.8c8.65.94,13,1.47,21.59,2.68,3.06-7.87,4.59-11.8,7.67-19.65,13.46,2,20.18,3.2,33.56,5.88,2.7,8.85,4,13.28,6.71,22.17,8.77,1.84,13.14,2.84,21.86,5q-16-52.28-32.82-104.26c-8.16-1.56-12.25-2.27-20.44-3.59m18.7,61.24c-8.23-1.57-12.35-2.29-20.62-3.61,4.44-11.1,6.66-16.63,11.14-27.66,3.82,12.48,5.72,18.74,9.48,31.27" transform="translate(-33.45 -91.28)"/>
  <path class="cls-15" d="M779.92,390.85q14.91-18.32,30.24-36.3c-9.25-3.64-13.9-5.38-23.24-8.69-7.24,9.74-10.85,14.66-18,24.6Q761.43,352.69,753.8,335c-9.67-2.91-14.53-4.29-24.28-6.85q13.32,27.41,26.15,55.05-15.74,20-31,40.41c9.34,2.45,14,3.75,23.26,6.51,7.58-10.74,11.38-16.05,19-26.57q8,18.93,15.79,38c9.38,3.33,14,5.08,23.32,8.76q-12.75-29.85-26.11-59.41" transform="translate(-33.45 -91.28)"/>
  <path class="cls-15" d="M402,396.5c-.24-8.17-.37-12.26-.61-20.43,12.7-2.66,25.55-4.94,38.39-6.82-.17-7.45-.25-11.18-.41-18.63-12.88,1.89-25.79,4.18-38.54,6.85-.23-7.9-.35-11.85-.59-19.74,14.67-2.86,29.25-5.4,44-7.66-.15-7.45-.22-11.17-.38-18.63-22.06,3.36-43.83,7.49-65.59,12.43q1.64,47.94,3.29,95.88c13.14-3.17,26.47-5.94,39.79-8.27,3.69-8.13,5.54-12.18,9.27-20.27-11.48,1.88-17.21,2.93-28.63,5.29" transform="translate(-33.45 -91.28)"/>
  <path class="cls-15" d="M583.15,305.26q-11.26,15.09-22.26,30.38-11-15.76-22.36-31.33h-.25Q527,325.49,516,346.84q.18,27.14.34,54.3c8.37-.35,12.56-.46,20.94-.56q-.06-29.79-.1-59.6,11.55,14.7,22.82,29.64l.12.2.91,0q11.49-14.68,23.27-29.13l-.48,59.87c8.43.46,12.64.75,21.05,1.46q.6-48.1,1.19-96.22c-9.15-.77-13.73-1.08-22.9-1.56" transform="translate(-33.45 -91.28)"/>
  <path class="cls-10" d="M466.93,404.9q24.51-50.72,50.37-100.73c-10.66.42-16,.72-26.64,1.53q-25.56,51-49.69,102.58c10.37-1.55,15.56-2.22,26-3.38" transform="translate(-33.45 -91.28)"/>
</svg>
