<svg xmlns="http://www.w3.org/2000/svg" width="181.357" height="203.164" viewBox="0 0 181.357 203.164"><path d="M29.852,418.834c-1.544-3.768,4.2-6.054,5.681-2.219l6.48,16.177,6.3-16.177c1.54-3.83,7.283-1.607,5.8,2.219l-9.2,23.474c-.985,2.406-4.815,2.468-5.743,0Z" transform="translate(-29.591 -241.122)"/><path d="M100.857,399.813c-4.141,0-4.141-6.174,0-6.174h.058c4.141,0,4.141,6.174,0,6.174Zm-3.107,6.236c0-4.136,6.174-4.136,6.174,0v23.465c0,4.136-6.174,4.136-6.174,0Z" transform="translate(-67.5 -229.451)"/><path d="M135.679,416.316a12.014,12.014,0,0,1,6.333-1.687c4.141,0,4.141,6.174,0,6.174-3.781,0-5.987,3.391-6.049,8.237v12.138c0,4.136-6.173,4.136-6.173,0V417.714C129.79,414.114,134.468,413.648,135.679,416.316Z" transform="translate(-85.32 -241.116)"/><path d="M178.266,408.788v14.451c0,1.913,1.176,2.84,3.151,2.84,4.136,0,4.136,6.174,0,6.174-6.054,0-9.2-3.271-9.32-8.952V408.788h-.555c-4.136,0-4.136-6.174,0-6.174h.555v-6.5c0-4.136,6.174-4.136,6.174,0V402.6h3.151c4.136,0,4.136,6.174,0,6.174Z" transform="translate(-106.816 -229.101)"/><path d="M215.754,417.751c.062-4.136,6.3-4.074,6.236.062l-.058,15.005a5.581,5.581,0,0,0,5.739,5.326h.062a5.511,5.511,0,0,0,5.743-5.25V417.751c.062-4.136,6.3-4.074,6.236.062l-.058,15.005A11.724,11.724,0,0,1,227.733,444.3c-6.671,0-11.983-5.25-11.983-11.424v-15.13Z" transform="translate(-133.129 -241.153)"/><path d="M305.639,423.551c0,4.136-6.174,4.136-6.174,0,0-1.913-2.534-2.716-4.438-2.716s-4.438.8-4.438,2.716c0,3.107,16.057,2.219,15.933,11.854,0,4.385-4.385,8.876-11.486,8.876s-11.486-4.509-11.486-8.876c0-4.136,6.178-4.136,6.178,0,0,2.042,3.147,2.721,5.246,2.721h.062c2.161,0,5.326-.679,5.326-2.663V435.4c0-3.147-15.809-2.161-15.933-11.854,0-4.509,4.261-8.876,10.558-8.876h.062C301.378,414.661,305.639,419.042,305.639,423.551Z" transform="translate(-170.839 -241.148)"/><path d="M366.341,434.9c2.41-3.333,7.474.249,5.064,3.582a13.24,13.24,0,0,1-11.424,5.805c-7.239,0-13.4-6.236-13.581-14.455v-.728c.182-8.22,6.342-14.455,13.519-14.455h.062c7.225,0,13.585,6.422,13.585,14.819a3.053,3.053,0,0,1-3.084,3.084H353.066c1.043,3.173,3.657,5.561,6.915,5.561h.062A7.1,7.1,0,0,0,366.341,434.9Zm-13.275-8.521h14.326c0-1.482-3.151-5.557-7.412-5.557C356.723,420.823,354.109,423.211,353.066,426.38Z" transform="translate(-205.795 -241.137)"/><path d="M424.3,382.932c0-4.136,6.178-4.136,6.178,0v38.9c0,4.136-6.178,4.136-6.178,0Z" transform="translate(-249.121 -221.771)"/><path d="M171.533,82.134a4.736,4.736,0,0,0,4.749-4.651V52.913c0-10.86,8.628-19.8,19.182-19.919a18.237,18.237,0,0,1,13.354,5.543,19.374,19.374,0,0,1,5.455,14.14V77.492a4.749,4.749,0,1,0,9.5,0V52.678A28.252,28.252,0,0,0,195.1,23.7c-15.622.182-28.316,13.288-28.316,29.217v24.57A4.74,4.74,0,0,0,171.533,82.134Z" transform="translate(-105.893 -23.695)"/><rect width="37.995" height="9.498" transform="translate(70.389 32.082)"/><path d="M215.124,104.375C212.292,99.551,207.33,96,201.853,96H187.607v9.5h14.247c3.107,0,4.713,2.778,5.264,3.71a8.078,8.078,0,0,1,.093,7.5l-42.274,76.439a6.031,6.031,0,0,1-10.718,0L111.945,116.7a8.064,8.064,0,0,1,.1-7.5c.546-.932,2.161-3.71,5.264-3.71h13.315V96H117.306c-5.477,0-10.439,3.577-13.275,8.384a16.767,16.767,0,0,0-.222,16.466l42.274,76.625a15.29,15.29,0,0,0,26.971.129l42.274-76.78A16.714,16.714,0,0,0,215.124,104.375Z" transform="translate(-69.729 -63.91)"/></svg>