<svg xmlns="http://www.w3.org/2000/svg" xmlns:xlink="http://www.w3.org/1999/xlink" width="205.84" height="150.293" viewBox="0 0 205.84 150.293"><defs><clipPath id="a"><path d="M285.677,95.281a.827.827,0,0,0,1.518,0l1.814-4.178a1.165,1.165,0,0,0-.171-1.213l-1.592-1.826a1.046,1.046,0,0,0-1.625,0l-1.588,1.826a1.176,1.176,0,0,0-.174,1.213Z" transform="translate(-283.763 -87.677)" fill="none"/></clipPath><clipPath id="b"><path d="M263.4,55.66l-6.638-8.631a3.852,3.852,0,0,1-.772-2.779L259.1,16.484a1.818,1.818,0,0,0-2.95-1.633l-18.879,15.3a2.386,2.386,0,0,0-.805,2.482l4.942,17.94a2.571,2.571,0,0,1-.742,2.6c-3.236,2.909-7.874,7.488-7.874,7.488a1.5,1.5,0,0,0,1.239,2.657l7.955-2.352a.824.824,0,0,1,.994,1.091L235.13,82.461a2.968,2.968,0,0,1-1.2,1.451l-2.66,1.64c-.976.553-2.824-.215-.95-3.625a24.818,24.818,0,0,1,1.458-2.041,1.855,1.855,0,0,0-1.529-2.928H223.36a1.855,1.855,0,0,0-1.529,2.928,24.809,24.809,0,0,1,1.458,2.041c1.878,3.41.026,4.178-.946,3.625l-2.668-1.644a2.968,2.968,0,0,1-1.2-1.455l-7.852-20.408a.827.827,0,0,1,1-1.095l7.955,2.356a1.5,1.5,0,0,0,1.243-2.657s-4.642-4.583-7.877-7.488a2.575,2.575,0,0,1-.742-2.6l4.942-17.937a2.378,2.378,0,0,0-.794-2.482L197.442,14.833a1.818,1.818,0,0,0-2.968,1.633L197.59,44.25a3.851,3.851,0,0,1-.772,2.779L190.139,55.7a5.859,5.859,0,0,0-1.024,4.935l2.252,9.443a6.352,6.352,0,0,0,1.276,2.571l22.779,27.688a2.794,2.794,0,0,0,3.74.534l6.167-4.215a2.6,2.6,0,0,1,2.928,0l6.163,4.215a2.794,2.794,0,0,0,3.751-.534l22.575-27.606a6.345,6.345,0,0,0,1.243-2.464l2.442-9.581A5.881,5.881,0,0,0,263.4,55.66Z" transform="translate(-188.947 -14.41)" fill="none"/></clipPath><clipPath id="e"><path d="M205.019,305.791V303.6a1.2,1.2,0,0,0-1.195-1.2h-5.636a4.575,4.575,0,0,0-4.56,4.594h0v5.985a.694.694,0,0,1-.69.694h-1.113a1.2,1.2,0,0,0-1.195,1.2v2.189a1.2,1.2,0,0,0,1.195,1.2h1.113a.694.694,0,0,1,.69.694V332.2a1.2,1.2,0,0,0,1.195,1.206h3.161a1.2,1.2,0,0,0,1.195-1.206v-13.25a.694.694,0,0,1,.69-.694h2.968a1.2,1.2,0,0,0,1.191-1.2v-2.186a1.2,1.2,0,0,0-1.191-1.2h-2.968a.694.694,0,0,1-.69-.694v-4.783a1.2,1.2,0,0,1,1.191-1.2h3.462A1.2,1.2,0,0,0,205.019,305.791Z" transform="translate(-190.63 -302.4)" fill="none"/></clipPath><clipPath id="f"><path d="M24.682,351.98H20.667a1.21,1.21,0,0,1-1.139-.824l-5.937-17.629a1.213,1.213,0,0,1,1.139-1.6H17.9a1.206,1.206,0,0,1,1.147.839l2.968,9.254a.679.679,0,0,0,1.295,0l2.968-9.254a1.2,1.2,0,0,1,1.158-.853h3.61a1.2,1.2,0,0,1,1.147.839L35.157,342a.683.683,0,0,0,1.3,0l2.968-9.254a1.2,1.2,0,0,1,1.147-.839h3.187a1.21,1.21,0,0,1,1.139,1.6l-5.963,17.629a1.21,1.21,0,0,1-1.113.839H33.765a1.2,1.2,0,0,1-1.139-.842l-2.746-8.182a.679.679,0,0,0-1.288,0l-2.775,8.189A1.2,1.2,0,0,1,24.682,351.98Z" transform="translate(-13.527 -331.91)" fill="none"/></clipPath><clipPath id="g"><path d="M250.558,352.005h-4.011a1.21,1.21,0,0,1-1.139-.824l-5.937-17.629a1.213,1.213,0,0,1,1.139-1.6h3.18a1.2,1.2,0,0,1,1.143.839l2.968,9.254a.679.679,0,0,0,1.295,0l2.968-9.254a1.2,1.2,0,0,1,1.143-.839h3.614a1.2,1.2,0,0,1,1.143.839l2.968,9.254a.679.679,0,0,0,1.295,0l2.968-9.254a1.2,1.2,0,0,1,1.143-.839h3.217a1.213,1.213,0,0,1,1.139,1.6l-5.937,17.629a1.21,1.21,0,0,1-1.139.824h-4.056a1.2,1.2,0,0,1-1.139-.828L255.779,343a.679.679,0,0,0-1.288,0l-2.775,8.189A1.2,1.2,0,0,1,250.558,352.005Z" transform="translate(-239.407 -331.95)" fill="none"/></clipPath><clipPath id="h"><path d="M123.911,340.564a9.966,9.966,0,0,1-3,7.343,11.027,11.027,0,0,1-15.054,0,10.516,10.516,0,0,1,0-14.7,10.937,10.937,0,0,1,15.054,0A10.018,10.018,0,0,1,123.911,340.564Zm-15.466,0a5.781,5.781,0,0,0,1.388,4.007,4.85,4.85,0,0,0,7.1,0,5.762,5.762,0,0,0,1.388-4.007,5.829,5.829,0,0,0-1.388-4.026,4.824,4.824,0,0,0-7.1,0,5.848,5.848,0,0,0-1.388,4.026Z" transform="translate(-102.861 -330.2)" fill="none"/></clipPath><clipPath id="i"><path d="M172.016,333.414h-3.161a1.2,1.2,0,0,1-1.195-1.206V303.6a1.2,1.2,0,0,1,1.195-1.206h3.161a1.2,1.2,0,0,1,1.191,1.206v28.6a1.2,1.2,0,0,1-1.191,1.221Z" transform="translate(-167.66 -302.39)" fill="none"/></clipPath><clipPath id="j"><path d="M333.942,302.87l-1.725,2.1a1.417,1.417,0,0,0-.189,1.41l1.681,4.082a1.221,1.221,0,0,0,2.3,0l1.677-4.082a1.428,1.428,0,0,0-.185-1.41l-1.729-2.1a1.143,1.143,0,0,0-1.833,0Z" transform="translate(-331.92 -302.41)" fill="none"/></clipPath><clipPath id="k"><path d="M336.716,351.98h-3.161a1.2,1.2,0,0,1-1.195-1.206V333.112a1.2,1.2,0,0,1,1.195-1.2h3.161a1.2,1.2,0,0,1,1.195,1.2V350.76a1.2,1.2,0,0,1-1.195,1.221Z" transform="translate(-332.36 -331.91)" fill="none"/></clipPath><clipPath id="l"><path d="M356.045,335.319v-2.226a1.2,1.2,0,0,1,1.191-1.2h13.67a1.2,1.2,0,0,1,1.191,1.2v2.7a1.2,1.2,0,0,1-.3.794l-8.345,9.536a.7.7,0,0,0,.516,1.158h7.488a1.2,1.2,0,0,1,1.195,1.2v2.252a1.2,1.2,0,0,1-1.195,1.206H356.535a1.2,1.2,0,0,1-1.195-1.206v-2.968a1.217,1.217,0,0,1,.3-.794l8.111-9.3a.7.7,0,0,0-.52-1.154h-5.992A1.2,1.2,0,0,1,356.045,335.319Z" transform="translate(-355.34 -331.89)" fill="none"/></clipPath><clipPath id="m"><path d="M522.183,333.42a8.383,8.383,0,0,1-6.308-3.02,10.655,10.655,0,0,1-2.776-7.492,10.214,10.214,0,0,1,2.7-7.325,8.446,8.446,0,0,1,6.308-2.853,7.666,7.666,0,0,1,4.8,1.536.69.69,0,0,0,1.113-.545V303.2a.794.794,0,0,1,.79-.8h3.967a.794.794,0,0,1,.79.8v29.109a.794.794,0,0,1-.79.8H528.7a.7.7,0,0,1-.694-.7v-.219a.69.69,0,0,0-1.15-.516,6.964,6.964,0,0,1-4.672,1.751Zm-3.5-10.289a5.6,5.6,0,0,0,1.443,3.97,4.479,4.479,0,0,0,3.369,1.547,4.2,4.2,0,0,0,3.273-1.547,5.855,5.855,0,0,0,1.351-3.989,6.14,6.14,0,0,0-1.351-4.063,4.159,4.159,0,0,0-3.31-1.621,4.293,4.293,0,0,0-3.369,1.64,6.04,6.04,0,0,0-1.406,4.048Z" transform="translate(-513.1 -302.4)" fill="none"/></clipPath><clipPath id="n"><path d="M472.484,337.018l3.492.664a1.2,1.2,0,0,0,1.369-1.518l-.935-3.262a1.2,1.2,0,0,0-.931-.85l-9.837-1.826a1.2,1.2,0,0,0-1.365,1.51l4.5,16.1a7.707,7.707,0,0,0-7.766,6.961,7.792,7.792,0,0,0,6.679,8.467,7.707,7.707,0,0,0,8.646-7,7.793,7.793,0,0,0-.371-3.187L471.7,337.89a.69.69,0,0,1,.783-.872Z" transform="translate(-460.971 -330.208)" fill="none"/></clipPath><clipPath id="o"><path d="M425.62,332.027A9.237,9.237,0,0,0,419.7,330.2a14.842,14.842,0,0,0-8.115,2.3.983.983,0,0,0-.286,1.38l1.388,2.022a.95.95,0,0,0,1.288.275,11.01,11.01,0,0,1,1.97-.92,9.015,9.015,0,0,1,3.05-.579c1.918,0,3.009.787,3.288,2.345.026.271.019.965-.742.972H418.2a10.55,10.55,0,0,0-6.067,1.529,5.231,5.231,0,0,0-2.226,4.6,6.163,6.163,0,0,0,2.145,4.92,7.844,7.844,0,0,0,5.31,1.855,6.256,6.256,0,0,0,4.167-1.529.69.69,0,0,1,1.139.527.7.7,0,0,0,.694.7h3.562a.965.965,0,0,0,.961-.968V337.8Q427.914,333.853,425.62,332.027Zm-3.295,10.92a2.969,2.969,0,0,1-1.113,2.442,4.019,4.019,0,0,1-2.6.913,3.815,3.815,0,0,1-2.275-.579,1.911,1.911,0,0,1-.8-1.659q0-2.085,3.339-2.085h2.787a.69.69,0,0,1,.69.694Z" transform="translate(-409.91 -330.197)" fill="none"/></clipPath></defs><g transform="translate(0 0)"><g transform="translate(100.272 27.186)" clip-path="url(#a)"><rect width="0.078" height="8.397" transform="translate(-0.079 -0.129)"/><rect height="8.397" transform="translate(-0.001 -0.129)"/><rect width="0.089" height="8.397" transform="translate(-0.001 -0.129)"/><rect width="0.089" height="8.397" transform="translate(0.088 -0.129)"/><rect width="0.089" height="8.397" transform="translate(0.177 -0.129)"/><rect width="0.089" height="8.397" transform="translate(0.266 -0.129)"/><rect width="0.089" height="8.397" transform="translate(0.355 -0.129)"/><rect width="0.089" height="8.397" transform="translate(0.444 -0.129)"/><rect width="0.089" height="8.397" transform="translate(0.533 -0.129)"/><rect width="0.089" height="8.397" transform="translate(0.622 -0.129)"/><rect width="0.089" height="8.397" transform="translate(0.711 -0.129)"/><rect width="0.089" height="8.397" transform="translate(0.8 -0.129)"/><rect width="0.089" height="8.397" transform="translate(0.889 -0.129)"/><rect width="0.089" height="8.397" transform="translate(0.978 -0.129)"/><rect width="0.089" height="8.397" transform="translate(1.068 -0.129)"/><rect width="0.089" height="8.397" transform="translate(1.157 -0.129)"/><rect width="0.089" height="8.397" transform="translate(1.246 -0.129)"/><rect width="0.089" height="8.397" transform="translate(1.335 -0.129)"/><rect width="0.089" height="8.397" transform="translate(1.424 -0.129)"/><rect width="0.089" height="8.397" transform="translate(1.513 -0.129)"/><rect width="0.089" height="8.397" transform="translate(1.602 -0.129)"/><rect width="0.089" height="8.397" transform="translate(1.691 -0.129)"/><rect width="0.089" height="8.397" transform="translate(1.78 -0.129)"/><rect width="0.089" height="8.397" transform="translate(1.869 -0.129)"/><rect width="0.089" height="8.397" transform="translate(1.958 -0.129)"/><rect width="0.089" height="8.397" transform="translate(2.047 -0.129)"/><rect width="0.089" height="8.397" transform="translate(2.136 -0.129)"/><rect width="0.089" height="8.397" transform="translate(2.225 -0.129)"/><rect width="0.089" height="8.397" transform="translate(2.314 -0.129)"/><rect width="0.089" height="8.397" transform="translate(2.403 -0.129)"/><rect width="0.089" height="8.397" transform="translate(2.492 -0.129)"/><rect width="0.089" height="8.397" transform="translate(2.581 -0.129)"/><rect width="0.089" height="8.397" transform="translate(2.67 -0.129)"/><rect width="0.089" height="8.397" transform="translate(2.76 -0.129)"/><rect width="0.089" height="8.397" transform="translate(2.849 -0.129)"/><rect width="0.089" height="8.397" transform="translate(2.938 -0.129)"/><rect width="0.089" height="8.397" transform="translate(3.027 -0.129)"/><rect width="0.089" height="8.397" transform="translate(3.116 -0.129)"/><rect width="0.089" height="8.397" transform="translate(3.205 -0.129)"/><rect width="0.089" height="8.397" transform="translate(3.294 -0.129)"/><rect width="0.089" height="8.397" transform="translate(3.383 -0.129)"/><rect width="0.089" height="8.397" transform="translate(3.472 -0.129)"/><rect width="0.089" height="8.397" transform="translate(3.561 -0.129)"/><rect width="0.089" height="8.397" transform="translate(3.65 -0.129)"/><rect width="0.089" height="8.397" transform="translate(3.739 -0.129)"/><rect width="0.089" height="8.397" transform="translate(3.828 -0.129)"/><rect width="0.089" height="8.397" transform="translate(3.917 -0.129)"/><rect width="0.089" height="8.397" transform="translate(4.006 -0.129)"/><rect width="0.089" height="8.397" transform="translate(4.095 -0.129)"/><rect width="0.089" height="8.397" transform="translate(4.184 -0.129)"/><rect width="0.089" height="8.397" transform="translate(4.273 -0.129)"/><rect width="0.089" height="8.397" transform="translate(4.362 -0.129)"/><rect width="0.089" height="8.397" transform="translate(4.452 -0.129)"/><rect width="0.089" height="8.397" transform="translate(4.541 -0.129)"/><rect width="0.089" height="8.397" transform="translate(4.63 -0.129)"/><rect width="0.089" height="8.397" transform="translate(4.719 -0.129)"/><rect width="0.089" height="8.397" transform="translate(4.808 -0.129)"/><rect width="0.089" height="8.397" transform="translate(4.897 -0.129)"/><rect width="0.089" height="8.397" transform="translate(4.986 -0.129)"/><rect width="0.089" height="8.397" transform="translate(5.075 -0.129)"/><rect width="0.089" height="8.397" transform="translate(5.164 -0.129)"/><rect width="0.089" height="8.397" transform="translate(5.253 -0.129)"/><rect width="0.078" height="8.397" transform="translate(5.342 -0.129)"/></g><g transform="translate(65.09 0)" clip-path="url(#b)"><rect width="0.249" height="87.895" transform="translate(-0.244 -0.605)"/><rect height="87.895" transform="translate(0.005 -0.605)"/><rect width="1.262" height="87.895" transform="translate(0.005 -0.605)"/><rect width="1.262" height="87.895" transform="translate(1.266 -0.605)"/><rect width="1.262" height="87.895" transform="translate(2.528 -0.605)"/><rect width="1.262" height="87.895" transform="translate(3.789 -0.605)"/><rect width="1.262" height="87.895" transform="translate(5.051 -0.605)"/><rect width="1.262" height="87.895" transform="translate(6.313 -0.605)"/><rect width="1.262" height="87.895" transform="translate(7.571 -0.605)"/><rect width="1.262" height="87.895" transform="translate(8.832 -0.605)"/><rect width="1.262" height="87.895" transform="translate(10.094 -0.605)"/><rect width="1.262" height="87.895" transform="translate(11.355 -0.605)"/><rect width="1.262" height="87.895" transform="translate(12.617 -0.605)"/><rect width="1.262" height="87.895" transform="translate(13.878 -0.605)"/><rect width="1.262" height="87.895" transform="translate(15.136 -0.605)"/><rect width="1.262" height="87.895" transform="translate(16.398 -0.605)"/><rect width="1.262" height="87.895" transform="translate(17.659 -0.605)"/><rect width="1.262" height="87.895" transform="translate(18.921 -0.605)"/><rect width="1.262" height="87.895" transform="translate(20.183 -0.605)"/><rect width="1.262" height="87.895" transform="translate(21.444 -0.605)"/><rect width="1.262" height="87.895" transform="translate(22.702 -0.605)"/><rect width="1.262" height="87.895" transform="translate(23.964 -0.605)"/><rect width="1.262" height="87.895" transform="translate(25.225 -0.605)"/><rect width="1.262" height="87.895" transform="translate(26.487 -0.605)"/><rect width="1.262" height="87.895" transform="translate(27.748 -0.605)"/><rect width="1.262" height="87.895" transform="translate(29.01 -0.605)"/><rect width="1.262" height="87.895" transform="translate(30.268 -0.605)"/><rect width="1.262" height="87.895" transform="translate(31.529 -0.605)"/><rect width="1.262" height="87.895" transform="translate(32.791 -0.605)"/><rect width="1.262" height="87.895" transform="translate(34.053 -0.605)"/><rect width="1.262" height="87.895" transform="translate(35.314 -0.605)"/><rect width="1.262" height="87.895" transform="translate(36.576 -0.605)"/><rect width="1.262" height="87.895" transform="translate(37.834 -0.605)"/><rect width="1.262" height="87.895" transform="translate(39.095 -0.605)"/><rect width="1.262" height="87.895" transform="translate(40.357 -0.605)"/><rect width="1.262" height="87.895" transform="translate(41.618 -0.605)"/><rect width="1.262" height="87.895" transform="translate(42.88 -0.605)"/><rect width="1.262" height="87.895" transform="translate(44.142 -0.605)"/><rect width="1.262" height="87.895" transform="translate(45.403 -0.605)"/><rect width="1.262" height="87.895" transform="translate(46.661 -0.605)"/><rect width="1.262" height="87.895" transform="translate(47.923 -0.605)"/><rect width="1.262" height="87.895" transform="translate(49.184 -0.605)"/><rect width="1.262" height="87.895" transform="translate(50.446 -0.605)"/><rect width="1.262" height="87.895" transform="translate(51.707 -0.605)"/><rect width="1.262" height="87.895" transform="translate(52.969 -0.605)"/><rect width="1.262" height="87.895" transform="translate(54.227 -0.605)"/><rect width="1.262" height="87.895" transform="translate(55.488 -0.605)"/><rect width="1.262" height="87.895" transform="translate(56.75 -0.605)"/><rect width="1.262" height="87.895" transform="translate(58.012 -0.605)"/><rect width="1.262" height="87.895" transform="translate(59.273 -0.605)"/><rect width="1.262" height="87.895" transform="translate(60.535 -0.605)"/><rect width="1.262" height="87.895" transform="translate(61.793 -0.605)"/><rect width="1.262" height="87.895" transform="translate(63.054 -0.605)"/><rect width="1.262" height="87.895" transform="translate(64.316 -0.605)"/><rect width="1.262" height="87.895" transform="translate(65.577 -0.605)"/><rect width="1.262" height="87.895" transform="translate(66.839 -0.605)"/><rect width="1.262" height="87.895" transform="translate(68.101 -0.605)"/><rect width="1.262" height="87.895" transform="translate(69.358 -0.605)"/><rect width="1.262" height="87.895" transform="translate(70.62 -0.605)"/><rect width="1.262" height="87.895" transform="translate(71.882 -0.605)"/><rect width="1.262" height="87.895" transform="translate(73.143 -0.605)"/><rect width="1.262" height="87.895" transform="translate(74.405 -0.605)"/><rect width="0.263" height="87.895" transform="translate(75.666 -0.605)"/></g><g transform="translate(100.272 27.186)" clip-path="url(#a)"><path d="M283.55,107.61l.872.872h-.872Z" transform="translate(-283.629 -100.214)"/><path d="M283.55,101.84l3.013,3.013h-2.141l-.872-.872Z" transform="translate(-283.629 -96.585)"/><path d="M283.55,96.06l4.712,4.712-.445.445h-1.254L283.55,98.2Z" transform="translate(-283.629 -92.949)"/><path d="M283.55,90.729l.119-.119,5.384,5.38v.568l-.79.787-4.712-4.712Z" transform="translate(-283.629 -89.522)"/><path d="M283.87,88.792l1.072-1.072,4.312,4.312v2.141Z" transform="translate(-283.83 -87.704)"/><path d="M286.76,87.475l.145-.145h1.855l2.312,2.312v2.145Z" transform="translate(-285.648 -87.459)"/><path d="M294.291,87.33l.171.171v2.141L292.15,87.33Z" transform="translate(-289.038 -87.459)"/><path d="M298.091,87.5l-.171-.171h.171Z" transform="translate(-292.667 -87.459)"/></g><g transform="translate(65.09 0)" clip-path="url(#b)"><path d="M188.29,174.04,216.345,202.1H188.29Z" transform="translate(-188.534 -114.809)"/><path d="M188.29,174.04,216.345,202.1h0L188.29,174.04Z" transform="translate(-188.534 -114.809)"/><path d="M188.29,168.27l30.2,30.2h-2.145L188.29,170.411Z" transform="translate(-188.534 -111.18)"/><path d="M188.29,162.49l32.341,32.345H218.49l-30.2-30.2Z" transform="translate(-188.534 -107.544)"/><path d="M188.29,156.72l34.486,34.486h-2.145L188.29,158.861Z" transform="translate(-188.534 -103.915)"/><path d="M188.29,150.94l36.627,36.63h-2.141L188.29,153.085Z" transform="translate(-188.534 -100.28)"/><path d="M188.29,145.17l38.771,38.771h-2.145l-36.627-36.63Z" transform="translate(-188.534 -96.651)"/><path d="M188.29,139.4,229.2,180.312h-2.141L188.29,141.541Z" transform="translate(-188.534 -93.022)"/><path d="M188.29,133.62l43.057,43.057H229.2L188.29,135.765Z" transform="translate(-188.534 -89.387)"/><path d="M188.29,127.85l45.2,45.2h-2.141L188.29,129.991Z" transform="translate(-188.534 -85.758)"/><path d="M188.29,122.07l47.343,47.343h-2.145l-45.2-45.2Z" transform="translate(-188.534 -82.122)"/><path d="M188.29,116.3l49.421,49.421-.059.063h-2.019L188.29,118.441Z" transform="translate(-188.534 -78.493)"/><path d="M188.29,110.52l50.493,50.493-1.072,1.072L188.29,112.665Z" transform="translate(-188.534 -74.858)"/><path d="M188.29,104.75l51.565,51.565-1.072,1.069L188.29,106.891Z" transform="translate(-188.534 -71.229)"/><path d="M188.29,98.97l52.638,52.638-1.072,1.072L188.29,101.115Z" transform="translate(-188.534 -67.594)"/><path d="M188.29,93.2,242,146.906l-1.069,1.072L188.29,95.341Z" transform="translate(-188.534 -63.965)"/><path d="M188.29,87.42,243.069,142.2,242,143.271,188.29,89.565Z" transform="translate(-188.534 -60.329)"/><path d="M188.29,81.65,244.141,137.5l-1.072,1.069L188.29,83.791Z" transform="translate(-188.534 -56.7)"/><path d="M188.29,75.87l56.923,56.923-1.072,1.072L188.29,78.015Z" transform="translate(-188.534 -53.065)"/><path d="M188.29,70.1l57.992,57.992-1.069,1.072L188.29,72.241Z" transform="translate(-188.534 -49.436)"/><path d="M188.29,64.32l59.064,59.064-1.072,1.072L188.29,66.465Z" transform="translate(-188.534 -45.801)"/><path d="M188.29,58.55l60.137,60.137-1.072,1.069L188.29,60.691Z" transform="translate(-188.534 -42.172)"/><path d="M188.29,52.77,249.5,113.979l-1.072,1.072L188.29,54.915Z" transform="translate(-188.534 -38.536)"/><path d="M188.29,47l62.278,62.278L249.5,110.35,188.29,49.141Z" transform="translate(-188.534 -34.907)"/><path d="M188.29,41.22l63.35,63.354-1.072,1.069L188.29,43.365Z" transform="translate(-188.534 -31.272)"/><path d="M188.29,35.45l64.422,64.422-1.072,1.072L188.29,37.591Z" transform="translate(-188.534 -27.643)"/><path d="M188.29,29.68l65.495,65.491-1.072,1.072L188.29,31.821Z" transform="translate(-188.534 -24.014)"/><path d="M188.29,26.6l.731-.731L254.853,91.7l-1.069,1.072L188.29,27.284Z" transform="translate(-188.534 -21.618)"/><rect width="1.514" height="93.101" transform="translate(0.486 4.252) rotate(-45)"/><rect width="1.514" height="93.101" transform="translate(1.561 3.184) rotate(-45)"/><rect width="1.514" height="93.101" transform="translate(2.633 2.109) rotate(-45)"/><rect width="1.514" height="93.101" transform="translate(3.702 1.037) rotate(-45)"/><path d="M201.81,13.351l.575-.571h.994l65.335,65.335-1.072,1.069Z" transform="translate(-197.037 -13.385)"/><path d="M208.181,12.78l64.267,64.263-1.072,1.072L206.04,12.78Z" transform="translate(-199.698 -13.385)"/><path d="M213.955,12.78l63.19,63.19-1.069,1.072L211.81,12.78Z" transform="translate(-203.327 -13.385)"/><path d="M219.731,12.78,281.853,74.9,280.78,75.97,217.59,12.78Z" transform="translate(-206.962 -13.385)"/><path d="M225.5,12.78l61.012,61.012v.07L285.482,74.9,223.36,12.78Z" transform="translate(-210.591 -13.385)"/><path d="M231.281,12.78l58.871,58.871v2.141L229.14,12.78Z" transform="translate(-214.226 -13.385)"/><path d="M237.055,12.78l56.727,56.727v2.145L234.91,12.78Z" transform="translate(-217.855 -13.385)"/><path d="M242.831,12.78l54.586,54.586v2.141L240.69,12.78Z" transform="translate(-221.491 -13.385)"/><path d="M248.6,12.78l52.441,52.441v2.145L246.46,12.78Z" transform="translate(-225.12 -13.385)"/><path d="M254.381,12.78l50.3,50.3v2.141L252.24,12.78Z" transform="translate(-228.755 -13.385)"/><path d="M260.155,12.78,308.31,60.935V63.08l-50.3-50.3Z" transform="translate(-232.384 -13.385)"/><path d="M265.931,12.78l46.014,46.014v2.141L263.79,12.78Z" transform="translate(-236.019 -13.385)"/><path d="M271.7,12.78l43.87,43.87v2.145L269.56,12.78Z" transform="translate(-239.648 -13.385)"/><path d="M277.481,12.78,319.21,54.509V56.65L275.34,12.78Z" transform="translate(-243.284 -13.385)"/><path d="M283.255,12.78l39.584,39.584v2.145L281.11,12.78Z" transform="translate(-246.913 -13.385)"/><path d="M289.031,12.78l37.443,37.443v2.141L286.89,12.78Z" transform="translate(-250.548 -13.385)"/><path d="M294.8,12.78l35.3,35.3v2.145L292.66,12.78Z" transform="translate(-254.177 -13.385)"/><path d="M300.581,12.78l33.157,33.157v2.141l-35.3-35.3Z" transform="translate(-257.812 -13.385)"/><path d="M306.355,12.78l31.013,31.013v2.145L304.21,12.78Z" transform="translate(-261.441 -13.385)"/><path d="M312.131,12.78,341,41.652v2.141L309.99,12.78Z" transform="translate(-265.077 -13.385)"/><path d="M317.9,12.78l26.727,26.727v2.145L315.76,12.78Z" transform="translate(-268.706 -13.385)"/><path d="M323.681,12.78l24.586,24.586v2.141L321.54,12.78Z" transform="translate(-272.341 -13.385)"/><path d="M329.451,12.78,351.9,35.225v2.141L327.31,12.78Z" transform="translate(-275.97 -13.385)"/><path d="M335.225,12.78l20.3,20.3v2.145L333.08,12.78Z" transform="translate(-279.599 -13.385)"/><path d="M341,12.78,359.16,30.939V33.08l-20.3-20.3Z" transform="translate(-283.234 -13.385)"/><path d="M346.775,12.78l16.015,16.015v2.145L344.63,12.78Z" transform="translate(-286.863 -13.385)"/><path d="M352.551,12.78l13.874,13.874v2.141L350.41,12.78Z" transform="translate(-290.499 -13.385)"/><path d="M358.325,12.78l11.729,11.729v2.145L356.18,12.78Z" transform="translate(-294.128 -13.385)"/><path d="M364.1,12.78l9.588,9.588v2.141L361.96,12.78Z" transform="translate(-297.763 -13.385)"/><path d="M369.875,12.78l7.443,7.443v2.145L367.73,12.78Z" transform="translate(-301.392 -13.385)"/><path d="M380.953,20.223,373.51,12.78h7.443Z" transform="translate(-305.027 -13.385)"/></g><path d="M205.019,305.791V303.6a1.2,1.2,0,0,0-1.195-1.2h-5.636a4.575,4.575,0,0,0-4.56,4.594h0v5.985a.694.694,0,0,1-.69.694h-1.113a1.2,1.2,0,0,0-1.195,1.2v2.189a1.2,1.2,0,0,0,1.195,1.2h1.113a.694.694,0,0,1,.69.694V332.2a1.2,1.2,0,0,0,1.195,1.206h3.161a1.2,1.2,0,0,0,1.195-1.206v-13.25a.694.694,0,0,1,.69-.694h2.968a1.2,1.2,0,0,0,1.191-1.2v-2.186a1.2,1.2,0,0,0-1.191-1.2h-2.968a.694.694,0,0,1-.69-.694v-4.783a1.2,1.2,0,0,1,1.191-1.2h3.462A1.2,1.2,0,0,0,205.019,305.791Z" transform="translate(-124.915 -195.54)"/><path d="M24.682,351.98H20.667a1.21,1.21,0,0,1-1.139-.824l-5.937-17.629a1.213,1.213,0,0,1,1.139-1.6H17.9a1.206,1.206,0,0,1,1.147.839l2.968,9.254a.679.679,0,0,0,1.295,0l2.968-9.254a1.2,1.2,0,0,1,1.158-.853h3.61a1.2,1.2,0,0,1,1.147.839L35.157,342a.683.683,0,0,0,1.3,0l2.968-9.254a1.2,1.2,0,0,1,1.147-.839h3.187a1.21,1.21,0,0,1,1.139,1.6l-5.963,17.629a1.21,1.21,0,0,1-1.113.839H33.765a1.2,1.2,0,0,1-1.139-.842l-2.746-8.182a.679.679,0,0,0-1.288,0l-2.775,8.189A1.2,1.2,0,0,1,24.682,351.98Z" transform="translate(-13.527 -214.1)"/><path d="M250.558,352.005h-4.011a1.21,1.21,0,0,1-1.139-.824l-5.937-17.629a1.213,1.213,0,0,1,1.139-1.6h3.18a1.2,1.2,0,0,1,1.143.839l2.968,9.254a.679.679,0,0,0,1.295,0l2.968-9.254a1.2,1.2,0,0,1,1.143-.839h3.614a1.2,1.2,0,0,1,1.143.839l2.968,9.254a.679.679,0,0,0,1.295,0l2.968-9.254a1.2,1.2,0,0,1,1.143-.839h3.217a1.213,1.213,0,0,1,1.139,1.6l-5.937,17.629a1.21,1.21,0,0,1-1.139.824h-4.056a1.2,1.2,0,0,1-1.139-.828L255.779,343a.679.679,0,0,0-1.288,0l-2.775,8.189A1.2,1.2,0,0,1,250.558,352.005Z" transform="translate(-155.593 -214.126)"/><path d="M123.911,340.564a9.966,9.966,0,0,1-3,7.343,11.027,11.027,0,0,1-15.054,0,10.516,10.516,0,0,1,0-14.7,10.937,10.937,0,0,1,15.054,0A10.018,10.018,0,0,1,123.911,340.564Zm-15.466,0a5.781,5.781,0,0,0,1.388,4.007,4.85,4.85,0,0,0,7.1,0,5.762,5.762,0,0,0,1.388-4.007,5.829,5.829,0,0,0-1.388-4.026,4.824,4.824,0,0,0-7.1,0,5.848,5.848,0,0,0-1.388,4.026Z" transform="translate(-69.713 -213.025)"/><path d="M172.016,333.414h-3.161a1.2,1.2,0,0,1-1.195-1.206V303.6a1.2,1.2,0,0,1,1.195-1.206h3.161a1.2,1.2,0,0,1,1.191,1.206v28.6a1.2,1.2,0,0,1-1.191,1.221Z" transform="translate(-110.468 -195.534)"/><path d="M333.942,302.87l-1.725,2.1a1.417,1.417,0,0,0-.189,1.41l1.681,4.082a1.221,1.221,0,0,0,2.3,0l1.677-4.082a1.428,1.428,0,0,0-.185-1.41l-1.729-2.1a1.143,1.143,0,0,0-1.833,0Z" transform="translate(-213.779 -195.546)"/><path d="M336.716,351.98h-3.161a1.2,1.2,0,0,1-1.195-1.206V333.112a1.2,1.2,0,0,1,1.195-1.2h3.161a1.2,1.2,0,0,1,1.195,1.2V350.76a1.2,1.2,0,0,1-1.195,1.221Z" transform="translate(-214.056 -214.1)"/><path d="M356.045,335.319v-2.226a1.2,1.2,0,0,1,1.191-1.2h13.67a1.2,1.2,0,0,1,1.191,1.2v2.7a1.2,1.2,0,0,1-.3.794l-8.345,9.536a.7.7,0,0,0,.516,1.158h7.488a1.2,1.2,0,0,1,1.195,1.2v2.252a1.2,1.2,0,0,1-1.195,1.206H356.535a1.2,1.2,0,0,1-1.195-1.206v-2.968a1.217,1.217,0,0,1,.3-.794l8.111-9.3a.7.7,0,0,0-.52-1.154h-5.992A1.2,1.2,0,0,1,356.045,335.319Z" transform="translate(-228.509 -214.088)"/><path d="M522.183,333.42a8.383,8.383,0,0,1-6.308-3.02,10.655,10.655,0,0,1-2.776-7.492,10.214,10.214,0,0,1,2.7-7.325,8.446,8.446,0,0,1,6.308-2.853,7.666,7.666,0,0,1,4.8,1.536.69.69,0,0,0,1.113-.545V303.2a.794.794,0,0,1,.79-.8h3.967a.794.794,0,0,1,.79.8v29.109a.794.794,0,0,1-.79.8H528.7a.7.7,0,0,1-.694-.7v-.219a.69.69,0,0,0-1.15-.516,6.964,6.964,0,0,1-4.672,1.751Zm-3.5-10.289a5.6,5.6,0,0,0,1.443,3.97,4.479,4.479,0,0,0,3.369,1.547,4.2,4.2,0,0,0,3.273-1.547,5.855,5.855,0,0,0,1.351-3.989,6.14,6.14,0,0,0-1.351-4.063,4.159,4.159,0,0,0-3.31-1.621,4.293,4.293,0,0,0-3.369,1.64,6.04,6.04,0,0,0-1.406,4.048Z" transform="translate(-327.731 -195.54)"/><path d="M472.484,337.018l3.492.664a1.2,1.2,0,0,0,1.369-1.518l-.935-3.262a1.2,1.2,0,0,0-.931-.85l-9.837-1.826a1.2,1.2,0,0,0-1.365,1.51l4.5,16.1a7.707,7.707,0,0,0-7.766,6.961,7.792,7.792,0,0,0,6.679,8.467,7.707,7.707,0,0,0,8.646-7,7.793,7.793,0,0,0-.371-3.187L471.7,337.89a.69.69,0,0,1,.783-.872Z" transform="translate(-294.945 -213.03)"/><path d="M425.62,332.027A9.237,9.237,0,0,0,419.7,330.2a14.842,14.842,0,0,0-8.115,2.3.983.983,0,0,0-.286,1.38l1.388,2.022a.95.95,0,0,0,1.288.275,11.01,11.01,0,0,1,1.97-.92,9.015,9.015,0,0,1,3.05-.579c1.918,0,3.009.787,3.288,2.345.026.271.019.965-.742.972H418.2a10.55,10.55,0,0,0-6.067,1.529,5.231,5.231,0,0,0-2.226,4.6,6.163,6.163,0,0,0,2.145,4.92,7.844,7.844,0,0,0,5.31,1.855,6.256,6.256,0,0,0,4.167-1.529.69.69,0,0,1,1.139.527.7.7,0,0,0,.694.7h3.562a.965.965,0,0,0,.961-.968V337.8Q427.914,333.853,425.62,332.027Zm-3.295,10.92a2.969,2.969,0,0,1-1.113,2.442,4.019,4.019,0,0,1-2.6.913,3.815,3.815,0,0,1-2.275-.579,1.911,1.911,0,0,1-.8-1.659q0-2.085,3.339-2.085h2.787a.69.69,0,0,1,.69.694Z" transform="translate(-262.83 -213.023)"/><g transform="translate(65.715 106.86)" clip-path="url(#e)"><rect width="2.905" height="31.005" transform="translate(-0.007 0)"/><rect width="3.432" height="31.005" transform="translate(2.898 0)"/><rect width="3.432" height="31.005" transform="translate(6.33 0)"/><rect width="3.432" height="31.005" transform="translate(9.759 0)"/><rect width="1.195" height="31.005" transform="translate(13.191 0)"/></g><g transform="translate(0 117.81)" clip-path="url(#f)"><rect width="0.2" height="20.055" transform="translate(-0.214 0)"/><rect height="20.055" transform="translate(-0.014 0)"/><rect width="3.432" height="20.055" transform="translate(-0.014 0)"/><rect width="3.432" height="20.055" transform="translate(3.419 0)"/><rect width="3.432" height="20.055" transform="translate(6.847 0)"/><rect width="3.432" height="20.055" transform="translate(10.279 0)"/><rect width="3.432" height="20.055" transform="translate(13.712 0)"/><rect width="3.432" height="20.055" transform="translate(17.144 0)"/><rect width="3.432" height="20.055" transform="translate(20.572 0)"/><rect width="3.432" height="20.055" transform="translate(24.005 0)"/><rect width="3.432" height="20.055" transform="translate(27.437 0)"/><rect width="0.772" height="20.055" transform="translate(30.869 0)"/></g><g transform="translate(83.814 117.824)" clip-path="url(#g)"><rect width="2.171" height="20.055" transform="translate(-0.214 -0.015)"/><rect width="3.432" height="20.055" transform="translate(1.957 -0.015)"/><rect width="3.432" height="20.055" transform="translate(5.385 -0.015)"/><rect width="3.432" height="20.055" transform="translate(8.817 -0.015)"/><rect width="3.432" height="20.055" transform="translate(12.25 -0.015)"/><rect width="3.432" height="20.055" transform="translate(15.682 -0.015)"/><rect width="3.432" height="20.055" transform="translate(19.11 -0.015)"/><rect width="3.432" height="20.055" transform="translate(22.543 -0.015)"/><rect width="3.432" height="20.055" transform="translate(25.975 -0.015)"/><rect width="2.23" height="20.055" transform="translate(29.407 -0.015)"/></g><g transform="translate(33.148 117.175)" clip-path="url(#h)"><rect width="2.43" height="11.146" transform="translate(5.584 4.772)"/><rect width="3.432" height="11.146" transform="translate(8.014 4.772)"/><rect width="3.432" height="11.146" transform="translate(11.447 4.772)"/><rect width="0.586" height="11.146" transform="translate(14.875 4.772)"/><rect width="1.154" height="20.686" transform="translate(0)"/><rect width="3.432" height="20.686" transform="translate(1.15)"/><rect width="3.432" height="20.686" transform="translate(4.582)"/><rect width="3.432" height="20.686" transform="translate(8.014)"/><rect width="3.432" height="20.686" transform="translate(11.447)"/><rect width="3.432" height="20.686" transform="translate(14.875)"/><rect width="2.738" height="20.686" transform="translate(18.307)"/></g><g transform="translate(57.192 106.856)" clip-path="url(#i)"><rect width="1.128" height="31.005" transform="translate(0)"/><rect width="3.432" height="31.005" transform="translate(1.128)"/><rect width="0.991" height="31.005" transform="translate(4.557)"/></g><g transform="translate(118.141 106.864)" clip-path="url(#j)"><rect width="2.03" height="9.291" transform="translate(-0.085 -0.152)"/><rect width="3.432" height="9.291" transform="translate(1.941 -0.152)"/><rect width="0.59" height="9.291" transform="translate(5.373 -0.152)"/></g><g transform="translate(118.304 117.81)" clip-path="url(#k)"><rect width="1.777" height="20.055"/><rect width="3.432" height="20.055" transform="translate(1.777)"/><rect width="0.341" height="20.055" transform="translate(5.21)"/></g><g transform="translate(126.831 117.802)" clip-path="url(#l)"><rect width="0.115" height="20.055" transform="translate(0 0.007)"/><rect width="3.432" height="20.055" transform="translate(0.115 0.007)"/><rect width="3.432" height="20.055" transform="translate(3.547 0.007)"/><rect width="3.432" height="20.055" transform="translate(6.976 0.007)"/><rect width="3.432" height="20.055" transform="translate(10.408 0.007)"/><rect width="3.432" height="20.055" transform="translate(13.84 0.007)"/><rect width="0.041" height="20.055" transform="translate(17.273 0.007)"/></g><g transform="translate(185.369 106.86)" clip-path="url(#m)"><rect width="1.187" height="11.221" transform="translate(5.584 15.013)"/><rect width="3.432" height="11.221" transform="translate(6.772 15.013)"/><rect width="3.432" height="11.221" transform="translate(10.204 15.013)"/><rect width="1.384" height="11.221" transform="translate(13.636 15.013)"/><rect width="3.339" height="31.005" transform="translate(0 0)"/><rect width="3.432" height="31.005" transform="translate(3.339 0)"/><rect width="3.432" height="31.005" transform="translate(6.772 0)"/><rect width="3.432" height="31.005" transform="translate(10.204 0)"/><rect width="3.432" height="31.005" transform="translate(13.636 0)"/><rect width="3.432" height="31.005" transform="translate(17.065 0)"/></g><g transform="translate(166.026 117.178)" clip-path="url(#n)"><rect width="2.468" height="33.758" transform="translate(-0.375 -0.144)"/><rect width="3.432" height="33.758" transform="translate(2.096 -0.144)"/><rect width="3.432" height="33.758" transform="translate(5.528 -0.144)"/><rect width="3.432" height="33.758" transform="translate(8.957 -0.144)"/><rect width="3.432" height="33.758" transform="translate(12.389 -0.144)"/><rect width="0.787" height="33.758" transform="translate(15.821 -0.144)"/></g><g transform="translate(147.08 117.174)" clip-path="url(#o)"><rect width="1.707" height="4.323" transform="translate(5.61 11.782)"/><rect width="3.432" height="4.323" transform="translate(7.317 11.782)"/><rect width="1.67" height="4.323" transform="translate(10.749 11.782)"/><rect width="0.43" height="20.686" transform="translate(0.026 0.001)"/><rect width="3.432" height="20.686" transform="translate(0.453 0.001)"/><rect width="3.432" height="20.686" transform="translate(3.885 0.001)"/><rect width="3.432" height="20.686" transform="translate(7.317 0.001)"/><rect width="3.432" height="20.686" transform="translate(10.749 0.001)"/><rect width="3.432" height="20.686" transform="translate(14.178 0.001)"/><rect width="0.393" height="20.686" transform="translate(17.61 0.001)"/></g><path d="M365.285,242.412h-.905V242H366.7v.43h-.905v2.319h-.5Z" transform="translate(-234.195 -157.552)"/><path d="M374.171,244.731v-1.822l-.894,1.506h-.226l-.894-1.484v1.8h-.486V242h.419l1.083,1.822L374.238,242h.419v2.75Z" transform="translate(-238.78 -157.552)"/></g></svg>