<svg id="Layer_1" data-name="Layer 1" xmlns="http://www.w3.org/2000/svg" viewBox="0 0 2000 2000"><defs><style>.cls-1{fill:#030075;}.cls-2{fill:#5d5de6;}.cls-3{fill:#3b3bed;}.cls-4{fill:#3232b2;}</style></defs><path class="cls-1" d="M523.32,1014.36l-49.5-74.85h29.9l32.07,52.27,32.48-52.27h29.3l-48.91,74.25V1069H523.32Z"/><path class="cls-1" d="M709.44,1031.38V936.54H733v34.65h50.49v21.38H733v38.81c0,13.07,6.73,18.22,16.43,18.22s16.44-4.95,16.44-18.22v-2.57h23.56v2.57c0,27.13-16.23,40.2-40,40.2S709.44,1058.51,709.44,1031.38Z"/><path class="cls-1" d="M804.48,1031.38V936.54H828v34.65h50.49v21.38H828v38.81c0,13.07,6.73,18.22,16.43,18.22s16.44-4.95,16.44-18.22v-2.57h23.56v2.57c0,27.13-16.23,40.2-40,40.2S804.48,1058.51,804.48,1031.38Z"/><path class="cls-1" d="M895.56,1021.09c0-31.09,21.78-52.47,52.86-52.47,30.7,0,52.08,20.79,52.08,52.27V1069H978.92V1049.8c-5.94,14.45-19.21,21.78-34.65,21.78C920.51,1071.58,895.56,1054.55,895.56,1021.09Zm81.38-1c0-17.23-11.49-29.51-28.71-29.51s-28.91,12.28-28.91,29.51,11.68,29.5,28.91,29.5S976.94,1037.32,976.94,1020.1Z"/><path class="cls-2" d="M1023.07,928.42h23.56v56.43c6.53-10.49,16.63-16.23,29.11-16.23,22.57,0,44,14.65,44,49.5V1069h-23.56v-50.89c0-18.62-9.9-27.53-24.75-27.53-14.45,0-24.75,9.31-24.75,27.53V1069h-23.56Z"/><path class="cls-2" d="M1259.47,1027V971.19H1283V1027c0,16,8.31,22.57,19.8,22.57,11.28,0,19.8-6.73,19.8-22.57V971.19h23.56V1027c0,15.84,8.32,22.57,19.6,22.57,11.49,0,19.81-6.53,19.81-22.57V971.19h23.56V1027c0,30.69-17.82,44.55-41,44.55-14.85,0-26.93-6.14-33.86-17.62-7.13,11.48-19.2,17.62-33.86,17.62C1277.3,1071.58,1259.47,1057.72,1259.47,1027Z"/><path class="cls-2" d="M1431.93,928.42h23.56V1014l38.81-42.77h30.1l-45.94,47.92,47.72,49.9h-30.69l-40-44.16V1069h-23.56Z"/><path class="cls-2" d="M614,1031.36c-.34-.74-.64-1.51-.92-2.28a10.86,10.86,0,0,0-10.83-7.34A10.72,10.72,0,0,0,592.15,1036q.83,2.4,1.88,4.69a11,11,0,0,0,20-9.35Z"/><path class="cls-3" d="M602.51,1015.83a11,11,0,0,0,10.7-7.36,30.35,30.35,0,0,1,2.06-4.48c6.92-13.19-11.68-23.83-19.35-10.66a51.67,51.67,0,0,0-3.63,8A10.87,10.87,0,0,0,602.51,1015.83Z"/><path class="cls-1" d="M687.69,993c-7.75-12.47-25.92-2.18-19.27,10.8,14.61,25.84-12.52,55.32-39.51,42.78a11.09,11.09,0,0,0-12.63,2.12h0a11,11,0,0,0,3,17.74,52.1,52.1,0,0,0,22.61,5.16v0C681.88,1072,707.65,1027.28,687.69,993Z"/><path class="cls-1" d="M640.22,1022.91a10.21,10.21,0,0,0,11.89-10.07v-45a10.2,10.2,0,0,0-3-7.22c-6.32-6.39-17.46-1.82-17.42,7.23v44.69A10.4,10.4,0,0,0,640.22,1022.91Z"/><path class="cls-2" d="M1146.3,1018.72a1.83,1.83,0,0,0,1-2.09v0a1.84,1.84,0,0,0-2.51-1.29l-2.87,1.2-6.79,2.82c0,.59,0,1.17,0,1.76,0,.83,0,1.65.06,2.46l6.58-2.87Z"/><path class="cls-2" d="M1202.69,1002.27a2.54,2.54,0,0,0,1-2.85l-8.85,2.28a18.83,18.83,0,0,0,5.48,1.07A4.62,4.62,0,0,0,1202.69,1002.27Z"/><path class="cls-2" d="M1175,1048.1a2,2,0,0,0-2.12-2.83h0a2,2,0,0,0-1.41,1.08l-5.59,11.61-2,4.17-2.1,4.37c1.07.52,2.16,1,3.26,1.44l5-10.06Z"/><path class="cls-2" d="M1188,968.62c-25.67,0-45,14.59-50.94,37.18l8.55-1.81,12-2.56h0c16.46-3.47,29.62-6.2,35.66-7.34,1.56-.3,2.64-.48,3.18-.55a37.82,37.82,0,0,1,6.64-.38c7.75.3,7.54,3.9,7.54,3.9a16.59,16.59,0,0,1,8.13-.55,27.49,27.49,0,0,1,5.2,1.3c.44.16.88.31,1.3.48l1,.41a45.66,45.66,0,0,1,8.53,4.73,23.69,23.69,0,0,0-8.26-.77c-.31,0-.63,0-.94.07a5,5,0,0,0-.54.08,27.3,27.3,0,0,0-6.65,1.85,38.43,38.43,0,0,0-6.6,3.56,64,64,0,0,0-12,10.73c-1.27,1.42-2.48,2.86-3.61,4.3-.42.53-.84,1.08-1.25,1.62a76.2,76.2,0,0,0-13.25,28.51h0c-.38,1.6-.7,3.2-1,4.82l-2.2,13.09a52.44,52.44,0,0,0,5.3.29c15.45,0,28.71-7.33,34.65-21.78V1069h21.59v-48.12C1240.08,989.41,1218.69,968.62,1188,968.62Z"/><path class="cls-2" d="M1147.89,1031.58l3.43-2.43a1.6,1.6,0,0,0,.4-2.19l0,0a1.59,1.59,0,0,0-2.22-.44l-1.41,1h0l-6.76,4.58-4.54,3.08q.45,1.85,1,3.6l3.33-2.36Z"/><path class="cls-2" d="M1165.47,1043.46h0l1.62-2.34a1.82,1.82,0,0,0-.84-2.73l0,0a1.82,1.82,0,0,0-2.13.64l-1.6,2.22-12.36,17.23c1,.93,2,1.81,3.07,2.64l9.2-13.21Z"/><path class="cls-2" d="M1147.18,1048.52l11.7-11.27a2,2,0,0,0-.25-3l0,0a1.94,1.94,0,0,0-2.45.19l-8.72,8.35-5.53,5.28c.69,1.19,1.42,2.34,2.2,3.45l3.07-3Z"/><path class="cls-4" d="M1136.58,1020.74l6.78-2.83,2.88-1.19a1.71,1.71,0,0,1,1.11-.09v0a1.84,1.84,0,0,0-2.51-1.29l-2.87,1.2-6.79,2.82c0,.59,0,1.17,0,1.76,0,.83,0,1.65.06,2.46l1.36-.59c0-.16,0-.31,0-.47C1136.54,1021.9,1136.56,1021.32,1136.58,1020.74Z"/><path class="cls-4" d="M1203.69,999.42l-8.85,2.28a24.14,24.14,0,0,0,3.49.87l5.27-1.36A3.09,3.09,0,0,0,1203.69,999.42Z"/><path class="cls-4" d="M1167.32,1059.36l5.59-11.6a2,2,0,0,1,1.4-1.08h0a1.86,1.86,0,0,1,.85,0,2,2,0,0,0-2.26-1.45h0a2,2,0,0,0-1.41,1.08l-5.59,11.61-2,4.17-2.1,4.37c.56.27,1.14.5,1.71.75l1.79-3.71Z"/><path class="cls-4" d="M1218.49,1054.21V1069h1.41V1051.2C1219.47,1052.25,1219,1053.24,1218.49,1054.21Z"/><path class="cls-4" d="M1183.11,1054.79h0a76.35,76.35,0,0,1,13.25-28.51c.42-.55.83-1.09,1.25-1.62,1.14-1.44,2.35-2.89,3.61-4.31a63.65,63.65,0,0,1,12-10.72,38.4,38.4,0,0,1,6.59-3.57,28,28,0,0,1,6.65-1.85l.55-.07c.31,0,.62,0,.93-.07a23.2,23.2,0,0,1,8.26.77s-1-.71-2.55-1.67a23.9,23.9,0,0,0-7.11-.51c-.31,0-.63,0-.94.07a5,5,0,0,0-.54.08,27.3,27.3,0,0,0-6.65,1.85,38.43,38.43,0,0,0-6.6,3.56,64,64,0,0,0-12,10.73c-1.27,1.42-2.48,2.86-3.61,4.3-.42.53-.84,1.08-1.25,1.62a76.2,76.2,0,0,0-13.25,28.51h0c-.38,1.6-.7,3.2-1,4.82l-2.2,13.09,1.62.13,2-11.82C1182.42,1058,1182.74,1056.38,1183.11,1054.79Z"/><path class="cls-4" d="M1189.41,970c15,0,27.75,5,36.89,13.72-9.21-9.62-22.52-15.12-38.3-15.12-25.67,0-45,14.59-50.94,37.18l1.93-.41C1145.48,983.84,1164.43,970,1189.41,970Z"/><path class="cls-4" d="M1210.32,996a2.2,2.2,0,0,1,.32,1.11c.25-.09.5-.13.74-.2A4.13,4.13,0,0,0,1210.32,996Z"/><path class="cls-4" d="M1142.7,1033.45l6.76-4.59h0l1.4-1a1.62,1.62,0,0,1,1.08-.24,1.54,1.54,0,0,0-.24-.7l0,0a1.59,1.59,0,0,0-2.22-.44l-1.41,1h0l-6.76,4.58-4.54,3.08q.45,1.85,1,3.6l.84-.59c-.15-.54-.32-1.06-.45-1.6Z"/><path class="cls-4" d="M1165.5,1040.41a1.77,1.77,0,0,1,1.88-.69,1.81,1.81,0,0,0-1.12-1.34l0,0a1.82,1.82,0,0,0-2.13.64l-1.6,2.22-12.36,17.23c.48.45,1,.85,1.49,1.28l12.28-17.1Z"/><path class="cls-4" d="M1148.83,1044.16l8.72-8.34a1.9,1.9,0,0,1,1.85-.47,1.89,1.89,0,0,0-.77-1.11l0,0a1.94,1.94,0,0,0-2.45.19l-8.72,8.35-5.53,5.28c.69,1.19,1.42,2.34,2.2,3.45l.32-.31c-.37-.58-.76-1.13-1.11-1.74Z"/></svg>