<svg xmlns="http://www.w3.org/2000/svg" width="132.761" height="37.652" viewBox="0 0 132.761 37.652"><path d="M-1202.306,2313.432a7.512,7.512,0,0,1-2.67-5.88,7.138,7.138,0,0,1,2.817-5.929,11.878,11.878,0,0,1,7.522-2.2,13.308,13.308,0,0,1,6.615,1.47v-1.029a5.13,5.13,0,0,0-1.862-3.993,6.388,6.388,0,0,0-4.361-1.642,6.906,6.906,0,0,0-5.978,3.185l-3.969-2.5q3.283-4.705,9.7-4.7a11.178,11.178,0,0,1,7.889,2.67,9.484,9.484,0,0,1,2.891,7.326V2315h-4.312v-3.332h-.2a8.6,8.6,0,0,1-7.448,4.116A9.683,9.683,0,0,1-1202.306,2313.432Zm3.822-9.065a3.93,3.93,0,0,0-1.838,3.282,3.6,3.6,0,0,0,1.495,2.94,5.5,5.5,0,0,0,3.5,1.176,7.181,7.181,0,0,0,5.072-2.107,6.6,6.6,0,0,0,2.23-4.949,9.262,9.262,0,0,0-5.881-1.666A7.639,7.639,0,0,0-1198.483,2304.367Zm-86.412,6.125a17.712,17.712,0,0,1-5.292-13.034,17.712,17.712,0,0,1,5.292-13.034,17.6,17.6,0,0,1,12.936-5.292,19.484,19.484,0,0,1,7.3,1.372,14.612,14.612,0,0,1,5.635,3.871l-3.235,3.235a10.861,10.861,0,0,0-4.19-3.063,13.836,13.836,0,0,0-5.512-1.1,13.2,13.2,0,0,0-9.7,3.969,13.811,13.811,0,0,0-3.919,10.045,13.81,13.81,0,0,0,3.919,10.045,13.2,13.2,0,0,0,9.7,3.969,13.045,13.045,0,0,0,8.722-2.94,11.712,11.712,0,0,0,4.018-8.085h-12.74v-4.214h17a15,15,0,0,1,.246,2.646q0,7.349-4.361,11.711-4.9,5.195-12.887,5.194A17.6,17.6,0,0,1-1284.895,2310.492Zm121.961,4.508v-35.084h4.508V2315Zm-12.838,0v-24.01h4.508V2315Zm-39.838,0v-14.308q0-3.38-1.225-4.875t-4.116-1.494a5.383,5.383,0,0,0-4.361,2.205,8.067,8.067,0,0,0-1.764,5.194V2315h-4.508v-14.308q0-3.38-1.225-4.875t-4.116-1.494a5.383,5.383,0,0,0-4.361,2.205,8.066,8.066,0,0,0-1.763,5.194V2315h-4.508v-24.01h4.312v3.333h.2a8.012,8.012,0,0,1,3.16-2.94,8.718,8.718,0,0,1,4.239-1.176,8.763,8.763,0,0,1,4.655,1.225,7.225,7.225,0,0,1,2.939,3.381,9.371,9.371,0,0,1,8.282-4.606,8.12,8.12,0,0,1,6.419,2.548q2.253,2.549,2.254,7.252V2315Zm39.838-30.037a3.07,3.07,0,0,1-.932-2.254,3.068,3.068,0,0,1,.932-2.254,3.068,3.068,0,0,1,2.254-.931,3.071,3.071,0,0,1,2.255.931,3.07,3.07,0,0,1,.931,2.254,3.073,3.073,0,0,1-.931,2.254,3.073,3.073,0,0,1-2.255.931A3.07,3.07,0,0,1-1175.772,2284.963Z" transform="translate(1290.687 -2278.632)" fill="#fff" stroke="rgba(0,0,0,0)" stroke-miterlimit="10" stroke-width="1"/></svg>