<svg xmlns="http://www.w3.org/2000/svg" width="165.544" height="36.652" viewBox="0 0 165.544 36.652"><g transform="translate(-137.431 -9.395)"><g transform="translate(137.431 10.777)"><path d="M166.906,89.16a14.983,14.983,0,0,1-11.626-4.784q-4.368-4.784-4.368-12.446,0-8.233,4.451-13.137t12.114-4.9a14.647,14.647,0,0,1,11.388,4.759q4.319,4.76,4.319,12.446,0,8.353-4.427,13.207T166.906,89.16Zm.285-31.652a11.005,11.005,0,0,0-8.735,3.88q-3.355,3.88-3.356,10.187t3.273,10.152a10.67,10.67,0,0,0,8.531,3.842,11.2,11.2,0,0,0,8.853-3.664q3.235-3.661,3.236-10.257,0-6.758-3.142-10.448A10.756,10.756,0,0,0,167.192,57.508Z" transform="translate(-150.912 -53.89)" fill="#fff"/><path d="M253.781,101.506h-3.9V97.65h-.1a8.017,8.017,0,0,1-7.52,4.427q-8.711,0-8.711-10.377V77.135h3.88V91.08q0,7.711,5.9,7.712a5.965,5.965,0,0,0,4.7-2.1,8.063,8.063,0,0,0,1.845-5.511V77.135h3.9v24.371Z" transform="translate(-196.834 -66.807)" fill="#fff"/><path d="M301.714,92.247a7.5,7.5,0,0,1-3.642.762q-6.4,0-6.4-7.141V71.447h-4.188V68.115h4.188v-5.95l3.9-1.262v7.212h6.14v3.332h-6.14V85.178a5.681,5.681,0,0,0,.834,3.5,3.32,3.32,0,0,0,2.761,1.048,4.092,4.092,0,0,0,2.547-.809v3.332Z" transform="translate(-226.802 -57.787)" fill="#fff"/></g><g transform="translate(217.48 9.395)"><path d="M334.978,86.86h-3.9V50.78h3.9Z" transform="translate(-331.076 -50.78)" fill="#fff"/><path d="M363,101.362a11.3,11.3,0,0,1-8.627-3.415,12.651,12.651,0,0,1-3.226-9.055q0-6.141,3.356-9.592a12.065,12.065,0,0,1,9.066-3.45q5.452,0,8.511,3.356t3.057,9.306a13.1,13.1,0,0,1-3.3,9.341A11.552,11.552,0,0,1,363,101.362Zm.285-22.229a7.419,7.419,0,0,0-5.948,2.559,10.5,10.5,0,0,0-2.19,7.057,9.943,9.943,0,0,0,2.212,6.831,7.52,7.52,0,0,0,5.926,2.5,7.141,7.141,0,0,0,5.821-2.451q2.034-2.449,2.033-6.973,0-4.569-2.033-7.045a7.106,7.106,0,0,0-5.821-2.477Z" transform="translate(-342.229 -64.711)" fill="#fff"/><path d="M424.538,101.362a11.3,11.3,0,0,1-8.627-3.415,12.651,12.651,0,0,1-3.226-9.055q0-6.141,3.356-9.592a12.066,12.066,0,0,1,9.068-3.45q5.449,0,8.509,3.356t3.059,9.306a13.089,13.089,0,0,1-3.3,9.341A11.549,11.549,0,0,1,424.538,101.362Zm.286-22.229a7.422,7.422,0,0,0-5.95,2.559,10.5,10.5,0,0,0-2.19,7.057A9.943,9.943,0,0,0,418.9,95.58a7.52,7.52,0,0,0,5.926,2.5,7.137,7.137,0,0,0,5.819-2.451q2.034-2.449,2.035-6.973,0-4.569-2.035-7.045a7.1,7.1,0,0,0-5.818-2.477Z" transform="translate(-376.425 -64.711)" fill="#fff"/><path d="M498.2,86.86h-5.475L481.963,75.15h-.1V86.86h-3.9V50.78h3.9V73.651h.1L492.2,62.49h5.116l-11.3,11.757Z" transform="translate(-412.7 -50.78)" fill="#fff"/></g></g></svg>