<svg xmlns="http://www.w3.org/2000/svg" width="197.056" height="44.481" viewBox="0 0 197.056 44.481"><g transform="translate(-10.208 -1010.953)"><path d="M107.808,1055.168a37.386,37.386,0,0,1-3.943-1.015,20.564,20.564,0,0,1,.374-4.111c11.768,3.4,14.495,1.173,14.7-6.353v-1.808l-1.519,1.389a8.266,8.266,0,0,1-6.8,2.268c-5.729-.368-8.9-4.557-8.912-11.767-.005-4.311.947-7.05,3.344-9.613a9.893,9.893,0,0,1,12.5-1.5l1.387.934v-1.956l2.465.082,2.465.082.081,9.718c.127,15.151-.316,18.109-3.146,20.993-3.794,3.2-7.67,3.191-12.991,2.661Zm7.456-14.917a13.419,13.419,0,0,0,2.43-1.75l1.24-1.143V1027.9l-.883-.743c-3.02-2.541-6.267-2.734-8.719-.519-1.59,1.437-2.291,3.511-2.312,6.845-.026,4.027.842,6.067,3.013,7.086a6.277,6.277,0,0,0,5.231-.322Zm-71.278,3.19a13.557,13.557,0,0,1-3.657-11.611c.468-3.707,1.6-6.123,3.822-8.173a8.856,8.856,0,0,1,6.035-2.489c6.364-.436,10.137,3.905,10.156,11.685l.005,2.042c-4.858.13-10.413-.306-14.929.371.66,4.184,3.684,7.311,7.887,7.373,2.525,0,4.342-.641,6.769-1.119l.074,3.853a53.477,53.477,0,0,1-7.829,1.33,12.577,12.577,0,0,1-8.333-3.262Zm11.288-13.264c-.005-2.4-1.565-4.652-3.469-5.009-3.005-.564-5.308,1.178-6.063,4.586l-.265,1.2h9.8v-.774Zm25.611,13.264a13.557,13.557,0,0,1-3.657-11.611c.468-3.707,1.6-6.123,3.822-8.173a8.856,8.856,0,0,1,6.035-2.489c6.364-.436,10.137,3.905,10.156,11.685l.005,2.042c-5.185-.067-10.151-.046-15.059-.086.293,4.94,3.485,8.086,8.018,7.831a25.808,25.808,0,0,0,6.769-1.119c.441.272.333,3.4-.13,3.78-.64.531-5.466,1.419-7.625,1.4a12.577,12.577,0,0,1-8.333-3.262Zm11.288-13.264c-.005-2.4-1.565-4.652-3.469-5.009-3.005-.564-5.308,1.178-6.063,4.586l-.265,1.2h9.8v-.774Zm59.082,16.164a7.09,7.09,0,0,1-4.1-8.965,8.369,8.369,0,0,1,4.014-4.314,21.043,21.043,0,0,1,7.555-1.537l1.62-.013v-1.986c-.095-5.364-4.334-5.015-8.517-3.5-1.125.4-2.594.739-2.865.823-.035-1.259-.166-2.123-.166-4.048l2.324-.735a21,21,0,0,1,5.146-.9c4.517-.257,6.959.733,8.386,3.4.587,1.1.629,1.6.762,9.1.141,7.922.143,7.937.824,8.661a5.019,5.019,0,0,0,2.363.857,17.572,17.572,0,0,1-.021,3.137,17.488,17.488,0,0,1-3.658.33,3.761,3.761,0,0,1-3.346-2.265l-.406-.78-1.046.837c-2.415,1.933-6.442,2.79-8.863,1.887Zm5.918-4.239a12.25,12.25,0,0,0,2.144-1.056l1.015-.658v-5.774h-1.208c-2.841,0-6.226,1.458-6.92,2.981a3.378,3.378,0,0,0,1.424,4.435,4.026,4.026,0,0,0,3.538.072ZM21.757,1031.515v-14.647H10.208v-3.943H38.657v3.943H27.109v29.294H21.757Zm44.786-2.957v-17.6h5.07v35.209h-5.07Zm64.5,5.352v-12.275c1.643.055,3.352-.021,4.995.032-.016,1.014.044,2.023.1,3.034a10.1,10.1,0,0,1,6.814-3.411l1.89-.2v4.829c-3.169-.931-6.473,1.164-7.983,3.2-.58.806-.615,1.215-.749,8.873l-.141,8.028-4.929.163V1033.91Zm41.969,0v-12.253h5.07v4.2c2.138-2.4,4.726-4.667,7.605-4.624,3.52-.138,4.962,2.137,6.533,4.662,4.4-4.956,12.43-6.381,14.91-.486.239,8.051.1,11.038-.027,20.742-1.634.055-3.137-.021-4.771.032.075-6.262-.016-13.342-.169-19.223a3.03,3.03,0,0,0-3.794-1.671c-2.005.53-3.819,2.09-5.707,4.294,0,5.461.066,11.118.066,16.578h-5.049q-.08-9.6-.162-19.2c-1.012-1.171-1.82-1.857-3.732-1.4a9.169,9.169,0,0,0-5.7,4.366c0,5.412-.066,10.824-.066,16.236h-5q0-6.127,0-12.254Z" transform="translate(0 0)" fill="#fff"/></g></svg>