<svg xmlns="http://www.w3.org/2000/svg" width="232.475" height="44.48" viewBox="0 0 232.475 44.48"><g transform="translate(-262.273 -80.229)"><g transform="translate(262.273 80.229)"><path d="M295.42,104.681h-.1l-6.063-24.452h-7.305l-6.163,24.155h-.1l-5.615-24.155h-7.8l9.393,35.484h7.9l5.913-24.15h.1l6.012,24.15h7.754l9.541-35.484h-7.652Zm37.273-12.448a6.9,6.9,0,0,0-2.857-2.136,11.958,11.958,0,0,0-4.646-.771,9.3,9.3,0,0,0-4.077,1.018,8.193,8.193,0,0,0-3.429,3.257h-.147V80.229h-7.058v35.484h7.058V102.247q0-3.924,1.291-5.642A4.889,4.889,0,0,1,323,94.892a3.847,3.847,0,0,1,3.527,1.564,9.012,9.012,0,0,1,1,4.746v14.511h7.056v-15.8a20.759,20.759,0,0,0-.421-4.348A8.327,8.327,0,0,0,332.693,92.233ZM361.763,110V96.63a6.164,6.164,0,0,0-1.044-3.751,7.152,7.152,0,0,0-2.682-2.213,12.025,12.025,0,0,0-3.628-1.069,29.3,29.3,0,0,0-3.925-.272,21.735,21.735,0,0,0-4.249.421,12.1,12.1,0,0,0-3.8,1.416,8.466,8.466,0,0,0-2.78,2.633,8.205,8.205,0,0,0-1.245,4.128h7.057a4,4,0,0,1,1.392-2.984,5.355,5.355,0,0,1,3.281-.9,11.685,11.685,0,0,1,1.764.126,3.947,3.947,0,0,1,1.442.495,2.771,2.771,0,0,1,.994,1.044,3.769,3.769,0,0,1,.373,1.814,1.917,1.917,0,0,1-.646,1.666,4.723,4.723,0,0,1-1.889.867,18.1,18.1,0,0,1-2.733.448q-1.542.151-3.13.4a29.818,29.818,0,0,0-3.155.67,8.852,8.852,0,0,0-2.781,1.267,6.432,6.432,0,0,0-1.99,2.262,7.477,7.477,0,0,0-.771,3.6,8.007,8.007,0,0,0,.673,3.429,6.414,6.414,0,0,0,1.861,2.386,7.807,7.807,0,0,0,2.784,1.392,12.592,12.592,0,0,0,3.429.447,15.992,15.992,0,0,0,4.669-.692A9.244,9.244,0,0,0,355,113.23a10.5,10.5,0,0,0,.174,1.268,10.127,10.127,0,0,0,.323,1.216h7.156a6.008,6.008,0,0,1-.7-2.383A26.75,26.75,0,0,1,361.763,110Zm-7.056-4.227a13.183,13.183,0,0,1-.125,1.592,5.3,5.3,0,0,1-.669,1.961,4.659,4.659,0,0,1-1.69,1.664,6.233,6.233,0,0,1-3.232.7,8.987,8.987,0,0,1-1.638-.151,3.97,3.97,0,0,1-1.393-.522,2.676,2.676,0,0,1-.943-1.018,3.33,3.33,0,0,1-.348-1.59,3.448,3.448,0,0,1,.348-1.641,3.208,3.208,0,0,1,.92-1.067,4.619,4.619,0,0,1,1.341-.673,12.774,12.774,0,0,1,1.565-.4c.562-.1,1.128-.182,1.689-.247s1.1-.15,1.616-.248a11.393,11.393,0,0,0,1.442-.374,3.132,3.132,0,0,0,1.118-.62v2.631Zm20.225-23.456h-7.057v7.7H363.6v4.722h4.271V109.9a6.581,6.581,0,0,0,.647,3.132,4.6,4.6,0,0,0,1.763,1.839,7.314,7.314,0,0,0,2.586.871,20.949,20.949,0,0,0,3.105.222c.7,0,1.409-.019,2.139-.049a16.692,16.692,0,0,0,1.988-.2v-5.467a9.193,9.193,0,0,1-1.044.151q-.546.05-1.143.049a2.39,2.39,0,0,1-2.982-2.983V94.742H380.1V90.02h-5.169v-7.7ZM404.1,104.459a6.4,6.4,0,0,0-1.839-2.04,10.017,10.017,0,0,0-2.609-1.318,30.936,30.936,0,0,0-3.007-.843q-1.492-.347-2.93-.647a22.79,22.79,0,0,1-2.561-.67,5.391,5.391,0,0,1-1.813-.97,1.932,1.932,0,0,1-.694-1.541,1.912,1.912,0,0,1,.395-1.268,2.66,2.66,0,0,1,.971-.721,4.331,4.331,0,0,1,1.266-.321,12.1,12.1,0,0,1,1.292-.077,7.086,7.086,0,0,1,3.282.721,3.084,3.084,0,0,1,1.537,2.759H404.1a8.409,8.409,0,0,0-1.219-3.951,8.044,8.044,0,0,0-2.557-2.509,10.779,10.779,0,0,0-3.506-1.343,20.347,20.347,0,0,0-4.047-.4,21.89,21.89,0,0,0-4.075.374,11.119,11.119,0,0,0-3.578,1.291,7.141,7.141,0,0,0-2.562,2.509,7.729,7.729,0,0,0-.97,4.076,5.475,5.475,0,0,0,.7,2.857,6.034,6.034,0,0,0,1.836,1.94,10.342,10.342,0,0,0,2.611,1.242q1.465.474,3.005.821a41.9,41.9,0,0,1,5.891,1.588q2.112.794,2.111,2.386a2.615,2.615,0,0,1-.446,1.563,3.381,3.381,0,0,1-1.118.994,5.29,5.29,0,0,1-1.49.545,7.48,7.48,0,0,1-1.568.178,8.171,8.171,0,0,1-2.009-.249,5.241,5.241,0,0,1-1.716-.772,4.092,4.092,0,0,1-1.219-1.343,3.879,3.879,0,0,1-.473-1.961h-6.709a8.628,8.628,0,0,0,1.17,4.3,8.465,8.465,0,0,0,2.731,2.759,11.546,11.546,0,0,0,3.8,1.49,21.222,21.222,0,0,0,4.37.447,22.026,22.026,0,0,0,4.3-.421,10.923,10.923,0,0,0,3.751-1.468,7.789,7.789,0,0,0,3.676-7.007A5.978,5.978,0,0,0,404.1,104.459Zm14.014-24.23L404.7,115.713h7.853l2.78-7.9H428.6l2.682,7.9h8.1L426.12,80.229ZM417.372,102l4.621-13.023h.1L426.566,102Zm46.415-8.5a10.763,10.763,0,0,0-3.627-3.031,11.126,11.126,0,0,0-5.217-1.142,10.077,10.077,0,0,0-4.374.943A7.732,7.732,0,0,0,447.29,93.3h-.1V90.02h-6.711v34.689h7.061V112.535h.1a8.332,8.332,0,0,0,3.307,2.856,9.98,9.98,0,0,0,4.4.968,10.62,10.62,0,0,0,4.945-1.094,10.433,10.433,0,0,0,3.529-2.931,12.684,12.684,0,0,0,2.115-4.223,17.772,17.772,0,0,0,.694-4.969,19.665,19.665,0,0,0-.694-5.244A12.855,12.855,0,0,0,463.786,93.5Zm-4.519,12.475a7.543,7.543,0,0,1-1.021,2.608,5.986,5.986,0,0,1-7.678,1.816,5.577,5.577,0,0,1-1.914-1.816,7.875,7.875,0,0,1-1.044-2.608,14.315,14.315,0,0,1-.321-3.03,15.762,15.762,0,0,1,.295-3.082,7.749,7.749,0,0,1,1.021-2.634,5.754,5.754,0,0,1,1.889-1.865,5.451,5.451,0,0,1,2.908-.718,5.354,5.354,0,0,1,2.856.718,5.994,5.994,0,0,1,1.914,1.889,8.1,8.1,0,0,1,1.066,2.661,14.177,14.177,0,0,1,.322,3.032A15.438,15.438,0,0,1,459.268,105.974ZM494.052,97.9a12.856,12.856,0,0,0-2.137-4.4,10.807,10.807,0,0,0-3.627-3.031,11.136,11.136,0,0,0-5.22-1.142,10.076,10.076,0,0,0-4.372.943,7.751,7.751,0,0,0-3.281,3.031h-.1V90.02h-6.71v34.689h7.055V112.535h.1a8.351,8.351,0,0,0,3.305,2.856,10,10,0,0,0,4.4.968,10.641,10.641,0,0,0,4.945-1.094,10.461,10.461,0,0,0,3.527-2.931,12.627,12.627,0,0,0,2.112-4.223,17.692,17.692,0,0,0,.7-4.969A19.553,19.553,0,0,0,494.052,97.9Zm-6.659,8.076a7.458,7.458,0,0,1-1.018,2.608,5.672,5.672,0,0,1-1.89,1.816,5.751,5.751,0,0,1-7.7-1.816,7.912,7.912,0,0,1-1.044-2.608,14.372,14.372,0,0,1-.322-3.03,15.832,15.832,0,0,1,.3-3.082,7.728,7.728,0,0,1,1.018-2.634,5.815,5.815,0,0,1,1.889-1.865,5.447,5.447,0,0,1,2.907-.718,5.35,5.35,0,0,1,2.856.718,5.964,5.964,0,0,1,1.913,1.889,8.015,8.015,0,0,1,1.07,2.661,14.173,14.173,0,0,1,.322,3.032A15.465,15.465,0,0,1,487.393,105.974Z" transform="translate(-262.273 -80.229)" fill="#fff" fill-rule="evenodd"/></g></g></svg>