<svg width="168" height="73" viewBox="0 0 168 73" fill="none" xmlns="http://www.w3.org/2000/svg">
<path d="M145.323 1.75924L130.521 5.61815L119.817 3.01701L105.485 6.66206L100.744 2.34964L84.0763 1.45117L72.9016 12.0098L42.3295 16.365L37.033 10.29L31.7794 10.5724L32.558 16.2795L33.6875 27.129L26.7396 34.6074L33.1912 39.4418L8.85668 62.3816L1.21579 64.2383L3.42335 68.5251L22.1192 72.2386L117.532 41.6664L139.265 21.2251L165.14 3.17102L145.323 1.75924Z" fill="white"/>
<path d="M83.8008 0.698242L101.045 1.62747L105.686 5.85007L119.812 2.25641L130.514 4.85671L145.254 1.01399L145.375 1.02256L167.265 2.58239L139.73 21.7959L117.911 42.3142L117.753 42.3647L22.1628 73.0001L2.93224 69.1805L0.134277 63.7472L8.49478 61.7159L32.0515 39.5094L25.6453 34.7092L32.9183 26.8767L31.8248 16.3711L30.94 9.88362L37.3496 9.54134L42.6196 15.5856L72.5671 11.3194L83.8008 0.698242ZM100.443 3.06923L84.3519 2.20162L73.2371 12.7038L42.0377 17.148L36.7148 11.0422L32.6171 11.262L33.2905 16.2008L34.4541 27.3824L27.8357 34.5065L34.3326 39.3751L9.21609 63.0507L2.29479 64.7329L3.91195 67.8731L22.073 71.4805L117.146 41.0196L138.794 20.6553L138.838 20.6245L163.007 3.75974L145.381 2.50453L130.516 6.37973L119.821 3.77859L105.283 7.47581L100.443 3.06923Z" fill="white"/>
</svg>
