<svg width="273" height="95" viewBox="0 0 273 95" fill="none" xmlns="http://www.w3.org/2000/svg">
<path d="M50.114 23.5215L82.1579 18.8668L96.7808 13.4335L102.043 2.93469L109.547 1.57422L121.8 5.63853L127.173 13.9725L147.307 17.3181L152.466 22.9567L165.438 24.8905L184.655 19.808L194.222 20.9888L191.073 27.0211L197.61 27.9281L209.178 24.5996L218.873 25.943L222.244 29.0832L229.517 30.0843L237.936 27.9366L249.924 29.5965L251.781 32.3175L271.084 35.9711L259.242 51.3556L250.189 57.559L252.628 61.4094L248.803 65.525L234.12 69.2642L228.593 76.289L219.01 72.875L228.909 60.5965L224.109 57.9611L213.816 59.7751L204.943 57.8499L201.982 52.7931L194.829 51.809L182.277 56.19L168.595 56.1985L157.617 65.448L146.827 67.6556L117.727 70.6247L101.341 75.4676L84.374 73.1231L66.6194 78.6848L53.0489 76.811L34.8065 83.6476L38.1521 86.2145L33.5487 90.2959L22.6906 93.2992L11.901 90.0478L3.6611 91.6221L1.34232 80.6614L50.114 23.5215Z" fill="white"/>
<path d="M109.6 0.816406L122.277 5.02104L127.615 13.2994L147.677 16.6364L152.832 22.27L165.396 24.143L184.604 19.063L195.364 20.391L192.208 26.4378L197.556 27.1796L209.124 23.8512L219.204 25.2476L222.575 28.3878L229.474 29.3376L237.893 27.1899L250.347 28.914L252.216 31.6521L272.397 35.4717L259.753 51.9001L251.19 57.7646L253.552 61.4944L249.194 66.1842L234.544 69.9148L228.843 77.1587L217.785 73.2227L227.784 60.821L223.981 58.7332L213.798 60.5301L204.472 58.5056L201.528 53.477L194.904 52.5657L182.401 56.9295L168.863 56.9381L157.948 66.1354L146.938 68.3883H146.902L117.87 71.3505L101.398 76.2192L84.4362 73.8755L66.6816 79.4372L53.1325 77.5659L36.3063 83.872L39.307 86.1746L33.9088 90.961L22.681 94.0662L11.8606 90.8053L3.08936 92.4815L0.546387 80.4606L0.781697 80.1851L49.7331 22.8347L81.9737 18.1518L96.2518 12.8468L101.549 2.27871L109.6 0.816406ZM121.322 6.25489L109.495 2.33091L102.538 3.59213L97.3111 14.0216L82.3433 19.5832L50.4963 24.2097L2.13959 80.8636L4.23421 90.7642L11.9427 89.2917L22.7016 92.5337L33.19 89.6322L36.9985 86.2558L33.3064 83.4245L52.9648 76.0574L66.5567 77.9339L84.3113 72.3722L101.285 74.7175L117.584 69.9002L117.652 69.8934L146.716 66.9277L157.287 64.7646L168.324 55.463L182.15 55.4544L194.752 51.0564L202.435 52.1131L205.412 57.1999L213.828 59.0258L224.235 57.1922L230.032 60.3752L220.233 72.5296L228.341 75.4183L233.696 68.6125L248.413 64.8648L251.703 61.3233L249.189 57.3522L258.731 50.8134L269.769 36.4702L251.343 32.9826L249.498 30.2797L237.977 28.6839L229.558 30.8315L221.912 29.7791L218.54 26.6389L209.231 25.3486L197.663 28.677L189.936 27.6049L193.077 21.5872L184.706 20.5536L165.479 25.6386L165.329 25.6164L152.099 23.6484L146.935 18.0012L126.731 14.6436L121.322 6.25489Z" fill="white"/>
</svg>
