<svg width="285" height="145" viewBox="0 0 285 145" fill="none" xmlns="http://www.w3.org/2000/svg">
<path d="M27.4397 42.1193L47.0853 35.103L62.0933 18.957L74.3974 15.1237L78.3676 16.9377L72.6861 23.047L86.2823 22.7903L83.1506 27.7702L71.1631 32.5874L68.0913 35.8902L72.8145 36.5405L91.5445 31.3981L96.9949 32.1511L101.179 36.0357L106.15 36.7202L116.718 29.1734L116.683 25.092L118.591 23.0385L131.52 24.2791L134.9 20.6427L119.002 17.3484L119.55 10.4862L155.547 3.92338L169.254 5.0614L176.347 1.35645L189.909 3.23031L194.555 11.376L188.763 17.6051L155.795 23.4663L149.36 29.798L148.12 35.0603L155.778 42.3076L162.246 43.206L165.489 39.715L160.475 30.3884L167.551 24.1508L178.606 25.2032L190.021 31.3553L196.806 32.2965L204.712 30.996L214.86 36.2667L248.521 40.3995L254.151 49.0586L263.187 52.0876L261.227 55.57L253.184 57.5551L250.472 60.0878L265.009 62.09L271.375 60.045L280.573 68.978L283.97 78.1676L281.617 80.7088L271.187 83.3014L267.944 86.7839L246.117 91.8322L239.006 99.4817L232.17 101.347L219.241 99.5672L202.598 105.702L204.78 116.697L196.532 119.683L190.979 113.104L181.986 116.903L180.095 127.17L172.411 132.296L164.856 132.193L138.733 143.641L129.723 142.529L122.365 128.479L127.892 121.455L142.575 117.715L146.4 113.6L143.961 109.749L153.014 103.546L164.856 88.1615L145.553 84.5079L143.696 81.7869L131.708 80.127L123.289 82.2747L116.016 81.2736L112.645 78.1334L102.95 76.79L91.3819 80.1185L84.8448 79.2114L87.9936 73.1792L78.4275 71.9984L59.2097 77.0809L46.2382 75.1471L41.0787 69.5085L20.9453 66.1629L15.5719 57.8289L3.31911 53.7646L10.3097 52.5068L27.4397 42.1193Z" fill="white"/>
<path d="M176.214 0.594727L190.368 2.55071L195.462 11.4811L189.13 18.2869L188.888 18.3296L156.145 24.148L150.025 30.1709L148.93 34.8145L156.109 41.6083L161.965 42.4212L164.59 39.5975L159.548 30.2205L167.301 23.3865L178.822 24.4834L190.25 30.6441L196.793 31.5519L204.831 30.2299L215.079 35.552L248.948 39.7105L254.626 48.438L264.262 51.6681L261.71 56.203L253.544 58.218L252.102 59.564L264.941 61.3326L271.568 59.2037L281.203 68.5611L284.814 78.3308L282.005 81.3649L271.574 83.9575L268.323 87.4451L246.495 92.4934L239.393 100.132L232.206 102.092L219.311 100.317L203.431 106.171L205.613 117.169L196.287 120.545L190.753 113.987L182.624 117.421L180.748 127.603L172.62 133.028L164.995 132.924L138.833 144.39L129.24 143.206L121.481 128.393L127.458 120.797L142.175 117.05L145.466 113.508L142.951 109.537L152.493 102.998L163.531 88.655L145.106 85.1674L143.261 82.4644L131.74 80.8686L123.32 83.0163L115.674 81.9639L112.303 78.8237L102.994 77.5333L91.4252 80.8618L83.6987 79.7897L86.8398 73.7728L78.4682 72.7392L59.241 77.8243L45.8613 75.8297L40.6975 70.1825L20.4932 66.825L15.0838 58.4354L0.33252 53.5419L10.0347 51.7964L27.1116 41.4431L27.1818 41.4183L46.6579 34.4628L61.677 18.3048L74.4364 14.3295L79.5899 16.6842L74.3945 22.2707L87.6193 22.0209L83.6354 28.3526L71.5786 33.1973L69.5832 35.3424L72.7542 35.7788L91.4842 30.6364L97.3146 31.4415L101.499 35.3261L105.948 35.9388L115.966 28.7847L115.933 24.7932L118.287 22.2588L131.216 23.4994L133.46 21.0857L118.204 17.9249L118.849 9.85107L155.498 3.16936L155.594 3.17704L169.089 4.29709L176.214 0.594727ZM189.449 3.90948L176.479 2.11777L169.405 5.81243L155.582 4.66501L120.234 11.108L119.783 16.7553L136.323 20.183L131.807 25.0422L118.879 23.8015L117.417 25.3742L117.452 29.5454L106.336 37.4849L100.844 36.7285L96.66 32.8439L91.5895 32.1432L72.8594 37.2856L66.5842 36.4214L70.7323 31.9609L82.6506 27.1693L84.93 23.5448L70.9625 23.8083L77.13 17.1762L74.3431 15.903L62.4942 19.5943L47.5042 35.7352L27.7593 42.7865L10.5763 53.2057L6.29808 53.9758L16.0524 57.211L21.3899 65.4893L41.4531 68.8263L46.6083 74.4599L59.1717 76.3329L78.3801 71.2529L89.1406 72.5809L85.9842 78.6285L91.3319 79.3704L102.9 76.042L112.98 77.4384L116.351 80.5786L123.25 81.5283L131.67 79.3807L131.812 79.4003L144.123 81.1048L145.992 83.8429L166.173 87.6624L153.53 104.091L144.962 109.955L147.324 113.685L142.966 118.375L128.315 122.106L123.237 128.56L130.196 141.845L138.622 142.886L164.706 131.454L172.192 131.556L179.426 126.73L181.333 116.377L191.19 112.213L196.762 118.815L203.934 116.218L201.753 105.226L219.157 98.8089L232.12 100.593L238.61 98.8226L245.73 91.162L267.558 86.1137L270.796 82.6364L281.226 80.0438L283.123 77.9954L279.941 69.3885L271.179 60.8799L265.074 62.8411L248.837 60.6053L252.82 56.8858L260.74 54.9315L262.109 52.5023L253.674 49.6787L248.091 41.0923L214.635 36.9852L204.587 31.7658L196.814 33.0407L189.787 32.0661L178.388 25.9218L167.798 24.9138L161.399 30.5542L166.386 39.8302L162.524 43.9878L155.443 43.0047L147.306 35.3039L148.693 29.4231L155.441 22.7824L155.666 22.7422L188.392 16.9238L193.649 11.2706L189.449 3.90948Z" fill="white"/>
</svg>
