<svg width="158" height="79" viewBox="0 0 158 79" fill="none" xmlns="http://www.w3.org/2000/svg">
<path d="M144.761 16.5955L111.125 10.4776L96.2628 3.18753L92.5493 8.44117L80.8185 8.50961L71.8941 6.33629L57.2198 7.21761L40.7487 0.817383L14.2151 5.83147L14.4462 8.80909L10.4503 14.5933L22.7973 22.4823L46.2505 27.5562L37.617 31.8516L16.2858 28.8996L10.9637 25.2118L1.46606 31.1243L28.3761 58.6589L64.296 60.8066L86.7994 47.5184L90.6412 48.8276L84.7886 63.0826L72.6727 77.2862L104.717 72.6315L119.34 67.1982L124.602 56.6995L139.096 54.0812L156.226 43.6937L139.25 26.0589L144.761 16.5955Z" fill="white"/>
<path d="M40.8188 0.0546875L57.3327 6.47202L71.9565 5.59412L80.9006 7.77258L92.1626 7.7067L96.0198 2.25028L111.354 9.77137L145.922 16.0587L140.163 25.9482L157.392 43.8457L139.359 54.7808L125.095 57.358L119.867 67.7866L104.9 73.3483L70.8451 78.2947L84.1529 62.6938L89.6641 49.2713L86.8832 48.3232L64.4765 61.5507L64.2523 61.537L28.0483 59.3722L0.299805 30.9794L10.9851 24.3276L16.5604 28.1908L37.4929 31.0897L44.0446 27.8297L22.5123 23.1716L9.41155 14.8009L13.6898 8.60428L13.4279 5.22962L40.8188 0.0546875ZM57.1034 7.96083L56.9537 7.90265L40.6785 1.57859L15.0023 6.4318L15.2026 9.01242L11.4916 14.3842L23.0847 21.7915L48.458 27.2804L37.7428 32.6111L16.0094 29.6035L10.9406 26.0953L2.63057 31.2686L28.702 57.945L64.1137 60.0627L86.7147 46.7146L91.6175 48.3849L85.4218 63.4707L85.3456 63.5563L74.4978 76.2729L104.531 71.9091L118.809 66.6041L124.106 56.0352L138.829 53.3758L155.056 43.5359L138.332 26.1664L143.594 17.129L110.891 11.1806L110.799 11.1353L96.4998 4.119L92.9301 9.16729L80.7303 9.23831L71.8256 7.07011L57.1034 7.96083Z" fill="white"/>
</svg>
