<svg width="157" height="101" viewBox="0 0 157 101" fill="none" xmlns="http://www.w3.org/2000/svg">
<path d="M29.1343 87.3387L30.7857 99.3776L30.0071 93.6705L35.2608 93.3881L40.5572 99.4632L71.1293 95.108L82.304 84.5493L98.972 85.4478L107.905 82.607L104.73 68.66L85.8806 67.4621L85.41 64.4417L96.7644 61.9346L96.5334 58.9485L83.2025 57.1088L89.4572 50.3749L101.051 47.6112L105.466 43.1618L101.967 41.6217L107.614 37.7627L124.059 37.5659L127.85 34.2289L127.225 28.864L145.733 11.3062L151.354 10.1597L154.743 6.12104L152.15 4.50386L154.811 1.62891L125.711 4.59799L109.325 9.44094L92.3579 7.09646L74.6032 12.6581L61.0327 10.7843L42.7904 17.6209L46.136 20.1878L41.5326 24.2692L30.6745 27.2725L23.6668 38.1905L14.6483 39.7649L16.8473 50.1439L1.90778 72.9468L16.6505 76.0442L18.764 84.0701L29.1343 87.3387Z" fill="white"/>
<path d="M40.2653 100.248L34.9423 94.1417L30.8446 94.3616L31.5155 99.2773L30.0609 99.4767L28.4728 87.8998L18.1597 84.6484L16.0583 76.6695L0.701172 73.4429L16.0634 49.9982L13.7694 39.1726L23.2209 37.5229L30.2038 26.6391L41.1688 23.6059L44.9773 20.2295L41.2903 17.3982L60.9488 10.0311L74.5406 11.9075L92.2952 6.34587L109.269 8.69118L125.568 3.87391L125.636 3.86706L156.675 0.701172L153.295 4.3522L155.851 5.94627L151.753 10.8303L146.086 11.9863L127.999 29.1453L128.625 34.5273L124.341 38.299L107.845 38.4967L103.475 41.4829L106.743 42.9212L101.426 48.2801L89.8421 51.0387L84.7014 56.573L97.2186 58.3005L97.5446 62.5154L86.2407 65.0114L86.5137 66.7654L105.322 67.9633L108.769 83.1082L99.0668 86.192L82.5803 85.303L71.4655 95.8051L71.2336 95.8385L40.2653 100.248ZM35.5798 92.6324L40.8497 98.6767L70.7972 94.4104L82.0318 83.7953L98.8811 84.7031L107.041 82.108L104.139 69.3589L85.2482 68.161L84.5799 63.8742L95.9848 61.356L95.8487 59.5986L81.7041 57.6468L89.0729 49.7133L89.2894 49.662L100.68 46.947L104.193 43.4072L100.462 41.7652L107.386 37.0335L123.781 36.8376L127.078 33.9352L126.455 28.5875L145.383 10.6309L150.959 9.49377L153.638 6.30051L151.009 4.66025L152.951 2.56135L125.857 5.32592L109.385 10.1945L92.4236 7.85095L74.669 13.4126L61.1199 11.5413L44.2937 17.8474L47.2944 20.15L41.8961 24.9364L31.145 27.9064L24.115 38.8586L15.5295 40.3577L17.6335 50.29L3.11665 72.4512L17.2493 75.4203L19.3747 83.4932L29.8025 86.7798L30.6427 92.9028L35.5798 92.6324Z" fill="white"/>
</svg>
