<svg width="43" height="77" viewBox="0 0 43 77" fill="none" xmlns="http://www.w3.org/2000/svg">
<path d="M34.6475 46.3007L41.5953 38.8224L40.4659 27.9728L38.8145 15.9339L28.4441 12.6653L26.3306 4.63942L11.5879 1.54199L7.37815 7.97642L12.7516 48.4826L1.32019 60.7782L9.12366 75.9316L16.7645 74.0749L41.0991 51.1351L34.6475 46.3007Z" fill="white"/>
<path d="M8.73848 76.7838L0.433594 60.6557L11.9848 48.2361L6.62076 7.80262L11.2549 0.71875L26.9337 4.01298L29.0592 12.086L39.4869 15.3725L41.2042 27.8966L42.3678 39.0781L35.7494 46.2022L42.2463 51.0708L17.1238 74.7439L8.73848 76.7838ZM2.21504 60.9013L9.51712 75.0802L16.4059 73.4065L39.9626 51.2L33.5564 46.3999L40.8294 38.5673L39.7359 28.0625L38.1487 16.4985L27.8356 13.2471L25.7341 5.26822L11.9283 2.36758L8.14295 8.15257L13.5258 48.7315L2.21504 60.9013Z" fill="white"/>
</svg>
