<svg width="121" height="57" viewBox="0 0 121 57" fill="white" stroke="white" xmlns="http://www.w3.org/2000/svg">
<path d="M0 51.9808L15.5865 56.4729L25.3797 53.398L34.9668 55.2876L49.0942 53.4753L56.1837 49.3784L74.0362 50.4262L78.9885 46.9734L84.3614 47.2912L86.7561 52.0925L93.2705 50.598L90.3352 47.6434L95.4334 47.0851L102.265 48.6826L116.058 46.8274L118.273 44.4482L111.518 41.6826L112.84 38.2899L120.247 38.6764L112.865 24.5732L103.252 21.1462L113.183 8.82095L108.368 6.17552L98.0426 7.99639L89.1421 6.06385L86.1724 0.987759L78.9971 0L66.406 4.39761L52.6819 4.40618L41.67 13.6909L30.847 15.9069L28.1777 18.7928L30.7783 20.4161L27.3795 24.4702L21.7405 25.6211L3.17566 43.2458L3.80222 48.6311L0 51.9808Z" fill="#fff"/>
</svg>
