<svg width="95" height="51" viewBox="0 0 95 51" fill="none" xmlns="http://www.w3.org/2000/svg">
<path d="M9.53188 5.35961L19.5001 6.7372L21.2627 11.3149L29.7849 12.4443L30.4523 14.2754L35.4664 14.9599L54.7355 10.3138L64.8321 11.7085L74.0987 8.11478L80.3535 1.38086L87.4724 8.92764L93.0256 10.2368L91.3742 13.3599L66.7744 17.9033L62.8641 24.6116L48.2241 35.9489L59.3731 37.4976L52.3226 45.6604L42.9619 49.8531L36.1766 48.9204L38.6494 46.2594L29.8363 43.8208L31.4706 39.2688L19.3974 40.3383L16.5139 37.412L20.9804 32.6118L15.2133 28.3679L19.791 23.4394L17.4038 16.0124L1.65141 13.8305L9.53188 5.35961Z" fill="white"/>
<path d="M80.3495 0.304688L87.8561 8.26218L94.1211 9.73901L91.8579 14.0172L67.2402 18.5641L63.4275 25.1047L50.0563 35.4579L60.8143 36.9519L52.773 46.2682L43.0734 50.6114L34.677 49.4571L37.2893 46.6463L28.8791 44.319L30.3928 40.1041L19.1154 41.1018L15.4934 37.4225L19.8778 32.7113L14.1116 28.4682L18.9571 23.2488L16.8436 16.6723L0.147461 14.3621L9.25238 4.5752L20.0335 6.06489L21.7953 10.64L30.326 11.7703L30.9943 13.6031L35.4316 14.2089L54.7016 9.56276L64.7469 10.9506L73.6781 7.48696L80.3495 0.304688ZM91.9298 10.735L87.0886 9.59356L80.3572 2.45834L74.5226 8.74049L64.9206 12.4642L54.7726 11.0627L35.5044 15.7088L29.9136 14.9456L29.247 13.1162L20.7334 11.9877L18.9699 7.40738L9.81453 6.14189L3.15848 13.2968L17.9671 15.3503L20.6273 23.6278L16.3174 28.268L22.0853 32.512L17.5367 37.4011L19.6818 39.5787L32.5558 38.4382L30.8009 43.3273L40.017 45.8771L37.6837 48.3884L42.8578 49.0995L51.8771 45.06L57.9368 38.0437L46.3967 36.4402L62.3057 24.119L66.3144 17.243L90.8962 12.703L91.9298 10.735Z" fill="white"/>
</svg>
