<svg xmlns="http://www.w3.org/2000/svg" width="133.279" height="160.148" viewBox="0 0 133.279 160.148"><g transform="translate(-364.488 0)"><path d="M211.139,302.562a66.637,66.637,0,1,1-33.648-57.916A66.74,66.74,0,0,1,211.139,302.562Z" transform="translate(286.628 -209.057)" fill="#363636"/><path d="M218.429,200.3a66.662,66.662,0,0,1-129.189.442c2.9-1.222,5.9-2.188,8.906-3.153a250.187,250.187,0,0,0,24.727-9.625,11.489,11.489,0,0,0,3.554-2.7,22.681,22.681,0,0,1,6.025-4.657,1.414,1.414,0,0,0,.882-1.27c.122-2.576.279-5.151.336-7.729a4.066,4.066,0,0,0-.46-1.941,40.152,40.152,0,0,1-4.166-11.575,1.419,1.419,0,0,0-.164-.3c-1.65.739-2.647-.3-3.2-1.54-1.011-2.258-1.765-4.633-2.617-6.962-.432-1.177-.75-2.4-1.294-3.534a12.889,12.889,0,0,1-1.068-7.287c.225-1.889.924-2.475,2.842-2.536a4.267,4.267,0,0,0,.462-.061,70.21,70.21,0,0,1-2.349-10.2,38.926,38.926,0,0,1,1.087-17.306l-.719,1.018c-.39-2.033.887-4.589,3.791-7.871l-1.828.739a4.023,4.023,0,0,1,.434-.554,14.447,14.447,0,0,1,7.914-3.632c.275-.03.706-.253.758-.462.59-2.38,2.325-3.774,4.234-5.018a12.868,12.868,0,0,1,2.4-1.238l-.891,1.15c5-2.129,10.2-2.114,15.432-1.73a21.391,21.391,0,0,0-7,.813c1.774.081,3.55.124,5.321.251a69,69,0,0,1,13.508,2.3c8.45,2.347,14.024,7.862,17.6,15.721a34.121,34.121,0,0,1,3.075,16.31,40.941,40.941,0,0,1-1.406,8.442c-.1.381-.194.767-.3,1.2a1.48,1.48,0,0,0,.388.068c2.133-.325,3.423,1,3.048,3.142a3.193,3.193,0,0,1-.185.71,44.72,44.72,0,0,0-2.281,8.8,58.059,58.059,0,0,1-2.066,6.574,6.061,6.061,0,0,1-.695,1.294c-1.081,1.686-1.606,1.807-3.351.723-.131.59-.251,1.138-.37,1.689a42.139,42.139,0,0,1-3.5,10.165c-1.214,2.362-1.2,4.846-1.138,7.367,0,.244.061.488.078.739a2.879,2.879,0,0,0,1.479,2.412,21.707,21.707,0,0,1,4.4,3.872,16.346,16.346,0,0,0,6.94,4.785c8.738,3.293,17.393,6.812,26.074,10.255C215.392,199.013,216.9,199.678,218.429,200.3Z" transform="translate(277.351 -90.567)" fill="#fff"/></g></svg>