<svg xmlns="http://www.w3.org/2000/svg" width="348.443" height="115" viewBox="0 0 348.443 115"><g transform="translate(-189 -363)"><rect width="114" height="115" rx="22" transform="translate(189 363)" fill="#ffb000"/><g transform="translate(212.919 380.712)"><path d="M169.476,56.838a2.686,2.686,0,0,0,2.693-2.638V40.266a11.2,11.2,0,0,1,10.879-11.3,10.343,10.343,0,0,1,7.574,3.144,10.988,10.988,0,0,1,3.093,8.019V54.205a2.693,2.693,0,1,0,5.386,0V40.132A16.023,16.023,0,0,0,182.839,23.7a16.469,16.469,0,0,0-16.059,16.57V54.2A2.688,2.688,0,0,0,169.476,56.838Z" transform="translate(-150.413 -23.694)" fill="#fff"/><rect width="21.549" height="5.387" transform="translate(21.754 18.195)" fill="#4c2f2f"/><path d="M166.052,100.75A9.059,9.059,0,0,0,158.526,96h-8.08v5.387h8.08a3.646,3.646,0,0,1,2.985,2.1,4.581,4.581,0,0,1,.053,4.254L137.589,151.1a3.421,3.421,0,0,1-6.079,0L107.536,107.74a4.574,4.574,0,0,1,.055-4.254,3.646,3.646,0,0,1,2.985-2.1h7.551V96h-7.551a9.093,9.093,0,0,0-7.529,4.755,9.51,9.51,0,0,0-.126,9.338L126.9,153.55a8.672,8.672,0,0,0,15.3.073l23.975-43.545A9.479,9.479,0,0,0,166.052,100.75Z" transform="translate(-101.759 -77.8)" fill="#4c2f2f"/></g><g transform="translate(14220 10343.28)"><path d="M29.883,419.324c-1.724-4.206,4.687-6.758,6.341-2.477L43.457,434.9l7.035-18.058c1.719-4.275,8.13-1.793,6.475,2.477l-10.27,26.2c-1.1,2.685-5.375,2.755-6.411,0Z" transform="translate(-13914.591 -10345.251)" fill="#4c2f2f"/><path d="M101.218,400.531c-4.622,0-4.622-6.891,0-6.891h.064c4.622,0,4.622,6.891,0,6.891Zm-3.468,6.961c0-4.617,6.891-4.617,6.891,0v26.193c0,4.617-6.891,4.617-6.891,0Z" transform="translate(-13948.982 -10334.662)" fill="#4c2f2f"/><path d="M136.364,416.514a13.411,13.411,0,0,1,7.07-1.883c4.622,0,4.622,6.891,0,6.891-4.221,0-6.683,3.785-6.753,9.2v13.55c0,4.617-6.891,4.617-6.891,0V418.074C129.79,414.057,135.012,413.536,136.364,416.514Z" transform="translate(-13965.149 -10345.245)" fill="#4c2f2f"/><path d="M179.409,410.622v16.131c0,2.135,1.313,3.171,3.517,3.171,4.617,0,4.617,6.891,0,6.891-6.758,0-10.27-3.651-10.4-9.993v-16.2H171.9c-4.617,0-4.617-6.891,0-6.891h.619v-7.258c0-4.617,6.891-4.617,6.891,0v7.238h3.518c4.617,0,4.617,6.891,0,6.891Z" transform="translate(-13984.651 -10334.345)" fill="#4c2f2f"/><path d="M215.755,418.108c.069-4.617,7.03-4.548,6.961.069l-.064,16.75a6.229,6.229,0,0,0,6.406,5.945h.069c3.468,0,6.411-2.551,6.411-5.861v-16.9c.069-4.617,7.03-4.548,6.961.069l-.064,16.75a13.087,13.087,0,0,1-13.307,12.822c-7.446,0-13.376-5.861-13.376-12.752V418.108Z" transform="translate(-14008.522 -10345.279)" fill="#4c2f2f"/><path d="M308.207,424.583c0,4.617-6.891,4.617-6.891,0,0-2.135-2.829-3.032-4.954-3.032s-4.954.9-4.954,3.032c0,3.468,17.924,2.477,17.786,13.233,0,4.895-4.895,9.908-12.822,9.908s-12.822-5.033-12.822-9.908c0-4.617,6.9-4.617,6.9,0,0,2.279,3.513,3.037,5.856,3.037h.069c2.413,0,5.945-.758,5.945-2.973v-.069c0-3.513-17.647-2.413-17.786-13.233,0-5.033,4.756-9.908,11.786-9.908h.069C303.451,414.66,308.207,419.55,308.207,424.583Z" transform="translate(-14042.733 -10345.273)" fill="#4c2f2f"/><path d="M368.659,437.256c2.69-3.721,8.343.277,5.653,4a14.78,14.78,0,0,1-12.752,6.48c-8.08,0-14.957-6.961-15.16-16.136v-.812c.2-9.175,7.08-16.136,15.091-16.136h.069c8.065,0,15.165,7.169,15.165,16.542a3.409,3.409,0,0,1-3.443,3.443h-19.44c1.164,3.542,4.082,6.208,7.719,6.208h.069A7.927,7.927,0,0,0,368.659,437.256Zm-14.818-9.512h15.992c0-1.655-3.517-6.2-8.274-6.2-3.636,0-6.554,2.665-7.719,6.2Z" transform="translate(-14074.445 -10345.264)" fill="#4c2f2f"/><path d="M424.3,383.293c0-4.617,6.9-4.617,6.9,0v43.424c0,4.617-6.9,4.617-6.9,0Z" transform="translate(-14113.753 -10327.694)" fill="#4c2f2f"/></g></g></svg>