<svg xmlns="http://www.w3.org/2000/svg" xmlns:xlink="http://www.w3.org/1999/xlink" width="354.791" height="103.146" viewBox="0 0 354.791 103.146"><defs><clipPath id="a"><path d="M286.033,96.7a.981.981,0,0,0,1.8,0l2.152-4.956a1.382,1.382,0,0,0-.2-1.439l-1.888-2.165a1.241,1.241,0,0,0-1.928,0L284.083,90.3a1.4,1.4,0,0,0-.207,1.439Z" transform="translate(-283.763 -87.677)" fill="none"/></clipPath><clipPath id="b"><path d="M277.257,63.337,269.384,53.1a4.569,4.569,0,0,1-.915-3.3l3.684-32.934a2.157,2.157,0,0,0-3.5-1.936L246.26,33.08a2.83,2.83,0,0,0-.955,2.944l5.862,21.28a3.05,3.05,0,0,1-.88,3.081c-3.838,3.45-9.339,8.881-9.339,8.881a1.782,1.782,0,0,0,1.47,3.151l9.436-2.79a.977.977,0,0,1,1.18,1.294l-9.308,24.206a3.521,3.521,0,0,1-1.426,1.721l-3.156,1.945c-1.158.656-3.349-.255-1.127-4.3a29.429,29.429,0,0,1,1.73-2.421,2.2,2.2,0,0,0-1.813-3.472h-8.169a2.2,2.2,0,0,0-1.813,3.473,29.425,29.425,0,0,1,1.73,2.421c2.227,4.045.031,4.956-1.122,4.3l-3.164-1.95a3.521,3.521,0,0,1-1.426-1.725l-9.313-24.206a.981.981,0,0,1,1.184-1.3l9.436,2.795a1.782,1.782,0,0,0,1.474-3.151s-5.506-5.435-9.344-8.881a3.054,3.054,0,0,1-.88-3.081l5.862-21.275a2.821,2.821,0,0,0-.942-2.944L199.023,14.912a2.157,2.157,0,0,0-3.521,1.937L199.2,49.8a4.569,4.569,0,0,1-.915,3.3l-7.922,10.29a6.949,6.949,0,0,0-1.215,5.854l2.671,11.2a7.535,7.535,0,0,0,1.514,3.05l27.019,32.841a3.314,3.314,0,0,0,4.436.634l7.315-5a3.081,3.081,0,0,1,3.473,0l7.31,5a3.314,3.314,0,0,0,4.45-.634l26.777-32.744a7.526,7.526,0,0,0,1.474-2.922l2.9-11.364A6.976,6.976,0,0,0,277.257,63.337Z" transform="translate(-188.947 -14.41)" fill="none"/></clipPath><clipPath id="e"><path d="M207.7,306.423v-2.6a1.422,1.422,0,0,0-1.417-1.426H199.6a5.427,5.427,0,0,0-5.409,5.449h0v7.1a.823.823,0,0,1-.819.823h-1.32a1.422,1.422,0,0,0-1.417,1.426v2.6a1.422,1.422,0,0,0,1.417,1.426h1.32a.823.823,0,0,1,.819.823v15.7a1.426,1.426,0,0,0,1.417,1.43h3.75a1.426,1.426,0,0,0,1.417-1.43V322.029a.823.823,0,0,1,.819-.823h3.521a1.422,1.422,0,0,0,1.413-1.426v-2.592a1.422,1.422,0,0,0-1.413-1.426h-3.521a.823.823,0,0,1-.819-.823v-5.673a1.422,1.422,0,0,1,1.413-1.426h4.106A1.422,1.422,0,0,0,207.7,306.423Z" transform="translate(-190.63 -302.4)" fill="none"/></clipPath><clipPath id="f"><path d="M26.758,355.716H22a1.435,1.435,0,0,1-1.351-.977L13.6,333.829a1.439,1.439,0,0,1,1.351-1.9h3.754a1.43,1.43,0,0,1,1.36.995L23.589,343.9a.805.805,0,0,0,1.536,0l3.521-10.976a1.426,1.426,0,0,1,1.373-1.012H34.3a1.426,1.426,0,0,1,1.36.995l3.521,10.976a.81.81,0,0,0,1.54,0L44.244,332.9a1.426,1.426,0,0,1,1.36-.995h3.781a1.435,1.435,0,0,1,1.351,1.9l-7.073,20.91a1.435,1.435,0,0,1-1.32.995h-4.81a1.426,1.426,0,0,1-1.351-1l-3.257-9.7a.805.805,0,0,0-1.527,0L28.1,354.725A1.422,1.422,0,0,1,26.758,355.716Z" transform="translate(-13.527 -331.91)" fill="none"/></clipPath><clipPath id="g"><path d="M252.634,355.738h-4.758a1.435,1.435,0,0,1-1.351-.977l-7.042-20.91a1.439,1.439,0,0,1,1.351-1.9h3.772a1.426,1.426,0,0,1,1.356.995l3.521,10.976a.805.805,0,0,0,1.536,0l3.521-10.976a1.426,1.426,0,0,1,1.356-.995h4.287a1.422,1.422,0,0,1,1.356.995l3.521,10.976a.805.805,0,0,0,1.536,0l3.521-10.976a1.426,1.426,0,0,1,1.356-.995h3.816a1.439,1.439,0,0,1,1.351,1.9l-7.042,20.91a1.435,1.435,0,0,1-1.351.977h-4.81a1.426,1.426,0,0,1-1.351-.981l-3.257-9.7a.805.805,0,0,0-1.527,0l-3.292,9.713A1.426,1.426,0,0,1,252.634,355.738Z" transform="translate(-239.407 -331.95)" fill="none"/></clipPath><clipPath id="h"><path d="M127.828,342.492a11.822,11.822,0,0,1-3.556,8.71,13.079,13.079,0,0,1-17.855,0,12.473,12.473,0,0,1,0-17.442,12.973,12.973,0,0,1,17.855,0A11.883,11.883,0,0,1,127.828,342.492Zm-18.344,0a6.857,6.857,0,0,0,1.646,4.753,5.752,5.752,0,0,0,8.424,0,6.835,6.835,0,0,0,1.646-4.753,6.914,6.914,0,0,0-1.646-4.775,5.721,5.721,0,0,0-8.424,0,6.936,6.936,0,0,0-1.646,4.775Z" transform="translate(-102.861 -330.2)" fill="none"/></clipPath><clipPath id="i"><path d="M172.827,339.188h-3.75a1.426,1.426,0,0,1-1.417-1.43V303.82a1.426,1.426,0,0,1,1.417-1.43h3.75a1.426,1.426,0,0,1,1.413,1.43v33.92a1.426,1.426,0,0,1-1.413,1.448Z" transform="translate(-167.66 -302.39)" fill="none"/></clipPath><clipPath id="j"><path d="M334.319,302.956l-2.047,2.491a1.681,1.681,0,0,0-.224,1.672l1.994,4.841a1.448,1.448,0,0,0,2.733,0l1.989-4.841a1.7,1.7,0,0,0-.22-1.672l-2.051-2.491a1.355,1.355,0,0,0-2.174,0Z" transform="translate(-331.92 -302.41)" fill="none"/></clipPath><clipPath id="k"><path d="M337.527,355.716h-3.75a1.426,1.426,0,0,1-1.417-1.43V333.336a1.422,1.422,0,0,1,1.417-1.426h3.75a1.422,1.422,0,0,1,1.417,1.426v20.932a1.426,1.426,0,0,1-1.417,1.448Z" transform="translate(-332.36 -331.91)" fill="none"/></clipPath><clipPath id="l"><path d="M356.176,335.957v-2.641a1.422,1.422,0,0,1,1.413-1.426H373.8a1.421,1.421,0,0,1,1.413,1.426v3.208a1.422,1.422,0,0,1-.352.942l-9.9,11.311a.827.827,0,0,0,.612,1.373h8.882a1.422,1.422,0,0,1,1.417,1.426v2.672a1.426,1.426,0,0,1-1.417,1.43h-17.7a1.426,1.426,0,0,1-1.417-1.43v-3.521a1.443,1.443,0,0,1,.352-.942l9.621-11.034a.827.827,0,0,0-.616-1.369h-7.108A1.422,1.422,0,0,1,356.176,335.957Z" transform="translate(-355.34 -331.89)" fill="none"/></clipPath><clipPath id="m"><path d="M523.874,339.194a9.943,9.943,0,0,1-7.482-3.583,12.638,12.638,0,0,1-3.292-8.886,12.115,12.115,0,0,1,3.2-8.688,10.018,10.018,0,0,1,7.482-3.384,9.093,9.093,0,0,1,5.7,1.822.819.819,0,0,0,1.32-.647V303.346a.942.942,0,0,1,.937-.946h4.7a.942.942,0,0,1,.937.946v34.527a.942.942,0,0,1-.937.946H531.6a.827.827,0,0,1-.823-.832v-.26a.819.819,0,0,0-1.364-.612,8.261,8.261,0,0,1-5.541,2.077Zm-4.15-12.2a6.637,6.637,0,0,0,1.712,4.709,5.312,5.312,0,0,0,4,1.835,4.977,4.977,0,0,0,3.882-1.835,6.945,6.945,0,0,0,1.6-4.731,7.284,7.284,0,0,0-1.6-4.819,4.934,4.934,0,0,0-3.926-1.923,5.092,5.092,0,0,0-4,1.945,7.165,7.165,0,0,0-1.668,4.8Z" transform="translate(-513.1 -302.4)" fill="none"/></clipPath><clipPath id="n"><path d="M474.627,338.285l4.141.788a1.426,1.426,0,0,0,1.624-1.8l-1.109-3.869a1.421,1.421,0,0,0-1.1-1.008l-11.667-2.165a1.422,1.422,0,0,0-1.62,1.791l5.334,19.092a9.141,9.141,0,0,0-9.212,8.257,9.242,9.242,0,0,0,7.922,10.043,9.141,9.141,0,0,0,10.255-8.3,9.242,9.242,0,0,0-.44-3.781L473.7,339.319a.819.819,0,0,1,.929-1.034Z" transform="translate(-460.971 -330.208)" fill="none"/></clipPath><clipPath id="o"><path d="M428.544,332.368a10.957,10.957,0,0,0-7.02-2.17,17.6,17.6,0,0,0-9.625,2.724,1.166,1.166,0,0,0-.339,1.637l1.646,2.4a1.127,1.127,0,0,0,1.527.326,13.062,13.062,0,0,1,2.337-1.091,10.694,10.694,0,0,1,3.618-.687c2.275,0,3.569.933,3.9,2.782.031.321.022,1.144-.88,1.153h-3.961a12.514,12.514,0,0,0-7.2,1.813,6.2,6.2,0,0,0-2.641,5.457,7.31,7.31,0,0,0,2.544,5.836,9.3,9.3,0,0,0,6.3,2.2,7.42,7.42,0,0,0,4.943-1.813.819.819,0,0,1,1.351.625.827.827,0,0,0,.823.832h4.225a1.144,1.144,0,0,0,1.14-1.149V339.221Q431.264,334.533,428.544,332.368Zm-3.908,12.953a3.521,3.521,0,0,1-1.32,2.9,4.766,4.766,0,0,1-3.081,1.083,4.525,4.525,0,0,1-2.7-.687,2.267,2.267,0,0,1-.946-1.967q0-2.473,3.961-2.473h3.305a.819.819,0,0,1,.819.823Z" transform="translate(-409.91 -330.197)" fill="none"/></clipPath></defs><g transform="translate(16513.58 9645.744)"><g transform="translate(-16471.85 -9613.499)" clip-path="url(#a)"><rect width="0.092" height="9.96" transform="translate(-0.094 -0.153)" fill="#4c1028"/><rect height="9.96" transform="translate(-0.001 -0.153)" fill="#4c1028"/><rect width="0.106" height="9.96" transform="translate(-0.001 -0.153)" fill="#4c1028"/><rect width="0.106" height="9.96" transform="translate(0.104 -0.153)" fill="#4c1028"/><rect width="0.106" height="9.96" transform="translate(0.21 -0.153)" fill="#4c1028"/><rect width="0.106" height="9.96" transform="translate(0.316 -0.153)" fill="#4c1028"/><rect width="0.106" height="9.96" transform="translate(0.421 -0.153)" fill="#4c1028"/><rect width="0.106" height="9.96" transform="translate(0.527 -0.153)" fill="#4c1028"/><rect width="0.106" height="9.96" transform="translate(0.632 -0.153)" fill="#4d1028"/><rect width="0.106" height="9.96" transform="translate(0.738 -0.153)" fill="#4d1028"/><rect width="0.106" height="9.96" transform="translate(0.844 -0.153)" fill="#4d1028"/><rect width="0.106" height="9.96" transform="translate(0.949 -0.153)" fill="#4d1027"/><rect width="0.106" height="9.96" transform="translate(1.055 -0.153)" fill="#4e1027"/><rect width="0.106" height="9.96" transform="translate(1.161 -0.153)" fill="#4e1027"/><rect width="0.106" height="9.96" transform="translate(1.266 -0.153)" fill="#4e1027"/><rect width="0.106" height="9.96" transform="translate(1.372 -0.153)" fill="#4f1027"/><rect width="0.106" height="9.96" transform="translate(1.477 -0.153)" fill="#4f1027"/><rect width="0.106" height="9.96" transform="translate(1.583 -0.153)" fill="#501127"/><rect width="0.106" height="9.96" transform="translate(1.689 -0.153)" fill="#501126"/><rect width="0.106" height="9.96" transform="translate(1.794 -0.153)" fill="#511126"/><rect width="0.106" height="9.96" transform="translate(1.9 -0.153)" fill="#511126"/><rect width="0.106" height="9.96" transform="translate(2.006 -0.153)" fill="#521126"/><rect width="0.106" height="9.96" transform="translate(2.111 -0.153)" fill="#531125"/><rect width="0.106" height="9.96" transform="translate(2.217 -0.153)" fill="#531125"/><rect width="0.106" height="9.96" transform="translate(2.322 -0.153)" fill="#541125"/><rect width="0.106" height="9.96" transform="translate(2.428 -0.153)" fill="#551125"/><rect width="0.106" height="9.96" transform="translate(2.534 -0.153)" fill="#561124"/><rect width="0.106" height="9.96" transform="translate(2.639 -0.153)" fill="#571124"/><rect width="0.106" height="9.96" transform="translate(2.745 -0.153)" fill="#571224"/><rect width="0.106" height="9.96" transform="translate(2.851 -0.153)" fill="#581223"/><rect width="0.106" height="9.96" transform="translate(2.956 -0.153)" fill="#591223"/><rect width="0.106" height="9.96" transform="translate(3.062 -0.153)" fill="#5a1223"/><rect width="0.106" height="9.96" transform="translate(3.167 -0.153)" fill="#5b1222"/><rect width="0.106" height="9.96" transform="translate(3.273 -0.153)" fill="#5c1222"/><rect width="0.106" height="9.96" transform="translate(3.379 -0.153)" fill="#5d1221"/><rect width="0.106" height="9.96" transform="translate(3.484 -0.153)" fill="#5f1221"/><rect width="0.106" height="9.96" transform="translate(3.59 -0.153)" fill="#601320"/><rect width="0.106" height="9.96" transform="translate(3.696 -0.153)" fill="#611320"/><rect width="0.106" height="9.96" transform="translate(3.801 -0.153)" fill="#621320"/><rect width="0.106" height="9.96" transform="translate(3.907 -0.153)" fill="#63131f"/><rect width="0.106" height="9.96" transform="translate(4.012 -0.153)" fill="#65131f"/><rect width="0.106" height="9.96" transform="translate(4.118 -0.153)" fill="#66131e"/><rect width="0.106" height="9.96" transform="translate(4.224 -0.153)" fill="#67141e"/><rect width="0.106" height="9.96" transform="translate(4.329 -0.153)" fill="#69141d"/><rect width="0.106" height="9.96" transform="translate(4.435 -0.153)" fill="#6a141c"/><rect width="0.106" height="9.96" transform="translate(4.541 -0.153)" fill="#6c141c"/><rect width="0.106" height="9.96" transform="translate(4.646 -0.153)" fill="#6d141b"/><rect width="0.106" height="9.96" transform="translate(4.752 -0.153)" fill="#6f151b"/><rect width="0.106" height="9.96" transform="translate(4.858 -0.153)" fill="#70151a"/><rect width="0.106" height="9.96" transform="translate(4.963 -0.153)" fill="#721519"/><rect width="0.106" height="9.96" transform="translate(5.069 -0.153)" fill="#741519"/><rect width="0.106" height="9.96" transform="translate(5.174 -0.153)" fill="#751518"/><rect width="0.106" height="9.96" transform="translate(5.28 -0.153)" fill="#771618"/><rect width="0.106" height="9.96" transform="translate(5.386 -0.153)" fill="#791617"/><rect width="0.106" height="9.96" transform="translate(5.491 -0.153)" fill="#7a1616"/><rect width="0.106" height="9.96" transform="translate(5.597 -0.153)" fill="#7c1615"/><rect width="0.106" height="9.96" transform="translate(5.703 -0.153)" fill="#7e1715"/><rect width="0.106" height="9.96" transform="translate(5.808 -0.153)" fill="#801714"/><rect width="0.106" height="9.96" transform="translate(5.914 -0.153)" fill="#821713"/><rect width="0.106" height="9.96" transform="translate(6.019 -0.153)" fill="#841713"/><rect width="0.106" height="9.96" transform="translate(6.125 -0.153)" fill="#861812"/><rect width="0.106" height="9.96" transform="translate(6.231 -0.153)" fill="#881811"/><rect width="0.092" height="9.96" transform="translate(6.336 -0.153)" fill="#881811"/></g><g transform="translate(-16513.58 -9645.744)" clip-path="url(#b)"><rect width="0.295" height="104.254" transform="translate(-0.289 -0.717)" fill="#4c1028"/><rect height="104.254" transform="translate(0.006 -0.717)" fill="#4c1028"/><rect width="1.496" height="104.254" transform="translate(0.006 -0.717)" fill="#4c1028"/><rect width="1.496" height="104.254" transform="translate(1.502 -0.717)" fill="#4c1028"/><rect width="1.496" height="104.254" transform="translate(2.998 -0.717)" fill="#4c1028"/><rect width="1.496" height="104.254" transform="translate(4.495 -0.717)" fill="#4c1028"/><rect width="1.496" height="104.254" transform="translate(5.991 -0.717)" fill="#4c1028"/><rect width="1.496" height="104.254" transform="translate(7.488 -0.717)" fill="#4c1028"/><rect width="1.496" height="104.254" transform="translate(8.98 -0.717)" fill="#4d1028"/><rect width="1.496" height="104.254" transform="translate(10.476 -0.717)" fill="#4d1028"/><rect width="1.496" height="104.254" transform="translate(11.972 -0.717)" fill="#4d1028"/><rect width="1.496" height="104.254" transform="translate(13.469 -0.717)" fill="#4d1027"/><rect width="1.496" height="104.254" transform="translate(14.965 -0.717)" fill="#4e1027"/><rect width="1.496" height="104.254" transform="translate(16.461 -0.717)" fill="#4e1027"/><rect width="1.496" height="104.254" transform="translate(17.953 -0.717)" fill="#4e1027"/><rect width="1.496" height="104.254" transform="translate(19.45 -0.717)" fill="#4f1027"/><rect width="1.496" height="104.254" transform="translate(20.946 -0.717)" fill="#4f1027"/><rect width="1.496" height="104.254" transform="translate(22.443 -0.717)" fill="#501127"/><rect width="1.496" height="104.254" transform="translate(23.939 -0.717)" fill="#501126"/><rect width="1.496" height="104.254" transform="translate(25.435 -0.717)" fill="#511126"/><rect width="1.496" height="104.254" transform="translate(26.927 -0.717)" fill="#511126"/><rect width="1.496" height="104.254" transform="translate(28.424 -0.717)" fill="#521126"/><rect width="1.496" height="104.254" transform="translate(29.92 -0.717)" fill="#531125"/><rect width="1.496" height="104.254" transform="translate(31.417 -0.717)" fill="#531125"/><rect width="1.496" height="104.254" transform="translate(32.913 -0.717)" fill="#541125"/><rect width="1.496" height="104.254" transform="translate(34.409 -0.717)" fill="#551125"/><rect width="1.496" height="104.254" transform="translate(35.901 -0.717)" fill="#561124"/><rect width="1.496" height="104.254" transform="translate(37.398 -0.717)" fill="#571124"/><rect width="1.496" height="104.254" transform="translate(38.894 -0.717)" fill="#571224"/><rect width="1.496" height="104.254" transform="translate(40.39 -0.717)" fill="#581223"/><rect width="1.496" height="104.254" transform="translate(41.887 -0.717)" fill="#591223"/><rect width="1.496" height="104.254" transform="translate(43.383 -0.717)" fill="#5a1223"/><rect width="1.496" height="104.254" transform="translate(44.875 -0.717)" fill="#5b1222"/><rect width="1.496" height="104.254" transform="translate(46.372 -0.717)" fill="#5c1222"/><rect width="1.496" height="104.254" transform="translate(47.868 -0.717)" fill="#5d1221"/><rect width="1.496" height="104.254" transform="translate(49.364 -0.717)" fill="#5f1221"/><rect width="1.496" height="104.254" transform="translate(50.861 -0.717)" fill="#601320"/><rect width="1.496" height="104.254" transform="translate(52.357 -0.717)" fill="#611320"/><rect width="1.496" height="104.254" transform="translate(53.854 -0.717)" fill="#621320"/><rect width="1.496" height="104.254" transform="translate(55.346 -0.717)" fill="#63131f"/><rect width="1.496" height="104.254" transform="translate(56.842 -0.717)" fill="#65131f"/><rect width="1.496" height="104.254" transform="translate(58.338 -0.717)" fill="#66131e"/><rect width="1.496" height="104.254" transform="translate(59.835 -0.717)" fill="#67141e"/><rect width="1.496" height="104.254" transform="translate(61.331 -0.717)" fill="#69141d"/><rect width="1.496" height="104.254" transform="translate(62.828 -0.717)" fill="#6a141c"/><rect width="1.496" height="104.254" transform="translate(64.319 -0.717)" fill="#6c141c"/><rect width="1.496" height="104.254" transform="translate(65.816 -0.717)" fill="#6d141b"/><rect width="1.496" height="104.254" transform="translate(67.312 -0.717)" fill="#6f151b"/><rect width="1.496" height="104.254" transform="translate(68.809 -0.717)" fill="#70151a"/><rect width="1.496" height="104.254" transform="translate(70.305 -0.717)" fill="#721519"/><rect width="1.496" height="104.254" transform="translate(71.801 -0.717)" fill="#741519"/><rect width="1.496" height="104.254" transform="translate(73.293 -0.717)" fill="#751518"/><rect width="1.496" height="104.254" transform="translate(74.79 -0.717)" fill="#771618"/><rect width="1.496" height="104.254" transform="translate(76.286 -0.717)" fill="#791617"/><rect width="1.496" height="104.254" transform="translate(77.783 -0.717)" fill="#7a1616"/><rect width="1.496" height="104.254" transform="translate(79.279 -0.717)" fill="#7c1615"/><rect width="1.496" height="104.254" transform="translate(80.775 -0.717)" fill="#7e1715"/><rect width="1.496" height="104.254" transform="translate(82.267 -0.717)" fill="#801714"/><rect width="1.496" height="104.254" transform="translate(83.764 -0.717)" fill="#821713"/><rect width="1.496" height="104.254" transform="translate(85.26 -0.717)" fill="#841713"/><rect width="1.496" height="104.254" transform="translate(86.757 -0.717)" fill="#861812"/><rect width="1.496" height="104.254" transform="translate(88.253 -0.717)" fill="#881811"/><rect width="0.312" height="104.254" transform="translate(89.749 -0.717)" fill="#881811"/></g><g transform="translate(-16471.85 -9613.499)" clip-path="url(#a)"><path d="M283.55,107.61l1.034,1.034H283.55Z" transform="translate(-283.644 -98.837)" fill="#6c141c"/><path d="M283.55,101.84l3.574,3.574h-2.539l-1.034-1.034Z" transform="translate(-283.644 -95.606)" fill="#6d141b"/><path d="M283.55,96.06l5.589,5.589-.528.528h-1.488L283.55,98.6Z" transform="translate(-283.644 -92.37)" fill="#6e151b"/><path d="M283.55,90.751l.141-.141,6.386,6.382v.673l-.937.933-5.589-5.589Z" transform="translate(-283.644 -89.319)" fill="#6f151a"/><path d="M283.87,88.992l1.272-1.272,5.114,5.114v2.539Z" transform="translate(-283.823 -87.701)" fill="#71151a"/><path d="M286.76,87.5l.172-.172h2.2l2.742,2.742v2.544Z" transform="translate(-285.441 -87.483)" fill="#72151a"/><path d="M294.689,87.33l.2.2v2.539L292.15,87.33Z" transform="translate(-288.459 -87.483)" fill="#731519"/><path d="M298.122,87.532l-.2-.2h.2Z" transform="translate(-291.689 -87.483)" fill="#741519"/></g><g transform="translate(-16513.58 -9645.744)" clip-path="url(#b)"><path d="M188.29,174.04l33.277,33.281H188.29Z" transform="translate(-188.579 -103.785)" fill="#4c1028"/><path d="M188.29,174.04l33.277,33.281h0L188.29,174.04Z" transform="translate(-188.579 -103.785)" fill="#4c1028"/><path d="M188.29,168.27l35.821,35.821h-2.544L188.29,170.809Z" transform="translate(-188.579 -100.554)" fill="#4c1028"/><path d="M188.29,162.49l38.36,38.365h-2.539L188.29,165.034Z" transform="translate(-188.579 -97.318)" fill="#4d1028"/><path d="M188.29,156.72l40.9,40.9H226.65l-38.36-38.365Z" transform="translate(-188.579 -94.087)" fill="#4f1027"/><path d="M188.29,150.94l43.444,43.448h-2.539l-40.9-40.9Z" transform="translate(-188.579 -90.851)" fill="#501127"/><path d="M188.29,145.17l45.988,45.988h-2.544L188.29,147.709Z" transform="translate(-188.579 -87.621)" fill="#511126"/><path d="M188.29,139.4l48.527,48.527h-2.539L188.29,141.939Z" transform="translate(-188.579 -84.39)" fill="#521126"/><path d="M188.29,133.62l51.071,51.071h-2.544L188.29,136.164Z" transform="translate(-188.579 -81.154)" fill="#541125"/><path d="M188.29,127.85l53.61,53.61h-2.539L188.29,130.389Z" transform="translate(-188.579 -77.923)" fill="#551125"/><path d="M188.29,122.07l56.154,56.154H241.9l-53.61-53.61Z" transform="translate(-188.579 -74.687)" fill="#561124"/><path d="M188.29,116.3l58.619,58.619-.07.075h-2.394L188.29,118.839Z" transform="translate(-188.579 -71.457)" fill="#571224"/><path d="M188.29,110.52l59.891,59.891-1.272,1.272L188.29,113.064Z" transform="translate(-188.579 -68.221)" fill="#591223"/><path d="M188.29,104.75l61.163,61.163-1.272,1.268L188.29,107.289Z" transform="translate(-188.579 -64.99)" fill="#5a1223"/><path d="M188.29,98.97,250.725,161.4l-1.272,1.272L188.29,101.514Z" transform="translate(-188.579 -61.754)" fill="#5b1222"/><path d="M188.29,93.2l63.7,63.7-1.268,1.272L188.29,95.739Z" transform="translate(-188.579 -58.523)" fill="#5c1222"/><path d="M188.29,87.42l64.974,64.974-1.272,1.272-63.7-63.7Z" transform="translate(-188.579 -55.287)" fill="#5d1221"/><path d="M188.29,81.65,254.536,147.9l-1.272,1.268L188.29,84.189Z" transform="translate(-188.579 -52.057)" fill="#5f1221"/><path d="M188.29,75.87l67.518,67.518-1.272,1.272L188.29,78.414Z" transform="translate(-188.579 -48.821)" fill="#601320"/><path d="M188.29,70.1l68.785,68.785-1.268,1.272L188.29,72.639Z" transform="translate(-188.579 -45.59)" fill="#611320"/><path d="M188.29,64.32l70.057,70.057-1.272,1.272L188.29,66.864Z" transform="translate(-188.579 -42.354)" fill="#621320"/><path d="M188.29,58.55l71.329,71.329-1.272,1.268L188.29,61.089Z" transform="translate(-188.579 -39.123)" fill="#63131f"/><path d="M188.29,52.77l72.6,72.6-1.272,1.272L188.29,55.314Z" transform="translate(-188.579 -35.887)" fill="#64131f"/><path d="M188.29,47l73.869,73.869-1.268,1.272-72.6-72.6Z" transform="translate(-188.579 -32.657)" fill="#66131e"/><path d="M188.29,41.22l75.141,75.145-1.272,1.268L188.29,43.764Z" transform="translate(-188.579 -29.421)" fill="#67141e"/><path d="M188.29,35.45,264.7,111.863l-1.272,1.272L188.29,37.989Z" transform="translate(-188.579 -26.19)" fill="#68141d"/><path d="M188.29,29.68l77.685,77.68-1.272,1.272L188.29,32.219Z" transform="translate(-188.579 -22.959)" fill="#69141d"/><path d="M188.29,26.737l.867-.867,78.085,78.085-1.268,1.272L188.29,27.547Z" transform="translate(-188.579 -20.826)" fill="#6a141c"/><rect width="1.796" height="110.429" transform="translate(0.576 5.044) rotate(-45)" fill="#6b141c"/><rect width="1.796" height="110.429" transform="translate(1.851 3.776) rotate(-45)" fill="#6c141c"/><rect width="1.796" height="110.429" transform="translate(3.123 2.501) rotate(-45)" fill="#6d141b"/><rect width="1.796" height="110.429" transform="translate(4.391 1.231) rotate(-45)" fill="#6e151b"/><path d="M201.81,13.458l.682-.678h1.18l77.5,77.5L279.9,91.543Z" transform="translate(-196.149 -13.497)" fill="#6f151a"/><path d="M208.579,12.78,284.807,89l-1.272,1.272-77.5-77.5Z" transform="translate(-198.517 -13.497)" fill="#71151a"/><path d="M214.354,12.78l74.951,74.951L288.038,89,211.81,12.78Z" transform="translate(-201.748 -13.497)" fill="#72151a"/><path d="M220.129,12.78l73.684,73.679-1.272,1.272L217.59,12.78Z" transform="translate(-204.984 -13.497)" fill="#731519"/><path d="M225.9,12.78l72.368,72.368v.084l-1.228,1.228L223.36,12.78Z" transform="translate(-208.214 -13.497)" fill="#741519"/><path d="M231.679,12.78l69.828,69.828v2.539L229.14,12.78Z" transform="translate(-211.451 -13.497)" fill="#751518"/><path d="M237.454,12.78l67.285,67.285v2.544L234.91,12.78Z" transform="translate(-214.681 -13.497)" fill="#761618"/><path d="M243.229,12.78l64.745,64.745v2.539L240.69,12.78Z" transform="translate(-217.917 -13.497)" fill="#771618"/><path d="M249,12.78l62.2,62.2v2.544L246.46,12.78Z" transform="translate(-221.148 -13.497)" fill="#781617"/><path d="M254.779,12.78l59.662,59.662v2.539l-62.2-62.2Z" transform="translate(-224.384 -13.497)" fill="#791617"/><path d="M260.554,12.78,317.672,69.9v2.544L258.01,12.78Z" transform="translate(-227.615 -13.497)" fill="#7a1617"/><path d="M266.329,12.78l54.579,54.579V69.9L263.79,12.78Z" transform="translate(-230.851 -13.497)" fill="#7b1616"/><path d="M272.1,12.78l52.035,52.035v2.544L269.56,12.78Z" transform="translate(-234.081 -13.497)" fill="#7b1616"/><path d="M277.879,12.78l49.5,49.5v2.539L275.34,12.78Z" transform="translate(-237.317 -13.497)" fill="#7c1615"/><path d="M283.654,12.78l46.951,46.951v2.544l-49.5-49.5Z" transform="translate(-240.548 -13.497)" fill="#7d1715"/><path d="M289.429,12.78l44.412,44.412v2.539L286.89,12.78Z" transform="translate(-243.784 -13.497)" fill="#7e1715"/><path d="M295.2,12.78l41.868,41.868v2.544L292.66,12.78Z" transform="translate(-247.015 -13.497)" fill="#7f1714"/><path d="M300.979,12.78l39.329,39.329v2.539L298.44,12.78Z" transform="translate(-250.251 -13.497)" fill="#801714"/><path d="M306.754,12.78l36.785,36.785v2.544L304.21,12.78Z" transform="translate(-253.481 -13.497)" fill="#811714"/><path d="M312.529,12.78l34.245,34.245v2.539L309.99,12.78Z" transform="translate(-256.717 -13.497)" fill="#821713"/><path d="M318.3,12.78l31.7,31.7v2.544L315.76,12.78Z" transform="translate(-259.948 -13.497)" fill="#821713"/><path d="M324.079,12.78l29.162,29.162v2.539l-31.7-31.7Z" transform="translate(-263.184 -13.497)" fill="#831713"/><path d="M329.849,12.78,356.472,39.4v2.539L327.31,12.78Z" transform="translate(-266.415 -13.497)" fill="#841713"/><path d="M335.624,12.78,359.7,36.859V39.4L333.08,12.78Z" transform="translate(-269.645 -13.497)" fill="#851812"/><path d="M341.4,12.78l21.539,21.539v2.539L338.86,12.78Z" transform="translate(-272.881 -13.497)" fill="#851812"/><path d="M347.174,12.78l19,19v2.544L344.63,12.78Z" transform="translate(-276.112 -13.497)" fill="#861812"/><path d="M352.949,12.78l16.456,16.456v2.539l-19-19Z" transform="translate(-279.348 -13.497)" fill="#871812"/><path d="M358.724,12.78l13.912,13.912v2.544L356.18,12.78Z" transform="translate(-282.579 -13.497)" fill="#871811"/><path d="M364.5,12.78l11.373,11.373v2.539L361.96,12.78Z" transform="translate(-285.815 -13.497)" fill="#881811"/><path d="M370.274,12.78l8.829,8.829v2.544L367.73,12.78Z" transform="translate(-289.045 -13.497)" fill="#881811"/><path d="M382.339,21.609,373.51,12.78h8.829Z" transform="translate(-292.281 -13.497)" fill="#881811"/></g><path d="M207.7,306.423v-2.6a1.422,1.422,0,0,0-1.417-1.426H199.6a5.427,5.427,0,0,0-5.409,5.449h0v7.1a.823.823,0,0,1-.819.823h-1.32a1.422,1.422,0,0,0-1.417,1.426v2.6a1.422,1.422,0,0,0,1.417,1.426h1.32a.823.823,0,0,1,.819.823v15.7a1.426,1.426,0,0,0,1.417,1.43h3.75a1.426,1.426,0,0,0,1.417-1.43V322.029a.823.823,0,0,1,.819-.823h3.521a1.422,1.422,0,0,0,1.413-1.426v-2.592a1.422,1.422,0,0,0-1.413-1.426h-3.521a.823.823,0,0,1-.819-.823v-5.673a1.422,1.422,0,0,1,1.413-1.426h4.106A1.422,1.422,0,0,0,207.7,306.423Z" transform="translate(-16515.625 -9907.741)" fill="#4c1028"/><path d="M26.758,355.716H22a1.435,1.435,0,0,1-1.351-.977L13.6,333.829a1.439,1.439,0,0,1,1.351-1.9h3.754a1.43,1.43,0,0,1,1.36.995L23.589,343.9a.805.805,0,0,0,1.536,0l3.521-10.976a1.426,1.426,0,0,1,1.373-1.012H34.3a1.426,1.426,0,0,1,1.36.995l3.521,10.976a.81.81,0,0,0,1.54,0L44.244,332.9a1.426,1.426,0,0,1,1.36-.995h3.781a1.435,1.435,0,0,1,1.351,1.9l-7.073,20.91a1.435,1.435,0,0,1-1.32.995h-4.81a1.426,1.426,0,0,1-1.351-1l-3.257-9.7a.805.805,0,0,0-1.527,0L28.1,354.725A1.422,1.422,0,0,1,26.758,355.716Z" transform="translate(-16416.467 -9924.263)" fill="#4c1028"/><path d="M252.634,355.738h-4.758a1.435,1.435,0,0,1-1.351-.977l-7.042-20.91a1.439,1.439,0,0,1,1.351-1.9h3.772a1.426,1.426,0,0,1,1.356.995l3.521,10.976a.805.805,0,0,0,1.536,0l3.521-10.976a1.426,1.426,0,0,1,1.356-.995h4.287a1.422,1.422,0,0,1,1.356.995l3.521,10.976a.805.805,0,0,0,1.536,0l3.521-10.976a1.426,1.426,0,0,1,1.356-.995h3.816a1.439,1.439,0,0,1,1.351,1.9l-7.042,20.91a1.435,1.435,0,0,1-1.351.977h-4.81a1.426,1.426,0,0,1-1.351-.981l-3.257-9.7a.805.805,0,0,0-1.527,0l-3.292,9.713A1.426,1.426,0,0,1,252.634,355.738Z" transform="translate(-16542.934 -9924.286)" fill="#4c1028"/><path d="M127.828,342.492a11.822,11.822,0,0,1-3.556,8.71,13.079,13.079,0,0,1-17.855,0,12.473,12.473,0,0,1,0-17.442,12.973,12.973,0,0,1,17.855,0A11.883,11.883,0,0,1,127.828,342.492Zm-18.344,0a6.857,6.857,0,0,0,1.646,4.753,5.752,5.752,0,0,0,8.424,0,6.835,6.835,0,0,0,1.646-4.753,6.914,6.914,0,0,0-1.646-4.775,5.721,5.721,0,0,0-8.424,0,6.936,6.936,0,0,0-1.646,4.775Z" transform="translate(-16466.484 -9923.307)" fill="#4c1028"/><path d="M172.827,339.188h-3.75a1.426,1.426,0,0,1-1.417-1.43V303.82a1.426,1.426,0,0,1,1.417-1.43h3.75a1.426,1.426,0,0,1,1.413,1.43v33.92a1.426,1.426,0,0,1-1.413,1.448Z" transform="translate(-16502.764 -9907.736)" fill="#4c1028"/><path d="M334.319,302.956l-2.047,2.491a1.681,1.681,0,0,0-.224,1.672l1.994,4.841a1.448,1.448,0,0,0,2.733,0l1.989-4.841a1.7,1.7,0,0,0-.22-1.672l-2.051-2.491a1.355,1.355,0,0,0-2.174,0Z" transform="translate(-16594.73 -9907.747)" fill="#4c1028"/><path d="M337.527,355.716h-3.75a1.426,1.426,0,0,1-1.417-1.43V333.336a1.422,1.422,0,0,1,1.417-1.426h3.75a1.422,1.422,0,0,1,1.417,1.426v20.932a1.426,1.426,0,0,1-1.417,1.448Z" transform="translate(-16594.977 -9924.263)" fill="#4c1028"/><path d="M356.176,335.957v-2.641a1.422,1.422,0,0,1,1.413-1.426H373.8a1.421,1.421,0,0,1,1.413,1.426v3.208a1.422,1.422,0,0,1-.352.942l-9.9,11.311a.827.827,0,0,0,.612,1.373h8.882a1.422,1.422,0,0,1,1.417,1.426v2.672a1.426,1.426,0,0,1-1.417,1.43h-17.7a1.426,1.426,0,0,1-1.417-1.43v-3.521a1.443,1.443,0,0,1,.352-.942l9.621-11.034a.827.827,0,0,0-.616-1.369h-7.108A1.422,1.422,0,0,1,356.176,335.957Z" transform="translate(-16607.842 -9924.253)" fill="#4c1028"/><path d="M523.874,339.194a9.943,9.943,0,0,1-7.482-3.583,12.638,12.638,0,0,1-3.292-8.886,12.115,12.115,0,0,1,3.2-8.688,10.018,10.018,0,0,1,7.482-3.384,9.093,9.093,0,0,1,5.7,1.822.819.819,0,0,0,1.32-.647V303.346a.942.942,0,0,1,.937-.946h4.7a.942.942,0,0,1,.937.946v34.527a.942.942,0,0,1-.937.946H531.6a.827.827,0,0,1-.823-.832v-.26a.819.819,0,0,0-1.364-.612,8.261,8.261,0,0,1-5.541,2.077Zm-4.15-12.2a6.637,6.637,0,0,0,1.712,4.709,5.312,5.312,0,0,0,4,1.835,4.977,4.977,0,0,0,3.882-1.835,6.945,6.945,0,0,0,1.6-4.731,7.284,7.284,0,0,0-1.6-4.819,4.934,4.934,0,0,0-3.926-1.923,5.092,5.092,0,0,0-4,1.945,7.165,7.165,0,0,0-1.668,4.8Z" transform="translate(-16696.172 -9907.741)" fill="#4c1028"/><path d="M474.627,338.285l4.141.788a1.426,1.426,0,0,0,1.624-1.8l-1.109-3.869a1.421,1.421,0,0,0-1.1-1.008l-11.667-2.165a1.422,1.422,0,0,0-1.62,1.791l5.334,19.092a9.141,9.141,0,0,0-9.212,8.257,9.242,9.242,0,0,0,7.922,10.043,9.141,9.141,0,0,0,10.255-8.3,9.242,9.242,0,0,0-.44-3.781L473.7,339.319a.819.819,0,0,1,.929-1.034Z" transform="translate(-16666.984 -9923.312)" fill="#4c1028"/><path d="M428.544,332.368a10.957,10.957,0,0,0-7.02-2.17,17.6,17.6,0,0,0-9.625,2.724,1.166,1.166,0,0,0-.339,1.637l1.646,2.4a1.127,1.127,0,0,0,1.527.326,13.062,13.062,0,0,1,2.337-1.091,10.694,10.694,0,0,1,3.618-.687c2.275,0,3.569.933,3.9,2.782.031.321.022,1.144-.88,1.153h-3.961a12.514,12.514,0,0,0-7.2,1.813,6.2,6.2,0,0,0-2.641,5.457,7.31,7.31,0,0,0,2.544,5.836,9.3,9.3,0,0,0,6.3,2.2,7.42,7.42,0,0,0,4.943-1.813.819.819,0,0,1,1.351.625.827.827,0,0,0,.823.832h4.225a1.144,1.144,0,0,0,1.14-1.149V339.221Q431.264,334.533,428.544,332.368Zm-3.908,12.953a3.521,3.521,0,0,1-1.32,2.9,4.766,4.766,0,0,1-3.081,1.083,4.525,4.525,0,0,1-2.7-.687,2.267,2.267,0,0,1-.946-1.967q0-2.473,3.961-2.473h3.305a.819.819,0,0,1,.819.823Z" transform="translate(-16638.395 -9923.305)" fill="#4c1028"/><g transform="translate(-16324.994 -9605.341)" clip-path="url(#e)"><rect width="3.446" height="36.776" transform="translate(-0.009 0)" fill="#581223"/><rect width="4.071" height="36.776" transform="translate(3.437 0)" fill="#591223"/><rect width="4.071" height="36.776" transform="translate(7.508 0)" fill="#5a1223"/><rect width="4.071" height="36.776" transform="translate(11.575 0)" fill="#5b1222"/><rect width="1.417" height="36.776" transform="translate(15.646 0)" fill="#5c1222"/></g><g transform="translate(-16402.939 -9592.353)" clip-path="url(#f)"><rect width="0.238" height="23.788" transform="translate(-0.254 0)" fill="#4c1028"/><rect height="23.788" transform="translate(-0.016 0)" fill="#4c1028"/><rect width="4.071" height="23.788" transform="translate(-0.016 0)" fill="#4c1028"/><rect width="4.071" height="23.788" transform="translate(4.055 0)" fill="#4c1028"/><rect width="4.071" height="23.788" transform="translate(8.122 0)" fill="#4d1028"/><rect width="4.071" height="23.788" transform="translate(12.193 0)" fill="#4d1028"/><rect width="4.071" height="23.788" transform="translate(16.264 0)" fill="#4d1027"/><rect width="4.071" height="23.788" transform="translate(20.335 0)" fill="#4e1027"/><rect width="4.071" height="23.788" transform="translate(24.401 0)" fill="#4f1027"/><rect width="4.071" height="23.788" transform="translate(28.472 0)" fill="#4f1027"/><rect width="4.071" height="23.788" transform="translate(32.543 0)" fill="#501027"/><rect width="0.915" height="23.788" transform="translate(36.615 0)" fill="#501126"/></g><g transform="translate(-16303.527 -9592.336)" clip-path="url(#g)"><rect width="2.575" height="23.788" transform="translate(-0.254 -0.018)" fill="#5d1221"/><rect width="4.071" height="23.788" transform="translate(2.321 -0.018)" fill="#5e1221"/><rect width="4.071" height="23.788" transform="translate(6.387 -0.018)" fill="#5f1321"/><rect width="4.071" height="23.788" transform="translate(10.459 -0.018)" fill="#601320"/><rect width="4.071" height="23.788" transform="translate(14.53 -0.018)" fill="#611320"/><rect width="4.071" height="23.788" transform="translate(18.601 -0.018)" fill="#62131f"/><rect width="4.071" height="23.788" transform="translate(22.667 -0.018)" fill="#63131f"/><rect width="4.071" height="23.788" transform="translate(26.738 -0.018)" fill="#65131f"/><rect width="4.071" height="23.788" transform="translate(30.809 -0.018)" fill="#66131e"/><rect width="2.645" height="23.788" transform="translate(34.88 -0.018)" fill="#67141e"/></g><g transform="translate(-16363.622 -9593.106)" clip-path="url(#h)"><rect width="2.883" height="13.221" transform="translate(6.623 5.66)" fill="#521126"/><rect width="4.071" height="13.221" transform="translate(9.506 5.66)" fill="#531125"/><rect width="4.071" height="13.221" transform="translate(13.577 5.66)" fill="#531125"/><rect width="0.695" height="13.221" transform="translate(17.644 5.66)" fill="#541125"/><rect width="1.369" height="24.536" transform="translate(-0.001 0)" fill="#501126"/><rect width="4.071" height="24.536" transform="translate(1.364 0)" fill="#511126"/><rect width="4.071" height="24.536" transform="translate(5.435 0)" fill="#521126"/><rect width="4.071" height="24.536" transform="translate(9.506 0)" fill="#531125"/><rect width="4.071" height="24.536" transform="translate(13.577 0)" fill="#531125"/><rect width="4.071" height="24.536" transform="translate(17.644 0)" fill="#541125"/><rect width="3.248" height="24.536" transform="translate(21.715 0)" fill="#551125"/></g><g transform="translate(-16335.104 -9605.346)" clip-path="url(#i)"><rect width="1.338" height="36.776" transform="translate(0 0)" fill="#561124"/><rect width="4.071" height="36.776" transform="translate(1.338 0)" fill="#571124"/><rect width="1.175" height="36.776" transform="translate(5.405 0)" fill="#581224"/></g><g transform="translate(-16262.81 -9605.337)" clip-path="url(#j)"><rect width="2.407" height="11.02" transform="translate(-0.101 -0.18)" fill="#68141d"/><rect width="4.071" height="11.02" transform="translate(2.302 -0.18)" fill="#69141d"/><rect width="0.7" height="11.02" transform="translate(6.373 -0.18)" fill="#6a141c"/></g><g transform="translate(-16262.617 -9592.353)" clip-path="url(#k)"><rect width="2.108" height="23.788" transform="translate(0 0)" fill="#68141d"/><rect width="4.071" height="23.788" transform="translate(2.108 0)" fill="#69141d"/><rect width="0.405" height="23.788" transform="translate(6.179 0)" fill="#6a141c"/></g><g transform="translate(-16252.503 -9592.362)" clip-path="url(#l)"><rect width="0.136" height="23.788" transform="translate(0 0.009)" fill="#6a141c"/><rect width="4.071" height="23.788" transform="translate(0.136 0.009)" fill="#6b141c"/><rect width="4.071" height="23.788" transform="translate(4.208 0.009)" fill="#6d141c"/><rect width="4.071" height="23.788" transform="translate(8.274 0.009)" fill="#6e151b"/><rect width="4.071" height="23.788" transform="translate(12.345 0.009)" fill="#6f151b"/><rect width="4.071" height="23.788" transform="translate(16.416 0.009)" fill="#70151a"/><rect width="0.048" height="23.788" transform="translate(20.487 0.009)" fill="#71151a"/></g><g transform="translate(-16183.07 -9605.341)" clip-path="url(#m)"><rect width="1.408" height="13.309" transform="translate(6.624 17.807)" fill="#821713"/><rect width="4.071" height="13.309" transform="translate(8.032 17.807)" fill="#841713"/><rect width="4.071" height="13.309" transform="translate(12.103 17.807)" fill="#851812"/><rect width="1.642" height="13.309" transform="translate(16.174 17.807)" fill="#871812"/><rect width="3.961" height="36.776" transform="translate(0 0)" fill="#811714"/><rect width="4.071" height="36.776" transform="translate(3.961 0)" fill="#821713"/><rect width="4.071" height="36.776" transform="translate(8.032 0)" fill="#841713"/><rect width="4.071" height="36.776" transform="translate(12.103 0)" fill="#851812"/><rect width="4.071" height="36.776" transform="translate(16.174 0)" fill="#871812"/><rect width="4.071" height="36.776" transform="translate(20.241 0)" fill="#881811"/></g><g transform="translate(-16206.013 -9593.102)" clip-path="url(#n)"><rect width="2.927" height="40.042" transform="translate(-0.445 -0.171)" fill="#791617"/><rect width="4.071" height="40.042" transform="translate(2.486 -0.171)" fill="#7a1616"/><rect width="4.071" height="40.042" transform="translate(6.557 -0.171)" fill="#7c1616"/><rect width="4.071" height="40.042" transform="translate(10.624 -0.171)" fill="#7d1715"/><rect width="4.071" height="40.042" transform="translate(14.695 -0.171)" fill="#7e1715"/><rect width="0.933" height="40.042" transform="translate(18.766 -0.171)" fill="#801714"/></g><g transform="translate(-16228.486 -9593.107)" clip-path="url(#o)"><rect width="2.025" height="5.127" transform="translate(6.655 13.975)" fill="#741519"/><rect width="4.071" height="5.127" transform="translate(8.679 13.975)" fill="#751518"/><rect width="1.981" height="5.127" transform="translate(12.75 13.975)" fill="#761618"/><rect width="0.511" height="24.536" transform="translate(0.031 0.001)" fill="#71151a"/><rect width="4.071" height="24.536" transform="translate(0.537 0.001)" fill="#731519"/><rect width="4.071" height="24.536" transform="translate(4.608 0.001)" fill="#741519"/><rect width="4.071" height="24.536" transform="translate(8.679 0.001)" fill="#751518"/><rect width="4.071" height="24.536" transform="translate(12.75 0.001)" fill="#761618"/><rect width="4.071" height="24.536" transform="translate(16.817 0.001)" fill="#781617"/><rect width="0.467" height="24.536" transform="translate(20.888 0.001)" fill="#791617"/></g><path d="M365.454,242.489H364.38V242h2.746v.511h-1.074v2.751h-.6Z" transform="translate(-16540.285 -9847.517)" fill="#4c1028"/><path d="M374.636,245.239v-2.161l-1.061,1.787h-.268l-1.061-1.76v2.135h-.577V242h.5l1.285,2.161L374.716,242h.5v3.261Z" transform="translate(-16544.365 -9847.517)" fill="#4c1028"/></g></svg>