<svg width="822" height="257" viewBox="0 0 822 257" fill="none" xmlns="http://www.w3.org/2000/svg">
<path d="M0.859863 54.825V83.538L170.535 204.878L268.557 217.536L619.95 255.828L668.675 244.4V207.657L723.895 141.38L726.954 134.586L739.182 130.056L742.618 117.086L720.45 104.942L722.357 101.031L740.319 103.504L757.519 97.432L774.999 102.215L788.757 98.515L815.986 96.973L820.286 91.873L811.11 87.552L807.96 74.582L796.109 73.86L789.23 77.569L774.138 74.069L784.648 61.821L773.848 40.156L778.722 33.362L785.022 31.201L781.872 22.246L770.692 26.105L755.792 24.405L752.356 25.179L741.605 25.641L691.448 36.913L683.281 34.674L678.693 34.908L666.373 37.915L654.047 33.515L651.177 23.942L623.186 2.023L613.248 0.578003L595.293 2.641L586.26 8.121L574.227 9.121L565.91 13.214L567.778 24.173L562.617 33.05L556.884 34.514L551.294 47.484L542.768 51.727L521.058 49.332L519.984 42.932L504.584 46.238L506.445 55.902L526.008 58.987L519.435 67.682L497.653 74.476L486.381 71.183L474.153 63.465L464.453 66.628L478.65 80.991L429.496 94.573L376.326 92.796L345.37 86.011L312.98 87.241L276.58 78.748L269.701 84.774L264.54 83.074L205.786 83.998L196.903 79.364L182.003 81.993L181.235 87.037L127.258 100.365L81.9689 99.05L73.9449 100.827L67.9249 98.354L54.0249 96.506L47.8679 90.714L50.0159 86.158L45.2849 81.297L44.2849 78.44L48.1499 69.871L43.4189 67.021L34.4839 68.101L27.8909 66.301L20.4419 69.491L12.5159 64.491L11.8159 55.36L0.859863 54.825Z" fill="white" stroke="white"/>
</svg>
