<svg width="133" height="94" viewBox="0 0 133 94" fill="none" xmlns="http://www.w3.org/2000/svg">
<path d="M125.892 25.7201L132.192 22.3621L130.402 18.3081L124.024 17.4621L116.885 21.7621L113.208 21.3521L112.395 18.1521L108.529 17.3841L105.129 19.7271L112.392 24.4841L106.711 27.9071L94.476 27.4451L72.576 12.9841L55.883 9.4311L45.438 1.6671L43.199 1.3671L33.521 3.5201L27.026 11.0301L40.026 13.5031L48.909 11.0301L59.709 18.8531L51.873 25.3411L47.194 23.2781L35.154 23.0241L13.945 20.3491L2.00299 29.4281L11.889 30.3521L30.808 28.2691L35.682 29.6621L41.416 35.9881L61.33 43.088L60.33 45.561L62.341 52.895L70.652 56.214V57.914L61.333 61.851L64.919 64.09L72.585 91.911L74.804 91.411L89.704 93.111L101.004 89.577L97.737 76.49L103.275 69.904L104.707 65.479L121.999 61.106L121.335 52.717L124.745 44.79L122.096 39.7401L128.402 31.7481L125.892 25.7201Z" fill="white" stroke="white"/>
</svg>
